<?xml version="1.0" encoding="utf-8"?>
<!-- Generator: Adobe Illustrator 27.2.0, SVG Export Plug-In . SVG Version: 6.00 Build 0)  -->
<svg version="1.1" xmlns="http://www.w3.org/2000/svg" xmlns:xlink="http://www.w3.org/1999/xlink" x="0px" y="0px"
	 viewBox="0 0 500 500" style="enable-background:new 0 0 500 500;" xml:space="preserve">
<g id="Floor">
</g>
<g id="Shadows">
</g>
<g id="Plants">
</g>
<g id="Device">
</g>
<g id="Screen">
</g>
<g id="Icons">
</g>
<g id="Character">
	<g>
		<g id="Gears">
			<g id="XMLID_2139_">
				<path id="XMLID_2436_" style="fill:#BA68C8;" d="M352.36,71.04l4.45,5.33c0,0.7,0.47,1.6,1.04,2l11.96,5.05
					c0.57,0.4,1,1.3,0.98,2c-0.08,2.7,0.11,6.5,0.94,9.4c0.19,0.68-0.03,1.58-0.56,2.04l-3.45,2.97c-0.53,0.46-0.68,1.32-0.33,1.93
					l7.49,12.98c0.35,0.61,1.17,0.91,1.84,0.68l4.02-1.41c0.66-0.23,1.55,0.03,2.03,0.54c2.06,2.23,5,4.33,7.92,5.55
					c0.65,0.27,1.24,1.02,1.3,1.72l-1.63,12.85c0.06,0.7,0.61,1.55,1.22,1.9l6.02,8.84l7.66-4.4l0,0c0.21-0.12,0.36-0.36,0.39-0.69
					l0.99-9.9c0.07-0.7,0.67-1.11,1.36-0.96c1.71,0.38,3.35,0.54,4.91,0.5c0.7-0.02,1.58,0.39,1.97,0.98l4.88,12.84
					c0.39,0.58,1.2,0.77,1.81,0.42l9.21-5.29c0.61-0.35,0.85-1.15,0.54-1.78l-6.05-12.19c-0.31-0.63-0.23-1.6,0.14-2.2
					c0.33-0.55,0.64-1.13,0.93-1.73l4.8,5.03l7.67-4.4l0,0c0.22-0.13,0.36-0.39,0.36-0.76v-11.77c0-0.7-0.47-1.6-1.04-2l-9.31-6.55
					c-0.57-0.4-1.15-1.29-1.3-1.98c-0.59-2.63-1.39-5.28-2.36-7.9c-0.24-0.66-0.02-1.56,0.51-2.02l5.25-4.52
					c0.53-0.46,0.68-1.32,0.33-1.93l-7.49-12.98c-0.35-0.61-1.17-0.91-1.84-0.68l-6.54,2.28c-0.66,0.23-1.55-0.03-2-0.57
					c-1.78-2.15-3.68-4.17-5.66-5.99c-0.52-0.48-1-1.42-1.06-2.12l-1.02-11.34c-0.06-0.7-0.61-1.55-1.22-1.9l-10.19-5.88
					c-0.31-0.18-0.6-0.19-0.82-0.07v0l-7.69,4.41l2.65,6.78c-0.9-0.1-1.78-0.15-2.63-0.12c-0.7,0.02-1.58-0.39-1.97-0.98
					l-7.53-11.33c-0.39-0.58-1.2-0.77-1.81-0.42l-9.21,5.29c-0.61,0.35-0.85,1.15-0.54,1.78l6.05,12.19c0.31,0.63,0.23,1.6-0.14,2.2
					c-0.81,1.33,1.16,1.32,0.63,2.99c-0.21,0.67-0.87,0.99-1.51,0.7l-9.07-4.09c-0.31-0.14-0.58-0.13-0.79-0.01l0,0l-7.67,4.4
					L352.36,71.04z M379.44,83.56c0-10.98,5.76-14.97,15.27-9.48c9.51,5.49,17.37,18.94,17.37,29.92c0,10.98-5.91,14.87-15.42,9.38
					C387.15,107.89,379.44,94.54,379.44,83.56z"/>
				<path id="XMLID_2429_" style="opacity:0.3;fill:#FFFFFF;" d="M352.36,71.04l4.45,5.33c0,0.7,0.47,1.6,1.04,2l11.96,5.05
					c0.57,0.4,1,1.3,0.98,2c-0.08,2.7,0.11,6.5,0.94,9.4c0.19,0.68-0.03,1.58-0.56,2.04l-3.45,2.97c-0.53,0.46-0.68,1.32-0.33,1.93
					l7.49,12.98c0.35,0.61,1.17,0.91,1.84,0.68l4.02-1.41c0.66-0.23,1.55,0.03,2.03,0.54c2.06,2.23,5,4.33,7.92,5.55
					c0.65,0.27,1.24,1.02,1.3,1.72l-1.63,12.85c0.06,0.7,0.61,1.55,1.22,1.9l6.02,8.84l7.66-4.4l0,0c0.21-0.12,0.36-0.36,0.39-0.69
					l0.99-9.9c0.07-0.7,0.67-1.11,1.36-0.96c1.71,0.38,3.35,0.54,4.91,0.5c0.7-0.02,1.58,0.39,1.97,0.98l4.88,12.84
					c0.39,0.58,1.2,0.77,1.81,0.42l9.21-5.29c0.61-0.35,0.85-1.15,0.54-1.78l-6.05-12.19c-0.31-0.63-0.23-1.6,0.14-2.2
					c0.33-0.55,0.64-1.13,0.93-1.73l4.8,5.03l7.67-4.4l0,0c0.22-0.13,0.36-0.39,0.36-0.76v-11.77c0-0.7-0.47-1.6-1.04-2l-9.31-6.55
					c-0.57-0.4-1.15-1.29-1.3-1.98c-0.59-2.63-1.39-5.28-2.36-7.9c-0.24-0.66-0.02-1.56,0.51-2.02l5.25-4.52
					c0.53-0.46,0.68-1.32,0.33-1.93l-7.49-12.98c-0.35-0.61-1.17-0.91-1.84-0.68l-6.54,2.28c-0.66,0.23-1.55-0.03-2-0.57
					c-1.78-2.15-3.68-4.17-5.66-5.99c-0.52-0.48-1-1.42-1.06-2.12l-1.02-11.34c-0.06-0.7-0.61-1.55-1.22-1.9l-10.19-5.88
					c-0.31-0.18-0.6-0.19-0.82-0.07v0l-7.69,4.41l2.65,6.78c-0.9-0.1-1.78-0.15-2.63-0.12c-0.7,0.02-1.58-0.39-1.97-0.98
					l-7.53-11.33c-0.39-0.58-1.2-0.77-1.81-0.42l-9.21,5.29c-0.61,0.35-0.85,1.15-0.54,1.78l6.05,12.19c0.31,0.63,0.23,1.6-0.14,2.2
					c-0.81,1.33,1.16,1.32,0.63,2.99c-0.21,0.67-0.87,0.99-1.51,0.7l-9.07-4.09c-0.31-0.14-0.58-0.13-0.79-0.01l0,0l-7.67,4.4
					L352.36,71.04z M379.44,83.56c0-10.98,5.76-14.97,15.27-9.48c9.51,5.49,17.37,18.94,17.37,29.92c0,10.98-5.91,14.87-15.42,9.38
					C387.15,107.89,379.44,94.54,379.44,83.56z"/>
				<path style="opacity:0.1;" d="M396.01,128.19l14.85-6.22l12.66-6.53l5.35,9.55l-2.56-3.97c-0.29,0.6-0.59,1.19-0.93,1.73
					c-0.37,0.6-0.45,1.57-0.14,2.2l6.05,12.19c0.31,0.63,0.07,1.42-0.54,1.78l-9.21,5.29c-0.61,0.35-1.42,0.16-1.81-0.42
					l-4.88-12.84c-0.39-0.58-1.27-1-1.97-0.98c-1.56,0.04-3.2-0.12-4.91-0.5c-0.69-0.15-1.29,0.26-1.36,0.96l-0.99,9.9
					c-0.03,0.34-0.18,0.58-0.39,0.69l0,0l-7.66,4.4l-2.84-4.18L396.01,128.19z"/>
				<path style="opacity:0.1;" d="M372.32,92.18V72.49l8.32-7.04l3.93,6.65c-3.29,1.31-5.12,5.27-5.12,11.46
					c0,10.98,7.71,24.33,17.22,29.82c5.57,3.22,9.9,3.19,12.53,0.42l2.85,4.82c0,0-13.97,4.32-20.39,1.63
					C385.23,117.56,372.32,92.18,372.32,92.18z"/>
				<g id="XMLID_2224_">
					<path id="XMLID_2415_" style="fill:#BA68C8;" d="M366.66,52.4l-2-4.03c-0.31-0.63-0.07-1.42,0.54-1.78l9.21-5.29
						c0.61-0.35,1.42-0.16,1.81,0.42l7.53,11.33c0.12,0.18,0.3,0.34,0.5,0.48l-11.08,6.38L366.66,52.4z"/>
					<path id="XMLID_2401_" style="fill:#BA68C8;" d="M428.09,99.8c0.22,0.31,0.47,0.59,0.72,0.77l9.31,6.55
						c0.23,0.16,0.44,0.42,0.61,0.7l-8.33,4.79l-12.36-7.03L428.09,99.8z"/>
					<path id="XMLID_2342_" style="fill:#BA68C8;" d="M422.43,68.48c0.52,0.02,1.05,0.3,1.31,0.76l7.49,12.98
						c0.16,0.28,0.21,0.62,0.17,0.95l-9.11,5.23l-10.25-13.87L422.43,68.48z"/>
					<path id="XMLID_2227_" style="fill:#BA68C8;" d="M405.42,50.15l-10.64,6.12l-9.08-5.24v-3.66l7.69-4.41v0
						c0.22-0.12,0.52-0.1,0.82,0.07l10.19,5.88C404.82,49.16,405.2,49.65,405.42,50.15z"/>
					<path id="XMLID_2226_" style="fill:#BA68C8;" d="M352.15,66.74L352.15,66.74c0.2-0.13,0.49-0.14,0.81,0.01l9.07,4.09
						c0.64,0.29,1.3-0.03,1.51-0.7c0.36-1.14,2.52-4.2,2.33-5.42l-5.25-2.37c-0.31-0.14-0.58-0.13-0.79-0.01v-0.01L352.15,66.74z"/>
				</g>
				<g id="XMLID_2168_" style="opacity:0.7;">
					<g id="XMLID_2213_">
						<path style="fill:#FFFFFF;" d="M366.66,52.4l-2-4.03c-0.31-0.63-0.07-1.42,0.54-1.78l9.21-5.29c0.61-0.35,1.42-0.16,1.81,0.42
							l7.53,11.33c0.12,0.18,0.3,0.34,0.5,0.48l-11.08,6.38L366.66,52.4z"/>
						<path style="fill:#FFFFFF;" d="M366.28,52.72l-2.07-4.14c-0.43-0.86-0.1-1.95,0.74-2.43l9.21-5.29
							c0.83-0.48,1.94-0.22,2.47,0.58l7.53,11.33c0.07,0.11,0.2,0.23,0.38,0.35l0.63,0.45l-12.12,6.97L366.28,52.72z M383.33,53.33
							l-7.53-11.33c-0.24-0.36-0.76-0.49-1.14-0.27l-9.21,5.29c-0.38,0.22-0.53,0.73-0.34,1.12l1.97,3.97l6.19,7.15l10.14-5.83
							C383.39,53.4,383.36,53.36,383.33,53.33z"/>
					</g>
					<g id="XMLID_2202_">
						<path style="fill:#FFFFFF;" d="M428.09,99.8c0.22,0.31,0.47,0.59,0.72,0.77l9.31,6.55c0.23,0.16,0.44,0.42,0.61,0.7
							l-8.33,4.79l-12.36-7.03L428.09,99.8z"/>
						<path style="fill:#FFFFFF;" d="M417.03,105.58l11.2-6.44l0.26,0.37c0.21,0.29,0.41,0.52,0.6,0.65l9.31,6.55
							c0.27,0.19,0.51,0.47,0.75,0.85l0.27,0.44l-9.03,5.19L417.03,105.58z M437.83,107.52l-9.31-6.55
							c-0.19-0.13-0.38-0.31-0.56-0.52l-8.91,5.12l11.35,6.46l7.59-4.36C437.94,107.61,437.88,107.56,437.83,107.52z"/>
					</g>
					<g id="XMLID_2201_">
						<path style="fill:#FFFFFF;" d="M422.43,68.48c0.52,0.02,1.05,0.3,1.31,0.76l7.49,12.98c0.16,0.28,0.21,0.62,0.17,0.95
							l-9.11,5.23l-10.25-13.87L422.43,68.48z"/>
						<path style="fill:#FFFFFF;" d="M411.3,74.37l11-6.4l0.14,0.01c0.71,0.03,1.39,0.42,1.73,1.01l7.49,12.98
							c0.21,0.36,0.29,0.8,0.23,1.26l-0.03,0.25l-9.71,5.58L411.3,74.37z M430.8,82.46l-7.49-12.98c-0.15-0.26-0.44-0.44-0.76-0.5
							l-9.77,5.68l9.66,13.07l8.48-4.88C430.9,82.71,430.86,82.58,430.8,82.46z"/>
					</g>
					<g id="XMLID_2200_">
						<path style="fill:#FFFFFF;" d="M405.42,50.15l-10.64,6.12l-9.08-5.24v-3.66l7.69-4.41v0c0.22-0.12,0.52-0.1,0.82,0.07
							l10.19,5.88C404.82,49.16,405.2,49.65,405.42,50.15z"/>
						<path style="fill:#FFFFFF;" d="M385.2,51.32v-4.23l7.95-4.56c0.38-0.2,0.86-0.18,1.31,0.08l10.19,5.88
							c0.49,0.28,0.95,0.83,1.23,1.46l0.18,0.41l-11.28,6.49L385.2,51.32z M404.15,49.35l-10.19-5.88c-0.14-0.08-0.27-0.1-0.32-0.07
							l-7.43,4.26v3.08l8.58,4.95l9.97-5.73C404.57,49.69,404.36,49.47,404.15,49.35z"/>
					</g>
					<g id="XMLID_2195_">
						<path style="fill:#FFFFFF;" d="M352.15,66.74L352.15,66.74c0.2-0.13,0.49-0.14,0.81,0.01l9.07,4.09
							c0.64,0.29,1.3-0.03,1.51-0.7c0.36-1.14,2.54-4.3,2.33-5.42l-5.25-2.37c-0.31-0.14-0.58-0.13-0.79-0.01v-0.01L352.15,66.74z"
							/>
						<path style="fill:#FFFFFF;" d="M361.82,71.29l-9.07-4.09c-0.16-0.07-0.27-0.07-0.32-0.04l-0.78,0.52v-1.23l7.93-4.55
							l0.75-0.42v0.28c0.16,0.02,0.33,0.06,0.49,0.14l5.48,2.47l0.05,0.26c0.16,0.83-0.51,2.14-1.47,3.91
							c-0.39,0.71-0.75,1.38-0.87,1.75c-0.15,0.47-0.46,0.83-0.88,1.02c-0.2,0.09-0.41,0.13-0.62,0.13
							C362.28,71.44,362.05,71.39,361.82,71.29z M360.42,62.81c-0.16-0.07-0.28-0.07-0.33-0.03l-0.75,0.43V63.2l-5.73,3.29
							l8.64,3.89c0.17,0.08,0.34,0.08,0.49,0.02c0.16-0.07,0.28-0.21,0.34-0.41c0.14-0.46,0.51-1.14,0.94-1.93
							c0.49-0.89,1.26-2.32,1.37-3.01L360.42,62.81z"/>
					</g>
				</g>
				<path id="XMLID_2149_" style="fill:#BA68C8;" d="M352.84,81.27l9.31,6.55c0.57,0.4,1.15,1.29,1.3,1.98
					c0.59,2.63,1.39,5.28,2.36,7.9c0.24,0.66,0.02,1.56-0.51,2.02l-5.25,4.52c-0.53,0.46-0.68,1.32-0.33,1.93l7.49,12.98
					c0.35,0.61,1.17,0.91,1.84,0.68l6.54-2.28c0.66-0.23,1.55,0.03,2,0.57c1.78,2.15,3.68,4.17,5.66,5.99
					c0.52,0.48,1,1.42,1.06,2.12l1.02,11.34c0.06,0.7,0.61,1.55,1.22,1.9l10.19,5.88c0.61,0.35,1.16,0.07,1.23-0.63l0.99-9.9
					c0.07-0.7,0.67-1.11,1.36-0.96c1.71,0.38,3.35,0.54,4.91,0.5c0.7-0.02,1.58,0.39,1.97,0.98l7.53,11.33
					c0.39,0.58,1.2,0.77,1.81,0.42l6.56-3.79c0.61-0.35,0.85-1.15,0.54-1.77l-6.05-12.19c-0.31-0.63-0.23-1.6,0.14-2.2
					c0.81-1.33,1.49-2.83,2.02-4.5c0.21-0.67,0.87-0.99,1.51-0.7l9.07,4.09c0.64,0.29,1.16-0.05,1.16-0.75v-11.77
					c0-0.7-0.47-1.6-1.04-2l-9.31-6.55c-0.57-0.4-1.15-1.29-1.3-1.98c-0.59-2.63-1.39-5.28-2.36-7.9c-0.24-0.66-0.02-1.56,0.51-2.02
					l5.25-4.52c0.53-0.46,0.68-1.32,0.33-1.93l-7.49-12.98c-0.35-0.61-1.17-0.91-1.84-0.68l-6.54,2.28c-0.66,0.23-1.55-0.03-2-0.57
					c-1.78-2.15-3.68-4.17-5.66-5.99c-0.52-0.48-1-1.42-1.06-2.12l-1.02-11.34c-0.06-0.7-0.61-1.55-1.22-1.9l-10.19-5.88
					c-0.61-0.35-1.16-0.07-1.23,0.63l-0.99,9.9c-0.07,0.7-0.67,1.11-1.36,0.96c-1.71-0.38-3.35-0.54-4.91-0.5
					c-0.7,0.02-1.58-0.39-1.97-0.98l-7.53-11.33c-0.39-0.58-1.2-0.77-1.81-0.42l-6.56,3.79c-0.61,0.35-0.85,1.15-0.54,1.78
					l6.05,12.19c0.31,0.63,0.23,1.6-0.14,2.2c-0.81,1.33-1.49,2.83-2.02,4.5c-0.21,0.67-0.87,0.99-1.51,0.7l-9.07-4.09
					c-0.64-0.29-1.16,0.05-1.16,0.75v11.77C351.8,79.97,352.26,80.87,352.84,81.27z M374.43,86.45c0-10.98,7.71-15.43,17.22-9.94
					c9.51,5.49,17.22,18.84,17.22,29.82c0,10.98-7.71,15.43-17.22,9.94C382.14,110.78,374.43,97.43,374.43,86.45z"/>
				<g id="XMLID_2141_" style="opacity:0.55;">
					<path style="fill:#FFFFFF;" d="M352.84,81.27l9.31,6.55c0.57,0.4,1.15,1.29,1.3,1.98c0.59,2.63,1.39,5.28,2.36,7.9
						c0.24,0.66,0.02,1.56-0.51,2.02l-5.25,4.52c-0.53,0.46-0.68,1.32-0.33,1.93l7.49,12.98c0.35,0.61,1.17,0.91,1.84,0.68
						l6.54-2.28c0.66-0.23,1.55,0.03,2,0.57c1.78,2.15,3.68,4.17,5.66,5.99c0.52,0.48,1,1.42,1.06,2.12l1.02,11.34
						c0.06,0.7,0.61,1.55,1.22,1.9l10.19,5.88c0.61,0.35,1.16,0.07,1.23-0.63l0.99-9.9c0.07-0.7,0.67-1.11,1.36-0.96
						c1.71,0.38,3.35,0.54,4.91,0.5c0.7-0.02,1.58,0.39,1.97,0.98l7.53,11.33c0.39,0.58,1.2,0.77,1.81,0.42l6.56-3.79
						c0.61-0.35,0.85-1.15,0.54-1.77l-6.05-12.19c-0.31-0.63-0.23-1.6,0.14-2.2c0.81-1.33,1.49-2.83,2.02-4.5
						c0.21-0.67,0.87-0.99,1.51-0.7l9.07,4.09c0.64,0.29,1.16-0.05,1.16-0.75v-11.77c0-0.7-0.47-1.6-1.04-2l-9.31-6.55
						c-0.57-0.4-1.15-1.29-1.3-1.98c-0.59-2.63-1.39-5.28-2.36-7.9c-0.24-0.66-0.02-1.56,0.51-2.02l5.25-4.52
						c0.53-0.46,0.68-1.32,0.33-1.93l-7.49-12.98c-0.35-0.61-1.17-0.91-1.84-0.68l-6.54,2.28c-0.66,0.23-1.55-0.03-2-0.57
						c-1.78-2.15-3.68-4.17-5.66-5.99c-0.52-0.48-1-1.42-1.06-2.12l-1.02-11.34c-0.06-0.7-0.61-1.55-1.22-1.9l-10.19-5.88
						c-0.61-0.35-1.16-0.07-1.23,0.63l-0.99,9.9c-0.07,0.7-0.67,1.11-1.36,0.96c-1.71-0.38-3.35-0.54-4.91-0.5
						c-0.7,0.02-1.58-0.39-1.97-0.98l-7.53-11.33c-0.39-0.58-1.2-0.77-1.81-0.42l-6.56,3.79c-0.61,0.35-0.85,1.15-0.54,1.78
						l6.05,12.19c0.31,0.63,0.23,1.6-0.14,2.2c-0.81,1.33-1.49,2.83-2.02,4.5c-0.21,0.67-0.87,0.99-1.51,0.7l-9.07-4.09
						c-0.64-0.29-1.16,0.05-1.16,0.75v11.77C351.8,79.97,352.26,80.87,352.84,81.27z M374.43,86.45c0-10.98,7.71-15.43,17.22-9.94
						c9.51,5.49,17.22,18.84,17.22,29.82c0,10.98-7.71,15.43-17.22,9.94C382.14,110.78,374.43,97.43,374.43,86.45z"/>
					<path style="fill:#FFFFFF;" d="M414.32,146.94l-7.53-11.33c-0.28-0.42-0.97-0.77-1.54-0.76c-1.61,0.04-3.31-0.13-5.03-0.51
						c-0.2-0.04-0.39-0.01-0.53,0.09c-0.13,0.1-0.21,0.25-0.23,0.43l-0.99,9.9c-0.05,0.5-0.3,0.91-0.68,1.1
						c-0.38,0.2-0.85,0.16-1.29-0.09l-10.19-5.88c-0.74-0.43-1.39-1.44-1.46-2.29l-1.02-11.34c-0.05-0.56-0.47-1.4-0.9-1.79
						c-1.97-1.81-3.89-3.84-5.71-6.04c-0.32-0.38-0.99-0.58-1.45-0.41l-6.54,2.28c-0.89,0.31-1.96-0.09-2.43-0.9l-7.49-12.98
						c-0.47-0.82-0.28-1.94,0.43-2.56l5.25-4.52c0.37-0.32,0.54-1,0.37-1.47c-0.99-2.67-1.79-5.35-2.38-7.96
						c-0.13-0.58-0.64-1.35-1.1-1.68l-9.31-6.55c-0.7-0.49-1.25-1.55-1.25-2.41V67.5c0-0.51,0.21-0.93,0.57-1.17
						c0.36-0.23,0.83-0.25,1.3-0.04l9.07,4.09c0.17,0.08,0.34,0.08,0.49,0.02c0.16-0.07,0.28-0.22,0.34-0.41
						c0.53-1.68,1.23-3.23,2.07-4.61c0.29-0.47,0.34-1.26,0.12-1.71l-6.05-12.19c-0.43-0.86-0.1-1.95,0.73-2.43l6.56-3.79
						c0.83-0.48,1.94-0.22,2.47,0.58l7.53,11.33c0.28,0.42,1,0.78,1.54,0.76c1.61-0.04,3.3,0.13,5.03,0.51
						c0.2,0.04,0.39,0.01,0.52-0.09c0.13-0.1,0.21-0.25,0.23-0.43l0.99-9.9c0.05-0.51,0.3-0.91,0.68-1.1
						c0.38-0.2,0.85-0.16,1.29,0.09l10.19,5.88c0.74,0.43,1.39,1.44,1.46,2.29l1.02,11.34c0.05,0.56,0.47,1.4,0.9,1.79
						c1.97,1.81,3.89,3.85,5.71,6.04c0.32,0.38,1,0.58,1.45,0.41l6.54-2.28c0.89-0.31,1.96,0.09,2.43,0.9L424,86.36
						c0.47,0.82,0.28,1.94-0.43,2.56l-5.25,4.52c-0.37,0.32-0.54,1-0.37,1.47c0.99,2.67,1.79,5.35,2.38,7.96
						c0.13,0.58,0.63,1.35,1.1,1.68l9.31,6.55c0.7,0.49,1.25,1.55,1.25,2.41v11.77c0,0.51-0.21,0.93-0.57,1.17
						c-0.36,0.23-0.83,0.25-1.3,0.04l-9.07-4.09c-0.17-0.08-0.34-0.08-0.49-0.02c-0.16,0.07-0.28,0.22-0.34,0.41
						c-0.53,1.68-1.23,3.23-2.07,4.61c-0.29,0.47-0.34,1.26-0.12,1.71l6.05,12.19c0.43,0.86,0.1,1.95-0.73,2.43l-6.56,3.79
						c-0.28,0.16-0.6,0.24-0.91,0.24C415.27,147.76,414.67,147.47,414.32,146.94z M421.47,121.49l9.07,4.09
						c0.15,0.07,0.27,0.08,0.34,0.03c0.07-0.04,0.11-0.17,0.11-0.33v-11.77c0-0.54-0.39-1.28-0.83-1.59l-9.31-6.55
						c-0.67-0.47-1.32-1.45-1.5-2.27c-0.58-2.57-1.36-5.2-2.34-7.83c-0.32-0.85-0.03-1.98,0.65-2.57l5.25-4.52
						c0.35-0.3,0.45-0.9,0.22-1.3l-7.49-12.98c-0.23-0.4-0.8-0.61-1.24-0.46l-6.54,2.28c-0.85,0.29-1.97-0.02-2.55-0.72
						c-1.79-2.16-3.68-4.16-5.61-5.94c-0.62-0.57-1.15-1.62-1.22-2.44l-1.02-11.34c-0.05-0.54-0.5-1.24-0.97-1.51l-10.19-5.88
						c-0.14-0.08-0.27-0.11-0.34-0.07c-0.07,0.04-0.13,0.15-0.14,0.31l-0.99,9.9c-0.05,0.47-0.27,0.88-0.64,1.14
						c-0.37,0.27-0.84,0.36-1.33,0.25c-1.64-0.36-3.25-0.52-4.79-0.49c-0.92,0.03-1.93-0.49-2.4-1.2l-7.53-11.33
						c-0.24-0.36-0.76-0.49-1.14-0.27l-6.56,3.79c-0.38,0.22-0.53,0.73-0.34,1.12l6.05,12.19c0.38,0.76,0.31,1.92-0.16,2.68
						c-0.8,1.31-1.47,2.78-1.97,4.39c-0.15,0.47-0.46,0.83-0.88,1.02c-0.41,0.18-0.87,0.18-1.31-0.02l-9.07-4.09
						c-0.15-0.07-0.27-0.08-0.34-0.03c-0.07,0.04-0.11,0.17-0.11,0.33v11.77c0,0.54,0.39,1.28,0.83,1.6l9.31,6.55
						c0.67,0.47,1.32,1.45,1.5,2.27c0.58,2.57,1.36,5.2,2.34,7.83c0.32,0.85,0.03,1.98-0.65,2.57l-5.25,4.52
						c-0.35,0.3-0.45,0.9-0.22,1.3l7.49,12.98c0.23,0.4,0.8,0.61,1.24,0.46l6.54-2.28c0.85-0.3,1.97,0.02,2.55,0.72
						c1.79,2.16,3.68,4.16,5.61,5.94c0.61,0.56,1.15,1.63,1.22,2.44l1.02,11.34c0.05,0.54,0.5,1.24,0.97,1.51l10.19,5.88
						c0.14,0.08,0.26,0.1,0.34,0.07c0.07-0.04,0.13-0.15,0.14-0.31l0.99-9.9c0.05-0.47,0.27-0.88,0.64-1.14
						c0.37-0.27,0.84-0.36,1.33-0.25c1.64,0.36,3.26,0.52,4.78,0.49c0.9-0.02,1.93,0.49,2.4,1.2l7.53,11.33
						c0.24,0.36,0.76,0.48,1.14,0.27l6.56-3.79c0.38-0.22,0.53-0.73,0.34-1.12l-6.05-12.19c-0.38-0.76-0.31-1.92,0.16-2.68
						c0.8-1.31,1.46-2.78,1.97-4.39c0.15-0.47,0.46-0.83,0.88-1.02c0.2-0.09,0.41-0.13,0.62-0.13
						C421.02,121.33,421.25,121.38,421.47,121.49z M391.4,116.7L391.4,116.7c-9.63-5.56-17.47-19.13-17.47-30.25
						c0-5.5,1.88-9.61,5.29-11.58c3.41-1.97,7.91-1.54,12.67,1.21c9.63,5.56,17.47,19.13,17.47,30.25c0,5.5-1.88,9.61-5.29,11.58
						c-1.41,0.81-3.01,1.22-4.73,1.22C396.89,119.13,394.19,118.31,391.4,116.7z M379.72,75.74c-3.09,1.78-4.79,5.59-4.79,10.71
						c0,10.8,7.61,23.98,16.97,29.39l0,0c4.44,2.56,8.58,2.99,11.67,1.21c3.09-1.78,4.79-5.59,4.79-10.71
						c0-10.8-7.61-23.99-16.97-29.39c-2.64-1.52-5.17-2.29-7.44-2.29C382.41,74.65,380.98,75.01,379.72,75.74z"/>
				</g>
			</g>
			<g id="XMLID_796_">
				<path id="XMLID_2090_" style="fill:#BA68C8;" d="M397.25,161.91l3.9,3.04c0.08,0.55,0.34,1.13,0.71,1.47l4.29,3.95
					c0.52,0.48,0.97,1.43,1.05,2.13c0.12,1.03,0.3,2.08,0.54,3.13c0.16,0.68-0.22,1.46-0.86,1.73l-2.52,1.07
					c-0.65,0.28-0.94,1.02-0.65,1.66l2.93,6.56c0.29,0.64,1.09,1.13,1.79,1.1l3.11-0.15c0.7-0.03,1.13,0.91,1.52,1.49
					c0.7,1.03,1.9,1.54,2.7,2.49c0.45,0.54,0.8,1.53,0.75,2.23l-0.29,4.61c-0.04,0.7,0.37,1.62,0.92,2.06l1.57,1.23l-0.9,5.67
					l5.13-2.96l0,0c0.18-0.11,0.33-0.29,0.42-0.57l1.09-3.63c0.2-0.67,0.88-0.96,1.53-0.7c0.68,0.27,1.34,0.49,1.99,0.66
					c0.68,0.17,1.51,0.76,1.84,1.38l1.98,4.91l1.39,3.81l5.11-2.95l0,0c0.43-0.27,0.62-0.79,0.43-1.31l-2.19-5.91
					c-0.24-0.66,0.02-1.53,0.5-2.04c0.3-0.31,0.58-0.65,0.84-1.02c0.4-0.58,1.13-0.77,1.72-0.39l0.07,5.86l5.12-2.95l-0.01,0
					c0.19-0.12,0.33-0.33,0.39-0.63l0.81-4.68c0.12-0.69-0.2-1.64-0.72-2.11l-4.29-3.95c-0.52-0.48-0.97-1.43-1.05-2.13
					c-0.12-1.03-0.3-2.08-0.54-3.13c-0.07-0.3-0.03-0.61,0.08-0.89l3.45-1.99l0-0.01c0.54-0.32,0.76-0.99,0.5-1.58l-2.93-6.56
					c-0.29-0.64-1.09-1.13-1.79-1.1l-3.11,0.15c-0.7,0.03-1.57-0.42-1.97-1c-0.7-1.03-1.46-2.03-2.25-2.98
					c-0.45-0.54-0.8-1.53-0.75-2.23l0.29-4.61c0.04-0.7-0.37-1.62-0.92-2.05l-4.84-3.81c-0.33-0.26-0.68-0.29-0.96-0.13l0-0.01
					l-5.1,2.94c0,0,0.08,0.8,0.27,1.35c-0.06-0.02-0.13-0.04-0.19-0.05c-0.68-0.17-1.51-0.76-1.84-1.38l-3.04-5.79
					c-0.33-0.62-1.15-1-1.83-0.85l-3.23,0.72c-0.12,0.03-0.23,0.08-0.34,0.14l0,0l-5.09,2.94l6.81,4.32
					c0.24,0.66-0.02,1.53-0.5,2.04c-0.3,0.31-0.58,0.65-0.84,1.02c-0.4,0.58-1.13,0.77-1.72,0.39l-4.29-2.82
					c-0.33-0.21-0.65-0.23-0.89-0.08l0-0.01L397.25,161.91z M414.04,171.78c0.95-5.51,5.17-5.83,10.41-1.7
					c5.25,4.13,9.55,11.13,8.6,16.65c-0.95,5.51-5.98,6.64-11.23,2.51C416.57,185.11,413.09,177.3,414.04,171.78z"/>
				<path id="XMLID_1420_" style="opacity:0.3;fill:#FFFFFF;" d="M397.25,161.91l3.9,3.04c0.08,0.55,0.34,1.13,0.71,1.47l4.29,3.95
					c0.52,0.48,0.97,1.43,1.05,2.13c0.12,1.03,0.3,2.08,0.54,3.13c0.16,0.68-0.22,1.46-0.86,1.73l-2.52,1.07
					c-0.65,0.28-0.94,1.02-0.65,1.66l2.93,6.56c0.29,0.64,1.09,1.13,1.79,1.1l3.11-0.15c0.7-0.03,1.13,0.91,1.52,1.49
					c0.7,1.03,1.9,1.54,2.7,2.49c0.45,0.54,0.8,1.53,0.75,2.23l-0.29,4.61c-0.04,0.7,0.37,1.62,0.92,2.06l1.57,1.23l-0.9,5.67
					l5.13-2.96l0,0c0.18-0.11,0.33-0.29,0.42-0.57l1.09-3.63c0.2-0.67,0.88-0.96,1.53-0.7c0.68,0.27,1.34,0.49,1.99,0.66
					c0.68,0.17,1.51,0.76,1.84,1.38l1.98,4.91l1.39,3.81l5.11-2.95l0,0c0.43-0.27,0.62-0.79,0.43-1.31l-2.19-5.91
					c-0.24-0.66,0.02-1.53,0.5-2.04c0.3-0.31,0.58-0.65,0.84-1.02c0.4-0.58,1.13-0.77,1.72-0.39l0.07,5.86l5.12-2.95l-0.01,0
					c0.19-0.12,0.33-0.33,0.39-0.63l0.81-4.68c0.12-0.69-0.2-1.64-0.72-2.11l-4.29-3.95c-0.52-0.48-0.97-1.43-1.05-2.13
					c-0.12-1.03-0.3-2.08-0.54-3.13c-0.07-0.3-0.03-0.61,0.08-0.89l3.45-1.99l0-0.01c0.54-0.32,0.76-0.99,0.5-1.58l-2.93-6.56
					c-0.29-0.64-1.09-1.13-1.79-1.1l-3.11,0.15c-0.7,0.03-1.57-0.42-1.97-1c-0.7-1.03-1.46-2.03-2.25-2.98
					c-0.45-0.54-0.8-1.53-0.75-2.23l0.29-4.61c0.04-0.7-0.37-1.62-0.92-2.05l-4.84-3.81c-0.33-0.26-0.68-0.29-0.96-0.13l0-0.01
					l-5.1,2.94c0,0,0.08,0.8,0.27,1.35c-0.06-0.02-0.13-0.04-0.19-0.05c-0.68-0.17-1.51-0.76-1.84-1.38l-3.04-5.79
					c-0.33-0.62-1.15-1-1.83-0.85l-3.23,0.72c-0.12,0.03-0.23,0.08-0.34,0.14l0,0l-5.09,2.94l6.81,4.32
					c0.24,0.66-0.02,1.53-0.5,2.04c-0.3,0.31-0.58,0.65-0.84,1.02c-0.4,0.58-1.13,0.77-1.72,0.39l-4.29-2.82
					c-0.33-0.21-0.65-0.23-0.89-0.08l0-0.01L397.25,161.91z M414.04,171.78c0.95-5.51,5.17-5.83,10.41-1.7
					c5.25,4.13,9.55,11.13,8.6,16.65c-0.95,5.51-5.98,6.64-11.23,2.51C416.57,185.11,413.09,177.3,414.04,171.78z"/>
				<path style="opacity:0.1;" d="M417.98,200.02l8.75-0.89l8.12-4.69c0,0,0.83,1.77,1.88,4c-0.28,0.5-0.4,1.13-0.21,1.64l2.19,5.91
					c0.19,0.52,0,1.04-0.43,1.31l0,0l-5.11,2.95l-1.39-3.81l-1.98-4.91c-0.33-0.62-1.16-1.21-1.84-1.38
					c-0.65-0.17-1.32-0.38-1.99-0.66c-0.65-0.26-1.33,0.03-1.53,0.7l-1.09,3.63c-0.08,0.27-0.23,0.46-0.42,0.57l0,0l-5.13,2.96
					l0.9-5.67l-0.98-0.77L417.98,200.02z"/>
				<path style="opacity:0.1;" d="M408.21,168.65l6.33-3.07l1.47,2.41c-0.97,0.71-1.66,1.96-1.97,3.8
					c-0.95,5.51,2.54,13.33,7.79,17.46c3.14,2.47,6.2,3.05,8.36,1.94l0.56,0.92c0,0-3.61,5.48-8.08,4.46
					c-1.88-0.43-4.09-1.58-6.18-3.16c-0.07-0.64-0.36-1.38-0.73-1.83c-0.79-0.95-1.99-1.46-2.7-2.49c-0.4-0.58-0.82-1.52-1.52-1.49
					l-0.47,0.02c-0.53-0.83-0.98-1.69-1.31-2.55C407.67,179.64,408.21,168.65,408.21,168.65z"/>
				<g id="XMLID_945_">
					<path id="XMLID_1417_" style="fill:#BA68C8;" d="M440.98,188.2l4.24,3.9c0.31,0.29,0.54,0.75,0.65,1.22l-6.3,3.64l0-0.34
						c-0.59-0.39-1.32-0.19-1.72,0.39c0,0,0,0-0.01,0.01l-6.07-3.51L440.98,188.2z"/>
					<path id="XMLID_1238_" style="fill:#BA68C8;" d="M430.17,176.39c-0.48-0.74-1-1.46-1.56-2.16l6.05-3.49
						c0.3,0.12,0.61,0.2,0.89,0.19l3.11-0.15c0.44-0.02,0.92,0.17,1.29,0.47l-9.31,5.38L430.17,176.39z"/>
					<path id="XMLID_1236_" style="fill:#BA68C8;" d="M397.25,161.9c0.24-0.14,0.55-0.11,0.87,0.1l4.29,2.82
						c0.58,0.38,1.31,0.19,1.72-0.39c0.26-0.37,0.53-0.71,0.84-1.03c0.48-0.51,0.75-1.38,0.5-2.04l-0.41-1.09l-1.84-1.21
						c-0.33-0.21-0.65-0.23-0.89-0.08v-0.01L397.25,161.9z"/>
					<path id="XMLID_1017_" style="fill:#BA68C8;" d="M409.92,160.65c0.05-0.06,0.09-0.12,0.14-0.17c0.48-0.51,0.75-1.38,0.5-2.04
						l-6.81-4.32l5.09-2.94l0,0c0.1-0.06,0.21-0.11,0.34-0.14l3.23-0.72c0.69-0.15,1.51,0.23,1.83,0.85l3.04,5.79
						c0.15,0.28,0.4,0.55,0.69,0.78l-6.87,3.96L409.92,160.65z"/>
					<path id="XMLID_1010_" style="fill:#BA68C8;" d="M430.74,159.32l-6.31,3.64l-5.18-4.75c-0.15-0.53-0.21-1.16-0.21-1.16
						l5.1-2.94l0,0.01c0.27-0.16,0.62-0.13,0.96,0.13l4.84,3.81C430.3,158.33,430.59,158.82,430.74,159.32z"/>
				</g>
				<g id="XMLID_917_" style="opacity:0.7;">
					<g id="XMLID_944_">
						<path style="fill:#FFFFFF;" d="M440.98,188.2l4.24,3.9c0.31,0.29,0.54,0.75,0.65,1.22l-6.3,3.64l0-0.34
							c-0.59-0.39-1.32-0.19-1.72,0.39c0,0,0,0-0.01,0.01l-6.07-3.51L440.98,188.2z"/>
						<path style="fill:#FFFFFF;" d="M439.08,196.95c-0.32-0.08-0.64,0.1-0.84,0.39l-0.27,0.34l-7.2-4.15l10.28-5.93l4.51,4.15
							c0.37,0.34,0.65,0.86,0.8,1.47l0.09,0.36l-7.37,4.25L439.08,196.95z M439.85,196.21l0.02,0.01l5.42-3.13
							c-0.1-0.26-0.24-0.48-0.4-0.62l-3.97-3.65l-8.14,4.7l4.97,2.87c0.34-0.3,0.75-0.46,1.17-0.46
							C439.24,195.93,439.56,196.02,439.85,196.21z"/>
					</g>
					<g id="XMLID_943_">
						<path style="fill:#FFFFFF;" d="M430.17,176.39c-0.48-0.74-1-1.46-1.56-2.16l6.05-3.49c0.3,0.12,0.61,0.2,0.89,0.19l3.11-0.15
							c0.44-0.02,0.92,0.17,1.29,0.47l-9.31,5.38L430.17,176.39z"/>
						<path style="fill:#FFFFFF;" d="M429.83,176.77l-0.08-0.12c-0.46-0.72-0.98-1.43-1.53-2.12l-0.37-0.45l6.77-3.91l0.23,0.09
							c0.27,0.11,0.5,0.17,0.67,0.15l3.11-0.15c0.55-0.03,1.16,0.19,1.63,0.58l0.56,0.46l-10.17,5.87L429.83,176.77z M438.69,171.27
							l-3.11,0.15c-0.27,0.01-0.55-0.03-0.87-0.14l-5.34,3.09c0.41,0.53,0.8,1.08,1.15,1.62l0.11,0.05l8.26-4.77
							C438.81,171.27,438.75,171.26,438.69,171.27z"/>
					</g>
					<g id="XMLID_942_">
						<path style="fill:#FFFFFF;" d="M397.25,161.9c0.24-0.14,0.55-0.11,0.87,0.1l4.29,2.82c0.58,0.38,1.31,0.19,1.72-0.39
							c0.26-0.37,0.53-0.71,0.84-1.03c0.48-0.51,0.75-1.38,0.5-2.04l-0.41-1.09l-1.84-1.21c-0.33-0.21-0.65-0.23-0.89-0.08v-0.01
							L397.25,161.9z"/>
						<path style="fill:#FFFFFF;" d="M402.13,165.25l-4.29-2.82c-0.14-0.09-0.28-0.13-0.35-0.09l-0.5-0.87l5.09-2.93l0.75-0.42v0.28
							c0.22,0.03,0.45,0.11,0.67,0.25l1.98,1.3l0.46,1.25c0.34,0.91-0.05,1.98-0.61,2.57c-0.27,0.27-0.53,0.59-0.79,0.97
							c-0.37,0.52-0.92,0.8-1.48,0.8C402.74,165.53,402.42,165.44,402.13,165.25z M402.95,159.49c-0.15-0.09-0.29-0.12-0.36-0.08
							l-0.76,0.45v-0.02l-3.25,1.88l4.1,2.7c0.38,0.25,0.81,0.06,1.04-0.26c0.29-0.42,0.59-0.77,0.89-1.08
							c0.38-0.4,0.56-1.08,0.39-1.52l-0.35-0.94L402.95,159.49z"/>
					</g>
					<g id="XMLID_941_">
						<path style="fill:#FFFFFF;" d="M409.92,160.65c0.05-0.06,0.09-0.12,0.14-0.17c0.48-0.51,0.75-1.38,0.5-2.04l-6.81-4.32
							l5.09-2.94l0,0c0.1-0.06,0.21-0.11,0.34-0.14l3.23-0.72c0.69-0.15,1.51,0.23,1.83,0.85l3.04,5.79
							c0.15,0.28,0.4,0.55,0.69,0.78l-6.87,3.96L409.92,160.65z"/>
						<path style="fill:#FFFFFF;" d="M409.59,161.02l-0.34-0.39l0.34-0.37c0.03-0.04,0.07-0.09,0.11-0.13
							c0.34-0.36,0.52-0.94,0.44-1.38l-7.35-4.66l5.8-3.35l0.38-0.21l0.03,0.04c0.02-0.01,0.05-0.01,0.07-0.02l3.23-0.72
							c0.91-0.2,1.95,0.28,2.38,1.1l3.04,5.79c0.1,0.19,0.3,0.41,0.56,0.62l0.58,0.46l-7.82,4.51L409.59,161.02z M416.84,157.2
							l-3.04-5.79c-0.22-0.42-0.82-0.7-1.28-0.59l-3.23,0.72c-0.06,0.01-0.12,0.04-0.2,0.08l-4.37,2.52l6.26,3.97l0.06,0.16
							c0.26,0.71,0.09,1.63-0.42,2.34l0.56,0.5l5.98-3.45C417.02,157.49,416.92,157.34,416.84,157.2z"/>
					</g>
					<g id="XMLID_923_">
						<path style="fill:#FFFFFF;" d="M430.74,159.32l-6.31,3.64l-5.18-4.75c-0.15-0.53-0.21-1.16-0.21-1.16l5.1-2.94l0,0.01
							c0.27-0.16,0.62-0.13,0.96,0.13l4.84,3.81C430.3,158.33,430.59,158.82,430.74,159.32z"/>
						<path style="fill:#FFFFFF;" d="M418.81,158.48l-0.04-0.14c-0.16-0.56-0.22-1.22-0.23-1.25l-0.03-0.32l6.4-3.69l-0.11,0.46
							c0.21,0.05,0.42,0.15,0.61,0.3l4.84,3.81c0.42,0.33,0.77,0.88,0.97,1.52l0.12,0.38l-6.97,4.02L418.81,158.48z M429.63,158.45
							l-4.84-3.81c-0.09-0.07-0.26-0.17-0.39-0.09l-1.02,0.59l0-0.01l-3.79,2.19c0.03,0.18,0.07,0.41,0.12,0.63l4.8,4.4l5.62-3.24
							C429.99,158.82,429.81,158.59,429.63,158.45z"/>
					</g>
				</g>
				<path id="XMLID_840_" style="fill:#BA68C8;" d="M396.76,169.35l4.29,3.95c0.52,0.48,0.97,1.43,1.05,2.13
					c0.12,1.03,0.3,2.08,0.54,3.13c0.16,0.68-0.22,1.46-0.86,1.73l-2.52,1.07c-0.65,0.28-0.94,1.02-0.65,1.66l2.93,6.56
					c0.29,0.64,1.09,1.13,1.79,1.1l3.11-0.15c0.7-0.03,1.57,0.42,1.97,1c0.7,1.03,1.46,2.03,2.25,2.98c0.45,0.54,0.8,1.53,0.75,2.23
					l-0.29,4.61c-0.04,0.7,0.37,1.62,0.92,2.06l4.84,3.81c0.55,0.43,1.16,0.24,1.37-0.43l1.09-3.63c0.2-0.67,0.88-0.96,1.53-0.7
					c0.68,0.27,1.34,0.49,1.99,0.66c0.68,0.17,1.51,0.76,1.84,1.38l3.04,5.79c0.33,0.62,1.15,1,1.83,0.85l3.23-0.72
					c0.69-0.15,1.04-0.81,0.8-1.47l-2.19-5.91c-0.24-0.66,0.02-1.53,0.5-2.04c0.3-0.31,0.58-0.65,0.84-1.02
					c0.4-0.58,1.13-0.77,1.72-0.39l4.29,2.82c0.59,0.39,1.16,0.14,1.28-0.55l0.81-4.68c0.12-0.69-0.2-1.64-0.72-2.11l-4.29-3.95
					c-0.52-0.48-0.97-1.43-1.05-2.13c-0.12-1.03-0.3-2.08-0.54-3.13c-0.16-0.68,0.22-1.46,0.86-1.73l2.52-1.07
					c0.65-0.28,0.94-1.02,0.65-1.66l-2.93-6.56c-0.29-0.64-1.09-1.13-1.79-1.1l-3.11,0.15c-0.7,0.03-1.57-0.42-1.97-1
					c-0.7-1.03-1.46-2.03-2.25-2.98c-0.45-0.54-0.8-1.53-0.75-2.23l0.29-4.61c0.04-0.7-0.37-1.62-0.92-2.05l-4.84-3.81
					c-0.55-0.43-1.16-0.24-1.37,0.43l-1.09,3.63c-0.2,0.67-0.88,0.96-1.53,0.7c-0.68-0.27-1.34-0.49-1.99-0.66
					c-0.68-0.17-1.51-0.76-1.84-1.38l-3.04-5.79c-0.33-0.62-1.15-1-1.83-0.85l-3.23,0.72c-0.69,0.15-1.04,0.81-0.8,1.47l2.19,5.92
					c0.24,0.66-0.02,1.53-0.5,2.04c-0.3,0.31-0.58,0.65-0.84,1.02c-0.4,0.58-1.13,0.77-1.72,0.39l-4.29-2.82
					c-0.59-0.39-1.16-0.14-1.28,0.55l-0.81,4.68C395.92,167.93,396.24,168.88,396.76,169.35z M408.94,174.72
					c0.95-5.51,5.97-6.64,11.22-2.51c5.25,4.13,8.74,11.94,7.79,17.46c-0.95,5.51-5.98,6.64-11.23,2.51
					C411.47,188.05,407.99,180.24,408.94,174.72z"/>
				<g id="XMLID_798_" style="opacity:0.55;">
					<path style="fill:#FFFFFF;" d="M396.76,169.35l4.29,3.95c0.52,0.48,0.97,1.43,1.05,2.13c0.12,1.03,0.3,2.08,0.54,3.13
						c0.16,0.68-0.22,1.46-0.86,1.73l-2.52,1.07c-0.65,0.28-0.94,1.02-0.65,1.66l2.93,6.56c0.29,0.64,1.09,1.13,1.79,1.1l3.11-0.15
						c0.7-0.03,1.57,0.42,1.97,1c0.7,1.03,1.46,2.03,2.25,2.98c0.45,0.54,0.8,1.53,0.75,2.23l-0.29,4.61
						c-0.04,0.7,0.37,1.62,0.92,2.06l4.84,3.81c0.55,0.43,1.16,0.24,1.37-0.43l1.09-3.63c0.2-0.67,0.88-0.96,1.53-0.7
						c0.68,0.27,1.34,0.49,1.99,0.66c0.68,0.17,1.51,0.76,1.84,1.38l3.04,5.79c0.33,0.62,1.15,1,1.83,0.85l3.23-0.72
						c0.69-0.15,1.04-0.81,0.8-1.47l-2.19-5.91c-0.24-0.66,0.02-1.53,0.5-2.04c0.3-0.31,0.58-0.65,0.84-1.02
						c0.4-0.58,1.13-0.77,1.72-0.39l4.29,2.82c0.59,0.39,1.16,0.14,1.28-0.55l0.81-4.68c0.12-0.69-0.2-1.64-0.72-2.11l-4.29-3.95
						c-0.52-0.48-0.97-1.43-1.05-2.13c-0.12-1.03-0.3-2.08-0.54-3.13c-0.16-0.68,0.22-1.46,0.86-1.73l2.52-1.07
						c0.65-0.28,0.94-1.02,0.65-1.66l-2.93-6.56c-0.29-0.64-1.09-1.13-1.79-1.1l-3.11,0.15c-0.7,0.03-1.57-0.42-1.97-1
						c-0.7-1.03-1.46-2.03-2.25-2.98c-0.45-0.54-0.8-1.53-0.75-2.23l0.29-4.61c0.04-0.7-0.37-1.62-0.92-2.05l-4.84-3.81
						c-0.55-0.43-1.16-0.24-1.37,0.43l-1.09,3.63c-0.2,0.67-0.88,0.96-1.53,0.7c-0.68-0.27-1.34-0.49-1.99-0.66
						c-0.68-0.17-1.51-0.76-1.84-1.38l-3.04-5.79c-0.33-0.62-1.15-1-1.83-0.85l-3.23,0.72c-0.69,0.15-1.04,0.81-0.8,1.47l2.19,5.92
						c0.24,0.66-0.02,1.53-0.5,2.04c-0.3,0.31-0.58,0.65-0.84,1.02c-0.4,0.58-1.13,0.77-1.72,0.39l-4.29-2.82
						c-0.59-0.39-1.16-0.14-1.28,0.55l-0.81,4.68C395.92,167.93,396.24,168.88,396.76,169.35z M408.94,174.72
						c0.95-5.51,5.97-6.64,11.22-2.51c5.25,4.13,8.74,11.94,7.79,17.46c-0.95,5.51-5.98,6.64-11.23,2.51
						C411.47,188.05,407.99,180.24,408.94,174.72z"/>
					<path style="fill:#FFFFFF;" d="M427.3,210.52l-3.04-5.79c-0.24-0.46-0.94-0.98-1.52-1.13c-0.68-0.17-1.37-0.4-2.05-0.68
						c-0.2-0.08-0.39-0.08-0.55,0c-0.15,0.07-0.26,0.2-0.31,0.38l-1.09,3.63c-0.14,0.48-0.47,0.83-0.88,0.96
						c-0.41,0.13-0.88,0.03-1.27-0.28l-4.84-3.81c-0.68-0.53-1.16-1.62-1.11-2.48l0.29-4.61c0.04-0.56-0.26-1.42-0.64-1.88
						c-0.79-0.95-1.56-1.96-2.28-3.02c-0.3-0.44-1.02-0.82-1.53-0.78l-3.11,0.15c-0.91,0.05-1.9-0.57-2.27-1.39l-2.93-6.56
						c-0.19-0.43-0.21-0.91-0.03-1.35c0.17-0.44,0.51-0.78,0.94-0.97l2.52-1.07c0.41-0.18,0.68-0.71,0.57-1.16
						c-0.25-1.08-0.43-2.15-0.55-3.18c-0.07-0.6-0.48-1.43-0.89-1.82l-4.29-3.95c-0.64-0.59-1.02-1.71-0.87-2.57l0.81-4.68
						c0.09-0.5,0.36-0.88,0.76-1.06c0.4-0.17,0.87-0.11,1.29,0.17l4.29,2.82c0.39,0.25,0.81,0.06,1.04-0.26
						c0.27-0.38,0.57-0.75,0.88-1.08c0.38-0.4,0.56-1.08,0.4-1.52l-2.19-5.92c-0.17-0.46-0.14-0.93,0.08-1.34
						c0.22-0.41,0.6-0.69,1.08-0.79l3.23-0.72c0.9-0.2,1.95,0.28,2.38,1.1l3.04,5.79c0.24,0.46,0.94,0.98,1.52,1.13
						c0.68,0.17,1.37,0.4,2.06,0.68c0.2,0.08,0.39,0.08,0.55,0c0.15-0.07,0.25-0.2,0.31-0.38l1.09-3.63
						c0.14-0.48,0.47-0.83,0.88-0.96c0.42-0.13,0.88-0.03,1.27,0.28l4.84,3.81c0.68,0.53,1.16,1.62,1.11,2.48l-0.29,4.61
						c-0.04,0.56,0.26,1.42,0.64,1.88c0.79,0.95,1.56,1.96,2.28,3.02c0.3,0.44,1.02,0.81,1.53,0.78l3.11-0.15
						c0.89-0.04,1.9,0.57,2.27,1.39l2.93,6.56c0.19,0.43,0.2,0.91,0.03,1.35c-0.17,0.44-0.51,0.78-0.94,0.97l-2.52,1.07
						c-0.41,0.18-0.68,0.71-0.57,1.16c0.24,1.08,0.43,2.15,0.55,3.18c0.07,0.6,0.48,1.44,0.89,1.82l4.29,3.95
						c0.64,0.59,1.02,1.71,0.87,2.57l-0.81,4.68c-0.09,0.5-0.36,0.88-0.76,1.06c-0.4,0.17-0.87,0.11-1.29-0.17l-4.29-2.82
						c-0.38-0.25-0.81-0.06-1.04,0.26c-0.27,0.39-0.57,0.75-0.88,1.08c-0.38,0.4-0.56,1.08-0.4,1.52l2.19,5.91
						c0.17,0.46,0.14,0.93-0.08,1.34c-0.22,0.41-0.6,0.69-1.08,0.79l-3.23,0.72c-0.14,0.03-0.28,0.05-0.42,0.05
						C428.47,211.67,427.66,211.21,427.3,210.52z M434.75,199.15l4.29,2.82c0.13,0.09,0.26,0.12,0.34,0.09
						c0.08-0.03,0.14-0.15,0.17-0.31l0.81-4.68c0.09-0.52-0.17-1.3-0.57-1.66l-4.29-3.95c-0.59-0.54-1.11-1.59-1.21-2.44
						c-0.11-1-0.29-2.04-0.53-3.08c-0.21-0.93,0.3-1.94,1.15-2.3l2.52-1.07c0.19-0.08,0.33-0.23,0.41-0.42
						c0.07-0.19,0.07-0.39-0.01-0.58l-2.93-6.56c-0.2-0.45-0.8-0.85-1.31-0.8l-3.11,0.15c-0.88,0.04-1.91-0.48-2.41-1.22
						c-0.7-1.03-1.45-2.01-2.22-2.94c-0.55-0.65-0.92-1.76-0.87-2.58l0.29-4.61c0.03-0.54-0.31-1.3-0.73-1.63l-4.84-3.81
						c-0.13-0.1-0.26-0.14-0.35-0.12c-0.09,0.03-0.18,0.14-0.22,0.3l-1.09,3.63c-0.14,0.45-0.43,0.8-0.83,1
						c-0.42,0.2-0.9,0.21-1.36,0.02c-0.65-0.26-1.3-0.48-1.93-0.64c-0.85-0.22-1.78-0.92-2.16-1.63l-3.04-5.79
						c-0.22-0.42-0.81-0.7-1.28-0.59l-3.23,0.72c-0.19,0.04-0.34,0.15-0.42,0.3c-0.08,0.15-0.09,0.33-0.02,0.51l2.19,5.92
						c0.3,0.8,0.04,1.88-0.61,2.56c-0.28,0.3-0.55,0.62-0.79,0.97c-0.58,0.82-1.61,1.05-2.41,0.52l-4.29-2.82
						c-0.13-0.09-0.26-0.12-0.34-0.09c-0.08,0.03-0.14,0.15-0.17,0.31l-0.81,4.68c-0.09,0.52,0.17,1.3,0.57,1.66l4.29,3.95
						c0.59,0.54,1.11,1.59,1.21,2.44c0.11,0.99,0.29,2.03,0.53,3.08c0.21,0.93-0.3,1.94-1.15,2.3l-2.52,1.07
						c-0.19,0.08-0.33,0.23-0.41,0.42c-0.07,0.19-0.07,0.39,0.01,0.58l2.93,6.56c0.2,0.45,0.81,0.84,1.31,0.8l3.11-0.15
						c0.88-0.04,1.91,0.48,2.41,1.22c0.7,1.03,1.45,2.01,2.22,2.94c0.55,0.65,0.92,1.76,0.87,2.58l-0.29,4.61
						c-0.03,0.54,0.31,1.3,0.73,1.63l4.84,3.81c0.13,0.1,0.26,0.14,0.36,0.12c0.09-0.03,0.18-0.14,0.22-0.3l1.09-3.63
						c0.14-0.45,0.43-0.8,0.83-1c0.42-0.2,0.9-0.21,1.36-0.02c0.64,0.26,1.29,0.48,1.93,0.64c0.86,0.22,1.78,0.92,2.16,1.63
						l3.04,5.79c0.22,0.42,0.81,0.7,1.28,0.59l3.23-0.72c0.19-0.04,0.34-0.15,0.42-0.3c0.08-0.15,0.09-0.33,0.02-0.51l-2.19-5.91
						c-0.3-0.8-0.04-1.88,0.61-2.56c0.28-0.3,0.55-0.62,0.79-0.97c0.37-0.52,0.92-0.8,1.47-0.8
						C434.14,198.87,434.46,198.96,434.75,199.15z M416.41,192.58c-5.37-4.22-8.95-12.27-7.97-17.94c0.43-2.52,1.72-4.31,3.63-5.05
						c2.37-0.91,5.43-0.1,8.39,2.23c5.37,4.22,8.95,12.27,7.97,17.93c-0.43,2.52-1.72,4.31-3.63,5.05
						c-0.64,0.25-1.33,0.37-2.05,0.37C420.8,195.17,418.58,194.28,416.41,192.58z M412.44,170.53c-1.59,0.61-2.63,2.09-3.01,4.28
						c-0.92,5.34,2.49,12.96,7.6,16.98l0,0c2.68,2.1,5.38,2.86,7.42,2.08c1.59-0.61,2.63-2.09,3.01-4.28
						c0.92-5.34-2.49-12.96-7.6-16.98c-1.99-1.56-3.99-2.38-5.72-2.38C413.53,170.23,412.96,170.32,412.44,170.53z"/>
				</g>
			</g>
		</g>
		<ellipse style="fill:#F5F5F5;" cx="250" cy="356.97" rx="208.82" ry="120.56"/>
		<ellipse style="fill:#E0E0E0;" cx="217.23" cy="415.33" rx="45.16" ry="26.07"/>
		<path style="fill:#E0E0E0;" d="M240.7,327.05l120.79,69.75c3.4,1.96,9.33,1.72,13.26-0.55l42.88-24.76
			c3.92-2.27,4.35-5.69,0.95-7.65l-120.79-69.75c-3.4-1.96-9.33-1.72-13.26,0.55l-42.88,24.76
			C237.73,321.66,237.3,325.09,240.7,327.05z"/>
		<g>
			<g>
				<path style="fill:#BA68C8;" d="M169.31,299.46l-9.51,5.53c0,0,4.8-15.33,2.14-30.74c-1.01-5.82-3.12-8.71-3.87-10.26
					c-0.75-1.55-6.48-11.17-1.43-15.6c5.05-4.43,16.9,4.38,16.37,28.13C172.72,288.69,169.31,299.46,169.31,299.46z"/>
				<path style="opacity:0.5;" d="M169.31,299.46l-9.51,5.53c0,0,4.8-15.33,2.14-30.74c-1.01-5.82-3.12-8.71-3.87-10.26
					c-0.75-1.55-6.48-11.17-1.43-15.6c5.05-4.43,16.9,4.38,16.37,28.13C172.72,288.69,169.31,299.46,169.31,299.46z"/>
				<path style="fill:#FFFFFF;" d="M164.89,302.46c0.18,0,0.34-0.11,0.41-0.28c0.04-0.1,3.63-10.09,3.44-26.11
					c-0.19-16.12-8.66-24.72-8.75-24.8c-0.17-0.17-0.44-0.17-0.61,0c-0.17,0.17-0.17,0.44,0,0.61c0.08,0.08,8.31,8.45,8.49,24.2
					c0.19,15.85-3.36,25.71-3.39,25.81c-0.08,0.22,0.03,0.47,0.26,0.55C164.79,302.45,164.84,302.46,164.89,302.46z"/>
			</g>
			<g>
				<path style="fill:#BA68C8;" d="M161.93,303.77l-15.72,9.24c0,0-7.2-1.06-6.65-7.84c0.54-6.77,3.47-8.37-0.17-11.35
					c-3.64-2.98-4.58-3.17-4.41-6.09c0.17-2.92,2.14-4.19,3.06-5.35c0.92-1.16,3.5-3.58,1.69-7.1c-1.81-3.52-4.27-6.92-0.62-8.53
					c2.18-0.96,5.83,0.24,8.26,2.82c2.43,2.57,4.43,4.43,6.72,5.02c2.3,0.6,7.09,0.65,6.93,4.6c-0.16,3.96-1.19,5.33-0.23,7.08
					C162.6,289.6,170.32,291.39,161.93,303.77z"/>
				<path style="opacity:0.2;" d="M161.93,303.77l-15.72,9.24c0,0-7.2-1.06-6.65-7.84c0.54-6.77,3.47-8.37-0.17-11.35
					c-3.64-2.98-4.58-3.17-4.41-6.09c0.17-2.92,2.14-4.19,3.06-5.35c0.92-1.16,3.5-3.58,1.69-7.1c-1.81-3.52-4.27-6.92-0.62-8.53
					c2.18-0.96,5.83,0.24,8.26,2.82c2.43,2.57,4.43,4.43,6.72,5.02c2.3,0.6,7.09,0.65,6.93,4.6c-0.16,3.96-1.19,5.33-0.23,7.08
					C162.6,289.6,170.32,291.39,161.93,303.77z"/>
				<path style="fill:#FFFFFF;" d="M155.53,307.97c0.22,0,0.41-0.17,0.43-0.4c0.02-0.23,1.73-23.67-14.55-39.06
					c-0.17-0.16-0.45-0.16-0.61,0.02c-0.16,0.17-0.16,0.45,0.02,0.61c15.98,15.1,14.31,38.13,14.29,38.37
					c-0.02,0.24,0.16,0.45,0.4,0.47C155.51,307.97,155.52,307.97,155.53,307.97z"/>
				<path style="fill:#FFFFFF;" d="M152.71,287.88c0.22,0,0.41-0.17,0.43-0.4c0.46-6.15,4.73-9.31,4.78-9.34
					c0.19-0.14,0.24-0.41,0.1-0.6c-0.14-0.19-0.41-0.24-0.6-0.1c-0.19,0.14-4.65,3.42-5.13,9.98c-0.02,0.24,0.16,0.44,0.4,0.46
					C152.69,287.88,152.7,287.88,152.71,287.88z"/>
				<path style="fill:#FFFFFF;" d="M153.87,291.88c0.1,0,0.21-0.04,0.29-0.11c0.18-0.16,0.19-0.43,0.03-0.61
					c-0.17-0.19-4.27-4.62-13.75-3.32c-0.24,0.03-0.4,0.25-0.37,0.49c0.03,0.24,0.25,0.4,0.49,0.37c8.99-1.23,12.95,3,12.99,3.04
					C153.64,291.84,153.75,291.88,153.87,291.88z"/>
			</g>
		</g>
		<g>
			<g>
				<path style="fill:#BA68C8;" d="M398.88,337.94l4.7,9.95c0,0,4.74-15.34,15.68-26.53c4.13-4.22,7.51-5.4,9.01-6.26
					s11.68-5.52,10.03-12.03c-1.64-6.52-16.4-5.98-29.44,13.88C402.17,327.14,398.88,337.94,398.88,337.94z"/>
				<path style="opacity:0.5;" d="M398.88,337.94l4.7,9.95c0,0,4.74-15.34,15.68-26.53c4.13-4.22,7.51-5.4,9.01-6.26
					s11.68-5.52,10.03-12.03c-1.64-6.52-16.4-5.98-29.44,13.88C402.17,327.14,398.88,337.94,398.88,337.94z"/>
				<path style="fill:#FFFFFF;" d="M401.06,343c0.19,0,0.37-0.13,0.42-0.32c0.03-0.1,2.7-10.23,11.85-23.17
					c9.09-12.86,20.61-15.09,20.72-15.11c0.23-0.04,0.39-0.27,0.35-0.5c-0.04-0.23-0.26-0.39-0.5-0.35
					c-0.12,0.02-11.97,2.29-21.27,15.46c-9.25,13.09-11.95,23.36-11.98,23.46c-0.06,0.23,0.08,0.47,0.31,0.53
					C400.99,343,401.03,343,401.06,343z"/>
			</g>
			<g>
				<path style="fill:#BA68C8;" d="M402.5,345.69l7.7,16.53c0,0,6.53,3.21,9.92-2.68c3.4-5.89,1.89-8.86,6.58-9.25
					c4.69-0.39,5.57-0.01,7.08-2.52c1.51-2.5,0.62-4.66,0.51-6.14c-0.1-1.48-0.85-4.93,2.64-6.8c3.49-1.87,7.44-3.28,5.35-6.67
					c-1.24-2.03-4.94-3.11-8.4-2.37c-3.46,0.74-6.16,1.13-8.39,0.32c-2.23-0.81-6.2-3.49-8.32-0.14c-2.11,3.35-2.04,5.06-3.83,5.96
					C409.99,333.64,402.62,330.72,402.5,345.69z"/>
				<path style="opacity:0.2;" d="M402.5,345.69l7.7,16.53c0,0,6.53,3.21,9.92-2.68c3.4-5.89,1.89-8.86,6.58-9.25
					c4.69-0.39,5.57-0.01,7.08-2.52c1.51-2.5,0.62-4.66,0.51-6.14c-0.1-1.48-0.85-4.93,2.64-6.8c3.49-1.87,7.44-3.28,5.35-6.67
					c-1.24-2.03-4.94-3.11-8.4-2.37c-3.46,0.74-6.16,1.13-8.39,0.32c-2.23-0.81-6.2-3.49-8.32-0.14c-2.11,3.35-2.04,5.06-3.83,5.96
					C409.99,333.64,402.62,330.72,402.5,345.69z"/>
				<path style="fill:#FFFFFF;" d="M405.64,352.85c0.15,0,0.29-0.08,0.37-0.22c0.12-0.2,11.81-20.12,33.53-23.49
					c0.24-0.04,0.4-0.26,0.36-0.49c-0.04-0.24-0.26-0.4-0.49-0.36c-22.14,3.43-34.03,23.7-34.15,23.91
					c-0.12,0.21-0.05,0.47,0.16,0.59C405.49,352.83,405.56,352.85,405.64,352.85z"/>
				<path style="fill:#FFFFFF;" d="M419.35,337.91c0.15,0,0.29-0.08,0.37-0.21c3.32-5.68,1.51-10.91,1.44-11.13
					c-0.08-0.22-0.32-0.34-0.55-0.26c-0.22,0.08-0.34,0.33-0.26,0.55c0.02,0.05,1.75,5.08-1.37,10.4c-0.12,0.21-0.05,0.47,0.15,0.59
					C419.2,337.89,419.28,337.91,419.35,337.91z"/>
				<path style="fill:#FFFFFF;" d="M428.94,345.51c0.12,0,0.23-0.05,0.32-0.14c0.16-0.18,0.15-0.45-0.03-0.61
					c-7.06-6.45-12.96-5.12-13.2-5.07c-0.23,0.06-0.37,0.29-0.32,0.52c0.05,0.23,0.28,0.38,0.52,0.32
					c0.06-0.01,5.72-1.25,12.42,4.86C428.73,345.47,428.84,345.51,428.94,345.51z"/>
			</g>
		</g>
		<g>
			<g>
				<polygon style="fill:#37474F;" points="280.43,66.39 280.43,66.39 280.43,66.39 				"/>
				<path style="fill:#37474F;" d="M402.39,136.5c0-5.93-3.16-11.41-8.3-14.37L288.58,61.21c-3.12-1.8-6.9-0.11-7.89,3.06
					c0.57-2.47,2.11-4.64,4.34-5.97l0.38-0.22c2.63-1.56,5.62-2.39,8.68-2.39v0c0.93-0.01,1.88,0.22,2.78,0.73l105.52,60.92
					c5.13,2.96,8.3,8.44,8.3,14.37v228.19c0,4.18-4.53,6.8-8.15,4.71l-0.14-0.08V136.5z"/>
			</g>
			<path style="fill:#455A64;" d="M288.72,308.48l105.52,60.92c3.62,2.09,8.15-0.52,8.15-4.71V136.5c0-5.93-3.16-11.41-8.3-14.37
				L288.58,61.21c-3.62-2.09-8.15,0.52-8.15,4.71v228.19C280.43,300.04,283.59,305.52,288.72,308.48z"/>
			<path style="fill:#263238;" d="M402.39,364.7V136.5c0-2.53-0.58-4.98-1.64-7.18l8.16-5.05c1.14,2.27,1.77,4.82,1.77,7.45v227.72
				v0.48v1.91c0,1.84-0.97,3.55-2.55,4.49l-4.21,2.51c-1.46,0.87-3.12,1.33-4.82,1.33h-2.08v0
				C399.83,370.1,402.39,367.84,402.39,364.7z"/>
			<g>
				<path style="fill:#37474F;" d="M292.35,83.15v191.8c0,5.24,2.79,10.07,7.33,12.69l93.18,53.8c0.75,0.43,1.54,0.63,2.31,0.64
					c-1.08,2.5-4.21,3.75-6.81,2.24l-93.18-53.8c-4.53-2.62-7.33-7.46-7.33-12.69V87.93C287.86,85.25,289.97,83.3,292.35,83.15z"/>
				<g>
					<path style="fill:#BA68C8;" d="M395.17,342.07c-0.77-0.01-1.56-0.21-2.31-0.64l-93.18-53.8c-4.53-2.62-7.33-7.46-7.33-12.69
						V83.15c-0.44,0.03,1.4-0.12,2.7,0.63l93.18,53.8c4.53,2.62,7.33,7.46,7.33,12.69v189.9c0,0.7-0.15,1.35-0.4,1.94
						C395.16,342.09,395.17,342.08,395.17,342.07z"/>
				</g>
				<g style="opacity:0.5;">
					<path style="fill:#FFFFFF;" d="M395.17,342.07c-0.77-0.01-1.56-0.21-2.31-0.64l-93.18-53.8c-4.53-2.62-7.33-7.46-7.33-12.69
						V83.15c-0.44,0.03,1.4-0.12,2.7,0.63l93.18,53.8c4.53,2.62,7.33,7.46,7.33,12.69v189.9c0,0.7-0.15,1.35-0.4,1.94
						C395.16,342.09,395.17,342.08,395.17,342.07z"/>
				</g>
			</g>
			<g>
				<path style="fill:#263238;" d="M356.18,109.46c0,1.07,0.75,2.37,1.68,2.91c0.93,0.53,1.68,0.1,1.68-0.97
					c0-1.07-0.75-2.37-1.68-2.91C356.93,107.96,356.18,108.39,356.18,109.46z"/>
				<path style="fill:#263238;" d="M349.93,105.86c0,1.07,0.75,2.37,1.68,2.91c0.93,0.54,1.68,0.1,1.68-0.97
					c0-1.07-0.75-2.37-1.68-2.91C350.69,104.36,349.93,104.79,349.93,105.86z"/>
				<path style="fill:#263238;" d="M324.74,93.25l20.3,11.72c0.8,0.46,1.45-0.03,1.45-1.1l0,0c0-1.07-0.65-2.31-1.45-2.78
					l-20.3-11.72c-0.8-0.46-1.45,0.03-1.45,1.1l0,0C323.29,91.54,323.94,92.79,324.74,93.25z"/>
			</g>
			<path style="fill:#263238;" d="M328.17,315.68c0.44,0,0.93,0.15,1.45,0.45l9.71,5.6c2.32,1.34,4.27,5.11,4.27,8.23
				c0,1.99-0.78,3.27-2,3.27c-0.44,0-0.93-0.15-1.45-0.45l-9.71-5.6c-2.31-1.34-4.27-5.11-4.27-8.23
				C326.18,316.97,326.96,315.68,328.17,315.68L328.17,315.68 M328.17,314.85c-1.66,0-2.83,1.54-2.83,4.1c0,3.45,2.1,7.46,4.69,8.95
				l9.71,5.6c0.66,0.38,1.29,0.56,1.86,0.56c1.66,0,2.83-1.54,2.83-4.1c0-3.45-2.1-7.46-4.69-8.95l-9.71-5.6
				C329.37,315.03,328.74,314.85,328.17,314.85L328.17,314.85z"/>
		</g>
		<g>
			<g>
				<g>
					<path style="fill:#E6E6E6;" d="M381.81,163.71v214.99c0,3.89-1.43,6.51-3.62,7.37l-0.06,0.02l-0.01,0.01l-9.29,5.09l0.05-8.27
						l1.03-222.93l9.81-5.02C381.03,157.75,381.81,160.84,381.81,163.71z"/>
					<path style="fill:#E6E6E6;" d="M368.39,382.91l1.03-222.93l0-0.3l10.54-5.39l0.22,0.47c1.38,2.94,2.13,6.12,2.13,8.95v214.99
						c0,3.89-1.44,6.8-3.93,7.83l-10.06,5.51L368.39,382.91z M377.89,385.66l0.13-0.06c2.07-0.81,3.3-3.39,3.3-6.9V163.71
						c0-2.53-0.65-5.38-1.82-8.05l-9.07,4.64l-1.03,222.62l-0.05,7.42L377.89,385.66L377.89,385.66z"/>
				</g>
				<g>
					<path style="fill:#E0E0E0;" d="M379.73,154.97l-9.81,5.02L264.91,98.9l-7.01-4.08l9.69-5.46l0.28-0.16v-0.01
						c1.54-0.93,3.57-0.87,5.79,0.42l99.4,57.39C375.73,148.54,378.13,151.51,379.73,154.97z"/>
					<path style="fill:#E0E0E0;" d="M369.67,160.42L257.65,95.25c-0.16-0.09-0.25-0.26-0.25-0.44c0-0.18,0.1-0.34,0.25-0.43
						l9.68-5.45l0.2-0.12c0.02-0.02,0.05-0.04,0.07-0.05c1.76-1.06,4-0.91,6.3,0.41l99.4,57.39c2.67,1.54,5.17,4.52,6.88,8.19
						c0.11,0.24,0.01,0.53-0.23,0.66l-9.81,5.02c-0.07,0.04-0.15,0.05-0.23,0.05C369.83,160.49,369.74,160.46,369.67,160.42z
						 M372.81,147.43l-99.4-57.39c-1.94-1.12-3.79-1.29-5.21-0.47c-0.02,0.02-0.05,0.04-0.08,0.05l-9.21,5.2l111.03,64.59l9.13-4.67
						C377.46,151.46,375.19,148.81,372.81,147.43z"/>
				</g>
				<path style="fill:#FAFAFA;" d="M372.19,169.11v214.02c0,3.37-1.07,5.8-2.79,6.93l-0.56,0.31c-1.49,0.71-3.36,0.55-5.4-0.62
					L315.39,362l-51.35-30.91c-4.83-2.79-8.76-9.03-8.76-15.46V101.63c0-3.26,1-5.62,2.62-6.81c0.28-0.2,0.57-0.38,0.89-0.5
					c1.46-0.62,3.28-0.44,5.25,0.69l99.4,58.36c2.58,1.48,4.89,3.34,6.48,6.62C371.33,162.86,372.19,166.1,372.19,169.11z"/>
			</g>
			<g>
				<path style="fill:#FAFAFA;" d="M264.04,331.1c20.45,12.2,73.66,43.96,100,59.82c3.45,2.08,7.84-0.41,7.84-4.44V166.42
					c0-5.09-2.7-9.81-7.1-12.38L263.56,94.71c-3.45-2.02-7.79,0.47-7.79,4.46v217.36C255.77,322.51,258.91,328.04,264.04,331.1z"/>
				<path style="fill:#EBEBEB;" d="M264.29,330.67c16.06,9.58,32.11,19.16,48.16,28.76c9.5,5.68,19,11.36,28.5,17.05
					c4.34,2.6,8.68,5.2,13.01,7.8c1.9,1.14,3.79,2.28,5.69,3.42c1.75,1.05,3.61,2.55,5.55,3.22c3.21,1.11,6.1-1.45,6.18-4.62
					c0.01-0.51,0-1.02,0-1.54c0-2.48,0-4.95,0-7.43c0-9.64,0-19.27,0-28.91c0-13.8,0-27.6,0-41.4c0-15.5,0-31.01,0-46.51
					c0-14.6,0-29.2,0-43.8c0-11.24,0-22.48,0-33.72c0-5.37,0.01-10.75,0-16.12c-0.01-5.29-2.57-9.87-7.14-12.57
					c-2.32-1.37-4.65-2.73-6.98-4.09c-10.9-6.39-21.8-12.78-32.7-19.16c-12.92-7.57-25.83-15.14-38.75-22.71
					c-7.35-4.31-14.68-8.65-22.05-12.92c-2.28-1.32-5.15-1.19-6.74,1.19c-0.64,0.97-0.75,2.05-0.76,3.16c-0.01,1.92,0,3.84,0,5.75
					c0,8.86,0,17.71,0,26.57c0,13.41,0,26.82,0,40.23c0,15.39,0,30.79,0,46.18c0,14.85,0,29.7,0,44.55c0,11.64,0,23.28,0,34.92
					c0,5.91,0,11.81,0,17.72C256.27,321.84,258.96,327.39,264.29,330.67c0.55,0.34,0.05,1.2-0.5,0.86
					c-5.56-3.42-8.52-9.25-8.52-15.7c0-2.05,0-4.09,0-6.14c0-9.17,0-18.34,0-27.51c0-13.73,0-27.46,0-41.19c0-15.72,0-31.44,0-47.17
					c0-14.84,0-29.67,0-44.51c0-11.4,0-22.8,0-34.21c0-5.23-0.06-10.45,0-15.68c0.05-4.75,4.84-7.28,8.88-4.96
					c2.44,1.41,4.85,2.84,7.28,4.27c11.2,6.56,22.4,13.13,33.6,19.69c13.03,7.64,26.06,15.28,39.1,22.91
					c6.91,4.05,13.85,8.07,20.74,12.16c4.79,2.84,7.49,7.77,7.51,13.31c0.01,1.8,0,3.6,0,5.4c0,8.75,0,17.49,0,26.24
					c0,13.45,0,26.9,0,40.35c0,15.66,0,31.31,0,46.97c0,15.05,0,30.1,0,45.15c0,11.97,0,23.93,0,35.9c0,6.21,0,12.42,0,18.62
					c0,0.34,0.01,0.69,0,1.03c-0.12,3.77-3.74,6.65-7.45,5.41c-1.89-0.63-3.67-2.05-5.37-3.07c-1.93-1.16-3.87-2.32-5.8-3.49
					c-4.32-2.6-8.65-5.19-12.97-7.78c-18.91-11.33-37.84-22.64-56.76-33.94c-6.74-4.03-13.49-8.05-20.23-12.07
					C263.24,331.2,263.74,330.33,264.29,330.67z"/>
			</g>
			<path style="fill:#EBEBEB;" d="M364.78,154.03L263.56,94.71c-3.45-2.02-7.79,0.47-7.79,4.46v9.55l0.03,0l116.08,67.02v-9.32
				C371.88,161.32,369.18,156.61,364.78,154.03z"/>
		</g>
		<g>
			
				<ellipse transform="matrix(0.866 -0.5 0.5 0.866 -55.6183 183.0836)" style="fill:#BA68C8;" cx="313.83" cy="195.33" rx="21.46" ry="37.17"/>
			
				<ellipse transform="matrix(0.866 -0.5 0.5 0.866 -55.6183 183.0836)" style="opacity:0.5;fill:#FFFFFF;" cx="313.83" cy="195.33" rx="21.46" ry="37.17"/>
			<g>
				<path style="fill:#37474F;" d="M318.54,195.44c0.65,0,1.18-0.53,1.18-1.18v-7.77c0-3.43-2.33-7.47-5.3-9.19
					c-1.64-0.95-3.24-1.06-4.51-0.33c-1.27,0.73-1.97,2.18-1.97,4.07v7.77c0,0.65,0.53,1.18,1.18,1.18c0.65,0,1.18-0.53,1.18-1.18
					v-7.77c0-1,0.29-1.74,0.79-2.03c0.5-0.29,1.29-0.17,2.15,0.33c2.24,1.29,4.13,4.56,4.13,7.15v7.77
					C317.36,194.91,317.89,195.44,318.54,195.44z"/>
				<g>
					<path style="fill:#BA68C8;" d="M304.3,183.81c0.46-0.22,1.04-0.18,1.67,0.19l15.72,9.08c0.63,0.36,1.21,0.99,1.67,1.74
						c0.62,1.01,1.02,2.25,1.02,3.39v13.61c0,0.99-0.3,1.71-0.78,2.07c-0.09,0.07-0.18,0.12-0.27,0.16l0,0l0,0
						c-0.45,0.2-1.01,0.15-1.63-0.2l-15.72-9.08c-1.48-0.86-2.68-3.15-2.68-5.13v-13.61C303.28,184.88,303.68,184.1,304.3,183.81z"
						/>
				</g>
				<g>
					<path style="fill:#455A64;" d="M312.04,197.99l-1.52,4.36l5.33,3.08l-1.33-5.38l-0.19-0.76c0.9,0.03,1.52-0.67,1.52-1.89
						c0-0.47-0.09-0.96-0.25-1.45c-0.43-1.29-1.35-2.55-2.41-3.16c-1.47-0.85-2.66-0.16-2.66,1.54c0,1.23,0.63,2.64,1.52,3.66
						L312.04,197.99z"/>
					<path style="fill:#37474F;" d="M314.52,200.04l-0.19-0.76c0.9,0.03,1.52-0.67,1.52-1.89c0-0.47-0.09-0.96-0.25-1.45l-3.56,2.06
						l-1.52,4.36L314.52,200.04z"/>
				</g>
			</g>
		</g>
		<g>
			<path style="fill:#BA68C8;" d="M275.05,245.66l77.55,44.77c3.21,1.85,5.81-0.11,5.81-4.39v-11.75c0-4.28-2.6-9.25-5.81-11.1
				l-77.55-44.77c-3.21-1.85-5.81,0.11-5.81,4.39v11.75C269.24,238.84,271.84,243.8,275.05,245.66z"/>
			<g>
				<g>
					<rect x="338.65" y="262.13" style="fill:#FAFAFA;" width="1.5" height="12.43"/>
					
						<rect x="338.65" y="262.13" transform="matrix(0.5001 -0.866 0.866 0.5001 -62.7134 428.068)" style="fill:#FAFAFA;" width="1.5" height="12.43"/>
					
						<rect x="335" y="267.6" transform="matrix(0.866 -0.5 0.5 0.866 -88.7038 205.644)" style="fill:#FAFAFA;" width="8.79" height="1.5"/>
					
						<rect x="338.65" y="260.74" transform="matrix(0.866 -0.5001 0.5001 0.866 -88.7096 205.6838)" style="fill:#FAFAFA;" width="1.5" height="15.23"/>
				</g>
				<g>
					<rect x="313.08" y="248.21" style="fill:#FAFAFA;" width="1.5" height="12.43"/>
					
						<rect x="313.08" y="248.21" transform="matrix(0.5001 -0.866 0.866 0.5001 -63.4354 398.9637)" style="fill:#FAFAFA;" width="1.5" height="12.43"/>
					
						<rect x="309.43" y="253.67" transform="matrix(0.866 -0.5 0.5 0.866 -85.1663 190.995)" style="fill:#FAFAFA;" width="8.79" height="1.5"/>
					
						<rect x="313.08" y="246.81" transform="matrix(0.866 -0.5001 0.5001 0.866 -85.1722 191.0313)" style="fill:#FAFAFA;" width="1.5" height="15.23"/>
				</g>
				<g>
					<rect x="287.51" y="234.28" style="fill:#FAFAFA;" width="1.5" height="12.43"/>
					
						<rect x="287.51" y="234.28" transform="matrix(0.5 -0.866 0.866 0.5 -64.1541 369.8706)" style="fill:#FAFAFA;" width="1.5" height="12.43"/>
					
						<rect x="283.86" y="239.75" transform="matrix(0.866 -0.5 0.5 0.866 -81.6287 176.3449)" style="fill:#FAFAFA;" width="8.79" height="1.5"/>
					
						<rect x="287.51" y="232.88" transform="matrix(0.866 -0.5 0.5 0.866 -81.6323 176.3662)" style="fill:#FAFAFA;" width="1.5" height="15.23"/>
				</g>
			</g>
		</g>
		<path style="fill:#BA68C8;" d="M272.75,261.84c0.37,0,0.82,0.15,1.31,0.43l77.55,44.77c2.61,1.5,4.81,5.79,4.81,9.37v11.75
			c0,1.54-0.46,3.09-1.5,3.09c-0.37,0-0.82-0.15-1.31-0.43l-77.55-44.77c-2.61-1.5-4.81-5.79-4.81-9.37v-11.75
			C271.24,263.39,271.71,261.84,272.75,261.84 M272.75,259.84c-2.06,0-3.5,1.9-3.5,5.09v11.75c0,4.28,2.6,9.25,5.81,11.1
			l77.55,44.77c0.82,0.47,1.6,0.7,2.31,0.7c2.06,0,3.5-1.9,3.5-5.09v-11.75c0-4.28-2.6-9.25-5.81-11.1l-77.55-44.77
			C274.23,260.07,273.45,259.84,272.75,259.84L272.75,259.84z"/>
		
			<text transform="matrix(-0.9478 -0.5472 0.0554 0.9985 332.7029 311.203)" style="fill:#BA68C8; font-family:'ArialMT'; font-size:10.6077px; letter-spacing:1.83;">submit</text>
		<g>
			<path style="fill:#455A64;" d="M158.61,128.31c0,1.45-1.03,3.2-2.31,3.93c-1.28,0.72-2.31,0.14-2.31-1.31
				c0-1.45,1.03-3.2,2.31-3.93C157.57,126.28,158.61,126.86,158.61,128.31z"/>
			<path style="fill:#455A64;" d="M189.58,137.62c1.77,0,3.73-0.58,5.75-1.72l7.33-4.15c0.24-0.14,0.33-0.44,0.19-0.68
				c-0.14-0.24-0.44-0.32-0.68-0.19l-7.33,4.15c-3.16,1.79-6.1,2.08-8.27,0.81c-2.12-1.24-3.3-3.85-3.3-7.36
				c0-3.88-1.35-6.79-3.79-8.22c-2.49-1.45-5.78-1.17-9.27,0.81l-11.85,6.71c-0.24,0.14-0.33,0.44-0.19,0.68
				c0.14,0.24,0.44,0.32,0.68,0.19l11.85-6.71c3.16-1.79,6.1-2.08,8.27-0.81c2.13,1.24,3.3,3.85,3.3,7.36
				c0,3.88,1.35,6.79,3.79,8.22C187.11,137.32,188.3,137.62,189.58,137.62z"/>
			<path style="fill:#455A64;" d="M205.69,129.51c0,1.17-0.84,2.59-1.87,3.18c-1.03,0.58-1.87,0.11-1.87-1.06
				c0-1.17,0.84-2.59,1.87-3.18C204.85,127.86,205.69,128.34,205.69,129.51z"/>
		</g>
		<g>
			<path style="fill:#455A64;" d="M158.61,215.72c0,1.45-1.03,3.2-2.31,3.93c-1.28,0.72-2.31,0.14-2.31-1.31s1.03-3.2,2.31-3.93
				C157.57,213.68,158.61,214.27,158.61,215.72z"/>
			<path style="fill:#455A64;" d="M158.52,216.81c0.08,0,0.17-0.02,0.25-0.06l11.85-6.71c6.93-3.93,12.57-13.51,12.57-21.37
				c0-7.53,5.41-16.73,12.06-20.5l7.42-4.2c0.24-0.14,0.33-0.44,0.19-0.68c-0.14-0.24-0.44-0.32-0.68-0.19l-7.42,4.2
				c-6.93,3.93-12.57,13.51-12.57,21.37c0,7.53-5.41,16.73-12.06,20.5l-11.85,6.71c-0.24,0.14-0.33,0.44-0.19,0.68
				C158.18,216.72,158.35,216.81,158.52,216.81z"/>
			<path style="fill:#455A64;" d="M205.69,161.54c0,1.17-0.84,2.59-1.87,3.18c-1.03,0.58-1.87,0.11-1.87-1.06s0.84-2.59,1.87-3.18
				C204.85,159.9,205.69,160.37,205.69,161.54z"/>
		</g>
		<g>
			<g>
				<path style="fill:#BA68C8;" d="M87.41,118.88l48.98-27.74c1.4-0.81,2.66-0.75,3.56-0.01l4.23,2.93l-2.89,3.57v51.63
					c0,3.61-2.2,7.81-4.9,9.37l-47.76,27.04l-0.22,3.85l-4.46-3.06c-0.89-0.67-1.44-1.99-1.44-3.79v-54.41
					C82.5,124.64,84.7,120.45,87.41,118.88z"/>
				<path style="opacity:0.3;" d="M87.41,118.88l48.98-27.74c1.4-0.81,2.66-0.75,3.56-0.01l4.23,2.93l-2.89,3.57v51.63
					c0,3.61-2.2,7.81-4.9,9.37l-47.76,27.04l-0.22,3.85l-4.46-3.06c-0.89-0.67-1.44-1.99-1.44-3.79v-54.41
					C82.5,124.64,84.7,120.45,87.41,118.88z"/>
				<path style="fill:#BA68C8;" d="M91.57,189.23l48.98-27.74c2.71-1.56,4.9-5.76,4.9-9.37V97.72c0-3.61-2.2-5.27-4.9-3.71
					l-48.98,27.74c-2.71,1.56-4.9,5.76-4.9,9.37v54.41C86.67,189.14,88.86,190.8,91.57,189.23z"/>
			</g>
			<g>
				<path style="fill:#FFFFFF;" d="M101.86,142.15c0.22,0,0.42-0.15,0.48-0.37c1.02-3.81,2.68-7.59,4.8-10.92
					c0.15-0.23,0.08-0.54-0.15-0.69c-0.23-0.15-0.54-0.08-0.69,0.15c-2.17,3.42-3.87,7.29-4.92,11.2c-0.07,0.27,0.09,0.54,0.35,0.61
					C101.78,142.15,101.82,142.15,101.86,142.15z"/>
				<path style="fill:#FFFFFF;" d="M100.74,152.32c0.01,0,0.02,0,0.03,0c0.28-0.02,0.48-0.26,0.47-0.53
					c-0.04-0.54-0.05-1.09-0.05-1.66c0-1.64,0.15-3.36,0.45-5.1c0.05-0.27-0.14-0.53-0.41-0.58c-0.28-0.04-0.53,0.14-0.58,0.41
					c-0.31,1.8-0.46,3.57-0.46,5.27c0,0.59,0.02,1.17,0.06,1.73C100.26,152.11,100.48,152.32,100.74,152.32z"/>
				<path style="fill:#FFFFFF;" d="M131.33,135.72c0.26,0,0.47-0.2,0.5-0.46c0.08-0.87,0.11-1.73,0.11-2.57
					c0-4.85-1.31-8.86-3.68-11.28c-0.19-0.2-0.51-0.2-0.71-0.01c-0.2,0.19-0.2,0.51-0.01,0.71c2.19,2.24,3.4,6,3.4,10.58
					c0,0.81-0.04,1.65-0.11,2.48c-0.02,0.27,0.18,0.52,0.45,0.54C131.3,135.72,131.31,135.72,131.33,135.72z"/>
				<path style="fill:#FFFFFF;" d="M109.21,127.63c0.14,0,0.29-0.06,0.39-0.18c2.1-2.57,4.36-4.55,6.71-5.88
					c3.32-1.88,6.44-2.24,9.01-1.05c0.25,0.12,0.55,0.01,0.66-0.24c0.12-0.25,0.01-0.55-0.24-0.66c-2.88-1.34-6.31-0.96-9.92,1.09
					c-2.46,1.4-4.81,3.45-6.99,6.12c-0.17,0.21-0.14,0.53,0.07,0.7C108.99,127.6,109.1,127.63,109.21,127.63z"/>
				<path style="fill:#FFFFFF;" d="M127.88,136.11c0.27,0,0.49-0.21,0.5-0.48c0.01-0.31,0.02-0.62,0.02-0.93
					c0-3.55-0.87-6.45-2.52-8.38c-0.18-0.21-0.5-0.24-0.71-0.06c-0.21,0.18-0.24,0.49-0.06,0.7c1.49,1.75,2.28,4.42,2.28,7.73
					c0,0.29-0.01,0.59-0.02,0.88c-0.01,0.28,0.2,0.51,0.48,0.52C127.86,136.11,127.87,136.11,127.88,136.11z"/>
				<path style="fill:#FFFFFF;" d="M123.96,125.81c0.17,0,0.33-0.08,0.43-0.24c0.14-0.24,0.07-0.54-0.16-0.69
					c-1.25-0.77-2.69-1.08-4.25-0.93c-0.28,0.03-0.48,0.27-0.45,0.55c0.03,0.27,0.28,0.47,0.55,0.45c1.35-0.13,2.56,0.13,3.62,0.78
					C123.78,125.78,123.87,125.81,123.96,125.81z"/>
				<path style="fill:#FFFFFF;" d="M101.86,158.75c0.2,0,0.38-0.12,0.46-0.31l0.59-1.45c1.19-2.95,1.82-6,1.81-8.84
					c0-8.48,5.2-18.29,11.58-21.91c0.24-0.14,0.33-0.44,0.19-0.68c-0.14-0.24-0.44-0.32-0.68-0.19
					c-6.67,3.78-12.09,13.98-12.09,22.75c0,2.74-0.6,5.67-1.74,8.5l-0.59,1.45c-0.1,0.26,0.02,0.55,0.28,0.65
					C101.74,158.74,101.8,158.75,101.86,158.75z"/>
				<path style="fill:#FFFFFF;" d="M124.82,153c0.2,0,0.4-0.13,0.47-0.33c2.52-6.88,3.1-14.53,3.11-14.61
					c0.02-0.28-0.19-0.51-0.46-0.53c-0.24-0.02-0.51,0.19-0.54,0.46c0,0.07-0.58,7.59-3.05,14.34c-0.09,0.26,0.04,0.55,0.3,0.64
					C124.7,152.99,124.76,153,124.82,153z"/>
				<path style="fill:#FFFFFF;" d="M104.8,162.12c0.2,0,0.39-0.12,0.47-0.33l1.33-3.59c1.41-3.79,2.15-7.59,2.15-10.99v-3.93
					c0-4.67,3.35-10.36,7.47-12.69c1.92-1.09,3.7-1.27,5-0.51c1.27,0.74,1.98,2.32,1.98,4.45V138c0,5.09-1.16,10.8-3.34,16.49
					l-1.65,4.3c-0.1,0.26,0.03,0.55,0.29,0.65c0.26,0.1,0.55-0.03,0.65-0.29l1.65-4.3c2.23-5.81,3.41-11.64,3.41-16.85v-3.47
					c0-2.5-0.88-4.39-2.47-5.32c-1.62-0.95-3.75-0.77-6,0.51c-4.4,2.49-7.98,8.58-7.98,13.56v3.93c0,3.28-0.72,6.96-2.09,10.65
					l-1.33,3.59c-0.1,0.26,0.04,0.55,0.29,0.64C104.69,162.11,104.75,162.12,104.8,162.12z"/>
				<path style="fill:#FFFFFF;" d="M109.21,163.55c0.22,0,0.42-0.14,0.48-0.36l0.7-2.35c1.32-4.47,2-8.77,2-12.78v-6.08
					c0-2.51,1.8-5.57,4.02-6.82c0.99-0.56,1.89-0.66,2.54-0.28c0.63,0.37,0.98,1.17,0.98,2.27c0,6.75-2.06,14.54-5.79,21.94
					l-1.41,2.78c-0.12,0.25-0.03,0.55,0.22,0.67c0.25,0.12,0.55,0.02,0.67-0.22l1.41-2.78c3.8-7.53,5.9-15.48,5.9-22.39
					c0-1.46-0.52-2.58-1.48-3.13c-0.97-0.56-2.23-0.47-3.54,0.28c-2.49,1.41-4.52,4.86-4.52,7.69v6.08c0,3.92-0.66,8.12-1.95,12.5
					l-0.7,2.35c-0.08,0.26,0.07,0.54,0.34,0.62C109.12,163.55,109.16,163.55,109.21,163.55z"/>
				<path style="fill:#FFFFFF;" d="M114.82,153c0.23,0,0.44-0.16,0.49-0.39l0.46-2.14c0.44-2.05,0.66-4.16,0.66-6.26v-5.64
					c0-0.28-0.22-0.5-0.5-0.5c-0.28,0-0.5,0.22-0.5,0.5v5.64c0,2.03-0.22,4.06-0.64,6.05l-0.46,2.14c-0.06,0.27,0.11,0.54,0.38,0.59
					C114.75,153,114.78,153,114.82,153z"/>
				<path style="fill:#FFFFFF;" d="M130.24,142.15c0.25,0,0.47-0.19,0.5-0.45l0.29-2.92c0.03-0.27-0.17-0.52-0.45-0.55
					c-0.3-0.02-0.52,0.17-0.55,0.45l-0.29,2.92c-0.03,0.27,0.17,0.52,0.45,0.55C130.21,142.15,130.22,142.15,130.24,142.15z"/>
			</g>
		</g>
		<g>
			<g>
				<path style="fill:#BA68C8;" d="M87.41,211.54l48.98-27.74c1.4-0.81,2.66-0.75,3.56-0.01l4.23,2.93l-2.89,3.57v51.63
					c0,3.61-2.2,7.81-4.9,9.37l-47.76,27.04l-0.22,3.85l-4.46-3.06c-0.89-0.67-1.44-1.99-1.44-3.79v-54.41
					C82.5,217.29,84.7,213.1,87.41,211.54z"/>
				<path style="opacity:0.3;" d="M87.41,211.54l48.98-27.74c1.4-0.81,2.66-0.75,3.56-0.01l4.23,2.93l-2.89,3.57v51.63
					c0,3.61-2.2,7.81-4.9,9.37l-47.76,27.04l-0.22,3.85l-4.46-3.06c-0.89-0.67-1.44-1.99-1.44-3.79v-54.41
					C82.5,217.29,84.7,213.1,87.41,211.54z"/>
				<path style="fill:#BA68C8;" d="M91.57,281.88l48.98-27.74c2.71-1.56,4.9-5.76,4.9-9.37v-54.41c0-3.61-2.2-5.27-4.9-3.71
					L91.57,214.4c-2.71,1.56-4.9,5.76-4.9,9.37v54.41C86.67,281.79,88.86,283.45,91.57,281.88z"/>
			</g>
			<g>
				<path style="fill:#FFFFFF;" d="M134.55,205.55c0.28,0,0.5-0.22,0.5-0.5v-3.37c0-0.68-0.35-1.3-0.95-1.64
					c-0.61-0.35-1.34-0.36-1.95-0.01l-3.54,2c-0.24,0.14-0.33,0.44-0.19,0.68c0.14,0.24,0.44,0.32,0.68,0.19l3.54-2
					c0.3-0.17,0.65-0.17,0.95,0.01c0.29,0.17,0.45,0.45,0.45,0.78v3.37C134.05,205.32,134.27,205.55,134.55,205.55z"/>
				<path style="fill:#FFFFFF;" d="M128.87,251.92c0.08,0,0.17-0.02,0.25-0.06l3.3-1.87c1.63-0.92,2.64-2.64,2.64-4.49v-3.11
					c0-0.28-0.22-0.5-0.5-0.5c-0.28,0-0.5,0.22-0.5,0.5v3.11c0,1.49-0.82,2.87-2.13,3.62l-3.3,1.87c-0.24,0.14-0.33,0.44-0.19,0.68
					C128.52,251.83,128.69,251.92,128.87,251.92z"/>
				<path style="fill:#FFFFFF;" d="M99,268.63c0.33,0,0.66-0.09,0.96-0.26l3.54-2c0.24-0.14,0.33-0.44,0.19-0.68
					c-0.14-0.24-0.44-0.32-0.68-0.19l-3.54,2c-0.3,0.17-0.66,0.17-0.95-0.01c-0.29-0.17-0.45-0.45-0.45-0.78v-3.37
					c0-0.28-0.22-0.5-0.5-0.5c-0.28,0-0.5,0.22-0.5,0.5v3.37c0,0.68,0.35,1.29,0.95,1.64C98.33,268.54,98.66,268.63,99,268.63z"/>
				<path style="fill:#FFFFFF;" d="M97.57,226.5c0.28,0,0.5-0.22,0.5-0.5v-3.11c0-1.49,0.82-2.87,2.13-3.62l3.3-1.87
					c0.24-0.14,0.33-0.44,0.19-0.68c-0.14-0.24-0.44-0.32-0.68-0.19l-3.3,1.87c-1.63,0.92-2.64,2.64-2.64,4.49V226
					C97.07,226.28,97.29,226.5,97.57,226.5z"/>
			</g>
			<g>
				<path style="fill:#FFFFFF;" d="M130.12,222.37c-0.07,5.91-1.03,11.6-2.41,16.8c-3.81,14.33-18.79,23.15-22.91,13.44
					c-1.64-3.87-2.79-8.81-2.79-15.05c0-8.8,6.3-19.5,14.06-23.9C123.98,209.17,130.23,213.34,130.12,222.37z"/>
			</g>
			<polygon style="fill:#E0E0E0;" points="116.56,230.38 116.56,239.8 120.65,236.74 			"/>
			<g>
				<path style="fill:#E0E0E0;" d="M124.17,224.75c0,0.84-0.6,1.87-1.35,2.29c-0.74,0.42-1.35,0.08-1.35-0.76
					c0-0.84,0.6-1.87,1.35-2.29C123.57,223.57,124.17,223.91,124.17,224.75z"/>
				<path style="fill:#E0E0E0;" d="M111.65,231.93c0,0.84-0.6,1.87-1.35,2.29c-0.74,0.42-1.35,0.08-1.35-0.76
					c0-0.84,0.6-1.87,1.35-2.29C111.04,230.74,111.65,231.08,111.65,231.93z"/>
			</g>
			<path style="fill:#E0E0E0;" d="M117.91,244.41l-4.57-0.78C113.34,243.64,114.31,248.52,117.91,244.41z"/>
		</g>
		<g>
			<path style="fill:#FFA8A7;" d="M191.62,253.2c0,0-7.29-0.49-11.42,9.64c-2.57,6.3-5.7,16.03-7.7,22.49
				c-1.24,4.02,0.04,8.38,3.26,11.08l12.71,10.66l4.55-8.27c0,0-4.9-6.54-8.68-9.92l8.68-26.05L191.62,253.2z"/>
			<path style="fill:#BA68C8;" d="M188.26,284.14c0,0-11.58,1.53-14.47-7.4c0,0,4.96-13.07,7.24-17.41
				c2.27-4.34,6.93-7.49,10.6-6.12C195.29,254.57,188.26,284.14,188.26,284.14z"/>
			<path style="opacity:0.4;fill:#FFFFFF;" d="M188.26,284.14c0,0-11.58,1.53-14.47-7.4c0,0,4.96-13.07,7.24-17.41
				c2.27-4.34,6.93-7.49,10.6-6.12C195.29,254.57,188.26,284.14,188.26,284.14z"/>
			<path style="fill:#37474F;" d="M195.99,401.4c0,0,5.5-4.71,7.64-4.93c2.14-0.22,5.84,3.44,2.71,9.8
				c-0.87,1.77-4.41,3.68-6.62,7.07c-2.21,3.39-4.2,5.93-7.59,5.47c-3.39-0.46-3.83-2.38-3.61-4.59c0.22-2.21,1.22-6,1.22-6
				L195.99,401.4z"/>
			<path style="fill:#263238;" d="M191.96,417.79c3.49,0.48,5.54-2.15,7.82-5.64c2.28-3.49,5.92-5.47,6.82-7.29
				c0.39-0.8,0.68-1.56,0.88-2.28c-0.13,1.1-0.47,2.32-1.14,3.68c-0.87,1.77-4.41,3.68-6.62,7.07c-2.21,3.39-4.2,5.93-7.59,5.47
				c-2.6-0.35-3.46-1.56-3.62-3.1C188.97,416.74,189.95,417.52,191.96,417.79z"/>
			<path style="fill:#EBEBEB;" d="M198.92,407.46c0.08,0,0.17-0.02,0.25-0.06c0.26-0.14,0.36-0.46,0.22-0.72
				c-0.07-0.13-1.79-3.29-5.18-4.06c-0.29-0.07-0.57,0.12-0.64,0.4c-0.07,0.29,0.12,0.57,0.4,0.64c2.9,0.66,4.45,3.49,4.47,3.52
				C198.55,407.35,198.73,407.46,198.92,407.46z"/>
			<path style="fill:#EBEBEB;" d="M200.98,405.56c0.09,0,0.17-0.02,0.25-0.06c0.26-0.14,0.36-0.46,0.22-0.72
				c-0.07-0.13-1.79-3.29-5.18-4.06c-0.29-0.07-0.57,0.12-0.64,0.4c-0.07,0.29,0.12,0.57,0.4,0.64c2.9,0.66,4.45,3.49,4.47,3.52
				C200.6,405.46,200.79,405.56,200.98,405.56z"/>
			<path style="fill:#EBEBEB;" d="M203.33,403.67c0.08,0,0.17-0.02,0.25-0.06c0.26-0.14,0.36-0.46,0.22-0.72
				c-0.07-0.13-1.79-3.29-5.17-4.06c-0.29-0.07-0.57,0.12-0.64,0.4s0.12,0.57,0.4,0.64c2.9,0.66,4.45,3.49,4.47,3.52
				C202.95,403.57,203.14,403.67,203.33,403.67z"/>
			<path style="fill:#37474F;" d="M225.27,416.85c0,0,7.37-2.39,9.57-1.73c2.2,0.66,4.35,5.8-1.35,10.79
				c-1.59,1.39-5.86,1.83-9.44,4.26c-3.57,2.44-6.59,4.13-9.74,2.28c-3.16-1.85-2.9-3.98-2.34-6.29c0.72-2.94,1.29-5.08,1.29-5.08
				L225.27,416.85z"/>
			<path style="fill:#263238;" d="M214.55,431.38c3.25,1.91,6.36,0.16,10.04-2.35c3.68-2.51,8.09-2.96,9.73-4.39
				c0.72-0.63,1.31-1.26,1.8-1.89c-0.58,1.03-1.42,2.1-2.63,3.16c-1.59,1.39-5.86,1.83-9.44,4.26c-3.57,2.44-6.59,4.13-9.74,2.28
				c-2.42-1.42-2.77-2.96-2.3-4.55C212.03,429.11,212.68,430.28,214.55,431.38z"/>
			<path style="fill:#EBEBEB;" d="M227.03,423.66c0.02,0,0.04,0,0.05,0c0.29-0.03,0.51-0.29,0.48-0.58
				c-0.02-0.16-0.41-3.96-3.43-6.11c-0.24-0.17-0.57-0.11-0.75,0.13c-0.17,0.24-0.11,0.57,0.13,0.75c2.61,1.85,2.98,5.3,2.98,5.34
				C226.52,423.45,226.76,423.66,227.03,423.66z"/>
			<path style="fill:#EBEBEB;" d="M223.98,424.65c0.02,0,0.04,0,0.05,0c0.29-0.03,0.51-0.29,0.48-0.58
				c-0.02-0.16-0.41-3.96-3.43-6.11c-0.24-0.17-0.57-0.12-0.75,0.13c-0.17,0.24-0.11,0.57,0.13,0.75c2.61,1.85,2.98,5.3,2.98,5.34
				C223.48,424.45,223.71,424.65,223.98,424.65z"/>
			<path style="fill:#EBEBEB;" d="M229.84,422.63c0.02,0,0.04,0,0.05,0c0.29-0.03,0.51-0.29,0.48-0.58
				c-0.02-0.16-0.41-3.96-3.43-6.11c-0.24-0.17-0.57-0.11-0.75,0.13c-0.17,0.24-0.11,0.57,0.13,0.75c2.61,1.85,2.98,5.3,2.98,5.34
				C229.33,422.43,229.56,422.63,229.84,422.63z"/>
			<g>
				<path style="fill:#455A64;" d="M189.4,402.8c-0.66-7.3-2.09-18.74-2.69-24.09c-1.06-9.56-0.09-16.85,0.58-20.31
					c0.3-1.59,0.39-3.19,0.23-4.8c-1.45-14.54-2.39-38.11-1.59-43.29l20.41,4.32c0,0-2.5,33.07-3.59,44.06
					c-1.1,11.07-5.21,44.2-5.21,44.2C195.83,403.9,192.73,405,189.4,402.8z"/>
				<path style="fill:#FFA8A7;" d="M192.34,410.31c-1.77-0.28-2.6-2.1-2.6-2.1c0-1.15-0.13-3.07-0.34-5.41
					c3.33,2.2,6.43,1.1,8.14,0.1l-0.72,6.14C195.99,409.98,194.11,410.59,192.34,410.31z"/>
			</g>
			<path style="fill:#455A64;" d="M212.36,415.64c-0.83-11.05-2.44-32.47-2.66-35.83c-0.22-3.39,0.16-8.07,0.7-11.11
				c0.35-1.98,0.32-4.01-0.03-5.99l-8.97-49.77l24.67-0.36l1.61,52.14c0.02,0.67,0,1.35-0.08,2.02l-5.23,48.6l0,0
				C222.38,415.33,217.28,419.6,212.36,415.64z"/>
			<path style="fill:#FFA8A7;" d="M216.48,424.76c-1.77-0.17-3.37-1.66-3.62-2.54c0,0-0.2-2.64-0.5-6.59
				c4.91,3.97,10.02-0.31,10.02-0.31l0,0l-0.78,7.29C221.6,422.61,220.44,425.13,216.48,424.76z"/>
			<path style="fill:#BA68C8;" d="M214.68,256.52l5.82,1.99l6.26,29.61l-0.3,26.26c0,0-4.47,3.56-21.93,3.56
				c-9.8,0-16.18-3.69-18.59-7.62l1.57-15.86c0,0-1.57-15.63-1.57-23.36c0-7.73-0.34-14.06,5.69-17.89l5.38,0.44L214.68,256.52z"/>
			<path style="opacity:0.2;fill:#FFFFFF;" d="M214.68,256.52l5.82,1.99l6.26,29.61l-0.3,26.26c0,0-4.47,3.56-21.93,3.56
				c-9.8,0-16.18-3.69-18.59-7.62l1.57-15.86c0,0-1.57-15.63-1.57-23.36c0-7.73-0.34-14.06,5.69-17.89l5.38,0.44L214.68,256.52z"/>
			<path style="fill:#F28F8F;" d="M221,231.07l2.91,5.77c0.18,0.36,0,0.79-0.38,0.92l-3.46,1.15L221,231.07z"/>
			<path style="fill:#FFA8A7;" d="M216.96,221.4c0,0,4.42,2.38,4.42,16.04c0,7.51-0.52,12.3-4.42,12.01
				c-3.9-0.29-15.14-1.77-15.14-1.77V221.4H216.96z"/>
			<path style="fill:#F28F8F;" d="M216.96,249.45c-1.37-0.1-3.65-0.35-6.03-0.63v-1.39c2.19,1.12,6.09,1.91,6.68,2.02
				C217.41,249.46,217.19,249.46,216.96,249.45z"/>
			<polygon style="fill:#FFA8A7;" points="211.6,246.84 211.6,255.41 199.87,255.41 199.87,243.37 			"/>
			<path style="fill:#BA68C8;" d="M211.6,252.15c0,0-4.22,1.5-7.61,0.91s-4.12-2.65-4.12-2.65s-1.1-0.08-2.87,3.24
				c0,0,2.07,4.14,6.85,4.42c6.26,0.37,10.83-1.55,10.83-1.55S213.05,251.72,211.6,252.15z"/>
			<path style="opacity:0.4;fill:#FFFFFF;" d="M211.6,252.15c0,0-4.22,1.5-7.61,0.91s-4.12-2.65-4.12-2.65s-1.1-0.08-2.87,3.24
				c0,0,2.07,4.14,6.85,4.42c6.26,0.37,10.83-1.55,10.83-1.55S213.05,251.72,211.6,252.15z"/>
			<path style="fill:#FFA8A7;" d="M237.77,277.59l3.15,4.85c0,0,7.65-3.41,13.02-5.48c5.38-2.07,8.58-4.94,8.58-4.94
				s-0.41-4.1-1.03-6.2c-0.62-2.09-0.83-3.85,1.03-2.92c1.86,0.93,3.1,4.55,3.2,4.96c0,0,10.75-10.8,12.09-10.57
				c1.34,0.23,1.03,1.86-1.86,5.19c-2.89,3.33-2.89,3.33-2.89,3.33s6.59,3.8,5.52,7.93s-9.76,6-9.76,6s-25.42,19.54-31.06,16.02
				c-5.64-3.51-13.6-13.65-13.6-13.65L237.77,277.59z"/>
			<path style="fill:#BA68C8;" d="M218.19,257.75c0,0-4.69,3.86-1.63,11.84c3.06,7.98,10.86,17.62,10.86,17.62s8.19-2.54,11.34-9.16
				l-10.32-16.15c-1.49-2.33-3.99-3.82-6.76-4C220.71,257.84,219.55,257.79,218.19,257.75z"/>
			<path style="opacity:0.4;fill:#FFFFFF;" d="M218.19,257.75c0,0-4.69,3.86-1.63,11.84c3.06,7.98,10.86,17.62,10.86,17.62
				s8.19-2.54,11.34-9.16l-10.32-16.15c-1.49-2.33-3.99-3.82-6.76-4C220.71,257.84,219.55,257.79,218.19,257.75z"/>
			<path style="fill:#263238;" d="M218.65,213.36c0,0,4.64-0.62,5.82,2.58c0.74,1.99-1.62,3.54-1.62,3.54s2.99,2.82-1.47,3.68
				c0,0,0.37,3.83-3.61,3.31c0,0,0.52,3.04-3.39,4.1c0,0,1.97,5.26-1.74,5.33h-3.48l1.4,4.05c0,0-2.6,6.26-10.7,6.26
				c0,0-2.06-4.27-3.02-5.52c-0.96-1.25-5.97-7.66-5.97-12.74c0-5.08,1.96-8.09,4.66-8.76c0,0,1.16-2.8,3.88-4.64
				c2.73-1.84,8.47-3.48,11.71-1.23c0,0,2.87-3.77,4.86-3.77C217.99,209.54,218.65,211.59,218.65,213.36z"/>
			<path style="fill:#FFA8A7;" d="M212.64,235.89c0,0,0.34-5.33-4.15-5.33s-3.43,9.38,2.08,9.38L212.64,235.89z"/>
		</g>
		<path id="Shadow_49_" style="fill:#E0E0E0;" d="M130.21,390.29c14.61,8.43,14.61,22.11,0,30.54c-14.61,8.43-38.3,8.43-52.9,0
			c-14.61-8.43-14.61-22.11,0-30.54C91.91,381.86,115.6,381.86,130.21,390.29z"/>
		<g id="Table_1_">
			<g id="Table_3_">
				<g>
					<path style="fill:#455A64;" d="M119.79,344.13c0-0.3-0.2-0.6-0.59-0.82c-0.79-0.45-2.06-0.45-2.85,0
						c-0.39,0.23-0.59,0.52-0.59,0.82l15.12,62.79h0c0.01,0.21,0.14,0.41,0.41,0.57c0.56,0.32,1.46,0.32,2.01,0
						c0.27-0.16,0.41-0.36,0.41-0.57h0L119.79,344.13z"/>
					<path style="fill:#455A64;" d="M84.94,344.13c0-0.3,0.2-0.6,0.59-0.82c0.79-0.45,2.06-0.45,2.85,0
						c0.39,0.23,0.59,0.52,0.59,0.82l-15.12,62.79h0c-0.01,0.21-0.14,0.41-0.41,0.57c-0.56,0.32-1.46,0.32-2.01,0
						c-0.27-0.16-0.41-0.36-0.41-0.57h0L84.94,344.13z"/>
					<path style="fill:#455A64;" d="M100.11,346.2c0-0.3,0.2-0.6,0.59-0.82c0.79-0.45,2.06-0.45,2.85,0
						c0.39,0.23,0.59,0.52,0.59,0.82l-0.59,70.81h0c-0.01,0.21-0.14,0.41-0.41,0.57c-0.56,0.32-1.46,0.32-2.01,0
						c-0.27-0.16-0.41-0.36-0.41-0.57h0L100.11,346.2z"/>
				</g>
				<g>
					<path style="fill:#BA68C8;" d="M66.05,329.06h0.03c-0.01-5.33,3.49-10.66,10.53-14.73c14.09-8.13,36.93-8.13,51.02,0
						c7.05,4.07,10.54,9.4,10.53,14.73h0.03v2.86l0,0c-0.08,5.26-3.61,10.51-10.57,14.52c-14.09,8.13-36.93,8.13-51.02,0
						c-6.95-4.01-10.48-9.26-10.57-14.52l0,0V329.06z"/>
					<path id="XMLID_729_" style="fill:#BA68C8;" d="M127.63,314.33c14.09,8.13,14.09,21.32,0,29.46c-14.09,8.13-36.93,8.13-51.02,0
						c-14.09-8.13-14.09-21.32,0-29.46C90.7,306.19,113.55,306.19,127.63,314.33z"/>
					<path id="XMLID_728_" style="opacity:0.45;fill:#FFFFFF;" d="M127.63,314.33c14.09,8.13,14.09,21.32,0,29.46
						c-14.09,8.13-36.93,8.13-51.02,0c-14.09-8.13-14.09-21.32,0-29.46C90.7,306.19,113.55,306.19,127.63,314.33z"/>
				</g>
			</g>
			<g id="Pot_5_">
				<g id="XMLID_715_" style="opacity:0.05;">
					<path id="XMLID_720_" d="M94.22,322.17c-4.49,2.59-4.49,6.8,0,9.4c4.49,2.59,11.78,2.59,16.27,0c4.49-2.59,4.49-6.8,0-9.4
						C106,319.58,98.71,319.58,94.22,322.17z"/>
				</g>
				<g id="XMLID_527_">
					<path id="XMLID_710_" style="fill:#EBEBEB;" d="M109.52,327.45c3.91-3.99,6.21-13.97,2.4-17.13H92.49
						c-3.82,3.17-1.52,13.13,2.39,17.13c0.03,0.04,0.07,0.07,0.11,0.11c0.04,0.04,0.09,0.09,0.13,0.13
						c0.11,0.11,0.23,0.21,0.35,0.31c0.03,0.03,0.06,0.05,0.09,0.07c0.1,0.08,0.19,0.15,0.3,0.22c0.17,0.12,0.34,0.23,0.51,0.32
						c3.22,1.86,8.44,1.86,11.66,0h0h0c0.17-0.1,0.34-0.21,0.51-0.33c0.1-0.07,0.19-0.14,0.27-0.21c0.04-0.03,0.08-0.06,0.12-0.09
						c0.12-0.1,0.23-0.2,0.34-0.3c0.05-0.05,0.1-0.1,0.16-0.15C109.45,327.51,109.49,327.48,109.52,327.45z"/>
					<path id="XMLID_694_" style="fill:#FAFAFA;" d="M94.17,309.04c-4.43,2.56-4.43,6.71,0,9.27c4.43,2.56,11.62,2.56,16.05,0
						c4.43-2.56,4.43-6.71,0-9.27C105.79,306.48,98.61,306.48,94.17,309.04z"/>
					<path id="XMLID_565_" style="fill:#EBEBEB;" d="M97.32,310.86c-2.7,1.56-2.7,4.08,0,5.64c2.7,1.56,7.07,1.56,9.76,0
						c2.7-1.56,2.7-4.08,0-5.64C104.38,309.3,100.01,309.3,97.32,310.86z"/>
					<path id="XMLID_548_" style="fill:#E0E0E0;" d="M107.08,313.53c-2.7-1.56-7.07-1.56-9.76,0c-0.75,0.43-1.28,0.94-1.62,1.48
						c0.33,0.54,0.87,1.05,1.62,1.48c2.7,1.56,7.07,1.56,9.76,0c0.75-0.43,1.28-0.94,1.62-1.48
						C108.36,314.47,107.83,313.96,107.08,313.53z"/>
				</g>
				<g id="XMLID_441_">
					<path id="XMLID_450_" style="fill:#BA68C8;" d="M97.91,315.01c0,0-1.9-1.81-3.53-4.7c-1.63-2.88-1.93-6.75-1.09-7.22
						c0.84-0.48,4.28,3.38,4.28,3.38s-0.51-2.35-0.36-4.92c0.14-2.57,0.77-4.9,1.51-5.37c0.74-0.47,2.38,2.77,3.09,5.12
						c0.71,2.35,1.13,4.28,1.13,4.28s0.48-3.17,1.27-5.4c0.86-2.44,1.63-2.99,2.23-2.75c0.6,0.24,1,1.38,1.18,4.63
						c0.12,2.27-0.15,4.65-0.15,4.65s1.21-1.33,2.55-2.62c1.48-1.42,2.11-1.61,2.53-1.34c0.42,0.27,0.54,2.48-1.75,6.61
						c-2.02,3.65-4.31,5.68-4.31,5.68S103.32,317.05,97.91,315.01z"/>
					<path id="XMLID_443_" style="opacity:0.3;" d="M97.91,315.01c0,0-1.9-1.81-3.53-4.7c-1.63-2.88-1.93-6.75-1.09-7.22
						c0.84-0.48,4.28,3.38,4.28,3.38s-0.51-2.35-0.36-4.92c0.14-2.57,0.77-4.9,1.51-5.37c0.74-0.47,2.38,2.77,3.09,5.12
						c0.71,2.35,1.13,4.28,1.13,4.28s0.48-3.17,1.27-5.4c0.86-2.44,1.63-2.99,2.23-2.75c0.6,0.24,1,1.38,1.18,4.63
						c0.12,2.27-0.15,4.65-0.15,4.65s1.21-1.33,2.55-2.62c1.48-1.42,2.11-1.61,2.53-1.34c0.42,0.27,0.54,2.48-1.75,6.61
						c-2.02,3.65-4.31,5.68-4.31,5.68S103.32,317.05,97.91,315.01z"/>
				</g>
			</g>
		</g>
	</g>
</g>
</svg>
