<?xml version="1.0" encoding="utf-8"?>
<!-- Generator: Adobe Illustrator 27.2.0, SVG Export Plug-In . SVG Version: 6.00 Build 0)  -->
<svg version="1.1" xmlns="http://www.w3.org/2000/svg" xmlns:xlink="http://www.w3.org/1999/xlink" x="0px" y="0px"
	 viewBox="0 0 251 277.61" style="enable-background:new 0 0 251 277.61;" xml:space="preserve">
<style type="text/css">
	.st0{fill:#FFFFFF;}
	.st1{fill:#2D2D4A;}
</style>
<g id="BACKGROUND">
	<rect x="-114" y="-117" class="st0" width="500" height="500"/>
</g>
<g id="OBJECTS">
	<g>
		<g>
			<g>
				<path class="st1" d="M61.21,65.8c0.56,7,0.59,14.09,0.35,21.1c-0.18,5.48-0.81,10.94-0.44,16.43c0.22,3.27,0.81,6.48,1.41,9.7
					c0.51,2.76,0.85,5.53,0.77,8.35c-0.06,1.92-0.22,3.84-0.29,5.76c-0.2,5.56,0.37,11.09,1.9,16.45
					c2.48,8.69,7.07,16.67,12.38,23.93c3.26,4.46,6.77,8.76,10.37,12.95c2.81,3.27,5.71,6.47,8.9,9.38
					c3.96,3.61,8.59,6.99,14.02,7.78c5.04,0.74,10.21-0.74,14.85-2.62c7.55-3.05,14.58-7.48,21.26-12.1
					c5.97-4.13,11.95-8.54,17.11-13.67c0.75-0.75,1.48-1.52,2.14-2.35c0.49-0.63-0.39-1.52-0.88-0.88
					c-1.54,1.96-3.44,3.66-5.32,5.29c-2.79,2.44-5.71,4.74-8.69,6.96c-6.65,4.94-13.64,9.57-21.05,13.3
					c-5.01,2.52-10.67,4.91-16.38,5.01c-5.09,0.09-9.6-2.22-13.51-5.32c-6.78-5.39-12.34-12.37-17.7-19.11
					c-6.13-7.7-11.78-15.95-15.13-25.27c-2.02-5.61-3.08-11.48-3.07-17.45c0.01-4.33,0.63-8.63,0.11-12.96
					c-0.34-2.89-1.02-5.72-1.46-8.59c-0.67-4.37-0.74-8.79-0.47-13.19c0.56-9.11,0.73-18.23,0.17-27.34
					c-0.03-0.51-0.06-1.01-0.1-1.52C62.39,65.01,61.14,65,61.21,65.8L61.21,65.8z"/>
			</g>
		</g>
		<g>
			<g>
				<path class="st1" d="M138.97,61.51c-4.3,0.74-8.63,1.35-12.96,1.93c-9.57,1.28-19.19,2.31-28.83,2.9
					c-9.83,0.6-19.92,0.97-29.7-0.47c-3.46-0.51-7.06-1.23-10.18-2.87c-1.96-1.03-3.57-2.57-5.05-4.19
					c-2.24-2.45-4.08-5.3-5.31-8.39c-2.02-5.08-2.61-11.09-0.41-16.21c0.95-2.22,2.46-4.24,4.47-5.61c2.44-1.67,5.4-2.21,8.3-2.39
					c13.98-0.86,27.47,6.37,41.47,3.85c4.79-0.86,9.51-2.15,14.25-3.25c6.37-1.47,12.8-2.78,19.3-3.56
					c13.72-1.64,28.66-1.14,40.7,6.41c10.04,6.29,15.61,17,17.71,28.4c1.67,9.03,1.46,18.49-0.05,27.53
					c-0.21,1.25-0.45,2.49-0.73,3.72c0.2-0.15,0.4-0.31,0.6-0.46c-4.58-0.56-9.82,0.67-13.49,3.46c-3.41,2.6-5.33,6.54-5.99,10.72
					c-1,6.35-1.32,12.91-1.28,19.34c0.02,3.03,0.08,6.11,0.46,9.12c0.21-0.21,0.42-0.42,0.62-0.62c-2.46,0-4.92,0-7.38,0
					c0.21,0.21,0.42,0.42,0.62,0.62c0.7-10.29,1.06-20.67,0.67-30.98c-0.12-3.03-0.31-6.07-0.75-9.08c-0.29-1.93-0.6-4.13-1.66-5.83
					c-0.94-1.51-2.71-2.28-4.32-2.84c-2.19-0.76-4.47-1.24-6.66-2.02c-3.02-1.09-5.76-2.76-7.89-5.19
					c-3.31-3.78-4.85-8.77-5.77-13.62c-0.15-0.79-1.35-0.46-1.21,0.33c1.38,7.32,4.45,14.66,11.34,18.29
					c2.2,1.16,4.59,1.88,6.98,2.55c1.87,0.52,3.96,0.98,5.53,2.18c1.38,1.05,1.76,2.89,2.09,4.49c0.58,2.8,0.79,5.67,0.95,8.51
					c0.38,6.82,0.27,13.66,0.05,20.48c-0.14,4.24-0.32,8.49-0.61,12.72c-0.02,0.34,0.3,0.62,0.62,0.62c2.46,0,4.92,0,7.38,0
					c0.31,0,0.67-0.29,0.62-0.62c-0.98-7.81-0.53-15.95,0.26-23.75c0.5-4.96,1.19-9.98,5.01-13.56c2.34-2.19,5.41-3.4,8.54-3.9
					c1.7-0.27,3.52-0.39,5.24-0.17c0.26,0.03,0.55-0.22,0.6-0.46c1.81-7.88,2.33-16.21,1.75-24.26
					c-0.81-11.17-4.15-22.57-11.99-30.87c-9.63-10.2-24.06-13.45-37.63-13.28c-13.11,0.16-25.86,3.26-38.55,6.24
					c-2.18,0.51-4.37,1.03-6.58,1.41c-3.09,0.54-6.22,0.56-9.34,0.28c-7.8-0.7-15.39-2.88-23.15-3.85
					c-5.86-0.73-13.07-1.15-18.01,2.71c-4.04,3.16-5.76,8.4-5.75,13.39c0.01,9.98,6.51,20.91,16.25,24.08
					c3.9,1.27,8.05,1.81,12.12,2.15c5.1,0.42,10.23,0.47,15.35,0.35c10.56-0.25,21.1-1.2,31.58-2.45
					c6.41-0.77,12.81-1.64,19.18-2.68c0.31-0.05,0.62-0.1,0.93-0.16C140.1,62.58,139.76,61.37,138.97,61.51z"/>
			</g>
		</g>
		<g>
			<g>
				<path class="st1" d="M172.96,160.92c3.42-3.58,6.63-7.52,9.24-11.73c1.88-3.02,3.35-6.37,4.01-9.88c0.28-1.5,0.5-3.13,0.26-4.66
					c-0.15,0.26-0.29,0.51-0.44,0.77c6.82-1.82,13.66-6.61,16.33-13.28c2.95-7.37,3.82-16.9,0.67-24.34
					c-1.91-4.51-5.56-7.71-10.32-8.92c-0.78-0.2-1.11,1.01-0.33,1.21c4.09,1.04,7.29,3.62,9.15,7.41c1.77,3.63,2.24,7.81,2.12,11.81
					c-0.12,3.82-0.78,7.66-2.04,11.28c-1.52,4.39-4.56,7.78-8.46,10.24c-2.28,1.44-4.83,2.69-7.45,3.39
					c-0.35,0.09-0.49,0.44-0.44,0.77c0.17,1.04-0.07,3.13-0.35,4.45c-0.73,3.49-2.26,6.74-4.18,9.73c-2.5,3.88-5.48,7.53-8.66,10.87
					C171.52,160.61,172.41,161.5,172.96,160.92L172.96,160.92z"/>
			</g>
		</g>
		<g>
			<g>
				<path class="st1" d="M194.65,99.03c-3.38-1.37-8.14-1.69-10.86,1.14c-2.17,2.25-2.77,6-3.21,8.97
					c-0.5,3.36-0.64,6.76-0.57,10.15c0.04,1.9,0.12,3.8,0.33,5.69c0.09,0.79,1.34,0.8,1.25,0c-0.46-4.15-0.48-8.41-0.13-12.57
					c0.27-3.26,0.71-6.91,2.2-9.87c1.2-2.4,3.6-3.33,6.17-3.24c1.52,0.05,3.09,0.37,4.51,0.94
					C195.06,100.54,195.39,99.33,194.65,99.03L194.65,99.03z"/>
			</g>
		</g>
		<g>
			<g>
				<path class="st1" d="M122.35,195.26c0,3.05,0,6.11,0,9.16c0,0.43,0,0.86,0,1.3c0,0.8,1.25,0.81,1.25,0c0-3.05,0-6.11,0-9.16
					c0-0.43,0-0.86,0-1.3C123.6,194.46,122.35,194.46,122.35,195.26L122.35,195.26z"/>
			</g>
		</g>
		<g>
			<g>
				<path class="st1" d="M173.16,159.1c0,10.36,0,20.72,0,31.07c0,1.47,0,2.95,0,4.42c0,0.8,1.25,0.81,1.25,0
					c0-10.36,0-20.72,0-31.07c0-1.47,0-2.95,0-4.42C174.41,158.29,173.16,158.29,173.16,159.1L173.16,159.1z"/>
			</g>
		</g>
		<g>
			<g>
				<path class="st1" d="M176.05,189.47c-0.14,0.5-0.23,0.62-0.5,1.15c-0.66,1.3-1.47,2.52-2.33,3.7
					c-3.95,5.4-9.07,9.97-14.23,14.18c-5.17,4.21-10.63,8.05-16.21,11.7c-0.29,0.19-0.39,0.55-0.22,0.86
					c5.03,9.26,0.91,21.02-3.75,29.59c-0.45,0.83-0.92,1.66-1.43,2.46c-0.34,0.53,0.33,1.18,0.86,0.86
					c11.69-7.18,22.99-15.42,33.18-24.6c3.56-3.21,7-6.59,10.08-10.27c1.27-1.52,2.94-3.24,3.8-5.04c0.2-0.42,0.18-0.81,0.2-1.27
					c0.21-5.3,0-10.7-0.96-15.93c-1.03-5.55-3.74-13.55-10.9-12.03c-0.79,0.17-0.45,1.37,0.33,1.21c6.08-1.29,8.31,5.9,9.24,10.51
					c1.04,5.17,1.23,10.54,1.06,15.79c-0.01,0.37,0.07,0.91-0.05,1.27c0.05-0.16-0.33,0.32-0.37,0.39c-0.26,0.38-0.53,0.76-0.8,1.14
					c-0.65,0.89-1.33,1.77-2.04,2.62c-2.86,3.48-6.05,6.67-9.36,9.72c-6.73,6.19-14,11.78-21.47,17.04
					c-4.11,2.9-8.28,5.74-12.57,8.37c0.29,0.29,0.57,0.57,0.86,0.86c1.55-2.41,2.82-5.03,3.94-7.66c2.18-5.12,3.79-10.69,3.64-16.3
					c-0.08-3.27-0.83-6.47-2.4-9.35c-0.07,0.29-0.15,0.57-0.22,0.86c8.7-5.69,17.26-11.85,24.65-19.2
					c3.15-3.13,6.31-6.56,8.41-10.51c0.3-0.56,0.61-1.15,0.79-1.77C177.48,189.03,176.27,188.7,176.05,189.47L176.05,189.47z"/>
			</g>
		</g>
		<g>
			<g>
				<path class="st1" d="M122.35,202.99c-0.13,4.4,0.43,9.01,1.73,13.21c0.46,1.47,1.03,2.93,1.78,4.28
					c0.8,1.45,1.97,2.76,2.99,4.07c0.63,0.81,1.23,1.74,1.98,2.45c0.04-0.33,0.08-0.65,0.13-0.98c-5.58,4.13-9.96,10.6-11.97,17.19
					c-1.01,3.31-1.41,6.77-1.21,10.22c0.41-0.06,0.82-0.11,1.23-0.17c-2.46-7.06-4.57-14.29-6.31-21.56
					c-1.26-5.26-2.41-10.65-2.64-16.07c-0.21-4.97,0.9-10.01,5.14-13.07c2.19-1.58,5.05-2.68,7.77-2.8c0.8-0.04,0.81-1.29,0-1.25
					c-2.4,0.11-4.88,0.91-6.96,2.06c-4.42,2.43-6.83,6.86-7.18,11.83c-0.37,5.21,0.69,10.58,1.76,15.65
					c1.18,5.59,2.68,11.11,4.33,16.58c0.9,3,1.84,6,2.88,8.96c0.22,0.63,1.27,0.58,1.23-0.17c-0.4-7,1.88-13.69,5.96-19.34
					c1.8-2.5,4.33-5.3,6.61-6.98c0.31-0.23,0.45-0.68,0.13-0.98c-0.62-0.59-1.13-1.35-1.66-2.03c-1.03-1.32-2.22-2.64-3.04-4.09
					c-0.8-1.4-1.38-2.92-1.84-4.46c-1.19-4.01-1.71-8.36-1.59-12.54C123.62,202.19,122.37,202.19,122.35,202.99L122.35,202.99z"/>
			</g>
		</g>
		<g>
			<g>
				<path class="st1" d="M145.07,228.78c-3.63,1.92-7.29,3.81-10.99,5.61c-1.8,0.87-3.92,1.43-5.01,3.24
					c-1.12,1.86-1.39,4.2-1.52,6.33c-0.09,1.57-0.08,3.16,0.07,4.72c0.08,0.79,1.33,0.8,1.25,0c-0.31-3.14-0.38-6.9,0.96-9.81
					c0.88-1.92,2.81-2.39,4.59-3.25c2.34-1.13,4.66-2.31,6.96-3.5c1.44-0.74,2.88-1.49,4.32-2.25
					C146.41,229.49,145.78,228.41,145.07,228.78L145.07,228.78z"/>
			</g>
		</g>
		<g>
			<g>
				<path class="st1" d="M122.37,236.15c0.11,0.61,0.36,1.21,0.63,1.76c0.58,1.19,1.48,2.23,2.59,2.95
					c0.82,0.53,1.76,0.86,2.72,1.01c0.33,0.05,0.67-0.09,0.77-0.44c0.08-0.3-0.1-0.72-0.44-0.77c-1.48-0.24-2.67-0.85-3.63-1.95
					c-0.05-0.06-0.1-0.12-0.16-0.19c-0.1-0.11,0.02,0.04-0.06-0.08c-0.09-0.12-0.17-0.23-0.25-0.35c-0.15-0.22-0.28-0.45-0.4-0.69
					c-0.06-0.11-0.11-0.22-0.16-0.33c-0.02-0.05-0.04-0.1-0.06-0.15c-0.03-0.08,0.05,0.12,0.02,0.04c-0.01-0.03-0.03-0.07-0.04-0.1
					c-0.07-0.17-0.13-0.34-0.18-0.52c-0.06-0.18-0.11-0.36-0.15-0.55c-0.06-0.33-0.46-0.52-0.77-0.44
					C122.46,235.48,122.31,235.82,122.37,236.15L122.37,236.15z"/>
			</g>
		</g>
		<g>
			<g>
				<path class="st1" d="M109.08,218.79c-7.88,5.39-16.08,10.37-24.44,14.98c-6.73,3.71-13.62,6.86-20.7,9.82
					c-6.54,2.73-12.9,6.34-17.81,11.54c-3.8,4.03-6.4,8.87-8.1,14.12c-0.25,0.77,0.96,1.1,1.21,0.33c1.49-4.63,3.7-8.96,6.92-12.63
					c4.6-5.24,10.7-8.92,17.03-11.69c3.45-1.51,6.98-2.83,10.4-4.43c3.4-1.59,6.74-3.3,10.04-5.09c5.88-3.19,11.64-6.6,17.31-10.16
					c2.95-1.86,5.89-3.74,8.77-5.71C110.37,219.41,109.75,218.33,109.08,218.79L109.08,218.79z"/>
			</g>
		</g>
		<g>
			<g>
				<path class="st1" d="M183.14,215.86c6.51,5.61,13.7,10.56,21.01,15.05c6.18,3.8,12.84,6.83,18.79,11
					c4.98,3.48,9.52,7.68,13.07,12.63c3.62,5.06,6.11,10.77,7.6,16.8c0.19,0.78,1.4,0.45,1.21-0.33
					c-2.76-11.16-9.06-20.71-18.08-27.83c-5.63-4.44-11.98-7.5-18.15-11.07c-5.8-3.36-11.4-7.06-16.79-11.03
					c-2.65-1.95-5.28-3.94-7.77-6.09C183.41,214.45,182.53,215.33,183.14,215.86L183.14,215.86z"/>
			</g>
		</g>
		<g>
			<g>
				<path class="st1" d="M80.07,93.17c-1.82-1.24-4.12-1.98-6.28-2.28c-4.79-0.67-9.19,1.23-12.53,4.64
					c-0.56,0.58,0.32,1.46,0.88,0.88c3.16-3.23,7.35-5.02,11.88-4.23c1.87,0.33,3.83,0.99,5.42,2.06
					C80.1,94.7,80.73,93.62,80.07,93.17L80.07,93.17z"/>
			</g>
		</g>
		<g>
			<g>
				<path class="st1" d="M110.06,94.11c0.1-0.09-0.01-0.01,0.22-0.16c0.31-0.2,0.62-0.39,0.95-0.56c1.17-0.59,2.46-0.95,3.76-1.13
					c5.48-0.75,10.96,1.53,15.58,4.25c0.69,0.41,1.32-0.67,0.63-1.08c-4.87-2.86-10.6-5.18-16.36-4.4
					c-1.94,0.26-4.14,0.88-5.66,2.19C108.57,93.75,109.46,94.64,110.06,94.11L110.06,94.11z"/>
			</g>
		</g>
		<g>
			<g>
				<path class="st1" d="M89.52,112.69c-1.13,6.49-2.7,12.93-4.48,19.26c-0.82,2.91-1.42,6.11,0.32,8.83
					c1.24,1.94,3.34,3.1,5.5,3.74c2.19,0.65,4.54,0.86,6.82,0.76c0.8-0.03,0.81-1.28,0-1.25c-3.71,0.16-8.71-0.36-11.06-3.63
					c-1.93-2.67-0.97-5.94-0.17-8.82c1.14-4.12,2.16-8.27,3.06-12.45c0.44-2.03,0.86-4.06,1.22-6.11
					C90.86,112.24,89.65,111.9,89.52,112.69L89.52,112.69z"/>
			</g>
		</g>
		<g>
			<g>
				<path class="st1" d="M94.16,163.38c1.26-0.15,2.68,0.28,3.92,0.46c2.22,0.31,4.47,0.5,6.71,0.35
					c5.68-0.38,10.47-3.12,13.27-8.15c0.39-0.7-0.69-1.33-1.08-0.63c-2.76,4.97-7.54,7.42-13.13,7.57
					c-2.03,0.06-4.06-0.15-6.07-0.44c-1.15-0.17-2.46-0.55-3.63-0.41C93.37,162.23,93.36,163.48,94.16,163.38L94.16,163.38z"/>
			</g>
		</g>
		<path class="st1" d="M82.16,113.9c-0.08-2.4-0.68-4.85-2.16-6.71c-1.66-2.1-4.43-2.89-6.81-1.51c-1.47,0.85-0.14,3.13,1.33,2.28
			c1.27-0.74,2.36-0.24,3.18,0.65c-1.03-0.18-1.88,0.1-2.57,0.65c-0.07,0.04-0.15,0.06-0.22,0.11c-0.72,0.46-1.09,1.1-1.19,1.77
			c-0.48,1.02-0.76,2.19-0.83,3.22c-0.16,2.34,0.26,4.75,1.5,6.72c0.55,1.21,1.3,2.36,2.52,2.91c1.66,0.75,3.43,0.08,4.37-1.47
			C82.69,120.2,82.83,116.73,82.16,113.9z"/>
		<path class="st1" d="M123.16,113.9c-0.08-2.4-0.68-4.85-2.16-6.71c-1.66-2.1-4.43-2.89-6.8-1.51c-1.47,0.85-0.14,3.13,1.33,2.28
			c1.27-0.74,2.36-0.24,3.18,0.65c-1.03-0.18-1.88,0.1-2.57,0.65c-0.07,0.04-0.15,0.06-0.22,0.11c-0.72,0.46-1.09,1.1-1.19,1.77
			c-0.48,1.02-0.76,2.19-0.83,3.22c-0.16,2.34,0.26,4.75,1.5,6.72c0.55,1.21,1.3,2.36,2.52,2.91c1.66,0.75,3.43,0.08,4.37-1.47
			C123.69,120.2,123.83,116.73,123.16,113.9z"/>
	</g>
	<g>
		<path class="st1" d="M569.9,125.22c-0.08-2.38-0.69-4.8-2.18-6.65c-1.68-2.08-4.48-2.86-6.87-1.49c-1.48,0.84-0.14,3.1,1.34,2.25
			c1.28-0.73,2.39-0.24,3.21,0.64c-1.04-0.18-1.9,0.09-2.6,0.64c-0.07,0.04-0.15,0.06-0.22,0.11c-0.73,0.46-1.1,1.09-1.2,1.75
			c-0.49,1.01-0.77,2.16-0.84,3.19c-0.16,2.32,0.26,4.71,1.51,6.65c0.55,1.19,1.31,2.34,2.54,2.88c1.68,0.74,3.47,0.08,4.42-1.45
			C570.44,131.46,570.58,128.02,569.9,125.22z"/>
		<path class="st1" d="M532.69,125.22c-0.08-2.38-0.69-4.8-2.18-6.65c-1.68-2.08-4.48-2.86-6.87-1.49c-1.48,0.84-0.14,3.1,1.34,2.25
			c1.28-0.73,2.39-0.24,3.21,0.64c-1.04-0.18-1.9,0.09-2.6,0.64c-0.07,0.04-0.15,0.06-0.22,0.11c-0.73,0.46-1.1,1.09-1.2,1.75
			c-0.49,1.01-0.77,2.16-0.84,3.19c-0.16,2.32,0.26,4.71,1.51,6.65c0.55,1.19,1.31,2.34,2.54,2.88c1.68,0.74,3.47,0.08,4.42-1.45
			C533.24,131.46,533.38,128.02,532.69,125.22z"/>
		<g>
			<g>
				<path class="st1" d="M533.13,161.4c1.21-1.42,3.12-2.55,5.02-2.52c1.4,0.02,2.68,0.68,4.11,0.61c1.06-0.06,2.06-0.37,3.08-0.64
					c1.33-0.35,2.64-0.53,4.01-0.3c1.78,0.29,3.45,0.88,5.28,0.92c2.73,0.06,5.46-0.71,7.64-2.38c0.68-0.52,0.01-1.69-0.68-1.16
					c-2.54,1.95-5.75,2.54-8.88,2.02c-1.65-0.28-3.2-0.88-4.9-0.84c-1.23,0.03-2.4,0.35-3.58,0.67c-1.23,0.33-2.41,0.53-3.67,0.22
					c-1.38-0.34-2.59-0.59-4.01-0.24c-1.64,0.4-3.27,1.43-4.37,2.72C531.62,161.11,532.57,162.07,533.13,161.4L533.13,161.4z"/>
			</g>
		</g>
		<g>
			<g>
				<path class="st1" d="M536.23,162.14c1.5,0.51,3.13,0.73,4.69,0.87c3.57,0.31,7.19-0.14,10.56-1.37c0.81-0.3,0.46-1.6-0.36-1.3
					c-4.48,1.64-9.94,2.06-14.53,0.5C535.77,160.56,535.42,161.86,536.23,162.14L536.23,162.14z"/>
			</g>
		</g>
		<g>
			<g>
				<path class="st1" d="M520.26,66.6c-1.26,2.99-2.12,6.2-2.85,9.36c-1.68,7.3-2.38,14.87-1.81,22.35c0.17,2.2,0.44,4.4,0.83,6.58
					c0.36,2.02,0.45,4.06,0.54,6.11c0.19,4.02,0.25,8.04,0.22,12.06c-0.05,6.98-0.28,14.02-1.16,20.95
					c-0.22,1.75-0.83,3.58-0.69,5.35c0.13,1.7,0.68,3.36,1.3,4.94c1.88,4.73,4.65,9.13,7.7,13.18c3.51,4.65,7.54,8.96,12.21,12.45
					c4.12,3.07,9.01,5.63,14.24,5.86c3.85,0.16,7.82-0.46,11.58-1.2c3.84-0.76,7.61-1.82,11.31-3.08c4.77-1.63,9.47-3.57,13.95-5.88
					c0.23-0.12,0.46-0.24,0.69-0.37c0.76-0.41,0.08-1.58-0.68-1.16c-3.12,1.7-6.42,3.12-9.72,4.42c-6.96,2.74-14.28,4.89-21.75,5.66
					c-2.99,0.31-5.98,0.48-8.92-0.28c-2.55-0.66-4.95-1.81-7.18-3.19c-4.85-3-9.02-7.09-12.64-11.46
					c-3.37-4.07-6.39-8.54-8.65-13.34c-0.8-1.71-1.53-3.48-1.92-5.33c-0.33-1.53-0.07-2.76,0.18-4.28
					c1.01-6.19,1.26-12.53,1.42-18.79c0.1-3.88,0.1-7.76,0.01-11.63c-0.09-3.77-0.09-7.62-0.76-11.34
					c-2.18-12.14-0.86-25.45,3.59-36.99c0.08-0.2,0.15-0.39,0.23-0.59C521.89,66.16,520.59,65.82,520.26,66.6L520.26,66.6z"/>
			</g>
		</g>
		<g>
			<g>
				<path class="st1" d="M473.81,257.3c4.87-5.15,9.82-10.23,14.83-15.25c3.86-3.86,7.76-7.69,11.78-11.39
					c1.62-1.49,3.27-2.97,4.97-4.37c1.18-0.97,2.41-2.01,3.78-2.71c3.69-1.86,8.35-2.16,12.38-2.56c5.81-0.58,11.66-0.83,17.49-1.1
					c5.38-0.26,10.78-0.45,16.13-1.06c3.57-0.4,7.06-0.96,10.1-2.99c8.82-5.87,8.93-18.74,8.47-28.13c-0.11-2.2-0.29-4.39-0.51-6.58
					c-0.09-0.85-1.43-0.86-1.35,0c0.71,7.1,1.17,14.51-0.27,21.55c-0.86,4.19-2.53,8.37-5.91,11.17c-2.77,2.3-6.07,3.07-9.55,3.52
					c-5.18,0.66-10.41,0.86-15.62,1.11c-5.78,0.28-11.58,0.51-17.35,1.02c-4.4,0.39-9.08,0.75-13.26,2.28
					c-3.16,1.16-5.76,3.68-8.24,5.88c-3.92,3.47-7.68,7.13-11.4,10.81c-5.8,5.74-11.59,11.54-17.14,17.53
					c-0.1,0.11-0.2,0.21-0.3,0.32C472.27,256.97,473.21,257.93,473.81,257.3L473.81,257.3z"/>
			</g>
		</g>
		<g>
			<g>
				<path class="st1" d="M522.62,53.38c-1.12,2.66-1.74,5.6-2.13,8.44c-0.81,5.89-0.31,11.98,2.15,17.45
					c1.75,3.88,4.46,7.22,7.73,9.92c0.53,0.44,1.24,0.02,1.12-0.65c-0.36-2.07-0.6-4.16-0.76-6.25c-0.22-2.84-0.69-6.62,0.7-9.24
					c-0.42-0.11-0.84-0.23-1.25-0.34c0.18,5.39,1.96,10.93,4.2,15.78c5.16,11.13,14.67,19.31,26.15,23.47
					c4.04,1.47,8.25,2.45,12.5,3.06c2.36,0.34,4.74,0.58,7.12,0.71c1.28,0.07,2.55,0.12,3.83,0.13c0.69,0.01,1.39,0.01,2.08,0.01
					c0.26,0,0.51,0,0.77-0.01c0,0,1.22-0.05,0.7-0.21c0.31,0.09,0.73,0.69,0.95,0.9c0.82,0.79,1.62,1.6,2.4,2.42
					c2.54,2.65,4.95,5.43,7.2,8.33c5.96,7.69,11.33,16.67,12.75,26.44c1.02,7-1.49,13.59-4.39,19.85
					c-7.46,16.08-17.98,30.68-24.08,47.41c-2.58,7.07-4.46,14.9-2.97,22.42c1.58,8.01,6.15,16.11,13.5,20.07
					c5.93,3.2,12.71,3.5,19.27,4.14c2.83,0.28,5.66,0.65,8.33,1.67c2.86,1.1,5.83,1.87,8.86,2.36c6.77,1.09,14.22,1.05,20.54-1.92
					c3.04-1.43,5.68-3.65,7.45-6.53c0.93-1.52,1.61-3.19,2.05-4.91c0.52-2.05,0.58-4.12,0.85-6.2c1.11-8.45,5.4-16.13,9.22-23.6
					c4.19-8.2,8.21-16.63,9.59-25.83c1.58-10.5-0.68-20.86-4.47-30.66c-3.49-9.03-8.35-17.41-12.43-26.17
					c-4.13-8.89-7.01-18.24-6.95-28.12c0.04-6.95,1.74-13.74,2.12-20.67c0.61-11.26-0.73-22.78-4.63-33.39
					c-4.32-11.75-11.9-22.03-22.25-29.15c-13.78-9.48-30.88-12.69-47.34-12.86c-10.82-0.11-21.76,0.89-32.35,3.12
					c-8.46,1.78-16.82,4.48-24.41,8.66c-11.11,6.12-19.85,15.57-24.23,27.55c-3.72,10.17-4.25,21.23-3.35,31.93
					c0.95,11.38,3.83,22.49,4.73,33.87c0.82,10.4,0.28,21.08-3.13,31.01c-1.7,4.95-4.14,9.63-7.25,13.84
					c-1.7,2.3-3.62,4.44-5.68,6.42c-1.8,1.72-3.81,3.22-5.53,5.03c-11.69,12.37-10.27,32.11-5.32,47.11
					c1.73,5.25,3.98,11.11,7.86,15.19c0.6,0.63,1.55-0.32,0.95-0.95c-1.74-1.82-3.02-4.09-4.14-6.33c-1.58-3.14-2.84-6.44-3.86-9.8
					c-2.4-7.86-3.63-16.25-2.84-24.46c0.83-8.52,4.2-16.59,10.84-22.19c8.02-6.76,13.88-15.47,16.92-25.53
					c2.97-9.83,3.33-20.28,2.43-30.45c-0.56-6.4-1.75-12.69-2.82-19.01c-1.63-9.65-2.72-19.46-1.91-29.25
					c0.93-11.2,4.6-22.18,11.99-30.8c10.12-11.81,25.26-17.73,40.16-20.74c10.62-2.14,21.58-3.07,32.41-2.84
					c9.01,0.19,18.05,1.31,26.7,3.92c13.07,3.94,24.86,11.56,32.75,22.83c6.69,9.55,10.35,20.96,11.6,32.49
					c0.58,5.36,0.67,10.77,0.3,16.14c-0.49,7.15-2.22,14.13-2.01,21.34c0.29,9.52,3.24,18.51,7.25,27.08
					c4.07,8.71,8.92,17.05,12.35,26.05c3.75,9.85,5.93,20.26,4.06,30.77c-1.61,9.06-5.72,17.3-9.87,25.42
					c-3.69,7.21-7.63,14.63-8.73,22.77c-0.28,2.05-0.32,4.1-0.84,6.12c-0.47,1.85-1.23,3.62-2.3,5.2c-1.88,2.78-4.71,4.77-7.82,5.97
					c-6.44,2.5-13.89,2.23-20.55,0.83c-2.87-0.6-5.51-1.73-8.31-2.52c-2.78-0.78-5.69-1.03-8.56-1.29
					c-6.56-0.59-13.36-1.2-18.96-5.01c-3.39-2.31-5.95-5.61-7.78-9.26c-1.95-3.87-3.35-8.14-3.55-12.48
					c-0.38-7.89,2.28-15.74,5.34-22.89c3.54-8.28,7.98-16.15,12.36-24c4.02-7.19,8.17-14.39,11.32-22.02
					c1.24-3.02,2.34-6.15,2.88-9.38c0.6-3.59,0.24-7.18-0.59-10.72c-2.15-9.15-7.31-17.44-13.08-24.74
					c-2.21-2.79-4.56-5.48-7.03-8.03c-0.9-0.93-1.87-2.2-2.96-2.91c-0.78-0.5-2.47-0.16-3.37-0.17c-1.42,0-2.83-0.04-4.24-0.11
					c-2.45-0.12-4.89-0.33-7.31-0.68c-4.17-0.59-8.31-1.54-12.28-2.95c-6.33-2.24-12.22-5.72-17-10.46
					c-6.38-6.32-10.57-14.67-12.22-23.47c-0.26-1.42-0.48-2.7-0.53-4.16c-0.02-0.64-0.93-0.95-1.25-0.34
					c-1.48,2.8-1.12,6.6-0.9,9.64c0.17,2.3,0.44,4.61,0.83,6.89c0.37-0.22,0.75-0.44,1.12-0.65c-5.45-4.5-8.91-10.69-9.67-17.73
					c-0.51-4.7,0.03-9.5,1.34-14.03c0.27-0.92,0.55-1.85,0.93-2.73C524.25,52.94,522.95,52.59,522.62,53.38L522.62,53.38z"/>
			</g>
		</g>
		<g>
			<g>
				<path class="st1" d="M522.62,218.81c-1.97,9.2-5.05,18.36-8.98,26.9c-1.71,3.72-3.65,7.35-5.92,10.77
					c-0.48,0.72,0.68,1.4,1.16,0.68c6.95-10.47,11.23-22.81,14.3-34.93c0.26-1.02,0.51-2.03,0.73-3.06
					C524.1,218.33,522.8,217.97,522.62,218.81L522.62,218.81z"/>
			</g>
		</g>
		<g>
			<g>
				<path class="st1" d="M581.61,248.34c-3.34,0.85-6.84,1.23-10.26,1.58c-10.4,1.08-20.9,1.14-31.33,0.7
					c-9.1-0.38-18.19-1.2-27.23-2.31c-0.86-0.11-0.85,1.24,0,1.35c14.49,1.78,29.11,2.82,43.72,2.5c7.39-0.16,14.83-0.62,22.13-1.86
					c1.11-0.19,2.23-0.38,3.33-0.66C582.8,249.42,582.45,248.13,581.61,248.34L581.61,248.34z"/>
			</g>
		</g>
		<g>
			<g>
				<path class="st1" d="M539.94,128.31c-2.13,4.56-4.17,9.21-5.83,13.97c-0.65,1.85-0.98,3.8,1.01,4.93
					c1.62,0.92,3.73,0.94,5.53,0.87c1.44-0.05,2.89-0.2,4.31-0.47c0.85-0.16,0.49-1.46-0.36-1.3c-2.55,0.48-5.66,0.86-8.16,0.01
					c-0.58-0.2-1.23-0.52-1.47-1.12c-0.33-0.82,0.17-1.81,0.43-2.57c1-2.87,2.17-5.68,3.38-8.47c0.75-1.73,1.52-3.46,2.32-5.18
					C541.46,128.21,540.3,127.52,539.94,128.31L539.94,128.31z"/>
			</g>
		</g>
		<g>
			<g>
				<path class="st1" d="M610.81,152.62c-1.14,1.61-2.41,3.13-3.71,4.61c-2.65,3.02-5.55,5.89-8.87,8.17
					c-0.71,0.49-0.04,1.65,0.68,1.16c3.42-2.34,6.42-5.27,9.14-8.38c1.37-1.57,2.71-3.18,3.92-4.88
					C612.47,152.59,611.3,151.92,610.81,152.62L610.81,152.62z"/>
			</g>
		</g>
		<g>
			<g>
				<path class="st1" d="M522.36,111.63c0.98-1.01,2.27-1.84,3.57-2.33c1.15-0.43,2.4-0.64,3.62-0.39c1.7,0.35,3.06,1.43,4.18,2.71
					c0.57,0.65,1.52-0.3,0.95-0.95c-1.21-1.39-2.73-2.57-4.55-3.01c-1.43-0.34-2.93-0.23-4.31,0.25c-1.62,0.56-3.22,1.53-4.41,2.76
					C520.8,111.31,521.75,112.26,522.36,111.63L522.36,111.63z"/>
			</g>
		</g>
	</g>
</g>
<g id="DESIGNED_BY_FREEPIK">
</g>
</svg>
