<?xml version="1.0" encoding="utf-8"?>
<!-- Generator: Adobe Illustrator 27.2.0, SVG Export Plug-In . SVG Version: 6.00 Build 0)  -->
<svg version="1.1" xmlns="http://www.w3.org/2000/svg" xmlns:xlink="http://www.w3.org/1999/xlink" x="0px" y="0px"
	 viewBox="0 0 469 416" style="enable-background:new 0 0 469 416;" xml:space="preserve">
<g id="Floor">
	<path id="Floor_15_" style="fill:#F5F5F5;" d="M66.45,375.01c88.76,45.38,232.66,45.38,321.42,0c88.76-45.38,88.76-118.95,0-164.33
		c-88.76-45.38-232.66-45.38-321.42,0C-22.3,256.05-22.3,329.63,66.45,375.01z"/>
</g>
<g id="Shadows">
	<path id="Shadow_37_" style="fill:#EBEBEB;" d="M356.73,302.51c4.86,2.81,14.42,1.84,21.35-2.16l39.94-23.19
		c6.93-4,8.59-9.52,3.72-12.34c-4.87-2.81-14.44-1.85-21.37,2.15l-39.9,23.2C353.54,294.18,351.87,299.7,356.73,302.51z"/>
	<polygon id="Shadow_36_" style="fill:#EBEBEB;" points="116.31,323.9 75.69,300.45 116.31,277 	"/>
	<polygon id="Shadow_35_" style="fill:#EBEBEB;" points="231.12,337.93 165.65,300.11 231.13,262.36 	"/>
</g>
<g id="Plants">
	<g id="Plants_14_">
		<g id="XMLID_3252_">
			<g id="XMLID_3255_">
				<path id="XMLID_3276_" style="fill:#80C8FB;" d="M62.36,269.07c0.11-9.5-6.52-29.26-16.23-41.72
					c-9.71-12.46-25.1-21.66-36.16-18.03c-10.3,3.38-9.35,16.85,2.99,25.92c12.34,9.07,30.9,20.49,36.19,35.97l11.25,19.05
					L62.36,269.07z"/>
				<path id="XMLID_3256_" style="opacity:0.1;" d="M62.36,269.07c0.11-9.5-6.52-29.26-16.23-41.72
					c-9.71-12.46-25.1-21.66-36.16-18.03c-10.3,3.38-9.35,16.85,2.99,25.92c12.34,9.07,30.9,20.49,36.19,35.97l11.25,19.05
					L62.36,269.07z"/>
			</g>
			<g id="XMLID_3253_">
				<path id="XMLID_3254_" style="fill:#FFFFFF;" d="M62.91,282.08c-0.3-0.03-0.56-0.25-0.62-0.57
					c-5.97-32.51-31.89-59.19-47.53-65.2c-0.36-0.14-0.54-0.54-0.4-0.9c0.14-0.36,0.53-0.54,0.9-0.4
					c15.93,6.13,42.33,33.24,48.39,66.25c0.07,0.38-0.18,0.74-0.56,0.81C63.03,282.08,62.97,282.08,62.91,282.08z"/>
			</g>
		</g>
		<g id="XMLID_3246_">
			<g id="XMLID_3250_">
				<path id="XMLID_3251_" style="fill:#80C8FB;" d="M57.82,302.78c-1.46-5.36-7.88-14.25-18.34-21.66
					c-11.58-8.19-26.3-12.07-29.63-18.38c-4-7.58,2.43-14.62,14.4-12.99c11.97,1.63,32.85,18.24,35.93,42.91L57.82,302.78z"/>
			</g>
			<g id="XMLID_3247_">
				<path id="XMLID_3249_" style="fill:#FFFFFF;" d="M60.21,297.2c-0.26-0.02-0.5-0.2-0.59-0.47c-9.61-27.9-30.69-37.91-40.5-39.3
					c-0.38-0.05-0.64-0.41-0.59-0.78c0.05-0.38,0.39-0.64,0.78-0.59c10.84,1.54,31.8,11.74,41.62,40.23
					c0.12,0.36-0.07,0.76-0.43,0.88C60.4,297.2,60.3,297.21,60.21,297.2z"/>
			</g>
		</g>
	</g>
	<path id="XMLID_3120_" style="fill:#80C8FB;" d="M415.93,242.02c0,0,1.33-20.03,13.14-34.9c11.8-14.87,11.08-20.99,2.94-23.99
		c-8.14-3-27.05,14.92-22.84,38.92S415.93,242.02,415.93,242.02z"/>
	<path id="XMLID_3134_" style="opacity:0.1;" d="M415.93,242.02c0,0,1.33-20.03,13.14-34.9c11.8-14.87,11.08-20.99,2.94-23.99
		c-8.14-3-27.05,14.92-22.84,38.92S415.93,242.02,415.93,242.02z"/>
	<g id="XMLID_3136_">
		<path id="XMLID_3137_" style="fill:#FFFFFF;" d="M412.32,230.58c-0.24,0-0.45-0.19-0.46-0.44c-1.38-22.06,14.2-40.16,20.03-44.25
			c0.21-0.15,0.5-0.1,0.65,0.11c0.15,0.21,0.1,0.5-0.11,0.65c-5.72,4.02-20.99,21.77-19.64,43.44c0.02,0.26-0.18,0.48-0.43,0.49
			C412.34,230.58,412.33,230.58,412.32,230.58z"/>
	</g>
	<g id="XMLID_3073_">
		<path id="XMLID_3119_" style="fill:#80C8FB;" d="M412.72,258.56c0,0,7.11,2.47,16.26,3.91c9.14,1.45,13.18-2.92,13.18-2.92
			s-3.6-8.57-8.79-10.98c0,0,8.8,1.79,15.87,6.51c0,0,5.58,0.08,7.8-8.43c0,0-3.31-5.13-14.4-7.9c0,0,6.75-1.7,16.48,0.78
			c0.73,0.29,3.84-10.73,4.78-15.81c0.94-5.08-1.1-5.03-5.06-6.09c-3.96-1.06-17.08-4-19.56-1.83c-2.48,2.18-3.74,9.63-3.74,9.63
			s-1.63-4.4-0.37-9.44c0,0-3.57-1.39-9.1,0.22c-4.53,1.32-4.75,4.4-4.54,7.88c0.15,2.54,0.76,5.25,1.96,8.84
			c0,0-3.53-4.52-3.64-14.32c0,0-9.26,4.6-10.84,13.79C408.13,237.37,406.91,251.96,412.72,258.56z"/>
		<g id="XMLID_3093_">
			<path id="XMLID_3118_" style="fill:#FFFFFF;" d="M414.46,256.78c0.19,0,0.37-0.11,0.46-0.29c7.38-15.33,34.8-33.13,44.63-35.04
				c0.28-0.05,0.46-0.32,0.41-0.6c-0.05-0.28-0.33-0.46-0.6-0.41c-9.99,1.94-37.86,20.04-45.35,35.61
				c-0.12,0.26-0.02,0.56,0.24,0.69C414.31,256.76,414.39,256.78,414.46,256.78z"/>
		</g>
	</g>
</g>
<g id="Computer_Screen">
	<g id="XMLID_1118_">
		<g id="XMLID_1204_">
			<g id="XMLID_1203_">
				<path style="fill:#FAFAFA;" d="M57.78,309.86c-1.13,0-1.81-0.94-1.81-2.51V139.15L261.96,20.22l0,167.53
					c0,2.57-1.81,5.71-4.04,6.99L59.42,309.35C58.84,309.69,58.27,309.86,57.78,309.86L57.78,309.86z"/>
				<path style="fill:#E0E0E0;" d="M261.38,21.23l0,166.52c0,2.34-1.72,5.31-3.75,6.49L59.13,308.84c-0.49,0.28-0.96,0.43-1.35,0.43
					c-1.11,0-1.23-1.34-1.23-1.92V139.49L261.38,21.23 M262.55,19.2L55.38,138.81v168.55c0,1.96,0.98,3.09,2.4,3.09
					c0.58,0,1.24-0.19,1.93-0.59l198.5-114.61c2.39-1.38,4.33-4.74,4.33-7.5L262.55,19.2L262.55,19.2z"/>
			</g>
			<polygon id="XMLID_2173_" style="fill:#80C8FB;" points="55.38,138.81 55.38,166.96 262.55,47.35 262.55,19.2 			"/>
			<path id="XMLID_1167_" style="fill:#FAFAFA;" d="M71.63,140.31l0,4.04c0,0.82,0.58,1.16,1.3,0.75l63.69-36.77l0-7.04
				l-63.69,36.77C72.22,138.48,71.63,139.49,71.63,140.31z"/>
			<path id="XMLID_1189_" style="fill:#455A64;" d="M143.45,97.35c0.72-0.41,1.3-0.08,1.3,0.75v4.04c0,0.83-0.58,1.84-1.3,2.25
				l-6.83,3.94l0-7.04L143.45,97.35z"/>
			<path id="XMLID_2992_" style="fill:#455A64;" d="M55.38,129.74c0-2.76,1.94-6.12,4.33-7.5L258.22,7.63
				c2.39-1.38,4.33-0.26,4.33,2.5v9.07L55.38,138.81V129.74z"/>
			<g id="XMLID_1202_">
				<path id="XMLID_1201_" style="fill:#27DEBF;" d="M239.52,23.14c-1.12,0.65-2.03,2.22-2.03,3.52c0,1.3,0.91,1.82,2.03,1.17
					c1.12-0.65,2.03-2.22,2.03-3.52C241.56,23.01,240.65,22.49,239.52,23.14z"/>
				<path id="XMLID_1198_" style="fill:#27DEBF;" d="M245.96,19.42c-1.12,0.65-2.03,2.22-2.03,3.52c0,1.3,0.91,1.82,2.03,1.17
					c1.12-0.65,2.03-2.22,2.03-3.52C247.99,19.29,247.08,18.77,245.96,19.42z"/>
				<path id="XMLID_1196_" style="fill:#27DEBF;" d="M252.39,15.7c-1.12,0.65-2.03,2.22-2.03,3.52c0,1.3,0.91,1.82,2.03,1.17
					s2.03-2.22,2.03-3.52C254.42,15.57,253.51,15.05,252.39,15.7z"/>
			</g>
			<g id="XMLID_1168_" style="opacity:0.1;">
				<path id="XMLID_1187_" d="M197.55,65.67c-2.45,1.42-4.44,4.86-4.44,7.69c0,2.83,1.99,3.98,4.44,2.56
					c2.45-1.42,4.44-4.86,4.44-7.69S200.01,64.26,197.55,65.67z"/>
				<path id="XMLID_1188_" d="M177.25,77.4c-2.45,1.42-4.44,4.86-4.44,7.69c0,2.83,1.99,3.98,4.44,2.56
					c2.45-1.42,4.44-4.86,4.44-7.69C181.68,77.13,179.7,75.99,177.25,77.4z"/>
				<path id="XMLID_1186_" d="M217.87,53.95c-2.45,1.42-4.44,4.86-4.44,7.69c0,2.83,1.99,3.98,4.44,2.56
					c2.45-1.42,4.44-4.86,4.44-7.69C222.3,53.68,220.32,52.53,217.87,53.95z"/>
				<path id="XMLID_1190_" d="M238.18,42.2c-2.45,1.42-4.44,4.86-4.44,7.69c0,2.83,1.99,3.98,4.44,2.56
					c2.45-1.42,4.44-4.86,4.44-7.69C242.62,41.93,240.63,40.78,238.18,42.2z"/>
			</g>
		</g>
		<path id="XMLID_2170_" style="fill:#E0E0E0;" d="M75.96,169.15l48.21-27.83c2.39-1.38,4.33-0.26,4.33,2.5v46.29
			c0,2.76-1.94,6.12-4.33,7.5l-48.21,27.83c-2.39,1.38-4.33,0.26-4.33-2.5l0-46.29C71.63,173.88,73.57,170.53,75.96,169.15z"/>
		<path id="XMLID_3029_" style="fill:#E0E0E0;" d="M145.02,129.28l101.01-58.32c2.39-1.38,4.33-0.26,4.33,2.5v46.29
			c0,2.76-1.94,6.12-4.33,7.5l-101.01,58.32c-2.39,1.38-4.33,0.26-4.33-2.5l0-46.29C140.69,134.02,142.63,130.66,145.02,129.28z"/>
		<g id="XMLID_3030_">
			<path id="XMLID_3117_" style="fill:#E0E0E0;" d="M75.96,239.5l76.64-44.25c2.39-1.38,4.33-0.4,4.33,2.19
				c0,2.59-1.94,5.81-4.33,7.19l-76.64,44.25c-2.39,1.38-4.33,0.4-4.33-2.19C71.63,244.1,73.57,240.88,75.96,239.5z"/>
			<path id="XMLID_3095_" style="fill:#E0E0E0;" d="M75.96,255.92l76.64-44.25c2.39-1.38,4.33-0.4,4.33,2.19
				c0,2.59-1.94,5.81-4.33,7.19L75.96,265.3c-2.39,1.38-4.33,0.4-4.33-2.19C71.63,260.52,73.57,257.3,75.96,255.92z"/>
			<path id="XMLID_3094_" style="fill:#E0E0E0;" d="M75.96,272.33l76.64-44.25c2.39-1.38,4.33-0.4,4.33,2.19
				c0,2.59-1.94,5.81-4.33,7.19l-76.64,44.25c-2.39,1.38-4.33,0.4-4.33-2.19C71.63,276.93,73.57,273.71,75.96,272.33z"/>
		</g>
	</g>
</g>
<g id="Envelope">
	<g id="Letter_2_">
		<g id="XMLID_3260_">
			<g id="XMLID_3261_">
				<path id="XMLID_3262_" style="fill:#80C8FB;" d="M112.25,216.67c0-1.66,1.16-3.67,2.6-4.5l132.91-76.74
					c1.43-0.83,3.76-0.83,5.2,0l2.93,1.69c1.43,0.83,2.6,2.84,2.6,4.5v101.88c0,1.65-1.17,3.67-2.6,4.5l-132.91,76.74
					c-1.43,0.83-3.77,0.83-5.2,0l-2.93-1.69c-1.43-0.82-2.6-2.85-2.6-4.5L112.25,216.67z"/>
			</g>
		</g>
		<path id="XMLID_3259_" style="opacity:0.4;fill:#FFFFFF;" d="M113.01,214.11l7.37,4.25l137.34-79.3
			c-0.47-0.81-1.12-1.52-1.83-1.94l-2.94-1.68c-1.43-0.84-3.76-0.84-5.19,0l-132.91,76.73C114.13,212.59,113.48,213.3,113.01,214.11
			z"/>
		<path id="XMLID_3258_" style="opacity:0.1;" d="M112.25,216.67v101.88c0,1.66,1.17,3.67,2.61,4.5l2.93,1.7
			c0.22,0.12,0.45,0.23,0.71,0.32c0.33,0.11,0.69,0.2,1.07,0.25c0.68,0.09,1.39,0.06,2.05-0.07c0.17-0.04,0.34-0.09,0.5-0.14
			c0.11-0.04,0.21-0.07,0.31-0.12c-0.48,0.17-0.9,0.15-1.24-0.02c-0.49-0.26-0.8-0.85-0.8-1.71V221.37c0-1.07,0.54-1.88,1.35-2.21
			l-1.35-0.79l-7.37-4.25C112.54,214.92,112.25,215.85,112.25,216.67z"/>
		<path id="XMLID_3257_" style="opacity:0.2;" d="M120.39,218.37l61.55,23c4.39,1.63,9.32,0.01,11.87-3.91l9.88-15.14l54.52-83.53
			l-52.55,84.1l52.82,20.67c-0.01,0.84-0.32,1.77-0.81,2.59l-52.15-23.03l-11.49,18.38c-2.64,4.22-7.98,5.86-12.52,3.85l-8.18-3.61
			l-52.14,83.22c-0.49-0.26-0.8-0.85-0.8-1.71v-1.7l52.69-79.92L120.39,218.37z"/>
	</g>
</g>
<g id="Mobile_Screen">
	<path id="XMLID_2869_" style="fill:#FAFAFA;stroke:#E0E0E0;stroke-width:1.1698;stroke-miterlimit:10;" d="M230.05,101.41v233.9
		c0,2.76,1.94,3.88,4.33,2.5l105.08-60.67c2.39-1.38,4.33-4.74,4.33-7.5V35.74c0-2.76-1.94-3.88-4.33-2.5L234.38,93.91
		C231.99,95.29,230.05,98.64,230.05,101.41z"/>
	<path id="XMLID_2970_" style="fill:#455A64;" d="M236.14,105.76c0-0.65,0.5-1.46,1.13-1.82l11.97-6.91
		c0.62-0.36,1.13-0.12,1.13,0.52c0,0.65-0.5,1.46-1.13,1.82l-11.97,6.91C236.65,106.65,236.14,106.41,236.14,105.76z"/>
	<path id="XMLID_2972_" style="fill:#455A64;" d="M236.14,110.42c0-0.65,0.5-1.46,1.13-1.82l11.97-6.91
		c0.62-0.36,1.13-0.12,1.13,0.52c0,0.65-0.5,1.46-1.13,1.82l-11.97,6.91C236.65,111.3,236.14,111.07,236.14,110.42z"/>
	<path id="XMLID_2973_" style="fill:#455A64;" d="M236.14,115.08c0-0.65,0.5-1.46,1.13-1.82l11.97-6.91
		c0.62-0.36,1.13-0.12,1.13,0.52c0,0.65-0.5,1.46-1.13,1.82l-11.97,6.91C236.65,115.96,236.14,115.73,236.14,115.08z"/>
	<path id="XMLID_2989_" style="fill:#37474F;" d="M335.67,55.1v-1.87c0-0.11-0.08-0.16-0.18-0.12l-1.44,0.65
		c-0.1,0.05-0.21,0-0.24-0.11c-0.08-0.26-0.19-0.5-0.32-0.71c-0.06-0.1-0.07-0.25-0.02-0.35l0.96-1.94c0.05-0.1,0.01-0.23-0.09-0.28
		l-1.04-0.6c-0.1-0.06-0.22-0.03-0.29,0.07l-1.2,1.8c-0.06,0.09-0.2,0.16-0.31,0.16c-0.25-0.01-0.51,0.02-0.78,0.08
		c-0.11,0.02-0.2-0.04-0.22-0.15l-0.16-1.57c-0.01-0.11-0.1-0.16-0.19-0.1l-1.62,0.93c-0.1,0.06-0.18,0.19-0.19,0.3l-0.16,1.8
		c-0.01,0.11-0.09,0.26-0.17,0.34c-0.31,0.29-0.62,0.61-0.9,0.95c-0.07,0.09-0.21,0.13-0.32,0.09l-1.04-0.36
		c-0.11-0.04-0.24,0.01-0.29,0.11l-1.19,2.06c-0.06,0.1-0.03,0.23,0.05,0.31l0.83,0.72c0.08,0.07,0.12,0.22,0.08,0.32
		c-0.15,0.42-0.28,0.84-0.37,1.25c-0.02,0.11-0.12,0.25-0.21,0.31l-1.48,1.04c-0.09,0.06-0.17,0.21-0.17,0.32v1.87
		c0,0.11,0.08,0.16,0.18,0.12l1.44-0.65c0.1-0.05,0.21,0,0.24,0.11c0.08,0.26,0.19,0.5,0.32,0.71c0.06,0.09,0.07,0.25,0.02,0.35
		l-0.96,1.94c-0.05,0.1-0.01,0.23,0.09,0.28l1.04,0.6c0.1,0.06,0.22,0.03,0.29-0.07l1.2-1.8c0.06-0.09,0.2-0.16,0.31-0.16
		c0.25,0.01,0.51-0.02,0.78-0.08c0.11-0.02,0.2,0.04,0.22,0.15l0.16,1.57c0.01,0.11,0.1,0.16,0.2,0.1l1.62-0.93
		c0.1-0.06,0.18-0.19,0.19-0.3l0.16-1.8c0.01-0.11,0.09-0.26,0.17-0.34c0.31-0.29,0.62-0.61,0.9-0.95c0.07-0.09,0.21-0.13,0.32-0.09
		l1.04,0.36c0.11,0.04,0.24-0.01,0.29-0.11l1.19-2.06c0.06-0.1,0.03-0.23-0.05-0.31l-0.83-0.72c-0.08-0.07-0.12-0.22-0.08-0.32
		c0.15-0.42,0.28-0.84,0.37-1.25c0.02-0.11,0.12-0.25,0.21-0.31l1.48-1.04C335.59,55.35,335.67,55.21,335.67,55.1z M329.34,60.97
		c-1.51,0.87-2.73,0.16-2.73-1.58c0-1.74,1.22-3.86,2.73-4.73c1.51-0.87,2.73-0.17,2.73,1.58C332.07,57.98,330.85,60.1,329.34,60.97
		z"/>
	<g id="XMLID_3074_">
		<path id="XMLID_3091_" style="fill:#455A64;" d="M286.92,101.2c12.28-7.09,22.23-1.34,22.23,12.83s-9.95,31.42-22.23,38.5
			c-12.28,7.09-22.23,1.34-22.23-12.83C264.69,125.53,274.64,108.29,286.92,101.2z"/>
		<path id="XMLID_3076_" style="fill:#80C8FB;" d="M286.77,112.36c3.98-2.3,7.21-0.44,7.21,4.16c0,4.6-3.23,10.19-7.21,12.49
			c-3.98,2.3-7.21,0.44-7.21-4.16C279.55,120.25,282.78,114.66,286.77,112.36z"/>
		<path id="XMLID_3075_" style="fill:#80C8FB;" d="M300.98,136.88c0-7.56-5.31-10.62-11.85-6.84l-4.09,2.36
			c-6.54,3.78-11.85,12.97-11.85,20.52v2.06c1.18,0.39,2.46,0.59,3.82,0.59c2.98,0.01,6.35-0.98,9.91-3.04
			c5.33-3.08,10.23-8.08,14.06-13.91V136.88z"/>
	</g>
	<path id="XMLID_3140_" style="fill:#80C8FB;" d="M266.86,173.63l40.13-23.17c1.2-0.69,2.17-0.2,2.17,1.1c0,1.3-0.97,2.9-2.17,3.6
		l-40.13,23.17c-1.2,0.69-2.17,0.2-2.17-1.1S265.66,174.32,266.86,173.63z"/>
	<path id="XMLID_3142_" style="fill:#455A64;" d="M262.55,190.21l48.74-28.17c1.2-0.69,2.17-0.2,2.17,1.1s-0.97,2.9-2.17,3.6
		l-48.74,28.17c-1.2,0.69-2.17,0.2-2.17-1.1C260.38,192.51,261.35,190.9,262.55,190.21z"/>
	<path id="XMLID_3148_" style="fill:#37474F;" d="M312.59,184.74l13.65-7.88c0.72-0.41,1.3-0.22,1.3,0.42c0,0.65-0.58,1.51-1.3,1.92
		l-13.65,7.88c-0.72,0.41-1.3,0.23-1.3-0.42S311.88,185.16,312.59,184.74z"/>
	<path id="XMLID_3141_" style="fill:#80C8FB;" d="M244.4,219.43l20.04-11.57c1.2-0.69,2.17-0.13,2.17,1.25v13.76
		c0,1.38-0.97,3.06-2.16,3.75l-20.04,11.57c-1.2,0.69-2.17,0.13-2.17-1.25v-13.76C242.24,221.8,243.21,220.12,244.4,219.43z"/>
	<path id="XMLID_3143_" style="fill:#FAFAFA;" d="M247.6,221.35l13.65-7.88c0.72-0.41,1.3-0.22,1.3,0.42c0,0.65-0.58,1.51-1.3,1.92
		l-13.65,7.88c-0.72,0.41-1.3,0.22-1.3-0.42S246.88,221.77,247.6,221.35z"/>
	<path id="XMLID_3146_" style="fill:#FAFAFA;" d="M246.3,228.29v4.04c0,0.83,0.58,1.16,1.3,0.75l13.65-7.88
		c0.72-0.41,1.3-1.42,1.3-2.25l0-4.04c0-0.83-0.58-1.16-1.3-0.75l-13.65,7.88C246.88,226.46,246.3,227.47,246.3,228.29z"/>
	<g id="XMLID_3149_">
		<path id="XMLID_3155_" style="fill:#80C8FB;" d="M276.9,200.67l20.04-11.57c1.2-0.69,2.17-0.13,2.17,1.25l0,13.76
			c0,1.38-0.97,3.06-2.17,3.75l-20.04,11.57c-1.2,0.69-2.17,0.13-2.17-1.25l0-13.76C274.73,203.04,275.7,201.36,276.9,200.67z"/>
		<path id="XMLID_3154_" style="fill:#FAFAFA;" d="M280.1,202.59l13.65-7.88c0.72-0.41,1.3-0.22,1.3,0.42c0,0.65-0.58,1.51-1.3,1.92
			l-13.65,7.88c-0.72,0.41-1.3,0.23-1.3-0.42S279.38,203.01,280.1,202.59z"/>
		<path id="XMLID_3153_" style="fill:#FAFAFA;" d="M278.8,209.53v4.04c0,0.83,0.58,1.16,1.3,0.75l13.65-7.88
			c0.72-0.41,1.3-1.42,1.3-2.25l0-4.04c0-0.83-0.58-1.16-1.3-0.75l-13.65,7.88C279.38,207.7,278.8,208.7,278.8,209.53z"/>
	</g>
	<g id="XMLID_3159_">
		<path id="XMLID_3176_" style="fill:#80C8FB;" d="M309.4,181.91l20.04-11.57c1.2-0.69,2.17-0.13,2.17,1.25v13.76
			c0,1.38-0.97,3.06-2.17,3.75l-20.04,11.57c-1.2,0.69-2.17,0.13-2.17-1.25v-13.76C307.23,184.28,308.2,182.6,309.4,181.91z"/>
		<path id="XMLID_3173_" style="fill:#FAFAFA;" d="M312.59,183.83l13.65-7.88c0.72-0.41,1.3-0.23,1.3,0.42
			c0,0.65-0.58,1.51-1.3,1.92l-13.65,7.88c-0.72,0.41-1.3,0.22-1.3-0.42S311.88,184.24,312.59,183.83z"/>
		<path id="XMLID_3163_" style="fill:#FAFAFA;" d="M311.29,190.77v4.04c0,0.83,0.58,1.16,1.3,0.75l13.65-7.88
			c0.72-0.41,1.3-1.42,1.3-2.25l0-4.04c0-0.83-0.58-1.16-1.3-0.75l-13.65,7.88C311.88,188.93,311.29,189.94,311.29,190.77z"/>
	</g>
	<path id="XMLID_3144_" style="fill:#E0E0E0;" d="M246.57,251.01l80.7-46.59c2.39-1.38,4.33-0.4,4.33,2.19
		c0,2.59-1.94,5.81-4.33,7.19l-80.7,46.59c-2.39,1.38-4.33,0.4-4.33-2.19C242.24,255.61,244.18,252.39,246.57,251.01z"/>
	<path id="XMLID_3147_" style="fill:#E0E0E0;" d="M246.57,269.77l80.7-46.59c2.39-1.38,4.33-0.4,4.33,2.19
		c0,2.59-1.94,5.81-4.33,7.19l-80.7,46.59c-2.39,1.38-4.33,0.4-4.33-2.19C242.24,274.37,244.18,271.15,246.57,269.77z"/>
	<path id="XMLID_3178_" style="fill:#80C8FB;" d="M272.84,278.06L301,261.8c1.2-0.69,2.17-0.13,2.17,1.25l0,9.07
		c0,1.38-0.97,3.06-2.17,3.75l-28.17,16.26c-1.2,0.69-2.17,0.13-2.17-1.25l0-9.07C270.67,280.43,271.64,278.75,272.84,278.06z"/>
	<g id="XMLID_3180_">
		<path id="XMLID_3027_" style="fill:#FAFAFA;" d="M248.33,252.39c-1.12,0.65-2.03,2.22-2.03,3.52c0,1.3,0.91,1.82,2.03,1.17
			c1.12-0.65,2.03-2.22,2.03-3.52C250.36,252.27,249.45,251.74,248.33,252.39z"/>
		<path id="XMLID_3023_" style="fill:#FAFAFA;" d="M254.77,248.67c-1.12,0.65-2.03,2.22-2.03,3.52c0,1.3,0.91,1.82,2.03,1.17
			c1.12-0.65,2.03-2.22,2.03-3.52C256.8,248.55,255.89,248.02,254.77,248.67z"/>
		<path id="XMLID_3021_" style="fill:#FAFAFA;" d="M261.2,244.95c-1.12,0.65-2.03,2.22-2.03,3.52s0.91,1.82,2.03,1.17
			c1.12-0.65,2.03-2.22,2.03-3.52S262.32,244.3,261.2,244.95z"/>
		<path id="XMLID_2993_" style="fill:#FAFAFA;" d="M267.64,241.23c-1.12,0.65-2.03,2.22-2.03,3.52c0,1.3,0.91,1.82,2.03,1.17
			s2.03-2.22,2.03-3.52C269.67,241.11,268.76,240.58,267.64,241.23z"/>
		<path id="XMLID_2176_" style="fill:#FAFAFA;" d="M274.07,237.51c-1.12,0.65-2.03,2.22-2.03,3.52c0,1.3,0.91,1.82,2.03,1.17
			c1.12-0.65,2.03-2.22,2.03-3.52C276.1,237.39,275.19,236.86,274.07,237.51z"/>
		<path id="XMLID_2175_" style="fill:#FAFAFA;" d="M280.5,233.79c-1.12,0.65-2.03,2.22-2.03,3.52s0.91,1.82,2.03,1.17
			c1.12-0.65,2.03-2.22,2.03-3.52S281.63,233.14,280.5,233.79z"/>
		<path id="XMLID_2174_" style="fill:#FAFAFA;" d="M286.94,230.07c-1.12,0.65-2.03,2.22-2.03,3.52c0,1.3,0.91,1.82,2.03,1.17
			c1.12-0.65,2.03-2.22,2.03-3.52C288.97,229.95,288.06,229.42,286.94,230.07z"/>
	</g>
	<g id="XMLID_2172_">
		<path id="XMLID_3020_" style="fill:#FAFAFA;" d="M248.33,271.17c-1.12,0.65-2.03,2.22-2.03,3.52c0,1.3,0.91,1.82,2.03,1.17
			c1.12-0.65,2.03-2.22,2.03-3.52S249.45,270.53,248.33,271.17z"/>
		<path id="XMLID_3017_" style="fill:#FAFAFA;" d="M254.77,267.45c-1.12,0.65-2.03,2.22-2.03,3.52c0,1.3,0.91,1.82,2.03,1.17
			c1.12-0.65,2.03-2.22,2.03-3.52C256.8,267.33,255.89,266.8,254.77,267.45z"/>
		<path id="XMLID_3016_" style="fill:#FAFAFA;" d="M261.2,263.73c-1.12,0.65-2.03,2.22-2.03,3.52c0,1.3,0.91,1.82,2.03,1.17
			c1.12-0.65,2.03-2.22,2.03-3.52C263.23,263.61,262.32,263.08,261.2,263.73z"/>
		<path id="XMLID_3015_" style="fill:#FAFAFA;" d="M267.64,260.01c-1.12,0.65-2.03,2.22-2.03,3.52c0,1.3,0.91,1.82,2.03,1.17
			c1.12-0.65,2.03-2.22,2.03-3.52S268.76,259.36,267.64,260.01z"/>
		<path id="XMLID_3008_" style="fill:#FAFAFA;" d="M274.07,256.29c-1.12,0.65-2.03,2.22-2.03,3.52c0,1.3,0.91,1.82,2.03,1.17
			c1.12-0.65,2.03-2.22,2.03-3.52C276.1,256.17,275.19,255.64,274.07,256.29z"/>
		<path id="XMLID_2995_" style="fill:#FAFAFA;" d="M280.5,252.57c-1.12,0.65-2.03,2.22-2.03,3.52c0,1.3,0.91,1.82,2.03,1.17
			c1.12-0.65,2.03-2.22,2.03-3.52C282.53,252.45,281.63,251.92,280.5,252.57z"/>
		<path id="XMLID_2994_" style="fill:#FAFAFA;" d="M286.94,248.85c-1.12,0.65-2.03,2.22-2.03,3.52s0.91,1.82,2.03,1.17
			c1.12-0.65,2.03-2.22,2.03-3.52C288.97,248.73,288.06,248.2,286.94,248.85z"/>
	</g>
</g>
<g id="Key">
	<g id="XMLID_1166_">
		<g id="XMLID_1191_">
			<g id="XMLID_1192_">
				<path id="XMLID_2975_" style="fill:#455A64;" d="M377.19,291.13c-3.51,0-6.83-0.86-9.85-2.6c-7.21-4.16-11.34-12.87-11.34-23.89
					c0-19.38,12.32-41.68,28.05-50.76c8.47-4.89,16.88-5.42,23.68-1.49c7.21,4.16,11.34,12.87,11.34,23.89
					c0,19.38-12.32,41.68-28.05,50.76C386.3,289.76,381.6,291.13,377.19,291.13z M397.85,223.75c-2.52,0-5.19,1.27-6.83,2.21
					c-11.42,6.59-21.07,24.31-21.07,38.68c0,5.82,1.63,10.23,4.36,11.81c3.11,1.8,7.43-0.16,9.73-1.49
					c11.42-6.59,21.07-24.31,21.07-38.68c0-5.82-1.63-10.23-4.36-11.81C399.86,223.95,398.86,223.75,397.85,223.75z"/>
			</g>
			<path id="XMLID_2986_" style="fill:#37474F;" d="M407.61,239.38c0-10.89-6.86-14.91-6.86-14.91l0,0
				c2.73,1.58,4.36,5.99,4.36,11.81c0,14.37-9.65,32.08-21.07,38.68c-2.3,1.33-6.62,3.29-9.73,1.49c0,0,5.79,3.59,13.78-0.77
				C399.68,269.36,407.61,253.75,407.61,239.38z"/>
		</g>
		<path id="XMLID_2978_" style="fill:#37474F;" d="M396.61,103.29c0-3.98-3.23-7.21-7.21-7.21c-3.98,0-7.21,3.23-7.21,7.21
			c0,0.01,0,0.01,0,0.02h0v114.71l0,0c0,1.07,0.7,2.13,2.11,2.94c2.82,1.63,7.38,1.63,10.2,0c1.41-0.81,2.11-1.88,2.11-2.94l0,0
			V103.31h0C396.61,103.31,396.61,103.3,396.61,103.29z"/>
		<path id="XMLID_2974_" style="fill:#455A64;" d="M390.85,128.93c0-2.66-1.86-5.89-4.17-7.21c-1.17-0.68-2.22-0.72-2.98-0.26
			l0-0.01l-17.8,10.25l-0.43,0.26c-0.06,0.03-0.12,0.06-0.17,0.1c-0.31,0.21-0.59,0.44-0.85,0.7c-1.08,1.07-1.74,2.55-1.74,4.18
			c0,2.24,1.24,4.18,3.07,5.19c0.84,0.45,1.79,0.71,2.82,0.71c1.02,0,1.98-0.26,2.81-0.71c0.11-0.06,0.23-0.13,0.34-0.19
			l17.91-10.32l0,0C390.39,131.17,390.85,130.24,390.85,128.93z"/>
		<path id="XMLID_2971_" style="fill:#455A64;" d="M390.85,157.65c0-2.66-1.86-5.89-4.17-7.21c-1.17-0.68-2.22-0.72-2.98-0.26
			l0-0.01l-20.86,11.98l-0.43,0.26c-0.06,0.03-0.12,0.06-0.17,0.1c-0.31,0.21-0.59,0.44-0.85,0.7c-1.08,1.07-1.74,2.55-1.74,4.18
			c0,2.24,1.24,4.18,3.07,5.19c0.84,0.45,1.79,0.71,2.82,0.71c1.02,0,1.98-0.26,2.81-0.71c0.11-0.06,0.23-0.13,0.34-0.19
			l20.97-12.04l0,0C390.39,159.9,390.85,158.97,390.85,157.65z"/>
	</g>
</g>
</svg>
