<?xml version="1.0" encoding="utf-8"?>
<!-- Generator: Adobe Illustrator 27.2.0, SVG Export Plug-In . SVG Version: 6.00 Build 0)  -->
<svg version="1.1" xmlns="http://www.w3.org/2000/svg" xmlns:xlink="http://www.w3.org/1999/xlink" x="0px" y="0px"
	 viewBox="0 0 500 500" style="enable-background:new 0 0 500 500;" xml:space="preserve">
<g id="Floor">
</g>
<g id="Shadows">
</g>
<g id="Pictures">
</g>
<g id="Table">
</g>
<g id="Gears_1_">
</g>
<g id="Plants">
</g>
<g id="Device">
</g>
<g id="Window">
</g>
<g id="Speech_Bubble">
</g>
<g id="Character">
	<g>
		<path id="Floor_7_" style="fill:#F5F5F5;" d="M86.13,260.86c90.45-52.01,237.11-52.01,327.56,0c90.45,52.01,90.45,136.33,0,188.34
			c-90.46,52.01-237.11,52.01-327.56,0C-4.32,397.19-4.32,312.86,86.13,260.86z"/>
		<g>
			<g>
				<path style="fill:#BA68C8;" d="M234.1,323.76l-9.51,5.53c0,0,4.8-15.33,2.14-30.74c-1.01-5.82-3.12-8.71-3.87-10.26
					c-0.75-1.55-6.48-11.17-1.43-15.6c5.05-4.43,16.9,4.38,16.37,28.13C237.52,312.99,234.1,323.76,234.1,323.76z"/>
				<path style="opacity:0.5;" d="M234.1,323.76l-9.51,5.53c0,0,4.8-15.33,2.14-30.74c-1.01-5.82-3.12-8.71-3.87-10.26
					c-0.75-1.55-6.48-11.17-1.43-15.6c5.05-4.43,16.9,4.38,16.37,28.13C237.52,312.99,234.1,323.76,234.1,323.76z"/>
				<path style="fill:#FFFFFF;" d="M229.68,326.76c0.18,0,0.34-0.11,0.41-0.28c0.04-0.1,3.63-10.09,3.44-26.11
					c-0.19-16.12-8.66-24.72-8.75-24.8c-0.17-0.17-0.44-0.17-0.61,0c-0.17,0.17-0.17,0.44,0,0.61c0.08,0.08,8.31,8.45,8.49,24.2
					c0.19,15.85-3.36,25.71-3.39,25.81c-0.08,0.22,0.03,0.47,0.26,0.55C229.58,326.75,229.63,326.76,229.68,326.76z"/>
			</g>
			<g>
				<path style="fill:#BA68C8;" d="M226.73,328.08l-15.72,9.24c0,0-7.2-1.06-6.65-7.84c0.54-6.77,3.47-8.37-0.17-11.35
					c-3.64-2.98-4.58-3.17-4.41-6.09c0.17-2.92,2.14-4.19,3.06-5.35c0.92-1.16,3.5-3.58,1.69-7.1c-1.81-3.52-4.27-6.92-0.62-8.53
					c2.18-0.96,5.83,0.24,8.26,2.82c2.43,2.57,4.43,4.43,6.72,5.02c2.3,0.6,7.09,0.65,6.93,4.6s-1.19,5.33-0.23,7.08
					C227.39,313.91,235.12,315.69,226.73,328.08z"/>
				<path style="opacity:0.2;" d="M226.73,328.08l-15.72,9.24c0,0-7.2-1.06-6.65-7.84c0.54-6.77,3.47-8.37-0.17-11.35
					c-3.64-2.98-4.58-3.17-4.41-6.09c0.17-2.92,2.14-4.19,3.06-5.35c0.92-1.16,3.5-3.58,1.69-7.1c-1.81-3.52-4.27-6.92-0.62-8.53
					c2.18-0.96,5.83,0.24,8.26,2.82c2.43,2.57,4.43,4.43,6.72,5.02c2.3,0.6,7.09,0.65,6.93,4.6s-1.19,5.33-0.23,7.08
					C227.39,313.91,235.12,315.69,226.73,328.08z"/>
				<path style="fill:#FFFFFF;" d="M220.32,332.27c0.22,0,0.41-0.17,0.43-0.4c0.02-0.23,1.73-23.67-14.55-39.06
					c-0.17-0.16-0.45-0.16-0.61,0.02c-0.16,0.17-0.16,0.45,0.02,0.61c15.98,15.1,14.31,38.13,14.29,38.37
					c-0.02,0.24,0.16,0.45,0.4,0.47C220.3,332.27,220.31,332.27,220.32,332.27z"/>
				<path style="fill:#FFFFFF;" d="M217.51,312.19c0.22,0,0.41-0.17,0.43-0.4c0.46-6.15,4.73-9.31,4.78-9.34
					c0.19-0.14,0.24-0.41,0.1-0.6c-0.14-0.19-0.41-0.24-0.6-0.1c-0.19,0.14-4.65,3.42-5.13,9.98c-0.02,0.24,0.16,0.44,0.4,0.46
					C217.48,312.19,217.5,312.19,217.51,312.19z"/>
				<path style="fill:#FFFFFF;" d="M218.67,316.19c0.1,0,0.21-0.04,0.29-0.11c0.18-0.16,0.19-0.43,0.03-0.61
					c-0.17-0.19-4.27-4.62-13.75-3.32c-0.24,0.03-0.4,0.25-0.37,0.49c0.03,0.24,0.25,0.4,0.49,0.37c8.99-1.23,12.95,3,12.99,3.04
					C218.43,316.14,218.55,316.19,218.67,316.19z"/>
			</g>
		</g>
		<path id="Shadow_49_" style="fill:#E0E0E0;" d="M110.63,324.04c14.61,8.43,14.61,22.11,0,30.54c-14.61,8.43-38.3,8.43-52.9,0
			c-14.61-8.43-14.61-22.11,0-30.54C72.34,315.6,96.02,315.6,110.63,324.04z"/>
		<path id="Shadow_6_" style="fill:#E0E0E0;" d="M362.8,424.42l8.68-5.1c1.35-0.78,3.54-0.78,4.89,0l13.47,7.78
			c1.35,0.78,3.54,0.78,4.89,0l45.6-26.33c1.35-0.78,1.35-2.04,0-2.82l-151.17-87.28c-1.35-0.78-3.54-0.78-4.89,0l-45.6,26.33
			c-1.35,0.78-1.36,2.05-0.01,2.84l13.49,7.93c1.35,0.79,1.34,2.06-0.02,2.83l-8.66,4.94c-1.36,0.77-1.36,2.03-0.01,2.81
			l114.45,66.08C359.25,425.2,361.44,425.2,362.8,424.42z"/>
		<ellipse id="Shadow_2_" style="fill:#E0E0E0;" cx="175.29" cy="419.35" rx="56.85" ry="32.82"/>
		<g id="Picture_9_">
			<g id="Frame_10_">
				<polygon id="XMLID_2776_" style="fill:#FAFAFA;" points="65.78,145.6 67.21,146.45 96.47,129.56 95.05,128.71 				"/>
				<g id="XMLID_2648_">
					<g id="XMLID_2650_">
						<g id="XMLID_2743_">
							<polygon id="XMLID_2775_" style="fill:#FFFFFF;" points="95.05,128.71 67.21,144.78 67.21,115.63 95.05,99.57 							"/>
						</g>
					</g>
				</g>
				<path id="XMLID_2637_" style="fill:#F0F0F0;" d="M99.16,94.07l-34.64,20l0,37.04l34.64-20L99.16,94.07z M96.47,129.56
					l-29.26,16.89l0-30.83l29.26-16.89L96.47,129.56z"/>
				<polygon id="XMLID_2636_" style="fill:#E0E0E0;" points="96.47,129.56 95.05,128.71 95.05,99.57 96.47,98.73 				"/>
				<polygon id="XMLID_2635_" style="fill:#FAFAFA;" points="99.16,94.07 97.72,93.24 63.07,113.24 64.52,114.07 				"/>
				<polygon id="XMLID_2634_" style="fill:#E0E0E0;" points="63.07,113.24 64.52,114.07 64.52,151.11 63.07,150.28 				"/>
			</g>
			<g id="Land_11_">
				<polygon style="fill:#F0F0F0;" points="93.96,127.84 68.3,142.65 68.3,135.24 74.71,120.43 78.71,124.13 77.27,130.34 
					86.13,111.39 93.96,120.43 				"/>
				<path style="fill:#F0F0F0;" d="M78.47,113.27c-1.05,0.61-1.9,2.08-1.9,3.29c0,1.21,0.85,1.7,1.9,1.1
					c1.05-0.61,1.9-2.08,1.9-3.29C80.37,113.16,79.52,112.67,78.47,113.27z"/>
			</g>
		</g>
		<g id="Picture_8_">
			<g id="Frame_9_">
				<polygon id="XMLID_2633_" style="fill:#FAFAFA;" points="65.17,193.66 66.59,194.51 95.85,177.61 94.43,176.76 				"/>
				<g id="XMLID_2462_">
					<g id="XMLID_2521_">
						<g id="XMLID_2562_">
							<polygon id="XMLID_2563_" style="fill:#FFFFFF;" points="94.43,176.76 66.59,192.83 66.59,163.68 94.43,147.62 							"/>
						</g>
					</g>
				</g>
				<path id="XMLID_948_" style="fill:#F0F0F0;" d="M98.55,142.13l-34.65,20l0,37.04l34.64-20L98.55,142.13z M95.85,177.61
					l-29.26,16.89l0-30.83l29.26-16.89L95.85,177.61z"/>
				<polygon id="XMLID_819_" style="fill:#E0E0E0;" points="95.85,177.61 94.43,176.76 94.43,147.62 95.86,146.79 				"/>
				<polygon id="XMLID_732_" style="fill:#FAFAFA;" points="98.55,142.13 97.1,141.3 62.45,161.3 63.9,162.13 				"/>
				<polygon id="XMLID_731_" style="fill:#E0E0E0;" points="62.45,161.3 63.9,162.13 63.9,199.17 62.45,198.34 				"/>
			</g>
			<g id="Land_10_">
				<polygon style="fill:#F0F0F0;" points="93.34,175.89 67.68,190.71 67.68,183.3 74.1,168.48 78.09,172.19 76.66,178.4 
					85.52,159.45 93.34,168.48 				"/>
				<path style="fill:#F0F0F0;" d="M77.85,161.33c-1.05,0.61-1.9,2.08-1.9,3.29c0,1.21,0.85,1.7,1.9,1.1
					c1.05-0.61,1.9-2.08,1.9-3.29C79.75,161.22,78.9,160.73,77.85,161.33z"/>
			</g>
		</g>
		<g id="Table_1_">
			<g id="Table_3_">
				<g>
					<path style="fill:#455A64;" d="M101.85,276.62c0-0.3-0.2-0.6-0.59-0.82c-0.79-0.45-2.06-0.45-2.85,0
						c-0.39,0.23-0.59,0.52-0.59,0.82l15.12,62.79h0c0.01,0.21,0.14,0.41,0.41,0.57c0.56,0.32,1.46,0.32,2.01,0
						c0.27-0.16,0.41-0.36,0.41-0.57h0L101.85,276.62z"/>
					<path style="fill:#455A64;" d="M67,276.62c0-0.3,0.2-0.6,0.59-0.82c0.79-0.45,2.06-0.45,2.85,0c0.39,0.23,0.59,0.52,0.59,0.82
						L55.91,339.4h0c-0.01,0.21-0.14,0.41-0.41,0.57c-0.56,0.32-1.46,0.32-2.01,0c-0.27-0.16-0.41-0.36-0.41-0.57h0L67,276.62z"/>
					<path style="fill:#455A64;" d="M82.17,278.69c0-0.3,0.2-0.6,0.59-0.82c0.79-0.45,2.06-0.45,2.85,0
						c0.39,0.23,0.59,0.52,0.59,0.82L85.6,349.5h0c-0.01,0.21-0.14,0.41-0.41,0.57c-0.56,0.32-1.46,0.32-2.01,0
						c-0.27-0.16-0.41-0.36-0.41-0.57h0L82.17,278.69z"/>
				</g>
				<g>
					<path style="fill:#BA68C8;" d="M48.1,261.54h0.03c-0.01-5.33,3.49-10.66,10.53-14.73c14.09-8.13,36.93-8.13,51.02,0
						c7.05,4.07,10.54,9.4,10.53,14.73h0.03v2.86l0,0c-0.08,5.26-3.61,10.51-10.57,14.52c-14.09,8.13-36.93,8.13-51.02,0
						c-6.95-4.01-10.48-9.26-10.57-14.52l0,0V261.54z"/>
					<path id="XMLID_729_" style="fill:#BA68C8;" d="M109.69,246.82c14.09,8.13,14.09,21.32,0,29.46c-14.09,8.13-36.93,8.13-51.02,0
						c-14.09-8.13-14.09-21.32,0-29.46C72.76,238.68,95.6,238.68,109.69,246.82z"/>
					<path id="XMLID_728_" style="opacity:0.45;fill:#FFFFFF;" d="M109.69,246.82c14.09,8.13,14.09,21.32,0,29.46
						c-14.09,8.13-36.93,8.13-51.02,0c-14.09-8.13-14.09-21.32,0-29.46C72.76,238.68,95.6,238.68,109.69,246.82z"/>
				</g>
			</g>
			<g id="Pot_5_">
				<g id="XMLID_715_" style="opacity:0.05;">
					<path id="XMLID_720_" d="M76.28,254.66c-4.49,2.59-4.49,6.8,0,9.4c4.49,2.59,11.78,2.59,16.27,0c4.49-2.59,4.49-6.8,0-9.4
						C88.06,252.07,80.77,252.07,76.28,254.66z"/>
				</g>
				<g id="XMLID_527_">
					<path id="XMLID_710_" style="fill:#EBEBEB;" d="M91.57,259.94c3.91-3.99,6.21-13.97,2.4-17.13H74.54
						c-3.82,3.17-1.52,13.13,2.39,17.13c0.03,0.04,0.07,0.07,0.11,0.11c0.04,0.04,0.09,0.09,0.13,0.13
						c0.11,0.11,0.23,0.21,0.35,0.31c0.03,0.03,0.06,0.05,0.09,0.07c0.1,0.08,0.19,0.15,0.3,0.22c0.17,0.12,0.34,0.23,0.51,0.32
						c3.22,1.86,8.44,1.86,11.66,0h0h0c0.17-0.1,0.34-0.21,0.51-0.33c0.1-0.07,0.19-0.14,0.27-0.21c0.04-0.03,0.08-0.06,0.12-0.09
						c0.12-0.1,0.23-0.2,0.34-0.3c0.05-0.05,0.1-0.1,0.16-0.15C91.51,260,91.54,259.97,91.57,259.94z"/>
					<path id="XMLID_694_" style="fill:#FAFAFA;" d="M76.23,241.53c-4.43,2.56-4.43,6.71,0,9.27c4.43,2.56,11.62,2.56,16.05,0
						c4.43-2.56,4.43-6.71,0-9.27C87.85,238.97,80.66,238.97,76.23,241.53z"/>
					<path id="XMLID_565_" style="fill:#EBEBEB;" d="M79.37,243.34c-2.7,1.56-2.7,4.08,0,5.64c2.7,1.56,7.07,1.56,9.76,0
						c2.7-1.56,2.7-4.08,0-5.64C86.44,241.79,82.07,241.79,79.37,243.34z"/>
					<path id="XMLID_548_" style="fill:#E0E0E0;" d="M89.14,246.02c-2.7-1.56-7.07-1.56-9.76,0c-0.75,0.43-1.28,0.94-1.62,1.48
						c0.33,0.54,0.87,1.05,1.62,1.48c2.7,1.56,7.07,1.56,9.76,0c0.75-0.43,1.28-0.94,1.62-1.48
						C90.42,246.96,89.89,246.45,89.14,246.02z"/>
				</g>
				<g id="XMLID_441_">
					<path id="XMLID_450_" style="fill:#BA68C8;" d="M79.97,247.5c0,0-1.9-1.81-3.53-4.7c-1.63-2.88-1.93-6.75-1.09-7.22
						c0.84-0.48,4.28,3.38,4.28,3.38s-0.51-2.35-0.36-4.92c0.14-2.57,0.77-4.9,1.51-5.37c0.74-0.47,2.38,2.77,3.09,5.12
						c0.71,2.35,1.13,4.28,1.13,4.28s0.48-3.17,1.27-5.4c0.86-2.44,1.63-2.99,2.23-2.75c0.6,0.24,1,1.38,1.18,4.63
						c0.12,2.27-0.15,4.65-0.15,4.65s1.21-1.33,2.55-2.62c1.48-1.42,2.11-1.61,2.53-1.34c0.42,0.27,0.54,2.48-1.75,6.61
						c-2.02,3.65-4.31,5.68-4.31,5.68S85.37,249.54,79.97,247.5z"/>
					<path id="XMLID_443_" style="opacity:0.3;" d="M79.97,247.5c0,0-1.9-1.81-3.53-4.7c-1.63-2.88-1.93-6.75-1.09-7.22
						c0.84-0.48,4.28,3.38,4.28,3.38s-0.51-2.35-0.36-4.92c0.14-2.57,0.77-4.9,1.51-5.37c0.74-0.47,2.38,2.77,3.09,5.12
						c0.71,2.35,1.13,4.28,1.13,4.28s0.48-3.17,1.27-5.4c0.86-2.44,1.63-2.99,2.23-2.75c0.6,0.24,1,1.38,1.18,4.63
						c0.12,2.27-0.15,4.65-0.15,4.65s1.21-1.33,2.55-2.62c1.48-1.42,2.11-1.61,2.53-1.34c0.42,0.27,0.54,2.48-1.75,6.61
						c-2.02,3.65-4.31,5.68-4.31,5.68S85.37,249.54,79.97,247.5z"/>
				</g>
			</g>
		</g>
		<g id="Gears">
			<g id="XMLID_2139_">
				<path id="XMLID_2436_" style="fill:#BA68C8;" d="M360.49,82.67l4.45,5.33c0,0.7,0.47,1.6,1.04,2l11.96,5.05
					c0.57,0.4,1,1.3,0.98,2c-0.08,2.7,0.11,6.5,0.94,9.4c0.19,0.68-0.03,1.58-0.56,2.04l-3.45,2.97c-0.53,0.46-0.68,1.32-0.33,1.93
					l7.49,12.98c0.35,0.61,1.17,0.91,1.84,0.68l4.02-1.41c0.66-0.23,1.55,0.03,2.03,0.54c2.06,2.23,5,4.33,7.92,5.55
					c0.65,0.27,1.24,1.02,1.3,1.72l-1.63,12.85c0.06,0.7,0.61,1.55,1.22,1.9l6.02,8.84l7.66-4.4l0,0c0.21-0.12,0.36-0.36,0.39-0.69
					l0.99-9.9c0.07-0.7,0.67-1.11,1.36-0.96c1.71,0.38,3.35,0.54,4.91,0.5c0.7-0.02,1.58,0.39,1.97,0.98l4.88,12.84
					c0.39,0.58,1.2,0.77,1.81,0.42l9.21-5.29c0.61-0.35,0.85-1.15,0.54-1.78l-6.05-12.19c-0.31-0.63-0.23-1.6,0.14-2.2
					c0.33-0.55,0.64-1.13,0.93-1.73l4.8,5.03l7.67-4.4l0,0c0.22-0.13,0.36-0.39,0.36-0.76v-11.77c0-0.7-0.47-1.6-1.04-2l-9.31-6.55
					c-0.57-0.4-1.15-1.29-1.3-1.98c-0.59-2.63-1.39-5.28-2.36-7.9c-0.24-0.66-0.02-1.56,0.51-2.02l5.25-4.52
					c0.53-0.46,0.68-1.32,0.33-1.93l-7.49-12.98c-0.35-0.61-1.17-0.91-1.84-0.68l-6.54,2.28c-0.66,0.23-1.55-0.03-2-0.57
					c-1.78-2.15-3.68-4.17-5.66-5.99c-0.52-0.48-1-1.42-1.06-2.12l-1.02-11.34c-0.06-0.7-0.61-1.55-1.22-1.9l-10.19-5.88
					c-0.31-0.18-0.6-0.19-0.82-0.07v0l-7.69,4.41l2.65,6.78c-0.9-0.1-1.78-0.15-2.63-0.12c-0.7,0.02-1.58-0.39-1.97-0.98
					l-7.53-11.33c-0.39-0.58-1.2-0.77-1.81-0.42l-9.21,5.29c-0.61,0.35-0.85,1.15-0.54,1.78l6.05,12.19c0.31,0.63,0.23,1.6-0.14,2.2
					c-0.81,1.33,1.16,1.32,0.63,2.99c-0.21,0.67-0.87,0.99-1.51,0.7l-9.07-4.09c-0.31-0.14-0.58-0.13-0.79-0.01l0,0l-7.67,4.4
					L360.49,82.67z M387.58,95.18c0-10.98,5.76-14.97,15.27-9.48c9.51,5.49,17.37,18.94,17.37,29.92c0,10.98-5.91,14.87-15.42,9.38
					C395.29,119.51,387.58,106.16,387.58,95.18z"/>
				<path id="XMLID_2429_" style="opacity:0.3;fill:#FFFFFF;" d="M360.49,82.67l4.45,5.33c0,0.7,0.47,1.6,1.04,2l11.96,5.05
					c0.57,0.4,1,1.3,0.98,2c-0.08,2.7,0.11,6.5,0.94,9.4c0.19,0.68-0.03,1.58-0.56,2.04l-3.45,2.97c-0.53,0.46-0.68,1.32-0.33,1.93
					l7.49,12.98c0.35,0.61,1.17,0.91,1.84,0.68l4.02-1.41c0.66-0.23,1.55,0.03,2.03,0.54c2.06,2.23,5,4.33,7.92,5.55
					c0.65,0.27,1.24,1.02,1.3,1.72l-1.63,12.85c0.06,0.7,0.61,1.55,1.22,1.9l6.02,8.84l7.66-4.4l0,0c0.21-0.12,0.36-0.36,0.39-0.69
					l0.99-9.9c0.07-0.7,0.67-1.11,1.36-0.96c1.71,0.38,3.35,0.54,4.91,0.5c0.7-0.02,1.58,0.39,1.97,0.98l4.88,12.84
					c0.39,0.58,1.2,0.77,1.81,0.42l9.21-5.29c0.61-0.35,0.85-1.15,0.54-1.78l-6.05-12.19c-0.31-0.63-0.23-1.6,0.14-2.2
					c0.33-0.55,0.64-1.13,0.93-1.73l4.8,5.03l7.67-4.4l0,0c0.22-0.13,0.36-0.39,0.36-0.76v-11.77c0-0.7-0.47-1.6-1.04-2l-9.31-6.55
					c-0.57-0.4-1.15-1.29-1.3-1.98c-0.59-2.63-1.39-5.28-2.36-7.9c-0.24-0.66-0.02-1.56,0.51-2.02l5.25-4.52
					c0.53-0.46,0.68-1.32,0.33-1.93l-7.49-12.98c-0.35-0.61-1.17-0.91-1.84-0.68l-6.54,2.28c-0.66,0.23-1.55-0.03-2-0.57
					c-1.78-2.15-3.68-4.17-5.66-5.99c-0.52-0.48-1-1.42-1.06-2.12l-1.02-11.34c-0.06-0.7-0.61-1.55-1.22-1.9l-10.19-5.88
					c-0.31-0.18-0.6-0.19-0.82-0.07v0l-7.69,4.41l2.65,6.78c-0.9-0.1-1.78-0.15-2.63-0.12c-0.7,0.02-1.58-0.39-1.97-0.98
					l-7.53-11.33c-0.39-0.58-1.2-0.77-1.81-0.42l-9.21,5.29c-0.61,0.35-0.85,1.15-0.54,1.78l6.05,12.19c0.31,0.63,0.23,1.6-0.14,2.2
					c-0.81,1.33,1.16,1.32,0.63,2.99c-0.21,0.67-0.87,0.99-1.51,0.7l-9.07-4.09c-0.31-0.14-0.58-0.13-0.79-0.01l0,0l-7.67,4.4
					L360.49,82.67z M387.58,95.18c0-10.98,5.76-14.97,15.27-9.48c9.51,5.49,17.37,18.94,17.37,29.92c0,10.98-5.91,14.87-15.42,9.38
					C395.29,119.51,387.58,106.16,387.58,95.18z"/>
				<path style="opacity:0.1;" d="M404.15,139.81l14.85-6.22l12.66-6.53l5.35,9.55l-2.56-3.97c-0.29,0.6-0.59,1.19-0.93,1.73
					c-0.37,0.6-0.45,1.57-0.14,2.2l6.05,12.19c0.31,0.63,0.07,1.42-0.54,1.78l-9.21,5.29c-0.61,0.35-1.42,0.16-1.81-0.42L423,142.56
					c-0.39-0.58-1.27-1-1.97-0.98c-1.56,0.04-3.2-0.12-4.91-0.5c-0.69-0.15-1.29,0.26-1.36,0.96l-0.99,9.9
					c-0.03,0.34-0.18,0.58-0.39,0.69l0,0l-7.66,4.4l-2.84-4.18L404.15,139.81z"/>
				<path style="opacity:0.1;" d="M380.46,103.8V84.11l8.32-7.04l3.93,6.65c-3.29,1.31-5.12,5.27-5.12,11.46
					c0,10.98,7.71,24.33,17.22,29.82c5.57,3.22,9.9,3.19,12.53,0.42l2.85,4.82c0,0-13.97,4.32-20.39,1.63
					C393.36,129.18,380.46,103.8,380.46,103.8z"/>
				<g id="XMLID_2224_">
					<path id="XMLID_2415_" style="fill:#BA68C8;" d="M374.8,64.02l-2-4.03c-0.31-0.63-0.07-1.42,0.54-1.78l9.21-5.29
						c0.61-0.35,1.42-0.16,1.81,0.42l7.53,11.33c0.12,0.18,0.3,0.34,0.5,0.48l-11.08,6.38L374.8,64.02z"/>
					<path id="XMLID_2401_" style="fill:#BA68C8;" d="M436.23,111.42c0.22,0.31,0.47,0.59,0.72,0.77l9.31,6.55
						c0.23,0.16,0.44,0.42,0.61,0.7l-8.33,4.79l-12.36-7.03L436.23,111.42z"/>
					<path id="XMLID_2342_" style="fill:#BA68C8;" d="M430.57,80.1c0.52,0.02,1.05,0.3,1.31,0.76l7.49,12.98
						c0.16,0.28,0.21,0.62,0.17,0.95l-9.11,5.23l-10.25-13.87L430.57,80.1z"/>
					<path id="XMLID_2227_" style="fill:#BA68C8;" d="M413.56,61.77l-10.64,6.12l-9.08-5.24v-3.66l7.69-4.41v0
						c0.22-0.12,0.52-0.1,0.82,0.07l10.19,5.88C412.96,60.78,413.34,61.27,413.56,61.77z"/>
					<path id="XMLID_2226_" style="fill:#BA68C8;" d="M360.29,78.36L360.29,78.36c0.2-0.13,0.49-0.14,0.81,0.01l9.07,4.09
						c0.64,0.29,1.3-0.03,1.51-0.7c0.36-1.14,2.52-4.2,2.33-5.42l-5.25-2.37c-0.31-0.14-0.59-0.13-0.79-0.01v-0.01L360.29,78.36z"/>
				</g>
				<g id="XMLID_2168_" style="opacity:0.7;">
					<g id="XMLID_2213_">
						<path style="fill:#FFFFFF;" d="M374.8,64.02l-2-4.03c-0.31-0.63-0.07-1.42,0.54-1.78l9.21-5.29c0.61-0.35,1.42-0.16,1.81,0.42
							l7.53,11.33c0.12,0.18,0.3,0.34,0.5,0.48l-11.08,6.38L374.8,64.02z"/>
						<path style="fill:#FFFFFF;" d="M374.42,64.34l-2.07-4.14c-0.43-0.86-0.1-1.95,0.74-2.43l9.21-5.29
							c0.83-0.48,1.94-0.22,2.47,0.58l7.53,11.33c0.07,0.11,0.2,0.23,0.38,0.35l0.63,0.45l-12.12,6.97L374.42,64.34z M391.47,64.95
							l-7.53-11.33c-0.24-0.36-0.76-0.49-1.14-0.27l-9.21,5.29c-0.38,0.22-0.53,0.73-0.34,1.12l1.97,3.97l6.19,7.15l10.14-5.83
							C391.52,65.02,391.5,64.98,391.47,64.95z"/>
					</g>
					<g id="XMLID_2202_">
						<path style="fill:#FFFFFF;" d="M436.23,111.42c0.22,0.31,0.47,0.59,0.72,0.77l9.31,6.55c0.23,0.16,0.44,0.42,0.61,0.7
							l-8.33,4.79l-12.36-7.03L436.23,111.42z"/>
						<path style="fill:#FFFFFF;" d="M425.17,117.2l11.2-6.44l0.26,0.37c0.21,0.29,0.41,0.52,0.6,0.65l9.31,6.55
							c0.27,0.19,0.51,0.47,0.75,0.85l0.27,0.44l-9.03,5.19L425.17,117.2z M445.97,119.14l-9.31-6.55
							c-0.19-0.13-0.38-0.31-0.56-0.52l-8.91,5.12l11.35,6.46l7.59-4.36C446.07,119.23,446.02,119.18,445.97,119.14z"/>
					</g>
					<g id="XMLID_2201_">
						<path style="fill:#FFFFFF;" d="M430.57,80.1c0.52,0.02,1.05,0.3,1.31,0.76l7.49,12.98c0.16,0.28,0.21,0.62,0.17,0.95
							l-9.11,5.23l-10.25-13.87L430.57,80.1z"/>
						<path style="fill:#FFFFFF;" d="M419.44,85.99l11-6.4l0.14,0.01c0.71,0.03,1.39,0.42,1.73,1.01l7.49,12.98
							c0.21,0.36,0.29,0.8,0.23,1.26L440,95.09l-9.71,5.58L419.44,85.99z M438.94,94.08l-7.49-12.98c-0.15-0.26-0.44-0.44-0.76-0.5
							l-9.77,5.68l9.66,13.07l8.48-4.88C439.04,94.34,439,94.2,438.94,94.08z"/>
					</g>
					<g id="XMLID_2200_">
						<path style="fill:#FFFFFF;" d="M413.56,61.77l-10.64,6.12l-9.08-5.24v-3.66l7.69-4.41v0c0.22-0.12,0.52-0.1,0.82,0.07
							l10.19,5.88C412.96,60.78,413.34,61.27,413.56,61.77z"/>
						<path style="fill:#FFFFFF;" d="M393.34,62.94V58.7l7.95-4.56c0.38-0.2,0.86-0.18,1.31,0.08l10.19,5.88
							c0.49,0.28,0.95,0.83,1.23,1.46l0.18,0.41l-11.28,6.49L393.34,62.94z M412.29,60.98l-10.19-5.88
							c-0.14-0.08-0.27-0.1-0.32-0.07l-7.43,4.26v3.08l8.58,4.95l9.97-5.73C412.71,61.32,412.5,61.1,412.29,60.98z"/>
					</g>
					<g id="XMLID_2195_">
						<path style="fill:#FFFFFF;" d="M360.29,78.36L360.29,78.36c0.2-0.13,0.49-0.14,0.81,0.01l9.07,4.09
							c0.64,0.29,1.3-0.03,1.51-0.7c0.36-1.14,2.54-4.3,2.33-5.42l-5.25-2.37c-0.31-0.14-0.59-0.13-0.79-0.01v-0.01L360.29,78.36z"
							/>
						<path style="fill:#FFFFFF;" d="M369.96,82.91l-9.07-4.09c-0.16-0.07-0.27-0.07-0.32-0.04l-0.78,0.52v-1.23l7.93-4.55
							l0.75-0.42v0.28c0.16,0.02,0.33,0.06,0.49,0.14l5.48,2.47l0.05,0.26c0.16,0.83-0.51,2.14-1.47,3.91
							c-0.39,0.71-0.75,1.38-0.87,1.75c-0.15,0.47-0.46,0.83-0.88,1.02c-0.2,0.09-0.41,0.13-0.62,0.13
							C370.42,83.06,370.18,83.01,369.96,82.91z M368.55,74.43c-0.16-0.07-0.28-0.07-0.33-0.03l-0.75,0.43v-0.01l-5.73,3.29
							l8.64,3.89c0.17,0.08,0.34,0.08,0.49,0.02c0.16-0.07,0.28-0.21,0.34-0.41c0.14-0.46,0.51-1.14,0.94-1.93
							c0.49-0.89,1.26-2.32,1.37-3.01L368.55,74.43z"/>
					</g>
				</g>
				<path id="XMLID_2149_" style="fill:#BA68C8;" d="M360.97,92.89l9.31,6.55c0.57,0.4,1.15,1.29,1.3,1.98
					c0.59,2.63,1.39,5.28,2.36,7.9c0.24,0.66,0.02,1.56-0.51,2.02l-5.25,4.52c-0.53,0.46-0.68,1.32-0.33,1.93l7.49,12.98
					c0.35,0.61,1.17,0.91,1.84,0.68l6.54-2.28c0.66-0.23,1.55,0.03,2,0.57c1.78,2.15,3.68,4.17,5.66,5.99
					c0.52,0.48,1,1.42,1.06,2.12l1.02,11.34c0.06,0.7,0.61,1.55,1.22,1.9l10.19,5.88c0.61,0.35,1.16,0.07,1.23-0.63l0.99-9.9
					c0.07-0.7,0.67-1.11,1.36-0.96c1.71,0.38,3.35,0.54,4.91,0.5c0.7-0.02,1.58,0.39,1.97,0.98l7.53,11.33
					c0.39,0.58,1.2,0.77,1.81,0.42l6.56-3.79c0.61-0.35,0.85-1.15,0.54-1.77l-6.05-12.19c-0.31-0.63-0.23-1.6,0.14-2.2
					c0.81-1.33,1.49-2.83,2.02-4.5c0.21-0.67,0.87-0.99,1.51-0.7l9.07,4.09c0.64,0.29,1.16-0.05,1.16-0.75v-11.77
					c0-0.7-0.47-1.6-1.04-2l-9.31-6.55c-0.57-0.4-1.15-1.29-1.3-1.98c-0.59-2.63-1.39-5.28-2.36-7.9c-0.24-0.66-0.02-1.56,0.51-2.02
					l5.25-4.52c0.53-0.46,0.68-1.32,0.33-1.93l-7.49-12.98c-0.35-0.61-1.17-0.91-1.84-0.68l-6.54,2.28c-0.66,0.23-1.55-0.03-2-0.57
					c-1.78-2.15-3.68-4.17-5.66-5.99c-0.52-0.48-1-1.42-1.06-2.12l-1.02-11.34c-0.06-0.7-0.61-1.55-1.22-1.9l-10.19-5.88
					c-0.61-0.35-1.16-0.07-1.23,0.63l-0.99,9.9c-0.07,0.7-0.67,1.11-1.36,0.96c-1.71-0.38-3.35-0.54-4.91-0.5
					c-0.7,0.02-1.58-0.39-1.97-0.98l-7.53-11.33c-0.39-0.58-1.2-0.77-1.81-0.42l-6.56,3.79c-0.61,0.35-0.85,1.15-0.54,1.78
					l6.05,12.19c0.31,0.63,0.23,1.6-0.14,2.2c-0.81,1.33-1.49,2.83-2.02,4.5c-0.21,0.67-0.87,0.99-1.51,0.7l-9.07-4.09
					c-0.64-0.29-1.16,0.05-1.16,0.75v11.77C359.93,91.59,360.4,92.49,360.97,92.89z M382.57,98.07c0-10.98,7.71-15.43,17.22-9.94
					c9.51,5.49,17.22,18.84,17.22,29.82c0,10.98-7.71,15.43-17.22,9.94C390.27,122.4,382.57,109.05,382.57,98.07z"/>
				<g id="XMLID_2141_" style="opacity:0.55;">
					<path style="fill:#FFFFFF;" d="M360.97,92.89l9.31,6.55c0.57,0.4,1.15,1.29,1.3,1.98c0.59,2.63,1.39,5.28,2.36,7.9
						c0.24,0.66,0.02,1.56-0.51,2.02l-5.25,4.52c-0.53,0.46-0.68,1.32-0.33,1.93l7.49,12.98c0.35,0.61,1.17,0.91,1.84,0.68
						l6.54-2.28c0.66-0.23,1.55,0.03,2,0.57c1.78,2.15,3.68,4.17,5.66,5.99c0.52,0.48,1,1.42,1.06,2.12l1.02,11.34
						c0.06,0.7,0.61,1.55,1.22,1.9l10.19,5.88c0.61,0.35,1.16,0.07,1.23-0.63l0.99-9.9c0.07-0.7,0.67-1.11,1.36-0.96
						c1.71,0.38,3.35,0.54,4.91,0.5c0.7-0.02,1.58,0.39,1.97,0.98l7.53,11.33c0.39,0.58,1.2,0.77,1.81,0.42l6.56-3.79
						c0.61-0.35,0.85-1.15,0.54-1.77l-6.05-12.19c-0.31-0.63-0.23-1.6,0.14-2.2c0.81-1.33,1.49-2.83,2.02-4.5
						c0.21-0.67,0.87-0.99,1.51-0.7l9.07,4.09c0.64,0.29,1.16-0.05,1.16-0.75v-11.77c0-0.7-0.47-1.6-1.04-2l-9.31-6.55
						c-0.57-0.4-1.15-1.29-1.3-1.98c-0.59-2.63-1.39-5.28-2.36-7.9c-0.24-0.66-0.02-1.56,0.51-2.02l5.25-4.52
						c0.53-0.46,0.68-1.32,0.33-1.93l-7.49-12.98c-0.35-0.61-1.17-0.91-1.84-0.68l-6.54,2.28c-0.66,0.23-1.55-0.03-2-0.57
						c-1.78-2.15-3.68-4.17-5.66-5.99c-0.52-0.48-1-1.42-1.06-2.12l-1.02-11.34c-0.06-0.7-0.61-1.55-1.22-1.9l-10.19-5.88
						c-0.61-0.35-1.16-0.07-1.23,0.63l-0.99,9.9c-0.07,0.7-0.67,1.11-1.36,0.96c-1.71-0.38-3.35-0.54-4.91-0.5
						c-0.7,0.02-1.58-0.39-1.97-0.98l-7.53-11.33c-0.39-0.58-1.2-0.77-1.81-0.42l-6.56,3.79c-0.61,0.35-0.85,1.15-0.54,1.78
						l6.05,12.19c0.31,0.63,0.23,1.6-0.14,2.2c-0.81,1.33-1.49,2.83-2.02,4.5c-0.21,0.67-0.87,0.99-1.51,0.7l-9.07-4.09
						c-0.64-0.29-1.16,0.05-1.16,0.75v11.77C359.93,91.59,360.4,92.49,360.97,92.89z M382.57,98.07c0-10.98,7.71-15.43,17.22-9.94
						c9.51,5.49,17.22,18.84,17.22,29.82c0,10.98-7.71,15.43-17.22,9.94C390.27,122.4,382.57,109.05,382.57,98.07z"/>
					<path style="fill:#FFFFFF;" d="M422.46,158.56l-7.53-11.33c-0.28-0.42-0.97-0.77-1.54-0.76c-1.61,0.04-3.31-0.13-5.03-0.51
						c-0.2-0.04-0.39-0.01-0.53,0.09c-0.13,0.1-0.21,0.25-0.23,0.43l-0.99,9.9c-0.05,0.5-0.3,0.91-0.68,1.1
						c-0.38,0.2-0.85,0.16-1.29-0.09l-10.19-5.88c-0.74-0.43-1.39-1.44-1.46-2.29l-1.02-11.34c-0.05-0.56-0.47-1.4-0.9-1.79
						c-1.97-1.81-3.89-3.84-5.71-6.04c-0.32-0.38-0.99-0.58-1.45-0.41l-6.54,2.28c-0.89,0.31-1.96-0.09-2.43-0.9l-7.49-12.98
						c-0.47-0.82-0.28-1.94,0.43-2.56l5.25-4.52c0.37-0.32,0.54-1,0.37-1.47c-0.99-2.67-1.79-5.35-2.38-7.96
						c-0.13-0.58-0.64-1.35-1.1-1.68l-9.31-6.55c-0.7-0.49-1.25-1.55-1.25-2.41V79.12c0-0.51,0.21-0.93,0.57-1.17
						c0.36-0.23,0.83-0.25,1.3-0.04l9.07,4.09c0.17,0.08,0.34,0.08,0.49,0.02c0.16-0.07,0.28-0.22,0.34-0.41
						c0.53-1.68,1.23-3.23,2.07-4.61c0.29-0.47,0.34-1.26,0.12-1.71l-6.05-12.19c-0.43-0.86-0.1-1.95,0.73-2.43l6.56-3.79
						c0.83-0.48,1.94-0.22,2.47,0.58l7.53,11.33c0.28,0.42,1,0.78,1.54,0.76c1.61-0.04,3.3,0.13,5.03,0.51
						c0.2,0.04,0.39,0.01,0.52-0.09c0.13-0.1,0.21-0.25,0.23-0.43l0.99-9.9c0.05-0.51,0.3-0.91,0.68-1.1
						c0.38-0.2,0.85-0.16,1.29,0.09l10.19,5.88c0.74,0.43,1.39,1.44,1.46,2.29l1.02,11.34c0.05,0.56,0.47,1.4,0.9,1.79
						c1.97,1.81,3.89,3.85,5.71,6.04c0.32,0.38,1,0.58,1.45,0.41l6.54-2.28c0.89-0.31,1.96,0.09,2.43,0.9l7.49,12.98
						c0.47,0.82,0.28,1.94-0.43,2.56l-5.25,4.52c-0.37,0.32-0.54,1-0.37,1.47c0.99,2.67,1.79,5.35,2.38,7.96
						c0.13,0.58,0.63,1.35,1.1,1.68l9.31,6.55c0.7,0.49,1.25,1.55,1.25,2.41v11.77c0,0.51-0.21,0.93-0.57,1.17
						c-0.36,0.23-0.83,0.25-1.3,0.04l-9.07-4.09c-0.17-0.08-0.34-0.08-0.49-0.02c-0.16,0.07-0.28,0.22-0.34,0.41
						c-0.53,1.68-1.23,3.23-2.07,4.61c-0.29,0.47-0.34,1.26-0.12,1.71l6.05,12.19c0.43,0.86,0.1,1.95-0.73,2.43l-6.56,3.79
						c-0.28,0.16-0.6,0.24-0.91,0.24C423.41,159.39,422.81,159.09,422.46,158.56z M429.61,133.11l9.07,4.09
						c0.15,0.07,0.27,0.08,0.34,0.03c0.07-0.04,0.11-0.17,0.11-0.33v-11.77c0-0.54-0.39-1.28-0.83-1.59l-9.31-6.55
						c-0.67-0.47-1.32-1.45-1.5-2.27c-0.58-2.57-1.36-5.2-2.34-7.83c-0.32-0.85-0.03-1.98,0.65-2.57l5.25-4.52
						c0.35-0.3,0.45-0.9,0.22-1.3l-7.49-12.98c-0.23-0.4-0.8-0.61-1.24-0.46L416,87.33c-0.85,0.29-1.97-0.02-2.55-0.72
						c-1.79-2.16-3.68-4.16-5.61-5.94c-0.62-0.57-1.15-1.62-1.22-2.44l-1.02-11.34c-0.05-0.54-0.5-1.24-0.97-1.51l-10.19-5.88
						c-0.14-0.08-0.27-0.11-0.34-0.07c-0.07,0.04-0.13,0.15-0.14,0.31l-0.99,9.9c-0.05,0.47-0.27,0.88-0.64,1.14
						c-0.37,0.27-0.84,0.36-1.33,0.25c-1.64-0.36-3.25-0.52-4.79-0.49c-0.92,0.03-1.93-0.49-2.4-1.2l-7.53-11.33
						c-0.24-0.36-0.76-0.49-1.14-0.27l-6.56,3.79c-0.38,0.22-0.53,0.73-0.34,1.12l6.05,12.19c0.38,0.76,0.31,1.92-0.16,2.68
						c-0.8,1.31-1.47,2.78-1.97,4.39c-0.15,0.47-0.46,0.83-0.88,1.02c-0.41,0.18-0.87,0.18-1.31-0.02l-9.07-4.09
						c-0.15-0.07-0.27-0.08-0.34-0.03c-0.07,0.04-0.11,0.17-0.11,0.33v11.77c0,0.54,0.39,1.28,0.83,1.6l9.31,6.55
						c0.67,0.47,1.32,1.45,1.5,2.27c0.58,2.57,1.36,5.2,2.34,7.83c0.32,0.85,0.03,1.98-0.65,2.57l-5.25,4.52
						c-0.35,0.3-0.45,0.9-0.22,1.3l7.49,12.98c0.23,0.4,0.8,0.61,1.24,0.46l6.54-2.28c0.85-0.3,1.97,0.02,2.55,0.72
						c1.79,2.16,3.68,4.16,5.61,5.94c0.61,0.56,1.15,1.63,1.22,2.44l1.02,11.34c0.05,0.54,0.5,1.24,0.97,1.51l10.19,5.88
						c0.14,0.08,0.26,0.1,0.34,0.07c0.07-0.04,0.13-0.15,0.14-0.31l0.99-9.9c0.05-0.47,0.27-0.88,0.64-1.14
						c0.37-0.27,0.84-0.36,1.33-0.25c1.64,0.36,3.26,0.52,4.78,0.49c0.9-0.02,1.93,0.49,2.4,1.2l7.53,11.33
						c0.24,0.36,0.76,0.48,1.14,0.27l6.56-3.79c0.38-0.22,0.53-0.73,0.34-1.12l-6.05-12.19c-0.38-0.76-0.31-1.92,0.16-2.68
						c0.8-1.31,1.46-2.78,1.97-4.39c0.15-0.47,0.46-0.83,0.88-1.02c0.2-0.09,0.41-0.13,0.62-0.13
						C429.15,132.96,429.38,133.01,429.61,133.11z M399.53,128.32L399.53,128.32c-9.63-5.56-17.47-19.13-17.47-30.25
						c0-5.5,1.88-9.61,5.29-11.58c3.41-1.97,7.91-1.54,12.67,1.21c9.63,5.56,17.47,19.13,17.47,30.25c0,5.5-1.88,9.61-5.29,11.58
						c-1.41,0.81-3.01,1.22-4.73,1.22C405.03,130.75,402.32,129.94,399.53,128.32z M387.86,87.36c-3.09,1.78-4.79,5.59-4.79,10.71
						c0,10.8,7.61,23.98,16.97,29.39l0,0c4.44,2.56,8.58,2.99,11.67,1.21c3.09-1.78,4.79-5.59,4.79-10.71
						c0-10.8-7.61-23.99-16.97-29.39c-2.64-1.52-5.17-2.29-7.44-2.29C390.54,86.27,389.11,86.63,387.86,87.36z"/>
				</g>
			</g>
			<g id="XMLID_796_">
				<path id="XMLID_2090_" style="fill:#BA68C8;" d="M405.39,173.53l3.9,3.04c0.08,0.55,0.34,1.13,0.71,1.47l4.29,3.95
					c0.52,0.48,0.97,1.43,1.05,2.13c0.12,1.03,0.3,2.08,0.54,3.13c0.16,0.68-0.22,1.46-0.86,1.73l-2.52,1.07
					c-0.65,0.28-0.94,1.02-0.65,1.66l2.93,6.56c0.29,0.64,1.09,1.13,1.79,1.1l3.11-0.15c0.7-0.03,1.13,0.91,1.52,1.49
					c0.7,1.03,1.9,1.54,2.7,2.49c0.45,0.54,0.8,1.53,0.75,2.23l-0.29,4.61c-0.04,0.7,0.37,1.62,0.92,2.06l1.57,1.23l-0.9,5.67
					l5.13-2.96l0,0c0.18-0.11,0.33-0.29,0.42-0.57l1.09-3.63c0.2-0.67,0.88-0.96,1.53-0.7c0.68,0.27,1.34,0.49,1.99,0.66
					c0.68,0.17,1.51,0.76,1.84,1.38l1.98,4.91l1.39,3.81l5.11-2.95l0,0c0.43-0.27,0.62-0.79,0.43-1.31l-2.19-5.91
					c-0.24-0.66,0.02-1.53,0.5-2.04c0.3-0.31,0.58-0.65,0.84-1.02c0.4-0.58,1.13-0.77,1.72-0.39l0.07,5.86l5.12-2.95l-0.01,0
					c0.19-0.12,0.33-0.33,0.39-0.63l0.81-4.68c0.12-0.69-0.2-1.64-0.72-2.11l-4.29-3.95c-0.52-0.48-0.97-1.43-1.05-2.13
					c-0.12-1.03-0.3-2.08-0.54-3.13c-0.07-0.3-0.03-0.61,0.08-0.89l3.45-1.99l0-0.01c0.54-0.32,0.76-0.99,0.5-1.58l-2.93-6.56
					c-0.29-0.64-1.09-1.13-1.79-1.1l-3.11,0.15c-0.7,0.03-1.57-0.42-1.97-1c-0.7-1.03-1.46-2.03-2.25-2.98
					c-0.45-0.54-0.8-1.53-0.75-2.23l0.29-4.61c0.04-0.7-0.37-1.62-0.92-2.06l-4.84-3.81c-0.33-0.26-0.68-0.29-0.96-0.13l0-0.01
					l-5.1,2.94c0,0,0.08,0.8,0.27,1.35c-0.06-0.02-0.13-0.04-0.19-0.05c-0.68-0.17-1.51-0.76-1.84-1.38l-3.04-5.79
					c-0.33-0.62-1.15-1-1.83-0.85l-3.23,0.72c-0.12,0.03-0.23,0.08-0.34,0.14l0,0l-5.09,2.94l6.81,4.32
					c0.24,0.66-0.02,1.53-0.5,2.04c-0.3,0.31-0.58,0.65-0.84,1.02c-0.4,0.58-1.13,0.77-1.72,0.39l-4.29-2.82
					c-0.33-0.21-0.65-0.23-0.89-0.08l0-0.01L405.39,173.53z M422.17,183.4c0.95-5.51,5.17-5.83,10.41-1.7
					c5.25,4.13,9.55,11.13,8.6,16.65c-0.95,5.51-5.98,6.64-11.23,2.51C424.71,196.73,421.22,188.92,422.17,183.4z"/>
				<path id="XMLID_1420_" style="opacity:0.3;fill:#FFFFFF;" d="M405.39,173.53l3.9,3.04c0.08,0.55,0.34,1.13,0.71,1.47l4.29,3.95
					c0.52,0.48,0.97,1.43,1.05,2.13c0.12,1.03,0.3,2.08,0.54,3.13c0.16,0.68-0.22,1.46-0.86,1.73l-2.52,1.07
					c-0.65,0.28-0.94,1.02-0.65,1.66l2.93,6.56c0.29,0.64,1.09,1.13,1.79,1.1l3.11-0.15c0.7-0.03,1.13,0.91,1.52,1.49
					c0.7,1.03,1.9,1.54,2.7,2.49c0.45,0.54,0.8,1.53,0.75,2.23l-0.29,4.61c-0.04,0.7,0.37,1.62,0.92,2.06l1.57,1.23l-0.9,5.67
					l5.13-2.96l0,0c0.18-0.11,0.33-0.29,0.42-0.57l1.09-3.63c0.2-0.67,0.88-0.96,1.53-0.7c0.68,0.27,1.34,0.49,1.99,0.66
					c0.68,0.17,1.51,0.76,1.84,1.38l1.98,4.91l1.39,3.81l5.11-2.95l0,0c0.43-0.27,0.62-0.79,0.43-1.31l-2.19-5.91
					c-0.24-0.66,0.02-1.53,0.5-2.04c0.3-0.31,0.58-0.65,0.84-1.02c0.4-0.58,1.13-0.77,1.72-0.39l0.07,5.86l5.12-2.95l-0.01,0
					c0.19-0.12,0.33-0.33,0.39-0.63l0.81-4.68c0.12-0.69-0.2-1.64-0.72-2.11l-4.29-3.95c-0.52-0.48-0.97-1.43-1.05-2.13
					c-0.12-1.03-0.3-2.08-0.54-3.13c-0.07-0.3-0.03-0.61,0.08-0.89l3.45-1.99l0-0.01c0.54-0.32,0.76-0.99,0.5-1.58l-2.93-6.56
					c-0.29-0.64-1.09-1.13-1.79-1.1l-3.11,0.15c-0.7,0.03-1.57-0.42-1.97-1c-0.7-1.03-1.46-2.03-2.25-2.98
					c-0.45-0.54-0.8-1.53-0.75-2.23l0.29-4.61c0.04-0.7-0.37-1.62-0.92-2.06l-4.84-3.81c-0.33-0.26-0.68-0.29-0.96-0.13l0-0.01
					l-5.1,2.94c0,0,0.08,0.8,0.27,1.35c-0.06-0.02-0.13-0.04-0.19-0.05c-0.68-0.17-1.51-0.76-1.84-1.38l-3.04-5.79
					c-0.33-0.62-1.15-1-1.83-0.85l-3.23,0.72c-0.12,0.03-0.23,0.08-0.34,0.14l0,0l-5.09,2.94l6.81,4.32
					c0.24,0.66-0.02,1.53-0.5,2.04c-0.3,0.31-0.58,0.65-0.84,1.02c-0.4,0.58-1.13,0.77-1.72,0.39l-4.29-2.82
					c-0.33-0.21-0.65-0.23-0.89-0.08l0-0.01L405.39,173.53z M422.17,183.4c0.95-5.51,5.17-5.83,10.41-1.7
					c5.25,4.13,9.55,11.13,8.6,16.65c-0.95,5.51-5.98,6.64-11.23,2.51C424.71,196.73,421.22,188.92,422.17,183.4z"/>
				<path style="opacity:0.1;" d="M426.11,211.64l8.75-0.89l8.12-4.69c0,0,0.83,1.77,1.88,4c-0.28,0.5-0.4,1.13-0.21,1.64l2.19,5.91
					c0.19,0.52,0,1.04-0.43,1.31l0,0l-5.11,2.95l-1.39-3.81l-1.98-4.91c-0.33-0.62-1.16-1.21-1.84-1.38
					c-0.65-0.17-1.31-0.38-1.99-0.66c-0.65-0.26-1.33,0.03-1.53,0.7l-1.09,3.63c-0.08,0.27-0.23,0.46-0.42,0.57l0,0l-5.13,2.96
					l0.9-5.67l-0.98-0.77L426.11,211.64z"/>
				<path style="opacity:0.1;" d="M416.35,180.27l6.33-3.07l1.47,2.41c-0.97,0.71-1.66,1.96-1.97,3.8
					c-0.95,5.51,2.54,13.33,7.79,17.46c3.14,2.47,6.2,3.05,8.36,1.94l0.56,0.92c0,0-3.61,5.48-8.08,4.46
					c-1.88-0.43-4.09-1.58-6.18-3.16c-0.07-0.64-0.36-1.38-0.73-1.83c-0.79-0.95-1.99-1.46-2.7-2.49c-0.4-0.58-0.82-1.52-1.52-1.49
					l-0.47,0.02c-0.53-0.83-0.98-1.69-1.31-2.55C415.81,191.27,416.35,180.27,416.35,180.27z"/>
				<g id="XMLID_945_">
					<path id="XMLID_1417_" style="fill:#BA68C8;" d="M449.12,199.82l4.24,3.9c0.31,0.29,0.54,0.75,0.65,1.22l-6.3,3.64l0-0.34
						c-0.59-0.39-1.32-0.19-1.72,0.39c0,0,0,0-0.01,0.01l-6.07-3.51L449.12,199.82z"/>
					<path id="XMLID_1238_" style="fill:#BA68C8;" d="M438.31,188.01c-0.48-0.74-1-1.46-1.56-2.16l6.05-3.49
						c0.3,0.12,0.61,0.2,0.89,0.19l3.11-0.15c0.44-0.02,0.92,0.17,1.29,0.47l-9.31,5.38L438.31,188.01z"/>
					<path id="XMLID_1236_" style="fill:#BA68C8;" d="M405.38,173.53c0.24-0.14,0.55-0.11,0.87,0.1l4.29,2.82
						c0.58,0.38,1.31,0.19,1.72-0.39c0.26-0.37,0.53-0.71,0.84-1.03c0.48-0.51,0.75-1.38,0.5-2.04l-0.41-1.09l-1.84-1.21
						c-0.33-0.21-0.65-0.23-0.89-0.08v-0.01L405.38,173.53z"/>
					<path id="XMLID_1017_" style="fill:#BA68C8;" d="M418.06,172.27c0.05-0.06,0.09-0.12,0.14-0.17c0.48-0.51,0.75-1.38,0.5-2.04
						l-6.81-4.32l5.09-2.94l0,0c0.1-0.06,0.21-0.11,0.34-0.14l3.23-0.72c0.69-0.15,1.51,0.23,1.83,0.85l3.04,5.79
						c0.15,0.28,0.4,0.55,0.69,0.78l-6.87,3.96L418.06,172.27z"/>
					<path id="XMLID_1010_" style="fill:#BA68C8;" d="M438.88,170.94l-6.31,3.64l-5.18-4.75c-0.15-0.53-0.21-1.16-0.21-1.16
						l5.1-2.94l0,0.01c0.27-0.16,0.62-0.13,0.96,0.13l4.84,3.81C438.44,169.96,438.72,170.44,438.88,170.94z"/>
				</g>
				<g id="XMLID_917_" style="opacity:0.7;">
					<g id="XMLID_944_">
						<path style="fill:#FFFFFF;" d="M449.12,199.82l4.24,3.9c0.31,0.29,0.54,0.75,0.65,1.22l-6.3,3.64l0-0.34
							c-0.59-0.39-1.32-0.19-1.72,0.39c0,0,0,0-0.01,0.01l-6.07-3.51L449.12,199.82z"/>
						<path style="fill:#FFFFFF;" d="M447.21,208.57c-0.32-0.08-0.64,0.1-0.84,0.39l-0.27,0.34l-7.2-4.15l10.28-5.93l4.51,4.15
							c0.37,0.34,0.65,0.86,0.8,1.47l0.09,0.36l-7.37,4.25L447.21,208.57z M447.99,207.83l0.02,0.01l5.42-3.13
							c-0.1-0.26-0.24-0.48-0.4-0.62l-3.97-3.65l-8.14,4.7l4.97,2.87c0.34-0.3,0.75-0.46,1.17-0.46
							C447.37,207.55,447.7,207.64,447.99,207.83z"/>
					</g>
					<g id="XMLID_943_">
						<path style="fill:#FFFFFF;" d="M438.31,188.01c-0.48-0.74-1-1.46-1.56-2.16l6.05-3.49c0.3,0.12,0.61,0.2,0.89,0.19l3.11-0.15
							c0.44-0.02,0.92,0.17,1.29,0.47l-9.31,5.38L438.31,188.01z"/>
						<path style="fill:#FFFFFF;" d="M437.96,188.4l-0.08-0.12c-0.46-0.72-0.98-1.43-1.53-2.12l-0.37-0.45l6.77-3.91l0.23,0.09
							c0.27,0.11,0.5,0.17,0.67,0.15l3.11-0.15c0.55-0.03,1.16,0.19,1.63,0.58l0.56,0.46l-10.17,5.87L437.96,188.4z M446.82,182.89
							l-3.11,0.15c-0.27,0.01-0.55-0.03-0.87-0.14l-5.34,3.09c0.41,0.53,0.8,1.08,1.15,1.62l0.11,0.05l8.26-4.77
							C446.95,182.89,446.88,182.89,446.82,182.89z"/>
					</g>
					<g id="XMLID_942_">
						<path style="fill:#FFFFFF;" d="M405.38,173.53c0.24-0.14,0.55-0.11,0.87,0.1l4.29,2.82c0.58,0.38,1.31,0.19,1.72-0.39
							c0.26-0.37,0.53-0.71,0.84-1.03c0.48-0.51,0.75-1.38,0.5-2.04l-0.41-1.09l-1.84-1.21c-0.33-0.21-0.65-0.23-0.89-0.08v-0.01
							L405.38,173.53z"/>
						<path style="fill:#FFFFFF;" d="M410.27,176.87l-4.29-2.82c-0.14-0.09-0.28-0.13-0.35-0.09l-0.5-0.87l5.09-2.93l0.75-0.42v0.28
							c0.22,0.03,0.45,0.11,0.67,0.25l1.98,1.3l0.46,1.25c0.34,0.91-0.05,1.98-0.61,2.57c-0.27,0.27-0.53,0.59-0.79,0.97
							c-0.37,0.52-0.92,0.8-1.48,0.8C410.88,177.15,410.56,177.06,410.27,176.87z M411.09,171.11c-0.15-0.09-0.29-0.12-0.36-0.08
							l-0.76,0.45v-0.02l-3.25,1.88l4.1,2.7c0.38,0.25,0.81,0.06,1.04-0.26c0.29-0.42,0.59-0.77,0.89-1.08
							c0.38-0.4,0.56-1.08,0.39-1.52l-0.35-0.94L411.09,171.11z"/>
					</g>
					<g id="XMLID_941_">
						<path style="fill:#FFFFFF;" d="M418.06,172.27c0.05-0.06,0.09-0.12,0.14-0.17c0.48-0.51,0.75-1.38,0.5-2.04l-6.81-4.32
							l5.09-2.94l0,0c0.1-0.06,0.21-0.11,0.34-0.14l3.23-0.72c0.69-0.15,1.51,0.23,1.83,0.85l3.04,5.79
							c0.15,0.28,0.4,0.55,0.69,0.78l-6.87,3.96L418.06,172.27z"/>
						<path style="fill:#FFFFFF;" d="M417.73,172.64l-0.34-0.39l0.34-0.37c0.03-0.04,0.07-0.09,0.11-0.13
							c0.34-0.36,0.52-0.94,0.44-1.38l-7.35-4.66l5.8-3.35l0.38-0.21l0.03,0.04c0.02-0.01,0.05-0.01,0.07-0.02l3.23-0.72
							c0.91-0.2,1.95,0.28,2.38,1.1l3.04,5.79c0.1,0.19,0.3,0.41,0.56,0.62l0.58,0.46l-7.82,4.51L417.73,172.64z M424.98,168.82
							l-3.04-5.79c-0.22-0.42-0.82-0.7-1.28-0.59l-3.23,0.72c-0.06,0.01-0.12,0.04-0.2,0.08l-4.37,2.52l6.26,3.97l0.06,0.16
							c0.26,0.71,0.09,1.63-0.42,2.34l0.56,0.5l5.98-3.45C425.16,169.12,425.06,168.97,424.98,168.82z"/>
					</g>
					<g id="XMLID_923_">
						<path style="fill:#FFFFFF;" d="M438.88,170.94l-6.31,3.64l-5.18-4.75c-0.15-0.53-0.21-1.16-0.21-1.16l5.1-2.94l0,0.01
							c0.27-0.16,0.62-0.13,0.96,0.13l4.84,3.81C438.44,169.96,438.72,170.44,438.88,170.94z"/>
						<path style="fill:#FFFFFF;" d="M426.94,170.11l-0.04-0.14c-0.16-0.56-0.22-1.22-0.23-1.25l-0.03-0.32l6.4-3.69l-0.11,0.46
							c0.21,0.05,0.42,0.15,0.61,0.3l4.84,3.81c0.42,0.33,0.77,0.88,0.97,1.52l0.12,0.38l-6.97,4.02L426.94,170.11z M437.77,170.07
							l-4.84-3.81c-0.09-0.07-0.26-0.17-0.39-0.09l-1.02,0.59l0-0.01l-3.79,2.19c0.03,0.18,0.07,0.41,0.12,0.63l4.8,4.4l5.62-3.24
							C438.12,170.44,437.95,170.21,437.77,170.07z"/>
					</g>
				</g>
				<path id="XMLID_840_" style="fill:#BA68C8;" d="M404.89,180.98l4.29,3.95c0.52,0.48,0.97,1.43,1.05,2.13
					c0.12,1.03,0.3,2.08,0.54,3.13c0.16,0.68-0.22,1.46-0.86,1.73l-2.52,1.07c-0.65,0.28-0.94,1.02-0.65,1.66l2.93,6.56
					c0.29,0.64,1.09,1.13,1.79,1.1l3.11-0.15c0.7-0.03,1.57,0.42,1.97,1c0.7,1.03,1.46,2.03,2.25,2.98c0.45,0.54,0.8,1.53,0.75,2.23
					l-0.29,4.61c-0.04,0.7,0.37,1.62,0.92,2.06l4.84,3.81c0.55,0.43,1.16,0.24,1.37-0.43l1.09-3.63c0.2-0.67,0.88-0.96,1.53-0.7
					c0.68,0.27,1.34,0.49,1.99,0.66c0.68,0.17,1.51,0.76,1.84,1.38l3.04,5.79c0.33,0.62,1.15,1,1.83,0.85l3.23-0.72
					c0.69-0.15,1.04-0.81,0.8-1.47l-2.19-5.91c-0.24-0.66,0.02-1.53,0.5-2.04c0.3-0.31,0.58-0.65,0.84-1.02
					c0.4-0.58,1.13-0.77,1.72-0.39l4.29,2.82c0.59,0.39,1.16,0.14,1.28-0.55l0.81-4.68c0.12-0.69-0.2-1.64-0.72-2.11l-4.29-3.95
					c-0.52-0.48-0.97-1.43-1.05-2.13c-0.12-1.03-0.3-2.08-0.54-3.13c-0.16-0.68,0.22-1.46,0.86-1.73l2.52-1.07
					c0.65-0.28,0.94-1.02,0.65-1.66l-2.93-6.56c-0.29-0.64-1.09-1.13-1.79-1.1l-3.11,0.15c-0.7,0.03-1.57-0.42-1.97-1
					c-0.7-1.03-1.46-2.03-2.25-2.98c-0.45-0.54-0.8-1.53-0.75-2.23l0.29-4.61c0.04-0.7-0.37-1.62-0.92-2.05l-4.84-3.81
					c-0.55-0.43-1.16-0.24-1.37,0.43l-1.09,3.63c-0.2,0.67-0.88,0.96-1.53,0.7c-0.68-0.27-1.34-0.49-1.99-0.66
					c-0.68-0.17-1.51-0.76-1.84-1.38l-3.04-5.79c-0.33-0.62-1.15-1-1.83-0.85l-3.23,0.72c-0.69,0.15-1.04,0.81-0.8,1.47l2.19,5.92
					c0.24,0.66-0.02,1.53-0.5,2.04c-0.3,0.31-0.58,0.65-0.84,1.02c-0.4,0.58-1.13,0.77-1.72,0.39l-4.29-2.82
					c-0.59-0.39-1.16-0.14-1.28,0.55l-0.81,4.68C404.05,179.55,404.38,180.5,404.89,180.98z M417.07,186.35
					c0.95-5.51,5.97-6.64,11.22-2.51c5.25,4.13,8.74,11.94,7.79,17.46c-0.95,5.51-5.98,6.64-11.23,2.51
					C419.61,199.68,416.12,191.86,417.07,186.35z"/>
				<g id="XMLID_798_" style="opacity:0.55;">
					<path style="fill:#FFFFFF;" d="M404.89,180.98l4.29,3.95c0.52,0.48,0.97,1.43,1.05,2.13c0.12,1.03,0.3,2.08,0.54,3.13
						c0.16,0.68-0.22,1.46-0.86,1.73l-2.52,1.07c-0.65,0.28-0.94,1.02-0.65,1.66l2.93,6.56c0.29,0.64,1.09,1.13,1.79,1.1l3.11-0.15
						c0.7-0.03,1.57,0.42,1.97,1c0.7,1.03,1.46,2.03,2.25,2.98c0.45,0.54,0.8,1.53,0.75,2.23l-0.29,4.61
						c-0.04,0.7,0.37,1.62,0.92,2.06l4.84,3.81c0.55,0.43,1.16,0.24,1.37-0.43l1.09-3.63c0.2-0.67,0.88-0.96,1.53-0.7
						c0.68,0.27,1.34,0.49,1.99,0.66c0.68,0.17,1.51,0.76,1.84,1.38l3.04,5.79c0.33,0.62,1.15,1,1.83,0.85l3.23-0.72
						c0.69-0.15,1.04-0.81,0.8-1.47l-2.19-5.91c-0.24-0.66,0.02-1.53,0.5-2.04c0.3-0.31,0.58-0.65,0.84-1.02
						c0.4-0.58,1.13-0.77,1.72-0.39l4.29,2.82c0.59,0.39,1.16,0.14,1.28-0.55l0.81-4.68c0.12-0.69-0.2-1.64-0.72-2.11l-4.29-3.95
						c-0.52-0.48-0.97-1.43-1.05-2.13c-0.12-1.03-0.3-2.08-0.54-3.13c-0.16-0.68,0.22-1.46,0.86-1.73l2.52-1.07
						c0.65-0.28,0.94-1.02,0.65-1.66l-2.93-6.56c-0.29-0.64-1.09-1.13-1.79-1.1l-3.11,0.15c-0.7,0.03-1.57-0.42-1.97-1
						c-0.7-1.03-1.46-2.03-2.25-2.98c-0.45-0.54-0.8-1.53-0.75-2.23l0.29-4.61c0.04-0.7-0.37-1.62-0.92-2.05l-4.84-3.81
						c-0.55-0.43-1.16-0.24-1.37,0.43l-1.09,3.63c-0.2,0.67-0.88,0.96-1.53,0.7c-0.68-0.27-1.34-0.49-1.99-0.66
						c-0.68-0.17-1.51-0.76-1.84-1.38l-3.04-5.79c-0.33-0.62-1.15-1-1.83-0.85l-3.23,0.72c-0.69,0.15-1.04,0.81-0.8,1.47l2.19,5.92
						c0.24,0.66-0.02,1.53-0.5,2.04c-0.3,0.31-0.58,0.65-0.84,1.02c-0.4,0.58-1.13,0.77-1.72,0.39l-4.29-2.82
						c-0.59-0.39-1.16-0.14-1.28,0.55l-0.81,4.68C404.05,179.55,404.38,180.5,404.89,180.98z M417.07,186.35
						c0.95-5.51,5.97-6.64,11.22-2.51c5.25,4.13,8.74,11.94,7.79,17.46c-0.95,5.51-5.98,6.64-11.23,2.51
						C419.61,199.68,416.12,191.86,417.07,186.35z"/>
					<path style="fill:#FFFFFF;" d="M435.43,222.14l-3.04-5.79c-0.24-0.46-0.94-0.98-1.52-1.13c-0.68-0.17-1.37-0.4-2.05-0.68
						c-0.2-0.08-0.39-0.08-0.55,0c-0.15,0.07-0.26,0.2-0.31,0.38l-1.09,3.63c-0.14,0.48-0.47,0.83-0.88,0.96
						c-0.41,0.13-0.88,0.03-1.27-0.28l-4.84-3.81c-0.68-0.53-1.16-1.62-1.11-2.48l0.29-4.61c0.04-0.56-0.26-1.42-0.64-1.88
						c-0.79-0.95-1.56-1.96-2.28-3.02c-0.3-0.44-1.02-0.82-1.53-0.78l-3.11,0.15c-0.91,0.05-1.9-0.57-2.27-1.39l-2.93-6.56
						c-0.19-0.43-0.21-0.91-0.03-1.35c0.17-0.44,0.51-0.78,0.94-0.97l2.52-1.07c0.41-0.18,0.68-0.71,0.57-1.16
						c-0.25-1.08-0.43-2.15-0.55-3.18c-0.07-0.6-0.48-1.43-0.89-1.82l-4.29-3.95c-0.64-0.59-1.02-1.71-0.87-2.57l0.81-4.68
						c0.09-0.5,0.36-0.88,0.76-1.06c0.4-0.17,0.87-0.11,1.29,0.17l4.29,2.82c0.39,0.25,0.81,0.06,1.04-0.26
						c0.27-0.38,0.57-0.75,0.88-1.08c0.38-0.4,0.56-1.08,0.4-1.52l-2.19-5.92c-0.17-0.46-0.14-0.93,0.08-1.34
						c0.22-0.41,0.6-0.69,1.08-0.79l3.23-0.72c0.9-0.2,1.95,0.28,2.38,1.1l3.04,5.79c0.24,0.46,0.94,0.98,1.52,1.13
						c0.68,0.17,1.37,0.4,2.06,0.68c0.2,0.08,0.39,0.08,0.55,0c0.15-0.07,0.25-0.2,0.31-0.38l1.09-3.63
						c0.14-0.48,0.47-0.83,0.88-0.96c0.42-0.13,0.88-0.03,1.27,0.28l4.84,3.81c0.68,0.53,1.16,1.62,1.11,2.48l-0.29,4.61
						c-0.04,0.56,0.26,1.42,0.64,1.88c0.79,0.95,1.56,1.96,2.28,3.02c0.3,0.44,1.02,0.81,1.53,0.78l3.11-0.15
						c0.9-0.04,1.9,0.57,2.27,1.39l2.93,6.56c0.19,0.43,0.2,0.91,0.03,1.35c-0.17,0.44-0.51,0.78-0.94,0.97l-2.52,1.07
						c-0.41,0.18-0.68,0.71-0.57,1.16c0.24,1.08,0.43,2.15,0.55,3.18c0.07,0.6,0.48,1.44,0.89,1.82l4.29,3.95
						c0.64,0.59,1.02,1.71,0.87,2.57l-0.81,4.68c-0.09,0.5-0.36,0.88-0.76,1.06c-0.4,0.17-0.87,0.11-1.29-0.17l-4.29-2.82
						c-0.38-0.25-0.81-0.06-1.04,0.26c-0.27,0.39-0.57,0.75-0.88,1.08c-0.38,0.4-0.56,1.08-0.4,1.52l2.19,5.91
						c0.17,0.46,0.14,0.93-0.08,1.34c-0.22,0.41-0.6,0.69-1.08,0.79l-3.23,0.72c-0.14,0.03-0.28,0.05-0.42,0.05
						C436.6,223.29,435.8,222.83,435.43,222.14z M442.89,210.77l4.29,2.82c0.13,0.09,0.26,0.12,0.34,0.09
						c0.08-0.03,0.14-0.15,0.17-0.31l0.81-4.68c0.09-0.52-0.17-1.3-0.57-1.66l-4.29-3.95c-0.59-0.54-1.11-1.59-1.21-2.44
						c-0.11-1-0.29-2.04-0.53-3.08c-0.21-0.93,0.3-1.94,1.15-2.3l2.52-1.07c0.19-0.08,0.33-0.23,0.41-0.42
						c0.07-0.19,0.07-0.39-0.01-0.58l-2.93-6.56c-0.2-0.45-0.8-0.85-1.31-0.8l-3.11,0.15c-0.88,0.04-1.91-0.48-2.41-1.22
						c-0.7-1.03-1.45-2.01-2.22-2.94c-0.55-0.65-0.92-1.76-0.87-2.58l0.29-4.61c0.03-0.54-0.31-1.3-0.73-1.63l-4.84-3.81
						c-0.13-0.1-0.26-0.14-0.36-0.12c-0.09,0.03-0.18,0.14-0.22,0.3l-1.09,3.63c-0.14,0.45-0.43,0.8-0.83,1
						c-0.42,0.2-0.9,0.21-1.36,0.02c-0.65-0.26-1.3-0.48-1.93-0.64c-0.85-0.22-1.78-0.92-2.16-1.63l-3.04-5.79
						c-0.22-0.42-0.81-0.7-1.28-0.59l-3.23,0.72c-0.19,0.04-0.34,0.15-0.42,0.3c-0.08,0.15-0.09,0.33-0.02,0.51l2.19,5.92
						c0.3,0.8,0.04,1.88-0.61,2.56c-0.28,0.3-0.55,0.62-0.79,0.97c-0.58,0.82-1.61,1.05-2.41,0.52l-4.29-2.82
						c-0.13-0.09-0.26-0.12-0.34-0.09c-0.08,0.03-0.14,0.15-0.17,0.31l-0.81,4.68c-0.09,0.52,0.17,1.3,0.57,1.66l4.29,3.95
						c0.59,0.54,1.11,1.59,1.21,2.44c0.11,0.99,0.29,2.03,0.53,3.08c0.21,0.93-0.3,1.94-1.15,2.3l-2.52,1.07
						c-0.19,0.08-0.33,0.23-0.41,0.42c-0.07,0.19-0.07,0.39,0.01,0.58l2.93,6.56c0.2,0.45,0.81,0.84,1.31,0.8l3.11-0.15
						c0.88-0.04,1.91,0.48,2.41,1.22c0.7,1.03,1.45,2.01,2.22,2.94c0.55,0.65,0.92,1.76,0.87,2.58l-0.29,4.61
						c-0.03,0.54,0.31,1.3,0.73,1.63l4.84,3.81c0.13,0.1,0.26,0.14,0.35,0.12c0.09-0.03,0.18-0.14,0.22-0.3l1.09-3.63
						c0.14-0.45,0.43-0.8,0.84-1c0.42-0.2,0.9-0.21,1.36-0.02c0.64,0.26,1.29,0.48,1.93,0.64c0.86,0.22,1.78,0.92,2.16,1.63
						l3.04,5.79c0.22,0.42,0.81,0.7,1.28,0.59l3.23-0.72c0.19-0.04,0.34-0.15,0.42-0.3c0.08-0.15,0.09-0.33,0.02-0.51l-2.19-5.91
						c-0.3-0.8-0.04-1.88,0.61-2.56c0.28-0.3,0.55-0.62,0.79-0.97c0.37-0.52,0.92-0.8,1.47-0.8
						C442.27,210.49,442.6,210.58,442.89,210.77z M424.55,204.2c-5.37-4.22-8.95-12.27-7.97-17.94c0.43-2.52,1.72-4.31,3.63-5.05
						c2.37-0.91,5.43-0.1,8.39,2.23c5.37,4.22,8.95,12.27,7.97,17.93c-0.43,2.52-1.72,4.31-3.63,5.05
						c-0.64,0.25-1.33,0.37-2.05,0.37C428.93,206.79,426.72,205.9,424.55,204.2z M420.57,182.15c-1.59,0.61-2.63,2.09-3.01,4.28
						c-0.92,5.34,2.49,12.96,7.6,16.98l0,0c2.68,2.1,5.38,2.86,7.42,2.08c1.59-0.61,2.63-2.09,3.01-4.28
						c0.92-5.34-2.49-12.96-7.6-16.98c-1.99-1.56-3.99-2.38-5.72-2.38C421.67,181.85,421.1,181.95,420.57,182.15z"/>
				</g>
			</g>
		</g>
		<g id="Plants_10_">
			<g id="XMLID_4039_">
				<g id="XMLID_4042_">
					<path id="XMLID_4044_" style="fill:#BA68C8;" d="M392.06,371.39c0,0-1.25-25.89,7.46-45.33c6.94-15.51,19.62-28.14,30.93-31.41
						c11.3-3.27,22.74,5.41,11.94,15.21c-10.81,9.8-31.13,21.72-35.62,51L392.06,371.39z"/>
					<path id="XMLID_1_" style="opacity:0.15;" d="M392.06,371.39c0,0-1.25-25.89,7.46-45.33c6.94-15.51,19.62-28.14,30.93-31.41
						c11.3-3.27,22.74,5.41,11.94,15.21c-10.81,9.8-31.13,21.72-35.62,51L392.06,371.39z"/>
				</g>
				<g id="XMLID_4040_">
					<path id="XMLID_4041_" style="fill:#FFFFFF;" d="M400.47,354.01c-0.04,0-0.09,0-0.13-0.01c-0.34-0.06-0.54-0.39-0.5-0.73
						c4.01-32.88,25.65-49.87,36.55-54.25c0.32-0.13,0.69,0,0.83,0.31c0.14,0.32,0.01,0.7-0.31,0.83
						c-10.56,4.24-31.7,20.82-35.84,53.34C401.04,353.8,400.76,354,400.47,354.01z"/>
				</g>
			</g>
			<g id="XMLID_4022_">
				<g id="XMLID_4036_">
					<g id="XMLID_4037_">
						<path id="XMLID_4038_" style="fill:#BA68C8;" d="M381.25,390.33c-1.57-4.76-2.29-9.73-0.32-14.5
							c1.56-3.77,4.54-6.93,8.21-8.71c1.3-0.63,2.68-1.09,3.94-1.81c1.25-0.72,2.4-1.76,2.85-3.14c0.47-1.42,0.12-2.97-0.12-4.44
							c-0.6-3.67-0.49-7.61,1.33-10.85c2.26-4.02,6.06-4.96,10.31-4.55c3.16,0.31,6.39,0.12,9.53-0.62
							c4.6-1.08,8.57-3.87,12.74-6.09c4.17-2.22,9.04-3.92,13.56-2.58c2.93,0.87,5.45,3.02,6.77,5.78c1.32,2.76,1.4,6.08,0.23,8.9
							c-1.01,2.45-2.88,4.44-4.24,6.72c-1.33,2.22-2.1,4.88-1.06,7.36c0.76,1.84,2.13,3.24,2.76,5.15
							c1.62,4.91,0.72,9.32-4.18,11.83c-5.11,2.62-13.17,0.65-15.7,7.08c-0.96,2.44-1,5.14-1.52,7.71
							c-1.04,5.12-4.12,9.8-8.41,12.78c-3.74,2.59-8.61,4.16-13.18,3.7c-6.96-0.7-13.49-6.06-18.1-10.98
							C384.32,396.55,382.33,393.59,381.25,390.33z"/>
					</g>
				</g>
				<g id="XMLID_4023_">
					<path id="XMLID_4035_" style="fill:#FFFFFF;" d="M434.47,367.89c-0.11,0.02-0.24,0-0.35-0.05c-0.12-0.06-12.39-5.73-26.61,1.92
						c-0.29,0.15-0.64,0.05-0.8-0.24c-0.15-0.29-0.05-0.65,0.24-0.8c14.76-7.94,27.54-2.01,27.67-1.95
						c0.29,0.14,0.42,0.49,0.28,0.79C434.82,367.74,434.66,367.86,434.47,367.89z"/>
				</g>
				<g>
					<path style="fill:#FFFFFF;" d="M396.26,399.15c0.3,0.01,0.55-0.23,0.56-0.53c1.02-24.73,25.85-50.89,42.49-58.03
						c0.28-0.12,0.41-0.44,0.29-0.72c-0.12-0.28-0.44-0.41-0.72-0.29c-16.91,7.25-42.13,33.84-43.16,59
						c-0.01,0.3,0.22,0.56,0.53,0.57C396.25,399.15,396.26,399.15,396.26,399.15z"/>
				</g>
			</g>
		</g>
		<g id="Mobile">
			<g>
				<path id="XMLID_784_" style="fill:#BA68C8;" d="M255.02,48.14v291.73c0,2.67,1.88,5.92,4.18,7.26l123.86,71.51
					c2.31,1.34,4.18,0.25,4.18-2.42V124.49c0-2.67-1.88-5.92-4.18-7.26L259.21,45.72C256.9,44.38,255.02,45.47,255.02,48.14z
					 M261.05,74.37L261.05,74.37c0-1.84,2-3,3.59-2.07l113.42,65.52c2.21,1.28,3.57,3.64,3.57,6.19l0,0v242.56
					c0,2.3-1.61,3.22-3.59,2.08l-113.41-65.48c-1.99-1.14-3.59-2.6-3.59-4.88V74.37z"/>
				<path id="XMLID_776_" style="opacity:0.3;" d="M255.02,48.14v291.73c0,2.67,1.88,5.92,4.18,7.26l123.86,71.51
					c2.31,1.34,4.18,0.25,4.18-2.42V124.49c0-2.67-1.88-5.92-4.18-7.26L259.21,45.72C256.9,44.38,255.02,45.47,255.02,48.14z
					 M261.05,74.37L261.05,74.37c0-1.84,2-3,3.59-2.07l113.42,65.52c2.21,1.28,3.57,3.64,3.57,6.19l0,0v242.56
					c0,2.3-1.61,3.22-3.59,2.08l-113.41-65.48c-1.99-1.14-3.59-2.6-3.59-4.88V74.37z"/>
			</g>
			<g>
				<path id="XMLID_775_" style="fill:#BA68C8;" d="M261.05,318.27c0,2.28,1.6,3.74,3.59,4.88l113.41,65.48
					c1.98,1.14,3.59,0.22,3.59-2.08V144l0,0c0-2.55-1.36-4.91-3.57-6.19L264.64,72.29c-1.6-0.92-3.59,0.23-3.59,2.07l0,0V318.27z"/>
				<path id="XMLID_772_" style="opacity:0.5;" d="M261.05,318.27c0,2.28,1.6,3.74,3.59,4.88l113.41,65.48
					c1.98,1.14,3.59,0.22,3.59-2.08V144l0,0c0-2.55-1.36-4.91-3.57-6.19L264.64,72.29c-1.6-0.92-3.59,0.23-3.59,2.07l0,0V318.27z"/>
			</g>
			<g>
				<path style="fill:#BA68C8;" d="M378.05,388.64l-113.41-65.48c-0.81-0.46-1.55-0.99-2.15-1.59l119.15-67.12v132.12
					C381.64,388.86,380.03,389.78,378.05,388.64z"/>
				<path style="opacity:0.4;" d="M378.05,388.64l-113.41-65.48c-0.81-0.46-1.55-0.99-2.15-1.59l119.15-67.12v132.12
					C381.64,388.86,380.03,389.78,378.05,388.64z"/>
			</g>
			<path style="fill:#37474F;" d="M270.23,313.99V75.52l107.84,62.29c2.21,1.28,3.57,3.64,3.57,6.19v237.13l-107.82-62.26
				C271.83,317.73,270.23,316.28,270.23,313.99z"/>
			<g>
				<path id="XMLID_771_" style="fill:#BA68C8;" d="M383.59,418.9c2.32,1.07,5.7,0.97,7.86-0.26l4.79-2.77
					c2.32-1.34,4.2-4.57,4.2-7.26V116.9c0-1.02-0.27-2.09-0.73-3.13c-0.15-0.34-0.31-0.67-0.5-1.01c-0.01,0-0.01-0.01-0.01-0.01
					l-13.18,7.61h-0.01c0.28,0.5,0.53,1.02,0.73,1.53c0.32,0.87,0.51,1.76,0.51,2.59v291.73
					C387.25,418.68,385.66,419.8,383.59,418.9z"/>
				<path id="XMLID_763_" style="opacity:0.5;" d="M383.59,418.9c2.32,1.07,5.7,0.97,7.86-0.26l4.79-2.77
					c2.32-1.34,4.2-4.57,4.2-7.26V116.9c0-1.02-0.27-2.09-0.73-3.13c-0.15-0.34-0.31-0.67-0.5-1.01c-0.01,0-0.01-0.01-0.01-0.01
					l-13.18,7.61h-0.01c0.28,0.5,0.53,1.02,0.73,1.53c0.32,0.87,0.51,1.76,0.51,2.59v291.73
					C387.25,418.68,385.66,419.8,383.59,418.9z"/>
			</g>
			<path id="XMLID_762_" style="fill:#BA68C8;" d="M317.44,360.16c0.86,0,1.86,0.32,2.89,0.91c4.05,2.34,7.47,8.26,7.47,12.94
				c0,1.29-0.29,4.3-2.97,4.3c-0.86,0-1.86-0.32-2.89-0.91c-4.05-2.34-7.47-8.26-7.47-12.94
				C314.47,363.17,314.76,360.16,317.44,360.16L317.44,360.16"/>
			<g id="XMLID_749_">
				<path id="XMLID_753_" style="fill:#263238;" d="M321.23,86.14c-1.13-0.65-2.05-0.12-2.05,1.18c0,1.31,0.92,2.89,2.05,3.55
					c1.13,0.65,2.05,0.12,2.05-1.18C323.28,88.38,322.36,86.8,321.23,86.14z"/>
				<g>
					<path id="XMLID_751_" style="fill:#263238;" d="M334.45,103.43c-1-0.58-1.82-0.11-1.82,1.05c0,1.16,0.81,2.57,1.82,3.15
						c1,0.58,1.82,0.11,1.82-1.05C336.26,105.42,335.45,104.01,334.45,103.43z"/>
					<path id="XMLID_750_" style="fill:#263238;" d="M328.37,99.84l-20.34-11.74c-1.11-0.64-2.02-0.19-2.02,1.02
						c0,1.21,0.9,2.71,2.02,3.35l20.34,11.74c1.11,0.64,2.02,0.19,2.02-1.02C330.39,101.98,329.48,100.48,328.37,99.84z"/>
				</g>
			</g>
			<g>
				<path id="XMLID_742_" style="fill:#BA68C8;" d="M255.06,47.47c0.3-2.18,2.04-2.97,4.14-1.75l123.87,71.51
					c1.15,0.66,2.2,1.81,2.96,3.13l13.18-7.61c-0.77-1.32-1.8-2.45-2.97-3.11L272.39,38.12c-2.3-1.34-6.06-1.34-8.38,0l-4.81,2.76
					C257.09,42.11,255.33,44.94,255.06,47.47z"/>
				<path id="XMLID_726_" style="opacity:0.4;" d="M255.06,47.47c0.3-2.18,2.04-2.97,4.14-1.75l123.87,71.51
					c1.15,0.66,2.2,1.81,2.96,3.13l13.18-7.61c-0.77-1.32-1.8-2.45-2.97-3.11L272.39,38.12c-2.3-1.34-6.06-1.34-8.38,0l-4.81,2.76
					C257.09,42.11,255.33,44.94,255.06,47.47z"/>
			</g>
			<g id="Device_2_">
				<g id="Mobile_3_">
					<g>
						<path style="fill:#BA68C8;" d="M287.55,56.33c1.2,0.69,3.07,0.72,4.2,0.08c0.54-0.31,0.8-0.73,0.8-1.15
							c-0.01-0.3,0.01-1.44,0.01-1.75c-0.01-0.45-0.32-0.91-0.94-1.26l-13.28-7.67c-1.2-0.69-3.07-0.73-4.2-0.08
							c-0.52,0.3-0.78,0.69-0.79,1.09c-0.01,0.32-0.01,1.5-0.01,1.81c0.01,0.45,0.32,0.91,0.94,1.27L287.55,56.33z"/>
						<path style="opacity:0.25;" d="M287.55,56.33c1.2,0.69,3.07,0.72,4.2,0.08c0.54-0.31,0.8-0.73,0.8-1.15
							c-0.01-0.3,0.01-1.44,0.01-1.75c-0.01-0.45-0.32-0.91-0.94-1.26l-13.28-7.67c-1.2-0.69-3.07-0.73-4.2-0.08
							c-0.52,0.3-0.78,0.69-0.79,1.09c-0.01,0.32-0.01,1.5-0.01,1.81c0.01,0.45,0.32,0.91,0.94,1.27L287.55,56.33z"/>
						<path style="fill:#BA68C8;" d="M287.55,54.59l-13.28-7.67c-1.2-0.69-1.26-1.77-0.13-2.42c1.12-0.65,3-0.61,4.2,0.08
							l13.28,7.67c1.2,0.69,1.26,1.78,0.13,2.42C290.63,55.31,288.75,55.28,287.55,54.59z"/>
						<path style="opacity:0.3;" d="M287.55,54.59l-13.28-7.67c-1.2-0.69-1.26-1.77-0.13-2.42c1.12-0.65,3-0.61,4.2,0.08l13.28,7.67
							c1.2,0.69,1.26,1.78,0.13,2.42C290.63,55.31,288.75,55.28,287.55,54.59z"/>
					</g>
				</g>
			</g>
			<g id="Device_4_">
				<g id="Mobile_2_">
					<g>
						<path style="fill:#BA68C8;" d="M392.15,160.85c0-1.38,0.91-3.02,2.03-3.67c0.54-0.31,1.03-0.33,1.39-0.11
							c0.26,0.15,1.26,0.71,1.52,0.87c0.39,0.23,0.63,0.73,0.63,1.44l0,32.52c0,1.38-0.91,3.02-2.03,3.67
							c-0.52,0.3-0.99,0.33-1.34,0.14c-0.28-0.15-1.3-0.74-1.57-0.9c-0.39-0.23-0.63-0.73-0.63-1.44L392.15,160.85z"/>
						<path style="opacity:0.3;" d="M392.15,160.85c0-1.38,0.91-3.02,2.03-3.67c0.54-0.31,1.03-0.33,1.39-0.11
							c0.26,0.15,1.26,0.71,1.52,0.87c0.39,0.23,0.63,0.73,0.63,1.44l0,32.52c0,1.38-0.91,3.02-2.03,3.67
							c-0.52,0.3-0.99,0.33-1.34,0.14c-0.28-0.15-1.3-0.74-1.57-0.9c-0.39-0.23-0.63-0.73-0.63-1.44L392.15,160.85z"/>
						<path style="fill:#BA68C8;" d="M393.66,161.72l0,32.52c0,1.38,0.91,1.98,2.03,1.33c1.12-0.65,2.03-2.29,2.03-3.67l0-32.52
							c0-1.38-0.91-1.97-2.03-1.33S393.66,160.34,393.66,161.72z"/>
						<path style="opacity:0.4;" d="M393.66,161.72l0,32.52c0,1.38,0.91,1.98,2.03,1.33c1.12-0.65,2.03-2.29,2.03-3.67l0-32.52
							c0-1.38-0.91-1.97-2.03-1.33S393.66,160.34,393.66,161.72z"/>
					</g>
					<g>
						<path style="fill:#BA68C8;" d="M392.15,204.39c0-1.38,0.91-3.02,2.03-3.67c0.54-0.31,1.03-0.33,1.39-0.11
							c0.26,0.15,1.26,0.71,1.52,0.87c0.39,0.23,0.63,0.73,0.63,1.44l0,15.33c0,1.38-0.91,3.03-2.03,3.67
							c-0.52,0.3-0.99,0.33-1.34,0.14c-0.28-0.15-1.3-0.74-1.57-0.9c-0.39-0.23-0.63-0.73-0.63-1.44L392.15,204.39z"/>
						<path style="opacity:0.3;" d="M392.15,204.39c0-1.38,0.91-3.02,2.03-3.67c0.54-0.31,1.03-0.33,1.39-0.11
							c0.26,0.15,1.26,0.71,1.52,0.87c0.39,0.23,0.63,0.73,0.63,1.44l0,15.33c0,1.38-0.91,3.03-2.03,3.67
							c-0.52,0.3-0.99,0.33-1.34,0.14c-0.28-0.15-1.3-0.74-1.57-0.9c-0.39-0.23-0.63-0.73-0.63-1.44L392.15,204.39z"/>
						<path style="fill:#BA68C8;" d="M393.66,205.26l0,15.33c0,1.38,0.91,1.97,2.03,1.33c1.12-0.65,2.03-2.29,2.03-3.67l0-15.33
							c0-1.38-0.91-1.97-2.03-1.33C394.57,202.23,393.66,203.88,393.66,205.26z"/>
						<path style="opacity:0.4;" d="M393.66,205.26l0,15.33c0,1.38,0.91,1.97,2.03,1.33c1.12-0.65,2.03-2.29,2.03-3.67l0-15.33
							c0-1.38-0.91-1.97-2.03-1.33C394.57,202.23,393.66,203.88,393.66,205.26z"/>
					</g>
				</g>
			</g>
		</g>
		<g>
			<path style="fill:#E0E0E0;" d="M250.74,80.59l114.46,66c1.42,0.82,2.58,2.82,2.58,4.46v242.12c0,1.64-1.16,3.64-2.58,4.45
				l-1.61,0.92c-1.43,0.82-3.74,0.81-5.16-0.01l-114.46-66.1c-1.42-0.82-2.58-2.82-2.58-4.46V85.96c0-1.64,1.16-3.64,2.58-4.45
				l1.61-0.92C247.01,79.77,249.32,79.77,250.74,80.59z"/>
			<path id="XMLID_714_" style="fill:#FAFAFA;" d="M241.39,328.16c0,2.27,1.59,3.71,3.56,4.84l112.49,64.95
				c1.96,1.13,3.56,0.22,3.56-2.06V156.05l0,0c0-2.53-1.35-4.87-3.55-6.14l-112.5-64.99c-1.58-0.92-3.56,0.23-3.56,2.06l0,0V328.16z
				"/>
			<path style="fill:#F5F5F5;" d="M361.03,190.08L361,395.9c0,2.28-1.6,3.19-3.56,2.06L244.95,333c-1.97-1.13-3.56-2.58-3.56-4.84
				l0.03-207.13L361.03,190.08z"/>
			<path id="XMLID_682_" style="fill:#E0E0E0;" d="M243.77,85.59c0.24,0,0.47,0.06,0.69,0.19l112.5,64.99
				c1.88,1.09,3.05,3.11,3.05,5.28V395.9c0,0.58-0.13,1.55-0.98,1.55c-0.32,0-0.69-0.12-1.09-0.35l-112.49-64.95
				c-2.12-1.22-3.07-2.45-3.07-3.98V86.98C242.38,86.12,243.1,85.59,243.77,85.59L243.77,85.59 M243.77,84.6
				c-1.24,0-2.38,0.99-2.38,2.38v241.18c0,2.27,1.59,3.71,3.56,4.84l112.49,64.95c0.57,0.33,1.11,0.49,1.59,0.49
				c1.17,0,1.97-0.93,1.97-2.54V156.05c0-2.53-1.35-4.87-3.55-6.14l-112.5-64.99C244.57,84.7,244.17,84.6,243.77,84.6L243.77,84.6z"
				/>
			<path style="fill:#F0F0F0;" d="M241.39,85.96v1.01c0-1.83,1.98-2.97,3.57-2.05l112.5,64.99c1.1,0.62,1.98,1.53,2.59,2.59
				c0.02,0.03,0.03,0.05,0.04,0.08l6.96-4.02c-0.48-0.82-1.12-1.55-1.85-1.96l-114.45-66c-1.43-0.82-3.74-0.82-5.16-0.01l-1.61,0.92
				C242.55,82.32,241.39,84.31,241.39,85.96z"/>
		</g>
		<g style="opacity:0.15;">
			<path d="M346.08,245.4l-23.53-13.57c-1.19-0.68-2.15-0.2-2.15,1.09c0,1.28,0.96,2.88,2.15,3.57l23.53,13.57
				c1.19,0.68,2.15,0.2,2.15-1.09C348.23,247.69,347.27,246.09,346.08,245.4z"/>
		</g>
		<g>
			<path style="fill:#E0E0E0;" d="M352.25,242.46c0.17,0,0.34-0.09,0.43-0.25c0.14-0.24,0.06-0.54-0.18-0.68l-104.75-60.48
				c-0.24-0.14-0.54-0.06-0.68,0.18c-0.14,0.24-0.06,0.54,0.18,0.68L352,242.39C352.08,242.44,352.17,242.46,352.25,242.46z"/>
		</g>
		<g>
			<path style="fill:#E0E0E0;" d="M352.25,261.06c0.17,0,0.34-0.09,0.43-0.25c0.14-0.24,0.06-0.54-0.18-0.68l-104.75-60.48
				c-0.24-0.14-0.54-0.06-0.68,0.18c-0.14,0.24-0.06,0.54,0.18,0.68L352,260.99C352.08,261.03,352.17,261.06,352.25,261.06z"/>
		</g>
		<g style="opacity:0.15;">
			<path d="M346.08,264l-36-20.79c-1.19-0.68-2.15-0.2-2.15,1.09s0.96,2.88,2.15,3.57l36,20.79c1.19,0.68,2.15,0.2,2.15-1.09
				C348.23,266.28,347.27,264.68,346.08,264z"/>
		</g>
		<g>
			<path style="fill:#E0E0E0;" d="M352.25,279.65c0.17,0,0.34-0.09,0.43-0.25c0.14-0.24,0.06-0.54-0.18-0.68l-104.75-60.48
				c-0.24-0.14-0.54-0.06-0.68,0.18c-0.14,0.24-0.06,0.54,0.18,0.68L352,279.58C352.08,279.62,352.17,279.65,352.25,279.65z"/>
		</g>
		<g style="opacity:0.15;">
			<path d="M346.08,282.59l-23.53-13.57c-1.19-0.68-2.15-0.2-2.15,1.09c0,1.28,0.96,2.88,2.15,3.57l23.53,13.57
				c1.19,0.68,2.15,0.2,2.15-1.09C348.23,284.87,347.27,283.27,346.08,282.59z"/>
		</g>
		<g>
			<path style="fill:#E0E0E0;" d="M352.25,298.24c0.17,0,0.34-0.09,0.43-0.25c0.14-0.24,0.06-0.54-0.18-0.68l-104.75-60.48
				c-0.24-0.14-0.54-0.06-0.68,0.18c-0.14,0.24-0.06,0.54,0.18,0.68L352,298.17C352.08,298.22,352.17,298.24,352.25,298.24z"/>
		</g>
		<g style="opacity:0.15;">
			<path d="M346.08,301.18l-31.98-18.43c-1.19-0.68-2.15-0.2-2.15,1.09s0.96,2.88,2.15,3.57l31.98,18.43
				c1.19,0.68,2.15,0.2,2.15-1.09C348.23,303.46,347.27,301.86,346.08,301.18z"/>
		</g>
		<g>
			<path style="fill:#E0E0E0;" d="M352.25,316.83c0.17,0,0.34-0.09,0.43-0.25c0.14-0.24,0.06-0.54-0.18-0.68l-104.75-60.48
				c-0.24-0.14-0.54-0.06-0.68,0.18c-0.14,0.24-0.06,0.54,0.18,0.68L352,316.76C352.08,316.81,352.17,316.83,352.25,316.83z"/>
		</g>
		<g>
			<path style="fill:#E0E0E0;" d="M352.25,317.04c0.17,0,0.34-0.09,0.43-0.25c0.14-0.24,0.06-0.54-0.18-0.68l-104.75-60.48
				c-0.24-0.14-0.54-0.06-0.68,0.18c-0.14,0.24-0.06,0.54,0.18,0.68L352,316.98C352.08,317.02,352.17,317.04,352.25,317.04z"/>
		</g>
		<g>
			<path style="fill:#E0E0E0;" d="M352.25,335.64c0.17,0,0.34-0.09,0.43-0.25c0.14-0.24,0.06-0.54-0.18-0.68l-104.75-60.48
				c-0.24-0.14-0.54-0.06-0.68,0.18c-0.14,0.24-0.06,0.54,0.18,0.68L352,335.57C352.08,335.61,352.17,335.64,352.25,335.64z"/>
		</g>
		<g>
			<path style="fill:#E0E0E0;" d="M352.25,335.85c0.17,0,0.34-0.09,0.43-0.25c0.14-0.24,0.06-0.54-0.18-0.68l-104.75-60.48
				c-0.24-0.14-0.54-0.06-0.68,0.18c-0.14,0.24-0.06,0.54,0.18,0.68L352,335.78C352.08,335.83,352.17,335.85,352.25,335.85z"/>
		</g>
		<g style="opacity:0.15;">
			<path d="M346.08,338.79l-31.98-18.43c-1.19-0.68-2.15-0.2-2.15,1.09s0.96,2.88,2.15,3.57l31.98,18.43
				c1.19,0.68,2.15,0.2,2.15-1.09C348.23,341.07,347.27,339.48,346.08,338.79z"/>
		</g>
		<g>
			<path style="fill:#E0E0E0;" d="M352.25,354.44c0.17,0,0.34-0.09,0.43-0.25c0.14-0.24,0.06-0.54-0.18-0.68l-104.75-60.48
				c-0.24-0.14-0.54-0.06-0.68,0.18c-0.14,0.24-0.06,0.54,0.18,0.68L352,354.38C352.08,354.42,352.17,354.44,352.25,354.44z"/>
		</g>
		<g style="opacity:0.15;">
			<path d="M346.08,319.77l-23.53-13.57c-1.19-0.68-2.15-0.2-2.15,1.09c0,1.28,0.96,2.88,2.15,3.57l23.53,13.57
				c1.19,0.68,2.15,0.2,2.15-1.09C348.23,322.05,347.27,320.45,346.08,319.77z"/>
		</g>
		<g>
			<g>
				<path style="fill:#E0E0E0;" d="M277.2,299.23l-21.41-12.34c-1.19-0.68-2.15-0.2-2.15,1.09c0,1.28,0.96,2.88,2.15,3.57
					l21.41,12.34c1.19,0.68,2.15,0.2,2.15-1.09C279.35,301.51,278.39,299.92,277.2,299.23z"/>
			</g>
			<g>
				<g>
					<path style="fill:#BA68C8;" d="M250.35,286.07l1.16,1.86c0.03,0.06,0.07,0.12,0.11,0.2c0.04,0.08,0.06,0.16,0.06,0.24v0.67
						c0,0.05-0.01,0.08-0.03,0.1c-0.02,0.02-0.05,0.02-0.08,0c-0.01,0-0.01-0.01-0.02-0.02c-0.01-0.01-0.02-0.02-0.03-0.04
						l-1.79-2.89c-0.05-0.07-0.09-0.14-0.11-0.2c-0.03-0.06-0.04-0.13-0.04-0.21v-0.33c0-0.08,0.01-0.14,0.04-0.17
						c0.03-0.03,0.06-0.05,0.11-0.07l1.79-0.82c0.01,0,0.02,0,0.03,0c0.01,0,0.02,0.01,0.02,0.01c0.03,0.02,0.06,0.05,0.08,0.09
						c0.02,0.04,0.03,0.09,0.03,0.14v0.67c0,0.08-0.02,0.14-0.06,0.17c-0.04,0.04-0.07,0.06-0.11,0.08L250.35,286.07z"/>
				</g>
			</g>
		</g>
		<g>
			<g>
				<path style="fill:#E0E0E0;" d="M345.83,377.28l-27.94-16.13c-1.34-0.78-2.4-2.6-2.4-4.15v-9c0-0.85,0.31-1.49,0.88-1.82
					c0.56-0.33,1.28-0.27,2.01,0.15l27.94,16.13c1.34,0.77,2.4,2.6,2.4,4.15v9c0,0.85-0.31,1.49-0.88,1.82
					c-0.24,0.14-0.52,0.21-0.81,0.21C346.65,377.64,346.24,377.52,345.83,377.28z M316.87,347.04c-0.24,0.14-0.38,0.49-0.38,0.96v9
					c0,1.19,0.87,2.7,1.9,3.29l27.94,16.13c0.41,0.23,0.78,0.29,1.02,0.15c0.24-0.14,0.38-0.49,0.38-0.96v-9
					c0-1.19-0.87-2.7-1.9-3.29l-27.94-16.13c-0.26-0.15-0.5-0.23-0.71-0.23C317.06,346.97,316.95,346.99,316.87,347.04z"/>
			</g>
			<g>
				<path style="fill:#E0E0E0;" d="M339.71,365.04c-0.02-0.12-0.06-0.23-0.1-0.33c-0.05-0.11-0.11-0.2-0.18-0.29
					c-0.07-0.09-0.16-0.16-0.27-0.23c-0.11-0.06-0.2-0.09-0.27-0.09c-0.07,0-0.13,0.01-0.17,0.04c-0.04,0.03-0.08,0.07-0.1,0.13
					c-0.02,0.05-0.04,0.11-0.05,0.16c-0.01,0.07-0.03,0.11-0.05,0.13c-0.02,0.02-0.06,0.02-0.11-0.02l-0.62-0.36
					c-0.03-0.02-0.05-0.05-0.07-0.09c-0.02-0.04-0.03-0.09-0.03-0.13c0-0.25,0.04-0.46,0.12-0.63c0.08-0.17,0.18-0.3,0.31-0.39
					c0.13-0.08,0.29-0.12,0.47-0.11c0.18,0.01,0.37,0.07,0.58,0.19c0.23,0.13,0.43,0.3,0.61,0.51c0.18,0.21,0.33,0.44,0.46,0.69
					c0.12,0.25,0.22,0.52,0.29,0.8c0.07,0.28,0.11,0.56,0.11,0.83c0.01,0.21,0.01,0.43,0.01,0.66s0,0.44-0.01,0.64
					c-0.01,0.26-0.05,0.49-0.12,0.7c-0.07,0.2-0.17,0.36-0.29,0.46c-0.13,0.11-0.28,0.16-0.46,0.16c-0.18,0-0.38-0.06-0.61-0.19
					c-0.21-0.12-0.4-0.28-0.58-0.48c-0.18-0.2-0.33-0.41-0.47-0.65c-0.13-0.24-0.24-0.49-0.31-0.75c-0.08-0.26-0.12-0.52-0.12-0.77
					c0-0.04,0.01-0.08,0.03-0.1c0.02-0.02,0.04-0.02,0.07,0l0.62,0.36c0.05,0.03,0.09,0.07,0.11,0.11c0.02,0.04,0.04,0.11,0.05,0.19
					c0.01,0.07,0.03,0.14,0.05,0.22c0.03,0.08,0.06,0.16,0.1,0.25c0.04,0.08,0.1,0.16,0.17,0.24c0.07,0.08,0.16,0.15,0.27,0.21
					c0.11,0.06,0.2,0.09,0.27,0.09c0.07,0,0.13-0.03,0.18-0.08c0.05-0.05,0.08-0.12,0.1-0.21c0.02-0.09,0.04-0.19,0.04-0.3
					c0-0.06,0-0.15,0.01-0.26c0-0.11,0-0.23,0-0.35c0-0.12,0-0.24,0-0.35c0-0.11,0-0.2-0.01-0.27
					C339.75,365.27,339.73,365.15,339.71,365.04z"/>
				<path style="fill:#E0E0E0;" d="M337.12,366.41c-0.04,0.12-0.09,0.21-0.16,0.27c-0.07,0.06-0.16,0.09-0.27,0.09
					c-0.11,0-0.23-0.04-0.36-0.12c-0.18-0.11-0.33-0.23-0.44-0.38c-0.11-0.15-0.21-0.32-0.28-0.51v0.21c0,0.05-0.01,0.09-0.04,0.12
					s-0.06,0.03-0.09,0.01l-0.6-0.34c-0.04-0.02-0.06-0.06-0.09-0.11c-0.03-0.05-0.04-0.11-0.04-0.16v-2.21
					c0-0.21,0.02-0.4,0.07-0.55c0.04-0.15,0.11-0.26,0.21-0.34c0.09-0.08,0.21-0.11,0.35-0.1c0.14,0.01,0.31,0.07,0.5,0.18
					c0.16,0.09,0.31,0.21,0.45,0.36c0.14,0.15,0.26,0.3,0.36,0.46c0.1,0.16,0.18,0.32,0.23,0.47c0.06,0.15,0.09,0.29,0.09,0.4
					c0,0.05-0.01,0.09-0.03,0.1c-0.02,0.02-0.05,0.02-0.08,0l-0.6-0.35c-0.03-0.02-0.06-0.04-0.09-0.07
					c-0.03-0.02-0.05-0.06-0.08-0.12c-0.02-0.03-0.05-0.08-0.09-0.13c-0.04-0.05-0.1-0.1-0.17-0.15c-0.1-0.06-0.17-0.06-0.21-0.01
					c-0.04,0.05-0.06,0.14-0.06,0.25l0.55,0.47c0.36,0.31,0.62,0.61,0.78,0.91c0.16,0.3,0.24,0.61,0.24,0.93
					C337.17,366.14,337.15,366.29,337.12,366.41z M336.26,365.56c0.04-0.01,0.06-0.07,0.06-0.16c0-0.09-0.03-0.18-0.08-0.27
					c-0.05-0.09-0.12-0.17-0.21-0.24l-0.44-0.35c0,0.1,0.01,0.2,0.04,0.3c0.03,0.1,0.06,0.19,0.1,0.28c0.04,0.09,0.1,0.17,0.16,0.24
					c0.06,0.07,0.12,0.13,0.19,0.17C336.16,365.56,336.22,365.58,336.26,365.56z"/>
				<path style="fill:#E0E0E0;" d="M331.46,361.55c0-0.29,0.03-0.52,0.08-0.7c0.05-0.18,0.12-0.31,0.21-0.4
					c0.09-0.08,0.2-0.12,0.32-0.12c0.13,0.01,0.27,0.06,0.42,0.14c0.09,0.05,0.18,0.12,0.25,0.18c0.07,0.07,0.13,0.14,0.19,0.21
					c0.05,0.07,0.1,0.15,0.14,0.22c0.04,0.08,0.07,0.14,0.09,0.21v-0.17c0-0.05,0.01-0.09,0.04-0.12c0.03-0.03,0.06-0.03,0.09-0.01
					l0.57,0.33c0.03,0.02,0.06,0.06,0.09,0.11c0.03,0.05,0.04,0.11,0.04,0.16v3.4c0,0.05-0.01,0.09-0.04,0.12
					c-0.03,0.03-0.06,0.03-0.09,0.01l-0.6-0.34c-0.03-0.02-0.06-0.06-0.09-0.11c-0.03-0.05-0.04-0.11-0.04-0.16v-1.85
					c0-0.21-0.03-0.4-0.1-0.56c-0.06-0.16-0.17-0.29-0.31-0.37c-0.14-0.08-0.25-0.08-0.31,0.01c-0.07,0.09-0.1,0.24-0.1,0.45v1.85
					c0,0.05-0.01,0.09-0.04,0.12c-0.03,0.02-0.06,0.03-0.09,0.01l-0.6-0.34c-0.03-0.02-0.06-0.06-0.09-0.11
					c-0.03-0.05-0.04-0.11-0.04-0.16V361.55z"/>
				<path style="fill:#E0E0E0;" d="M329.81,360.23c-0.08-0.15-0.18-0.26-0.3-0.33c-0.11-0.06-0.18-0.08-0.24-0.07
					c-0.06,0.01-0.1,0.05-0.13,0.12c-0.02,0.03-0.03,0.05-0.06,0.07c-0.02,0.02-0.05,0.02-0.08,0l-0.62-0.36
					c-0.03-0.02-0.07-0.06-0.09-0.11c-0.03-0.05-0.04-0.11-0.03-0.16c0-0.08,0.02-0.18,0.06-0.31c0.04-0.13,0.1-0.24,0.2-0.33
					c0.09-0.09,0.22-0.15,0.38-0.17c0.16-0.02,0.37,0.05,0.62,0.19c0.18,0.1,0.34,0.24,0.49,0.4c0.15,0.17,0.29,0.36,0.4,0.57
					c0.12,0.21,0.21,0.44,0.28,0.69c0.07,0.25,0.11,0.5,0.11,0.76c0,0.07,0,0.17,0,0.29c0,0.12,0,0.22,0,0.29
					c-0.01,0.25-0.04,0.46-0.11,0.63c-0.07,0.17-0.16,0.29-0.28,0.37c-0.11,0.08-0.25,0.11-0.4,0.1c-0.15-0.01-0.32-0.07-0.49-0.17
					c-0.25-0.15-0.46-0.32-0.62-0.52c-0.16-0.2-0.29-0.41-0.38-0.61c-0.09-0.2-0.16-0.39-0.2-0.56c-0.04-0.17-0.06-0.3-0.06-0.38
					c0-0.06,0.01-0.1,0.03-0.12c0.03-0.02,0.06-0.03,0.09,0l0.62,0.36c0.03,0.02,0.06,0.05,0.08,0.09c0.02,0.04,0.04,0.09,0.06,0.13
					c0.03,0.1,0.08,0.19,0.13,0.27c0.06,0.08,0.13,0.15,0.24,0.21c0.13,0.07,0.23,0.08,0.3,0.01c0.08-0.06,0.12-0.18,0.13-0.35
					c0.01-0.07,0.01-0.15,0.01-0.25c0-0.1,0-0.18-0.01-0.26C329.93,360.55,329.89,360.38,329.81,360.23z"/>
				<path style="fill:#E0E0E0;" d="M325.28,358.71c-0.03-0.02-0.06-0.06-0.09-0.11c-0.03-0.05-0.04-0.11-0.04-0.16v-0.2
					c0-0.23,0.02-0.45,0.07-0.66c0.04-0.21,0.12-0.38,0.22-0.51c0.1-0.13,0.24-0.21,0.4-0.23c0.16-0.03,0.36,0.03,0.59,0.16
					c0.21,0.12,0.39,0.28,0.55,0.47c0.16,0.19,0.29,0.41,0.4,0.65c0.11,0.24,0.19,0.49,0.25,0.77c0.06,0.27,0.08,0.55,0.08,0.83
					c0,0.31-0.03,0.56-0.08,0.78c-0.06,0.21-0.14,0.37-0.25,0.48c-0.11,0.11-0.24,0.16-0.4,0.16c-0.16,0-0.34-0.06-0.55-0.18
					c-0.22-0.13-0.41-0.28-0.56-0.46c-0.16-0.18-0.29-0.37-0.39-0.55c-0.1-0.18-0.17-0.35-0.22-0.49c-0.05-0.15-0.07-0.25-0.07-0.31
					c0-0.11,0.03-0.14,0.1-0.1l0.62,0.36c0.04,0.02,0.06,0.04,0.08,0.06c0.02,0.02,0.04,0.06,0.08,0.13
					c0.04,0.07,0.08,0.14,0.14,0.2c0.06,0.06,0.13,0.12,0.22,0.17c0.05,0.03,0.1,0.05,0.15,0.06c0.05,0.01,0.1,0.01,0.14-0.01
					c0.04-0.02,0.08-0.06,0.1-0.12c0.03-0.06,0.04-0.14,0.04-0.25L325.28,358.71z M326.13,357.98c-0.07,0.08-0.11,0.19-0.12,0.34
					l0.85,0.49c-0.01-0.16-0.05-0.32-0.12-0.48c-0.07-0.16-0.17-0.28-0.3-0.36C326.3,357.9,326.2,357.9,326.13,357.98z"/>
				<path style="fill:#E0E0E0;" d="M323.63,354.26c0-0.05,0.01-0.09,0.04-0.12c0.03-0.02,0.06-0.03,0.09-0.01l0.6,0.34
					c0.03,0.02,0.06,0.06,0.09,0.11c0.03,0.05,0.04,0.11,0.04,0.16v4.79c0,0.05-0.01,0.09-0.04,0.12c-0.03,0.02-0.06,0.03-0.09,0.01
					l-0.6-0.34c-0.03-0.02-0.06-0.06-0.09-0.11c-0.03-0.05-0.04-0.11-0.04-0.16V354.26z"/>
			</g>
		</g>
		<g>
			<g>
				<path style="fill:#BA68C8;" d="M281.81,337.28l0-9c0-1.37-0.96-3.03-2.15-3.72l-27.94-16.13c-1.19-0.68-2.15-0.13-2.15,1.24l0,9
					c0,1.37,0.96,3.03,2.15,3.72l27.94,16.13C280.84,339.2,281.81,338.65,281.81,337.28z"/>
			</g>
			<g>
				<path style="fill:#FAFAFA;" d="M270.3,323.42c0.16,0.18,0.3,0.37,0.42,0.58c0.12,0.21,0.2,0.43,0.26,0.65
					c0.06,0.22,0.09,0.44,0.09,0.64c0,0.41-0.07,0.7-0.22,0.86c-0.15,0.16-0.38,0.2-0.7,0.12c-0.17-0.04-0.32-0.08-0.45-0.11
					c-0.13-0.04-0.23-0.05-0.31-0.06c-0.08-0.01-0.14,0-0.18,0.03c-0.04,0.02-0.06,0.07-0.06,0.14c0,0.14,0.06,0.28,0.17,0.39
					c0.11,0.12,0.25,0.23,0.41,0.32c0.09,0.05,0.17,0.08,0.24,0.09c0.06,0,0.12-0.01,0.16-0.03c0.04-0.02,0.08-0.05,0.1-0.07
					c0.02-0.03,0.04-0.05,0.06-0.06c0.03-0.02,0.05-0.03,0.07-0.03c0.03,0,0.06,0.01,0.1,0.03l0.61,0.35
					c0.03,0.01,0.05,0.04,0.07,0.09c0.02,0.04,0.03,0.09,0.03,0.13c0,0.18-0.04,0.34-0.11,0.47c-0.07,0.13-0.17,0.24-0.3,0.31
					c-0.12,0.07-0.28,0.1-0.45,0.08c-0.17-0.01-0.37-0.08-0.58-0.2c-0.21-0.12-0.4-0.27-0.58-0.44c-0.18-0.17-0.33-0.37-0.46-0.58
					c-0.13-0.21-0.23-0.43-0.3-0.67c-0.07-0.23-0.11-0.47-0.11-0.72c0-0.22,0.02-0.41,0.06-0.55c0.04-0.14,0.11-0.25,0.19-0.32
					c0.09-0.07,0.19-0.11,0.32-0.12c0.13-0.01,0.28,0.01,0.45,0.06s0.31,0.08,0.43,0.11c0.12,0.03,0.21,0.04,0.28,0.04
					c0.07,0,0.12-0.02,0.15-0.05c0.03-0.03,0.04-0.08,0.04-0.15c0-0.07-0.01-0.14-0.04-0.2c-0.03-0.06-0.06-0.12-0.1-0.17
					c-0.04-0.05-0.09-0.1-0.14-0.14c-0.05-0.04-0.11-0.08-0.17-0.12c-0.08-0.05-0.15-0.07-0.21-0.08c-0.06-0.01-0.1,0-0.14,0.01
					c-0.04,0.01-0.07,0.03-0.09,0.05c-0.02,0.02-0.04,0.04-0.04,0.04c-0.03,0.02-0.05,0.04-0.08,0.04c-0.03,0-0.06-0.01-0.1-0.03
					l-0.61-0.35c-0.02-0.01-0.05-0.04-0.07-0.09c-0.02-0.04-0.03-0.09-0.03-0.13c0-0.15,0.04-0.29,0.11-0.42
					c0.07-0.13,0.16-0.23,0.28-0.29c0.12-0.07,0.27-0.1,0.43-0.09c0.17,0.01,0.35,0.07,0.55,0.18
					C269.95,323.09,270.14,323.24,270.3,323.42z"/>
				<path style="fill:#FAFAFA;" d="M267.98,326.44c-0.04,0.12-0.09,0.21-0.16,0.27c-0.07,0.06-0.16,0.09-0.26,0.09
					c-0.1,0-0.22-0.04-0.36-0.12c-0.18-0.1-0.33-0.23-0.44-0.38c-0.11-0.15-0.2-0.31-0.28-0.5v0.2c0,0.05-0.01,0.09-0.04,0.12
					c-0.02,0.02-0.05,0.03-0.09,0.01l-0.59-0.34c-0.03-0.02-0.06-0.06-0.09-0.11c-0.03-0.05-0.04-0.11-0.04-0.16v-2.18
					c0-0.21,0.02-0.39,0.07-0.54c0.04-0.15,0.11-0.26,0.2-0.34c0.09-0.07,0.21-0.11,0.35-0.1c0.14,0.01,0.3,0.07,0.49,0.18
					c0.16,0.09,0.31,0.21,0.44,0.36c0.13,0.14,0.25,0.3,0.35,0.45c0.1,0.16,0.18,0.31,0.23,0.46c0.06,0.15,0.09,0.28,0.09,0.4
					c0,0.05-0.01,0.08-0.03,0.1c-0.02,0.02-0.05,0.02-0.08,0l-0.59-0.34c-0.04-0.02-0.06-0.04-0.09-0.07
					c-0.02-0.02-0.05-0.06-0.08-0.12c-0.02-0.03-0.05-0.08-0.09-0.13c-0.04-0.05-0.09-0.1-0.17-0.14c-0.1-0.06-0.17-0.06-0.21-0.01
					c-0.04,0.05-0.06,0.13-0.06,0.25l0.55,0.46c0.35,0.3,0.61,0.6,0.77,0.89c0.16,0.3,0.24,0.6,0.24,0.92
					C268.04,326.18,268.02,326.32,267.98,326.44z M267.14,325.61c0.04-0.01,0.06-0.07,0.06-0.16c0-0.09-0.03-0.18-0.08-0.27
					c-0.05-0.09-0.12-0.17-0.2-0.24l-0.43-0.35c0,0.1,0.01,0.19,0.04,0.29c0.02,0.1,0.06,0.19,0.1,0.28
					c0.04,0.09,0.09,0.17,0.15,0.24c0.06,0.07,0.12,0.12,0.19,0.16C267.04,325.61,267.1,325.63,267.14,325.61z"/>
				<path style="fill:#FAFAFA;" d="M264.3,324.93l-0.55-0.32c-0.05-0.03-0.08-0.07-0.1-0.12s-0.04-0.1-0.05-0.15l-0.94-3.88
					c0-0.02,0-0.03,0-0.05c0-0.05,0.01-0.08,0.03-0.1c0.02-0.02,0.05-0.02,0.08,0l0.6,0.34c0.05,0.03,0.08,0.07,0.1,0.12
					c0.02,0.05,0.04,0.1,0.05,0.14l0.51,2.17l0.51-1.58c0.01-0.03,0.03-0.06,0.05-0.09c0.02-0.03,0.06-0.02,0.1,0l0.6,0.34
					c0.03,0.02,0.06,0.05,0.08,0.1c0.02,0.05,0.03,0.09,0.03,0.14c0,0.02,0,0.04,0,0.05l-0.94,2.79c-0.02,0.03-0.03,0.06-0.05,0.09
					C264.38,324.96,264.35,324.96,264.3,324.93z"/>
				<path style="fill:#FAFAFA;" d="M260.13,321.06c-0.04-0.02-0.06-0.06-0.09-0.11c-0.02-0.05-0.04-0.11-0.04-0.16v-0.2
					c0-0.23,0.02-0.45,0.07-0.65c0.04-0.21,0.12-0.37,0.22-0.5c0.1-0.13,0.23-0.2,0.39-0.23c0.16-0.02,0.35,0.03,0.58,0.16
					c0.2,0.12,0.38,0.27,0.54,0.46c0.16,0.19,0.29,0.4,0.4,0.63c0.11,0.24,0.19,0.49,0.24,0.75c0.05,0.27,0.08,0.54,0.08,0.82
					c0,0.3-0.03,0.56-0.08,0.77c-0.05,0.21-0.14,0.36-0.24,0.47c-0.11,0.11-0.24,0.16-0.4,0.16c-0.16,0-0.34-0.06-0.54-0.18
					c-0.21-0.12-0.4-0.28-0.55-0.46c-0.16-0.18-0.28-0.36-0.38-0.54c-0.1-0.18-0.17-0.34-0.22-0.48c-0.05-0.14-0.07-0.25-0.07-0.3
					c0-0.11,0.03-0.14,0.1-0.1l0.61,0.35c0.04,0.02,0.06,0.04,0.08,0.06c0.02,0.02,0.04,0.06,0.07,0.13
					c0.04,0.07,0.08,0.14,0.14,0.2c0.06,0.06,0.13,0.12,0.22,0.17c0.05,0.03,0.09,0.05,0.14,0.06c0.05,0.01,0.09,0.01,0.14-0.01
					c0.04-0.02,0.07-0.06,0.1-0.11c0.03-0.06,0.04-0.14,0.04-0.25L260.13,321.06z M260.97,320.35c-0.07,0.08-0.11,0.19-0.12,0.33
					l0.84,0.49c-0.01-0.16-0.05-0.31-0.12-0.47c-0.07-0.16-0.17-0.28-0.3-0.35C261.14,320.26,261.04,320.27,260.97,320.35z"/>
			</g>
		</g>
		<g>
			
				<ellipse transform="matrix(0.9202 -0.3916 0.3916 0.9202 -46.9474 132.1663)" style="fill:#BA68C8;" cx="300.6" cy="181.2" rx="11.24" ry="19.86"/>
			<path style="fill:#FAFAFA;" d="M296.88,171.72c0,2.99,1.82,6.47,4.06,7.76c2.24,1.3,4.06-0.08,4.06-3.07
				c0-2.99-1.82-6.47-4.06-7.76C298.7,167.35,296.88,168.72,296.88,171.72z"/>
			<path style="fill:#FAFAFA;" d="M294,182.3c0.53-2.66,2.51-3.61,4.79-2.29l4.72,2.73c2.28,1.32,4.27,4.56,4.79,7.82l0.69,4.32
				c-1.78,2.06-4.57,2.45-7.72,0.63c-3.27-1.89-6.15-5.7-7.92-10.01L294,182.3z"/>
		</g>
		<g id="Character_4_">
			<g id="Bottom_7_">
				<g>
					<path id="XMLID_314_" style="fill:#B16668;" d="M142.49,410.8c3.4,1.83,9.33,1.74,13.47-0.47l4.41-37.96l-18.2-1.01
						L142.49,410.8z"/>
					<g>
						<path style="fill:#263238;" d="M140.35,407.79c-0.91,2-1.06,3.84-0.91,5.48c0.15,1.64,1.22,3.73,0.91,7.46
							c-0.31,3.73-1.11,4.92-1.41,7.56c-0.3,2.64-0.13,6.15,1.49,8.59c1.62,2.44,4.47,4.81,11.15,4.35
							c7.52-0.51,8.79-4.54,8.79-7.73L140.35,407.79z"/>
						<path id="XMLID_308_" style="fill:#37474F;" d="M141.93,402.65c-0.3,0.09-0.58,0.28-0.76,0.54c-0.54,0.72-0.35,1.82-0.52,2.67
							c-0.07,0.33-0.13,0.66-0.19,0.99c-0.43,2.5,0.19,5.04,0.25,7.58c0.06,3-0.67,5.95-1.23,8.89c-1.02,5.29-1,8.6,3.73,12.07
							c2.49,1.83,5.26,2.59,8.33,2.55c2.33-0.03,5.8-1.1,6.96-2.36c1.5-1.62,2.14-3.44,2.14-3.91c-0.03-5.59-2.4-11.81-3.02-17.36
							c-0.31-2.77-0.41-5.79-0.56-8.58c-0.01-0.21-0.03-0.44-0.16-0.6c-0.11-0.14-0.29-0.21-0.47-0.27
							c-3.68-1.25-8.33-0.57-12.11,0.18c-0.32,0.06-0.69,0.17-0.82,0.48c-0.05,0.13-0.05,0.27-0.05,0.41c0,0.74-0.06,1.49-0.21,2.22
							c-0.03,0.18-0.12,0.4-0.31,0.4c-0.19,0-0.47-1.55-0.49-1.74l-0.04-4.2C142.41,402.59,142.15,402.59,141.93,402.65z"/>
						<path style="fill:#455A64;" d="M160.64,431.66c0.02-1.31-0.07-2.18-0.56-3.18c-2.59-5.09-17.26-4.16-21.14,1.19
							c0.13,3.22,0.51,5.03,3.27,7.27c2.26,1.84,6.91,2.35,9.8,2.06c2.8-0.28,5.12-1.43,6.39-2.66
							C159.9,434.88,160.61,433.77,160.64,431.66z"/>
					</g>
				</g>
				<g>
					<path id="XMLID_304_" style="fill:#B16668;" d="M179.76,404.59c2.87,6.21,10.04,4.72,15.88,0.75l1.96-41.31l-19.98,4.5
						L179.76,404.59z"/>
					<g>
						<g>
							<path id="XMLID_303_" style="fill:#263238;" d="M220.76,420.43c0.38,0.8,0.27,2.29-0.18,3.23c-0.45,0.95-5.4,3.73-12.06,3.28
								c-6.67-0.45-11.25-3.14-13.79-4.82c-2.54-1.68-7.15-2.35-10.46-2.54c-3.3-0.19-7.64-1.84-8.36-3.38
								c-0.72-1.54,0.11-4.2,0.11-4.2L220.76,420.43z"/>
							<path id="XMLID_301_" style="fill:#37474F;" d="M197.57,402.68c1.47,2.84,4.8,4.29,7.45,5.75c1.18,0.65,2.52,1.21,3.73,1.81
								c1.61,0.8,3.32,1.07,4.96,1.72c1.78,0.71,3.7,1.51,5.3,2.59c2.62,1.76,2.95,6.19-0.03,7.94c-2.57,1.51-9.34,3.15-16.44,1.14
								c-3.87-1.1-10.12-5.58-15.2-5.98c-3.23-0.25-9.33-1.16-11.41-3.61c-0.66-3.56,0.26-4.53,1.1-7.51
								c0.4-1.42,0.41-2.89,0.75-4.3c0.11-0.45,0.17-0.84,0.6-1.12c0.6-0.4,1.13-0.5,1.13-0.5l0.1,1.61c0,0,0.23,0.76,2.02,1.78
								c1.19,0.68,2.22,1.67,2.9,2.87c0.19,0.34,0.37,0.71,0.67,0.96c0.3,0.25,0.79,0.33,1.08,0.07c0.29-0.27,0.26-0.73,0.21-1.12
								c-0.11-0.9-0.18-1.82-0.18-2.73c0-0.16,0-0.33,0.07-0.47c0.07-0.13,0.19-0.22,0.3-0.31c2.06-1.5,6.64-1.62,9.17-1.92
								c0.32-0.04,0.68-0.07,0.96,0.1c0.3,0.18,0.44,0.55,0.58,0.87C197.45,402.45,197.51,402.57,197.57,402.68z"/>
							<path style="fill:#455A64;" d="M177.52,404.37c-0.12,0.73-0.27,1.46-0.47,2.17c-0.84,2.97-1.76,3.94-1.1,7.51
								c1.6,1.88,5.56,2.85,8.78,3.32C185.82,411.26,182,406.7,177.52,404.37z"/>
						</g>
						<path style="fill:#455A64;" d="M219.14,414.32c-1.38-0.93-3.14-1.42-4.7-2.06c-8.22,0.88-10.96,8.2-10.54,11.71
							c6.49,1.78,12.75,0.12,15.16-1.29C222.04,420.93,221.75,416.08,219.14,414.32z"/>
					</g>
				</g>
				<g>
					<g>
						<path id="XMLID_294_" style="fill:#455A64;" d="M146.15,246.07c-0.79,24.06-2.24,40.91-2.15,85.19c0,0-1.98,11.7-2.32,24.23
							c-0.3,11.08,0.24,40.06,0.24,40.06s8.68,3.09,16.49,0.04c0,0,7.49-42.56,9.88-58.02c2.1-13.58,4.86-36.69,4.86-36.69
							l2.47,31.63c0,0-2.15,10.76-1.31,22.72c0.51,7.26,4.09,38.89,4.09,38.89s9.38,3.08,18.14-1.58c0,0,3.46-54.35,3.59-60.94
							c0.14-7.51-2.21-91.97-2.21-91.97L146.15,246.07z"/>
					</g>
					<path style="fill:#37474F;" d="M173.16,300.88l2.85-25.71c0,0,9.48-1.18,14.95-6.69c0,0,0.02,5.59-11.48,9.85l-4.01,20.71
						l0.16,33.47L173.16,300.88z"/>
				</g>
			</g>
			<g id="Top_6_">
				<path style="fill:#E0E0E0;" d="M183.41,184.1c5.47-0.06,11.66,1.13,14.6,5.48c3.9,5.79,11.09,28.69,13.12,40.01
					c0.55,3.09-14.03,9.08-14.03,9.08l-7.53-20.61L183.41,184.1z"/>
				<g>
					<path id="XMLID_15781_" style="fill:#FAFAFA;" d="M194.89,202.5c-1.07-7.72-2.08-18.11-14.06-18.58l-15.56-0.74
						c-3.8,0.99-23.88,7.88-23.88,7.88l5.13,29.85c0,0-0.1,26.37,0.2,39.3c11.06,7.01,38.35,5.17,50.04-1.87
						C197.2,247.67,195.95,210.15,194.89,202.5z"/>
					<g>
						<path style="fill:#37474F;" d="M189.89,263.37v3.73c0,0,4.09-0.04,8.61-3.73l0.11-4.6L189.89,263.37z"/>
						<path style="fill:#BA68C8;" d="M197.6,211.92c-0.41-9.79-2-18.24-5.65-22.83c-3.64-4.59-5.87-5.9-14.51-5.76v1
							c1,0.09,2.74,1.41,3.55,2.71c1.5,2.43,2.99,6.45,4.82,13.43c2.5,9.51,3.94,30.8,4.07,42.25c0.13,11.44,0,20.65,0,20.65
							s6.92-1.71,8.72-4.6c1.61-4.3-0.12-5.24-0.09-7.99C198.62,237.85,197.9,219.09,197.6,211.92z"/>
						<path style="opacity:0.3;" d="M197.6,211.92c-0.41-9.79-2-18.24-5.65-22.83c-3.64-4.59-5.87-5.9-14.51-5.76v1
							c1,0.09,2.74,1.41,3.55,2.71c1.5,2.43,2.99,6.45,4.82,13.43c2.5,9.51,3.94,30.8,4.07,42.25c0.13,11.44,0,20.65,0,20.65
							s6.92-1.71,8.72-4.6c1.61-4.3-0.12-5.24-0.09-7.99C198.62,237.85,197.9,219.09,197.6,211.92z"/>
					</g>
					<g>
						<path style="fill:#37474F;" d="M145.37,260.91c0,0-0.47,3.39-0.27,4.45s1.25,1.75,5.59,3.12c4.74,1.49,14.16,2.27,18.11,0.88
							l0.48-4.5L145.37,260.91z"/>
						<path style="fill:#BA68C8;" d="M166.6,200.07c-1.23-5.21-4.72-10.89-4.83-15.97l-20.36,6.81c-3.98,1.83-5.17,3.96-4.78,8.32
							l7.47,30.41c0,0,1.6,19.01,1.66,22.07c0.06,3.05-2.52,4.84-0.75,8.69c6.56,7.11,24.27,4.46,24.27,4.46s0.28-10.94-0.31-37.32
							C168.64,212.74,168.17,206.71,166.6,200.07z"/>
						<path style="opacity:0.3;" d="M166.6,200.07c-1.23-5.21-4.72-10.89-4.83-15.97l-20.36,6.81c-3.98,1.83-5.17,3.96-4.78,8.32
							l7.47,30.41c0,0,1.6,19.01,1.66,22.07c0.06,3.05-2.52,4.84-0.75,8.69c6.56,7.11,24.27,4.46,24.27,4.46s0.28-10.94-0.31-37.32
							C168.64,212.74,168.17,206.71,166.6,200.07z"/>
					</g>
				</g>
				<g id="XMLID_266_">
					<g id="XMLID_269_">
						<g id="XMLID_315_">
							<path id="XMLID_325_" style="fill:#455A64;" d="M219.72,219.93l0.02,0l-1.16-1.05l0,0.02c-0.26-0.22-0.67-0.3-1.21-0.16
								l-12.88,3.19c-1.19,0.3-2.51,1.47-2.94,2.62l-9.81,26.37c-0.23,0.61-0.15,1.09,0.14,1.36l-0.01,0l1.2,1.08l0-0.02
								c0.26,0.23,0.68,0.31,1.22,0.17l12.88-3.19c1.19-0.3,2.51-1.47,2.94-2.62c1.93-5.18,7.88-21.19,9.81-26.37
								C220.16,220.69,220.06,220.2,219.72,219.93z"/>
							<path id="XMLID_324_" style="fill:#263238;" d="M204.25,223.69c-0.68,0.51-1.27,1.22-1.53,1.92l-9.81,26.36
								c-0.21,0.59-0.16,1.06,0.1,1.34l-1.12-1.01l0.01-0.01c-0.3-0.28-0.37-0.75-0.14-1.36l9.81-26.37
								c0.24-0.65,0.78-1.3,1.41-1.82L204.25,223.69z"/>
							<path id="XMLID_317_" style="fill:#37474F;" d="M192.91,251.98l9.81-26.37c0.43-1.15,1.74-2.33,2.94-2.62l12.88-3.19
								c1.19-0.3,1.81,0.4,1.39,1.55c-1.93,5.18-7.88,21.19-9.81,26.37c-0.43,1.15-1.74,2.33-2.94,2.62l-12.88,3.19
								C193.1,253.82,192.48,253.13,192.91,251.98z"/>
						</g>
					</g>
					<path style="fill:#9A4A4D;" d="M216.75,229.88c2.26-0.48,3.44,1.98,2.97,6.12c-0.47,4.13-3.47,11.63-9.73,9.23
						c-2.43-0.93-3.91-5.2-1.18-6.86c4.77-2.88,6.42-4.43,6.42-4.43L216.75,229.88z"/>
				</g>
				<g>
					<path style="fill:#B16668;" d="M141.58,249.22c-1.96-7.07-6.79-19.63-8.88-33.36c-2.66-17.43,2.92-21.32,11.71-25.84
						c8.54,8.71,8.55,27.46,8.55,27.46s4.21,21.2,4.99,25.25c7.31-0.42,27.81-4.07,30.3-5.18c1.28-0.57,2.79-2.44,3.66-3.42
						c1.19-1.35,2.06-2.1,3.43-2.7c1.7-0.75,3.09-1.17,4.31-1.72l-2.04,5.5c0.11,0.34,0.84,0.47,1.18,0.6
						c2.42,0.98,5.08,1.52,7.69,1.52c5.5-0.01,10.91-3.62,9.5,1.16c-0.56,1.9-1.62,5.47-4.69,7.72c-3.03,2.22-13.8,2.57-16.9,3.74
						c0,0-26.81,9.34-37.26,10.29C145.03,261.32,144.67,260.39,141.58,249.22z"/>
					<path style="fill:#EBEBEB;" d="M145.67,189.48c-5.46,1.63-9.72,3.11-12.56,8.23c-2.84,5.12-2.41,10.35-0.85,19.8
						c1.56,9.45,7.58,29.01,9.87,35.79c1.68,4.97,2.78,8.76,12.91,7.6c10.13-1.16,27.46-6.55,27.46-6.55l-2.14-14.92l-21.82,2.71
						c0,0-3.78-21.08-4.69-26.34C152.95,210.56,153.86,200.97,145.67,189.48z"/>
					<path style="fill:#E0E0E0;" d="M158.54,242.14c-5.51,2.5-6.26,7.65-6.26,7.65s-1.68-6.37,5.8-10.18L158.54,242.14z"/>
				</g>
				<g id="Head_4_">
					<g id="XMLID_567_">
						<path style="fill:#37474F;" d="M159.12,144.5c-1.92-1.06-4.63-1.5-6.72-0.73c-1.17,0.43-2.21,1.38-2.45,2.61
							c-0.18,0.93,0.1,1.9,0.02,2.85c-0.1,1.21-0.79,2.28-1.32,3.37c-0.54,1.09-0.94,2.38-0.46,3.5c0.37,0.87,1.15,1.16,1.22,2.15
							c0.08,1.14-0.37,2.26-0.51,3.39c-0.26,2.2,0.8,4.51,2.64,5.75c0.8,0.54,1.71,0.88,2.52,1.38c1.15,0.71,1.46,1.54,1.93,2.71
							c0.97,2.43,3.33,4.1,5.81,4.73l-0.23-7.44l-0.3-5.18c0,0,3.3-4.56,3.64-8.29c0.44-4.8-0.58-6.75-0.58-6.75
							C162.68,147.27,161.01,145.54,159.12,144.5z"/>
						<path id="XMLID_573_" style="fill:#37474F;" d="M164.04,152.95c0.07,7.67,6.35,13.83,14.02,13.75
							c7.67-0.07,13.83-6.35,13.75-14.02c-0.07-7.67-6.35-13.83-14.02-13.75C170.12,139,163.97,145.28,164.04,152.95z"/>
						<path style="fill:#B16668;" d="M155.21,170.85c3.06,1.17,4.7-0.82,4.7-0.82l0.59,15.89c0,0,1.78,3.69,5.59,5.34
							c3.82,1.65,8.66,2.41,11.84,1.2c3.18-1.21,4.87-3.71,0.25-7.62l-0.17-4.71c0,0,3.35,0.27,5.4-0.07
							c3.41-0.56,5.54-3.28,6.53-6.98c1.6-5.95,1.15-14.87-1.21-26.38c-3.84-2.94-16.39-3.31-24.39,1.83
							c0.43,6.79-0.6,9.13-0.84,10.16c-0.24,1.02-1.53,3.72-2.4,3.86c-1.63,0.26-1.9-1.51-2.95-2.6c-1.06-1.08-5.05-1.7-6.73,1.91
							C149.72,165.54,152.85,169.95,155.21,170.85z"/>
						<path style="fill:#9A4A4D;" d="M178.01,180.13c-5.44-0.5-12.22-2.98-13.97-5.46c-1.76-2.48-2.41-4.51-2.41-4.51
							s0.23,4.29,1.57,6.46c1.34,2.17,6.38,5.83,14.91,6.35L178.01,180.13z"/>
						<g>
							<path style="fill:#37474F;" d="M168.28,211.08c-1.41-5.54-3.25-15.04-5.23-14.18c-2.9,1.26-3.99,2.49-5.1,0.73
								c-0.8-1.27-1.44-3.09-2.75-6.72c-1.04-2.9-1.41-4.52-1.41-4.52s1.94-2.58,3.43-3.97c1.48-1.39,1.8-1.76,3.06-1.85l0.12,2.3
								c0,0,0.81,1.79,4.38,4.19C168.34,189.47,167.63,196.9,168.28,211.08z"/>
							<path style="fill:#37474F;" d="M187.06,206.62c0.06-8.22-1.35-13.95,0.58-13.41c1.92,0.54,2.61,0.69,2.66-0.35
								c0.05-1.03-2.6-5.83-4.35-7.78c-3.54-3.92-6.58-3.81-7.87-4.03l0.11,3.78c0,0,1.55,1.54,2.51,3.92
								C181.35,190.4,185.16,199.05,187.06,206.62z"/>
						</g>
						<path style="fill:#37474F;" d="M190.8,137.43c-0.01-0.01-0.02-0.03-0.03-0.04c-0.68-1.03-0.25-2.41-0.54-3.61
							c-0.3-1.23-1.38-2.19-2.6-2.53c-1.22-0.34-2.55-0.13-3.71,0.38c-1.31,0.57-2.68,1.53-4.03,1.06
							c-1.05-0.37-1.62-1.47-2.49-2.16c-1.01-0.81-2.4-1.01-3.68-0.84c-1.28,0.17-2.49,0.69-3.68,1.19
							c-0.85,0.36-1.91,1.05-2.84,1.07c-0.94,0.01-1.92-0.48-2.9-0.48c-2.02,0.01-3.97,1.34-4.71,3.22
							c-0.3,0.76-0.42,1.61-0.91,2.27c-0.53,0.72-1.41,1.09-2.09,1.66c-1.3,1.09-1.86,2.99-1.35,4.61c0.68,2.14,3.74,3.96,5.93,3.2
							c0.17,1.35,1.2,2.54,2.51,2.9c1.31,0.36,2.81-0.14,3.64-1.21c0.66,1.34,2.01,2.07,3.45,2.25c1.73,0.22,3.55-0.63,4.5-2.1
							c-0.14,1.4,1.26,2.46,2.59,2.92c0.86,0.3,1.78,0.48,2.68,0.42c0.86-0.06,1.61-0.58,2.45-0.75c0.79-0.17,1.61-0.01,2.41,0.04
							c1.37,0.08,2.9-0.24,3.71-1.35c0.61-0.84,0.74-2.03,1.59-2.62c0.41-0.28,0.93-0.37,1.37-0.61c0.67-0.37,1.12-1.07,1.32-1.81
							c0.2-0.74,0.18-1.52,0.12-2.29c-0.11-1.34-0.52-2.76-1.54-3.7C191.57,138.16,191.11,137.86,190.8,137.43z"/>
					</g>
					<g id="XMLID_268_">
						<path id="XMLID_292_" style="fill:#263238;" d="M175.97,160.6c0.01,0.88-0.67,1.59-1.51,1.6c-0.84,0.01-1.53-0.7-1.54-1.58
							c-0.01-0.88,0.67-1.59,1.51-1.6C175.27,159.02,175.96,159.73,175.97,160.6z"/>
						<path id="XMLID_282_" style="fill:#263238;" d="M174.47,153.62l-3.42,1.49c-0.39-0.98,0.06-2.11,1-2.52
							C173,152.18,174.08,152.64,174.47,153.62z"/>
						<path id="XMLID_281_" style="fill:#263238;" d="M188.02,154.8l-3.65-0.91c0.22-1.03,1.21-1.65,2.21-1.4
							C187.6,152.74,188.24,153.78,188.02,154.8z"/>
						<path id="XMLID_273_" style="fill:#263238;" d="M188.2,160.25c0.01,0.88-0.67,1.59-1.51,1.6c-0.84,0.01-1.53-0.7-1.54-1.58
							c-0.01-0.88,0.67-1.59,1.51-1.6C187.5,158.66,188.19,159.37,188.2,160.25z"/>
						<g>
							<path style="fill:#455A64;" d="M167.12,154.91l-11.76,4.19c0,0,1.84-0.31,3.39,1.56l8.33-3.16L167.12,154.91z"/>
							<path style="fill:#455A64;" d="M194.19,154.36c-0.25-0.03-0.5-0.06-0.77-0.08c-2.48-0.23-5.72-0.25-7.69,0.39
								c-2.47,0.81-3.35,1.67-4.7,1.7c-1.45,0.02-2.35-0.81-4.96-1.53c-2.08-0.56-5.55-0.42-8.21-0.1
								c-0.29,0.03-0.56,0.07-0.83,0.11c-0.46,0.07-0.96,0.69-0.94,1.41c0.02,0.72,0.54,1.28,0.76,1.6c0.1,0.14,0.19,0.35,0.26,0.65
								c0.26,1.12,0.4,3.26,0.92,4.44c0.21,0.47,0.52,1.06,1.02,1.58c0.17,0.17,0.34,0.32,0.53,0.46c0.1,0.07,0.2,0.14,0.31,0.21
								c0.27,0.17,0.57,0.31,0.91,0.43c0.05,0.02,0.1,0.04,0.15,0.05c0.08,0.02,0.16,0.05,0.24,0.07c0.08,0.02,0.17,0.04,0.26,0.06
								c0.25,0.05,0.52,0.09,0.81,0.12c0.11,0.01,0.23,0.02,0.35,0.02c0.14,0,0.29,0.01,0.44,0c3.37-0.05,4.81-1.71,5.68-3.42
								c0.87-1.7,0.7-4.09,2.25-4.11c0.05,0,0.1,0,0.15,0.01c0.05,0,0.09,0.01,0.14,0.02c1.14,0.25,0.96,2.44,1.66,4.01
								c0.27,0.6,0.6,1.2,1.07,1.7c0.08,0.09,0.17,0.18,0.26,0.26c0.05,0.04,0.09,0.08,0.14,0.12c0.05,0.04,0.09,0.08,0.14,0.12
								c0.04,0.03,0.09,0.07,0.13,0.1c0.08,0.05,0.11,0.08,0.14,0.1c0.04,0.03,0.07,0.05,0.11,0.07c0.02,0.02,0.05,0.03,0.08,0.05
								c0.38,0.23,0.82,0.41,1.33,0.52c0.04,0.01,0.08,0.02,0.12,0.03c0.48,0.1,1.03,0.15,1.64,0.14c3.16-0.07,4.28-1.98,4.82-3.18
								c0.54-1.2,0.77-3.35,1.05-4.48c0.06-0.25,0.17-0.44,0.3-0.59c0.23-0.28,0.69-0.94,0.74-1.66
								C195.06,155.05,194.62,154.41,194.19,154.36z M177.89,160.96c-0.16,0.65-0.48,1.59-1.21,2.38l0,0
								c-0.74,0.78-1.89,1.41-3.7,1.41c-1.83,0.01-2.88-0.75-3.5-1.65c-0.04-0.06-0.08-0.11-0.11-0.17
								c-0.04-0.06-0.07-0.11-0.1-0.17c-0.03-0.05-0.06-0.1-0.08-0.16c-0.02-0.05-0.05-0.09-0.07-0.14
								c-0.02-0.04-0.04-0.07-0.05-0.11c-0.02-0.03-0.03-0.07-0.04-0.1c-0.02-0.06-0.05-0.11-0.07-0.17v0
								c-0.07-0.17-0.12-0.33-0.17-0.49c0,0,0-0.01,0-0.01c-0.03-0.1-0.06-0.2-0.08-0.29c-0.04-0.17-0.08-0.33-0.11-0.47
								c-0.01-0.03-0.01-0.06-0.02-0.09c-0.01-0.03-0.01-0.06-0.02-0.09c-0.24-1.18-0.51-3.49,0.08-4.02
								c0.57-0.51,2.13-1.1,4.64-0.9c0.09,0,0.18,0.01,0.27,0.02c0.38,0.04,0.77,0.1,1.14,0.18c0.15,0.03,0.3,0.07,0.44,0.1
								c0.39,0.1,0.77,0.22,1.11,0.35c0.12,0.05,0.23,0.09,0.34,0.14c0.13,0.05,0.25,0.11,0.37,0.17c0.02,0.01,0.05,0.02,0.07,0.04
								c0.05,0.02,0.09,0.05,0.13,0.07c0.34,0.19,0.6,0.4,0.74,0.61C178.38,158.11,178.2,159.64,177.89,160.96z M192.55,160.19
								c-0.21,0.93-0.66,2.92-2.44,3.82c-0.51,0.26-1.13,0.43-1.88,0.45c-1.99,0.07-3.1-0.75-3.72-1.7c0-0.01-0.01-0.01-0.01-0.02
								c-0.02-0.04-0.05-0.07-0.07-0.11c-0.03-0.04-0.05-0.08-0.07-0.12c-0.01-0.02-0.02-0.04-0.04-0.07
								c-0.03-0.06-0.06-0.12-0.09-0.18c-0.03-0.07-0.07-0.14-0.1-0.22c-0.02-0.03-0.03-0.07-0.04-0.11
								c-0.01-0.02-0.01-0.04-0.02-0.06c-0.01-0.03-0.02-0.06-0.03-0.09c-0.01-0.02-0.02-0.05-0.02-0.07
								c-0.11-0.32-0.18-0.62-0.23-0.88c-0.23-1.31-0.34-2.84,0.14-3.57c0.49-0.73,2.35-1.56,4.14-1.82c0.41-0.06,0.8-0.1,1.16-0.11
								c0.05,0,0.09,0,0.14,0c0.05,0,0.1,0,0.15,0c0.14,0,0.27,0,0.4,0c0.05,0,0.1,0,0.15,0.01c0.06,0,0.13,0.01,0.19,0.01
								c0.11,0.01,0.21,0.02,0.31,0.03c0.21,0.02,0.4,0.06,0.58,0.09c0.05,0.01,0.09,0.02,0.14,0.03c0.01,0,0.02,0,0.04,0.01
								c0.03,0.01,0.06,0.01,0.09,0.02c0.05,0.01,0.09,0.03,0.14,0.04c0.06,0.02,0.11,0.04,0.17,0.05c0.1,0.03,0.19,0.07,0.27,0.11
								c0.02,0.01,0.03,0.01,0.05,0.02c0.27,0.12,0.47,0.26,0.61,0.39C193.16,156.68,192.81,159.01,192.55,160.19z"/>
						</g>
						<path style="fill:#9A4A4D;" d="M186.67,165.89l-5.51,1.41l-0.9-8.62c0.19-0.16,0.42-0.25,0.73-0.25h0.14
							c0.05,0,0.1,0.01,0.14,0.02c0.12,0.02,0.22,0.07,0.31,0.14c0.08,0.05,0.15,0.11,0.21,0.18c0.69,0.58,1.35,1.25,1.97,2.01
							c0.8,0.96,1.52,2.05,2.11,3.23c0.25,0.49,0.47,1,0.67,1.53C186.59,165.65,186.63,165.77,186.67,165.89z"/>
					</g>
					<g>
						<path id="XMLID_265_" style="fill:#9A4A4D;" d="M175.18,169.48l6.39,1.37c-0.34,1.82-2.05,2.99-3.81,2.62
							C175.99,173.08,174.84,171.3,175.18,169.48z"/>
						<path style="fill:#F28F8F;" d="M175.95,170.52c-0.27-0.03-0.53-0.02-0.79,0.01c0.17,1.41,1.18,2.63,2.6,2.93
							c0.36,0.08,0.71,0.07,1.05,0.03C178.9,172.02,177.65,170.7,175.95,170.52z"/>
					</g>
				</g>
			</g>
		</g>
	</g>
</g>
</svg>
