<svg version="1.2" xmlns="http://www.w3.org/2000/svg" viewBox="0 0 323 491" width="323" height="491"><style>.a{fill:#fff}.b{fill:#ef4a8e}.c{fill:#304b54}.d{fill:#fac13e}</style><path class="a" d="m662 744h-1000v-1000h1000z"/><path class="b" d="m187.3 449.9c-9.7 0-17.6-7.9-17.6-17.6v-115.8c0-1.1-0.9-2-2-2h-11.7c-1.1 0-2 0.9-2 2v115.8c0 9.7-7.9 17.6-17.6 17.6-9.8 0-17.7-7.9-17.7-17.6v-115.8c0-1.1-0.9-2-2-2h-25.1c-1.8 0-3.6-0.9-4.7-2.3-1.1-1.5-1.4-3.4-1-5.1l31.4-114c0.3-1-0.2-2.1-1.2-2.4q-0.4-0.1-0.7-0.1c-0.8 0-1.5 0.4-1.8 1.2l-27.8 62.4c-2.8 6.4-9.1 10.5-16.1 10.5-2.5 0-4.9-0.5-7.1-1.5-8.9-4-12.9-14.4-9-23.3l49-110.2 0.2-0.3q0.3-0.6 0.6-1.1 0.1-0.3 0.2-0.5c0 0 0.1-0.2 0.1-0.2 0.2-0.3 0.4-0.5 0.5-0.7q0.3-0.4 0.6-0.7c0 0 0.1-0.2 0.1-0.2q0.2-0.3 0.4-0.5 0.3-0.4 0.7-0.7l0.4-0.5q0.4-0.4 0.8-0.7c0.2-0.2 0.3-0.3 0.5-0.5q0.4-0.2 0.8-0.5 0.3-0.3 0.6-0.5 0.4-0.2 0.7-0.4 0.4-0.2 0.8-0.5 0.3-0.1 0.6-0.2c0.4-0.2 0.7-0.3 1-0.5l0.6-0.2q0.5-0.2 1-0.3c0.2-0.1 0.8-0.2 0.8-0.2q0.4-0.1 0.8-0.2 0.4-0.1 0.9-0.1c0 0 0.6-0.1 0.8-0.2q0.6 0 1.2 0h0.7 86 0.3q0.7 0 1.3 0.1h0.6q0.6 0.1 1.1 0.2 0.3 0 0.6 0.1l0.2 0.1q0.4 0.1 0.8 0.2 0.5 0.1 0.9 0.3c0.3 0.1 0.5 0.2 0.7 0.2q0.5 0.2 0.9 0.4 0.3 0.2 0.7 0.4 0.4 0.2 0.7 0.4 0.4 0.2 0.8 0.4 0.3 0.2 0.6 0.5 0.4 0.2 0.8 0.6 0.2 0.1 0.5 0.4 0.4 0.3 0.8 0.7l0.3 0.4c0.4 0.3 0.6 0.6 0.8 0.8 0.1 0.2 0.5 0.6 0.5 0.6q0.3 0.4 0.5 0.7 0.3 0.4 0.5 0.7l0.2 0.3q0.1 0.2 0.2 0.5 0.3 0.5 0.6 1.1l0.1 0.2 49.1 110.3c1.9 4.3 2 9.1 0.3 13.5-1.7 4.4-5 7.9-9.3 9.8-2.3 1-4.7 1.5-7.1 1.5-7 0-13.3-4.1-16.1-10.5l-27.8-62.4c-0.3-0.8-1-1.2-1.8-1.2q-0.4 0-0.7 0.1c-1 0.4-1.5 1.4-1.2 2.4l31.3 114c0.5 1.7 0.2 3.6-0.9 5.1-1.1 1.4-2.9 2.3-4.7 2.3h-25.2c-1.1 0-2 0.9-2 2v115.8c0 9.7-7.9 17.6-17.6 17.6z"/><path fill-rule="evenodd" class="c" d="m204.7 117.3c0 0 0.3 0 0.3 0q0.1 0 0.3 0 0.8 0 1.5 0.1 0.4 0 0.7 0 0.6 0.1 1.2 0.2 0.4 0.1 0.8 0.2 0.5 0.1 1 0.3 0.5 0.1 0.9 0.3 0.5 0.1 0.9 0.3 0.4 0.2 0.9 0.4 0.4 0.2 0.8 0.4 0.4 0.2 0.8 0.4 0.5 0.3 0.9 0.6 0.3 0.2 0.7 0.4 0.4 0.3 0.8 0.7 0.3 0.2 0.6 0.5 0.4 0.3 0.9 0.8 0.2 0.2 0.5 0.5 0.4 0.4 0.8 0.8 0.2 0.3 0.5 0.7 0.3 0.4 0.6 0.8 0.3 0.4 0.5 0.9 0.3 0.3 0.5 0.7 0.3 0.6 0.6 1.2 0.1 0.2 0.2 0.4l0.1 0.3q0 0 0.1 0.1l48.8 109.8c4.4 9.9-0.1 21.5-10 25.9-2.6 1.1-5.3 1.7-7.9 1.7-7.5 0-14.7-4.4-17.9-11.7l-27.8-62.4 31.4 113.9c0.6 2.4 0.1 4.9-1.4 6.9-1.4 1.9-3.7 3.1-6.2 3.1h-25.2v115.8c0 10.8-8.7 19.6-19.6 19.6-10.8 0-19.6-8.8-19.6-19.6v-115.8h-11.7v115.8c0 10.8-8.8 19.6-19.6 19.6-10.9 0-19.7-8.8-19.7-19.6v-115.8h-25.1c-2.5 0-4.8-1.2-6.3-3.1-1.4-2-1.9-4.5-1.3-6.9l31.4-113.9-27.8 62.4c-3.2 7.3-10.4 11.7-17.9 11.7-2.7 0-5.4-0.6-8-1.7-9.8-4.4-14.3-16-9.9-25.9l48.8-109.8q0-0.1 0.1-0.1l0.1-0.3q0.1-0.2 0.2-0.4 0.3-0.6 0.6-1.2 0.2-0.4 0.4-0.7 0.3-0.5 0.6-0.9 0.3-0.4 0.6-0.8 0.3-0.4 0.5-0.7 0.4-0.4 0.8-0.8 0.3-0.3 0.5-0.6 0.4-0.3 0.9-0.7 0.3-0.3 0.6-0.5 0.4-0.3 0.8-0.6 0.4-0.3 0.7-0.6 0.4-0.2 0.8-0.4 0.4-0.3 0.9-0.5 0.4-0.2 0.7-0.4 0.5-0.2 1-0.4 0.4-0.2 0.7-0.3 0.6-0.2 1.1-0.3 0.4-0.2 0.8-0.2 0.5-0.2 1-0.3 0.6-0.1 1.1-0.1 0.4-0.1 0.8-0.1 0.7-0.1 1.3-0.1 0.3 0 0.5 0c0 0 85.8 0 85.8 0q0.1 0 0.1 0 0.1 0 0.1 0zm-0.1 4h-85.9q-0.2 0-0.4 0-0.5 0-1 0-0.2 0.1-0.4 0.1h-0.3c-0.3 0.1-0.6 0.1-0.8 0.2q-0.4 0-0.7 0.1l-0.3 0.1q-0.2 0-0.5 0.1-0.4 0.1-0.8 0.3l-0.2 0.1q-0.2 0-0.4 0.1-0.4 0.2-0.8 0.3l-0.1 0.1q-0.2 0.1-0.5 0.2-0.3 0.2-0.7 0.4-0.3 0.2-0.6 0.4-0.3 0.2-0.6 0.4-0.3 0.3-0.6 0.5-0.3 0.2-0.5 0.4c-0.2 0.2-0.5 0.4-0.7 0.6q-0.1 0.1-0.3 0.3l-0.1 0.1q-0.3 0.4-0.6 0.7-0.2 0.2-0.3 0.4l-0.1 0.1c-0.2 0.3-0.4 0.5-0.5 0.7q-0.2 0.3-0.4 0.6l-0.1 0.1-0.1 0.2q-0.1 0.2-0.2 0.3-0.3 0.5-0.5 1-0.1 0.2-0.2 0.4l-0.1 0.2c0 0 0 0.1 0 0.2l-48.8 109.7c-3.5 7.9 0 17.1 7.9 20.6q3 1.4 6.3 1.4c6.2 0 11.8-3.7 14.3-9.3l27.7-62.4c0.7-1.5 2.2-2.4 3.7-2.4q0.7 0 1.3 0.2c2 0.7 3.1 2.8 2.6 4.8l-31.4 114c-0.3 1.1-0.1 2.4 0.6 3.3 0.7 1 1.9 1.6 3.1 1.6h25.1c2.3 0 4 1.7 4 4v115.8c0 8.6 7 15.6 15.7 15.6 8.6 0 15.6-7 15.6-15.6v-115.8c0-2.3 1.8-4 4-4h11.7c2.2 0 4 1.7 4 4v115.8c0 8.6 7 15.6 15.6 15.6 8.6 0 15.6-7 15.6-15.6v-115.8c0-2.3 1.8-4 4-4h25.2c1.2 0 2.3-0.6 3.1-1.6 0.7-0.9 0.9-2.2 0.6-3.3l-31.4-114c-0.5-2 0.6-4.1 2.5-4.8q0.7-0.2 1.4-0.2c1.5 0 3 0.9 3.6 2.4l27.8 62.4c2.5 5.6 8.1 9.3 14.3 9.3q3.3 0 6.3-1.4c3.8-1.7 6.7-4.7 8.2-8.6 1.5-3.9 1.4-8.2-0.3-12l-48.8-109.8q0 0-0.1-0.1v-0.2q-0.2-0.2-0.2-0.4-0.2-0.5-0.5-0.9-0.1-0.3-0.2-0.4l-0.2-0.2v-0.1q-0.2-0.3-0.4-0.6-0.2-0.4-0.5-0.7l-0.1-0.2q-0.2-0.1-0.3-0.3-0.3-0.3-0.6-0.7l-0.1-0.1q-0.2-0.1-0.3-0.3-0.4-0.3-0.7-0.6-0.3-0.2-0.5-0.4-0.3-0.3-0.7-0.5-0.2-0.2-0.5-0.4-0.3-0.2-0.7-0.4-0.3-0.2-0.6-0.4-0.3-0.1-0.7-0.3-0.3-0.1-0.7-0.3-0.3-0.1-0.6-0.2h-0.1q-0.3-0.2-0.7-0.3-0.4-0.1-0.8-0.2h-0.2q-0.2-0.1-0.5-0.1-0.4-0.1-0.9-0.2h-0.3q-0.1 0-0.2-0.1-0.7 0-1.3 0-0.1 0-0.3 0h-0.3v-4z"/><path class="b" d="m161.8 104.9c-18.4 0-33.4-15-33.4-33.4 0-18.4 15-33.4 33.4-33.4 18.5 0 33.4 15 33.4 33.4 0 18.4-14.9 33.4-33.4 33.4z"/><path fill-rule="evenodd" class="c" d="m197.2 71.5c0 19.5-15.8 35.4-35.4 35.4-19.5 0-35.4-15.9-35.4-35.4 0-19.6 15.9-35.4 35.4-35.4 19.6 0 35.4 15.8 35.4 35.4zm-66.8 0c0 17.3 14.1 31.4 31.4 31.4 17.4 0 31.4-14.1 31.4-31.4 0-17.3-14-31.4-31.4-31.4-17.3 0-31.4 14.1-31.4 31.4z"/><path class="d" d="m198.2 376.2c-0.4 0-0.8-0.2-1.1-0.4-0.3-0.3-0.4-0.7-0.4-1.1 0-0.4 0.1-0.8 0.4-1.1 0.6-0.5 1.6-0.5 2.1 0 0.3 0.3 0.5 0.7 0.5 1.1 0 0.4-0.2 0.8-0.5 1.1-0.3 0.2-0.6 0.4-1 0.4z"/><path class="d" d="m196.7 430c0-0.8 0.6-1.5 1.5-1.5 0.8 0 1.5 0.7 1.5 1.5 0 0.9-0.7 1.5-1.5 1.5-0.9 0-1.5-0.6-1.5-1.5zm0-7.9c0-0.8 0.6-1.5 1.5-1.5 0.8 0 1.5 0.7 1.5 1.5 0 0.9-0.7 1.5-1.5 1.5-0.9 0-1.5-0.6-1.5-1.5zm0-7.9c0-0.8 0.6-1.5 1.5-1.5 0.8 0 1.5 0.7 1.5 1.5 0 0.9-0.7 1.5-1.5 1.5-0.9 0-1.5-0.6-1.5-1.5zm0-7.9c0-0.8 0.6-1.5 1.5-1.5 0.8 0 1.5 0.7 1.5 1.5 0 0.9-0.7 1.5-1.5 1.5-0.9 0-1.5-0.6-1.5-1.5zm0-7.9c0-0.8 0.6-1.5 1.5-1.5 0.8 0 1.5 0.7 1.5 1.5 0 0.8-0.7 1.5-1.5 1.5-0.9 0-1.5-0.7-1.5-1.5zm0-7.9c0-0.8 0.6-1.5 1.5-1.5 0.8 0 1.5 0.7 1.5 1.5 0 0.8-0.7 1.5-1.5 1.5-0.9 0-1.5-0.7-1.5-1.5zm0-7.9c0-0.8 0.6-1.5 1.5-1.5 0.8 0 1.5 0.7 1.5 1.5 0 0.8-0.7 1.5-1.5 1.5-0.9 0-1.5-0.7-1.5-1.5z"/><path class="d" d="m198.2 439.5c-0.4 0-0.8-0.2-1.1-0.5-0.3-0.3-0.4-0.7-0.4-1.1 0-0.3 0.1-0.7 0.4-1 0.6-0.6 1.6-0.6 2.1 0 0.3 0.3 0.5 0.7 0.5 1 0 0.4-0.2 0.8-0.5 1.1-0.3 0.3-0.6 0.5-1 0.5z"/><path class="d" d="m191.8 396.3c-0.4 0-0.7-0.2-1-0.5-0.3-0.2-0.5-0.6-0.5-1 0-0.4 0.2-0.8 0.5-1.1 0.5-0.5 1.6-0.5 2.1 0 0.3 0.3 0.4 0.7 0.4 1.1 0 0.4-0.1 0.8-0.4 1-0.3 0.3-0.7 0.5-1.1 0.5z"/><path class="d" d="m190.3 426.3c0-0.9 0.7-1.5 1.5-1.5 0.9 0 1.5 0.6 1.5 1.5 0 0.8-0.6 1.5-1.5 1.5-0.8 0-1.5-0.7-1.5-1.5zm0-7.9c0-0.8 0.7-1.5 1.5-1.5 0.9 0 1.5 0.7 1.5 1.5 0 0.8-0.6 1.5-1.5 1.5-0.8 0-1.5-0.7-1.5-1.5zm0-7.9c0-0.8 0.7-1.5 1.5-1.5 0.9 0 1.5 0.7 1.5 1.5 0 0.8-0.6 1.5-1.5 1.5-0.8 0-1.5-0.7-1.5-1.5zm0-7.8c0-0.9 0.7-1.5 1.5-1.5 0.9 0 1.5 0.6 1.5 1.5 0 0.8-0.6 1.5-1.5 1.5-0.8 0-1.5-0.7-1.5-1.5z"/><path class="d" d="m191.8 435.6c-0.3 0-0.7-0.1-1-0.4-0.3-0.3-0.5-0.7-0.5-1.1 0-0.4 0.2-0.8 0.5-1 0.6-0.6 1.5-0.6 2.1 0 0.3 0.2 0.4 0.6 0.4 1 0 0.4-0.1 0.8-0.4 1.1-0.3 0.3-0.7 0.4-1.1 0.4z"/><path class="d" d="m207.2 301.3c0-0.9 0.7-1.5 1.5-1.5 0.9 0 1.5 0.6 1.5 1.5 0 0.8-0.6 1.5-1.5 1.5-0.8 0-1.5-0.7-1.5-1.5zm0-8c0-0.9 0.7-1.5 1.5-1.5 0.9 0 1.5 0.6 1.5 1.5 0 0.8-0.6 1.5-1.5 1.5-0.8 0-1.5-0.7-1.5-1.5z"/><path class="d" d="m216.6 301.3c0-0.9 0.7-1.5 1.5-1.5 0.8 0 1.5 0.6 1.5 1.5 0 0.8-0.7 1.5-1.5 1.5-0.8 0-1.5-0.7-1.5-1.5zm0-8c0-0.9 0.7-1.5 1.5-1.5 0.8 0 1.5 0.6 1.5 1.5 0 0.8-0.7 1.5-1.5 1.5-0.8 0-1.5-0.7-1.5-1.5zm0-8c0-0.9 0.7-1.5 1.5-1.5 0.8 0 1.5 0.6 1.5 1.5 0 0.8-0.7 1.5-1.5 1.5-0.8 0-1.5-0.7-1.5-1.5zm0-8c0-0.9 0.7-1.5 1.5-1.5 0.8 0 1.5 0.6 1.5 1.5 0 0.8-0.7 1.5-1.5 1.5-0.8 0-1.5-0.7-1.5-1.5z"/><path class="d" d="m224.9 301.3c0-0.9 0.6-1.5 1.5-1.5 0.8 0 1.5 0.6 1.5 1.5 0 0.8-0.7 1.5-1.5 1.5-0.9 0-1.5-0.7-1.5-1.5zm0-8c0-0.9 0.6-1.5 1.5-1.5 0.8 0 1.5 0.6 1.5 1.5 0 0.8-0.7 1.5-1.5 1.5-0.9 0-1.5-0.7-1.5-1.5z"/><path class="d" d="m173.7 90c0-0.9 0.6-1.5 1.5-1.5 0.8 0 1.5 0.6 1.5 1.5 0 0.8-0.7 1.5-1.5 1.5-0.9 0-1.5-0.7-1.5-1.5zm0-8c0-0.9 0.6-1.5 1.5-1.5 0.8 0 1.5 0.6 1.5 1.5 0 0.8-0.7 1.5-1.5 1.5-0.9 0-1.5-0.7-1.5-1.5zm0-8c0-0.9 0.6-1.5 1.5-1.5 0.8 0 1.5 0.6 1.5 1.5 0 0.8-0.7 1.5-1.5 1.5-0.9 0-1.5-0.7-1.5-1.5z"/><path class="d" d="m182 87.8c0-0.9 0.7-1.5 1.5-1.5 0.8 0 1.5 0.6 1.5 1.5 0 0.8-0.7 1.5-1.5 1.5-0.8 0-1.5-0.7-1.5-1.5zm0-8c0-0.9 0.7-1.5 1.5-1.5 0.8 0 1.5 0.6 1.5 1.5 0 0.8-0.7 1.5-1.5 1.5-0.8 0-1.5-0.7-1.5-1.5zm0-8c0-0.9 0.7-1.5 1.5-1.5 0.8 0 1.5 0.6 1.5 1.5 0 0.8-0.7 1.5-1.5 1.5-0.8 0-1.5-0.7-1.5-1.5zm0-8c0-0.9 0.7-1.5 1.5-1.5 0.8 0 1.5 0.6 1.5 1.5 0 0.8-0.7 1.5-1.5 1.5-0.8 0-1.5-0.7-1.5-1.5z"/><path class="d" d="m190.2 77.2c-0.4 0-0.8-0.2-1-0.5-0.3-0.3-0.5-0.6-0.5-1 0-0.4 0.2-0.8 0.5-1.1 0.5-0.6 1.5-0.6 2.1 0 0.3 0.3 0.4 0.7 0.4 1.1 0 0.3-0.1 0.7-0.4 1-0.3 0.3-0.7 0.5-1.1 0.5z"/><path class="d" d="m190.2 69.5c-0.4 0-0.8-0.2-1-0.5-0.3-0.3-0.5-0.7-0.5-1 0-0.4 0.2-0.8 0.5-1.1 0.5-0.6 1.5-0.6 2.1 0 0.3 0.3 0.4 0.7 0.4 1.1 0 0.3-0.1 0.7-0.4 1-0.3 0.3-0.7 0.5-1.1 0.5z"/><path class="d" d="m878.1 418.9c-9.7 0-17.6-7.9-17.6-17.6v-96.7c0-1.1-0.9-2-2-2h-11.8c-1.1 0-2 0.9-2 2v96.7c0 9.7-7.9 17.6-17.6 17.6-9.7 0-17.6-7.9-17.6-17.6v-249.4c0-1-0.8-1.8-1.8-1.9q-0.1-0.1-0.2-0.1c-0.9 0-1.7 0.7-1.9 1.6l-17.6 68.9c-2 7.8-9 13.3-17 13.3q-2.2 0-4.4-0.6c-9.4-2.4-15.1-12-12.7-21.4l28-110.2c0.1-0.1 0.1-0.3 0.1-0.4q0.2-0.4 0.4-1 0.1-0.3 0.2-0.6 0.2-0.5 0.4-0.9 0.2-0.4 0.3-0.7 0.2-0.4 0.5-0.8 0.2-0.4 0.4-0.8 0.2-0.3 0.5-0.6 0.2-0.4 0.5-0.8 0.3-0.3 0.5-0.6 0.3-0.3 0.6-0.6 0.3-0.3 0.6-0.6 0.3-0.3 0.6-0.6 0.4-0.3 0.7-0.5 0.3-0.3 0.6-0.5 0.4-0.3 0.9-0.5 0.2-0.2 0.5-0.4 0.5-0.3 1-0.5l0.5-0.3q0.5-0.2 1-0.4 0.3-0.1 0.6-0.2 0.5-0.1 1-0.3 0.4-0.1 0.7-0.2 0.5-0.1 0.9-0.1 0.4-0.1 0.9-0.2 0.4 0 0.8-0.1 0.5 0 1 0c0.1 0 0.3 0 0.3 0h107.3c0 0 0.3 0 0.4 0q0.5 0 1.1 0 0.3 0.1 0.6 0.1 0.6 0.1 1 0.2 0.4 0 0.8 0.1 0.4 0.1 0.9 0.2 0.4 0.2 0.8 0.3 0.4 0.1 0.7 0.3 0.5 0.1 0.9 0.3l0.6 0.3c0.4 0.2 0.7 0.3 1 0.5q0.2 0.2 0.5 0.3c0.3 0.2 0.6 0.4 0.9 0.6q0.3 0.2 0.6 0.5 0.3 0.2 0.6 0.5 0.4 0.3 0.7 0.6c0.2 0.2 0.4 0.4 0.6 0.6q0.3 0.3 0.6 0.7 0.3 0.3 0.5 0.5 0.3 0.4 0.6 0.8 0.2 0.3 0.4 0.6 0.2 0.4 0.4 0.8 0.3 0.4 0.5 0.7 0.1 0.4 0.3 0.8 0.2 0.4 0.4 0.9 0.1 0.3 0.2 0.7 0.2 0.5 0.4 1c0 0 0 0.2 0 0.2l28.1 110.3c2.4 9.4-3.3 19-12.7 21.4q-2.2 0.6-4.4 0.6c-8 0-15-5.5-17-13.3l-17.6-68.9c-0.2-0.9-1-1.5-1.9-1.5q-0.1 0-0.2 0c-1 0.1-1.8 1-1.8 2v249.3c0 9.7-7.9 17.6-17.6 17.6z"/><path fill-rule="evenodd" class="c" d="m906.6 86.3q0.6 0 1.2 0 0.4 0.1 0.8 0.1 0.6 0.1 1.1 0.2 0.4 0.1 0.9 0.2 0.4 0.1 0.9 0.2 0.5 0.1 1 0.3 0.4 0.1 0.8 0.3 0.5 0.2 1 0.4 0.3 0.2 0.7 0.3 0.5 0.3 0.9 0.6 0.4 0.2 0.7 0.4 0.5 0.3 0.9 0.6 0.4 0.2 0.7 0.5 0.4 0.3 0.7 0.6 0.4 0.3 0.8 0.7 0.3 0.3 0.6 0.6 0.4 0.3 0.7 0.8 0.3 0.3 0.5 0.6 0.4 0.4 0.7 0.8 0.2 0.4 0.5 0.7 0.2 0.5 0.5 0.9 0.2 0.4 0.4 0.8 0.2 0.4 0.4 0.8 0.3 0.5 0.5 1 0.1 0.4 0.2 0.8 0.2 0.6 0.4 1.1 0.1 0.2 0.1 0.4l28.1 110.2c2.6 10.5-3.7 21.2-14.2 23.9q-2.4 0.6-4.9 0.6c-8.7 0-16.7-5.9-18.9-14.8l-17.6-68.9v249.3c0 10.8-8.8 19.6-19.6 19.6-10.8 0-19.6-8.8-19.6-19.6v-96.7h-11.8v96.7c0 10.8-8.8 19.6-19.6 19.6-10.8 0-19.6-8.8-19.6-19.6v-249.4l-17.6 69c-2.2 8.9-10.2 14.8-18.9 14.8q-2.5 0-4.9-0.6c-10.5-2.7-16.8-13.4-14.2-23.9l28.1-110.2q0.1-0.2 0.1-0.4 0.2-0.5 0.4-1.1 0.1-0.4 0.2-0.8 0.2-0.5 0.5-1 0.2-0.4 0.4-0.8 0.2-0.4 0.4-0.8 0.3-0.4 0.5-0.9 0.3-0.3 0.5-0.7 0.3-0.4 0.7-0.8 0.2-0.3 0.5-0.7 0.3-0.4 0.7-0.7 0.3-0.3 0.6-0.7 0.4-0.3 0.7-0.6 0.4-0.3 0.8-0.6 0.3-0.3 0.7-0.5 0.4-0.3 0.9-0.6 0.3-0.2 0.6-0.4 0.5-0.3 1.1-0.6 0.3-0.1 0.6-0.3 0.5-0.2 1.1-0.4 0.3-0.2 0.7-0.3 0.5-0.2 1-0.3 0.5-0.1 0.9-0.2 0.5-0.1 0.9-0.2 0.5-0.1 1.1-0.2 0.4 0 0.8-0.1 0.6 0 1.2 0 0.2 0 0.4 0h107.2q0.2 0 0.4 0zm-107.6 4q-0.1 0-0.3 0-0.5 0-1 0-0.3 0.1-0.6 0.1-0.5 0.1-0.9 0.1-0.3 0.1-0.7 0.2-0.3 0.1-0.7 0.2-0.4 0.1-0.8 0.2-0.3 0.1-0.5 0.2-0.5 0.2-1 0.4-0.2 0.1-0.4 0.2-0.4 0.2-0.9 0.4-0.2 0.2-0.5 0.4-0.3 0.2-0.7 0.4-0.3 0.2-0.5 0.4-0.4 0.3-0.7 0.6-0.2 0.2-0.5 0.4-0.3 0.3-0.6 0.6c-0.1 0.1-0.3 0.4-0.5 0.6q-0.2 0.2-0.4 0.5-0.3 0.3-0.5 0.7-0.2 0.2-0.4 0.5-0.2 0.3-0.4 0.7-0.2 0.3-0.4 0.7-0.1 0.3-0.3 0.6-0.2 0.4-0.3 0.8-0.2 0.3-0.2 0.6-0.2 0.4-0.3 0.9c-0.1 0.1-0.1 0.2-0.1 0.4l-28.1 110.1c-2.1 8.4 3 16.9 11.3 19q1.9 0.5 3.9 0.5c7.1 0 13.3-4.9 15.1-11.8l17.5-68.9c0.5-1.8 2.1-3.1 3.9-3.1q0.2 0 0.5 0.1c2 0.2 3.5 1.9 3.5 3.9v249.4c0 8.6 7 15.6 15.6 15.6 8.6 0 15.6-7 15.6-15.6v-96.7c0-2.2 1.8-4 4-4h11.8c2.2 0 4 1.8 4 4v96.7c0 8.6 7 15.6 15.6 15.6 8.6 0 15.6-7 15.6-15.6v-249.3c0-2.1 1.5-3.8 3.5-4q0.3 0 0.5 0c1.8 0 3.4 1.2 3.9 3l17.5 68.9c1.8 6.9 8 11.8 15.1 11.8q2 0 3.9-0.5c8.4-2.1 13.4-10.6 11.3-19l-28-110.1q-0.1-0.2-0.2-0.4-0.1-0.5-0.2-0.9-0.2-0.3-0.3-0.6-0.1-0.4-0.3-0.8-0.2-0.3-0.3-0.7-0.2-0.3-0.4-0.6-0.2-0.4-0.4-0.7-0.2-0.3-0.4-0.5-0.2-0.4-0.5-0.7-0.2-0.3-0.4-0.5-0.3-0.4-0.6-0.7-0.2-0.2-0.4-0.4l-0.1-0.1q-0.2-0.2-0.5-0.5-0.3-0.2-0.6-0.4-0.3-0.3-0.6-0.5-0.3-0.2-0.7-0.4l-0.1-0.1q-0.2-0.1-0.4-0.3-0.4-0.2-0.8-0.4h-0.1q-0.3-0.1-0.5-0.2-0.4-0.2-0.8-0.4-0.3-0.1-0.6-0.2-0.4-0.1-0.8-0.2-0.4-0.1-0.7-0.2-0.4-0.1-0.7-0.2-0.5 0-0.9-0.1-0.3 0-0.6-0.1-0.5 0-1 0-0.2 0-0.4 0z"/><path class="d" d="m852.6 73.9c-18.4 0-33.4-15-33.4-33.4 0-18.4 15-33.4 33.4-33.4 18.4 0 33.4 15 33.4 33.4 0 18.4-15 33.4-33.4 33.4z"/><path fill-rule="evenodd" class="c" d="m888 40.5c0 19.5-15.8 35.4-35.4 35.4-19.6 0-35.4-15.9-35.4-35.4 0-19.6 15.8-35.4 35.4-35.4 19.6 0 35.4 15.8 35.4 35.4zm-66.8 0c0 17.3 14.1 31.4 31.4 31.4 17.3 0 31.4-14.1 31.4-31.4 0-17.3-14.1-31.4-31.4-31.4-17.3 0-31.4 14.1-31.4 31.4z"/><path class="b" d="m888.2 345.2c-0.4 0-0.7-0.2-1-0.4-0.3-0.3-0.5-0.7-0.5-1.1 0-0.4 0.2-0.8 0.5-1.1 0.6-0.5 1.5-0.5 2.1 0 0.3 0.3 0.4 0.7 0.4 1.1 0 0.4-0.1 0.8-0.4 1.1-0.3 0.2-0.7 0.4-1.1 0.4z"/><path class="b" d="m886.7 399c0-0.8 0.7-1.5 1.5-1.5 0.9 0 1.5 0.7 1.5 1.5 0 0.9-0.6 1.5-1.5 1.5-0.8 0-1.5-0.6-1.5-1.5zm0-7.9c0-0.8 0.7-1.5 1.5-1.5 0.9 0 1.5 0.7 1.5 1.5 0 0.9-0.6 1.5-1.5 1.5-0.8 0-1.5-0.6-1.5-1.5zm0-7.9c0-0.8 0.7-1.5 1.5-1.5 0.9 0 1.5 0.7 1.5 1.5 0 0.9-0.6 1.5-1.5 1.5-0.8 0-1.5-0.6-1.5-1.5zm0-7.9c0-0.8 0.7-1.5 1.5-1.5 0.9 0 1.5 0.7 1.5 1.5 0 0.9-0.6 1.5-1.5 1.5-0.8 0-1.5-0.6-1.5-1.5zm0-7.9c0-0.8 0.7-1.5 1.5-1.5 0.9 0 1.5 0.7 1.5 1.5 0 0.8-0.6 1.5-1.5 1.5-0.8 0-1.5-0.7-1.5-1.5zm0-7.9c0-0.8 0.7-1.5 1.5-1.5 0.9 0 1.5 0.7 1.5 1.5 0 0.8-0.6 1.5-1.5 1.5-0.8 0-1.5-0.7-1.5-1.5zm0-7.9c0-0.8 0.7-1.5 1.5-1.5 0.9 0 1.5 0.7 1.5 1.5 0 0.8-0.6 1.5-1.5 1.5-0.8 0-1.5-0.7-1.5-1.5z"/><path class="b" d="m888.2 408.5c-0.4 0-0.7-0.2-1-0.5-0.3-0.3-0.5-0.7-0.5-1.1 0-0.3 0.2-0.7 0.5-1 0.5-0.6 1.5-0.6 2.1 0 0.3 0.3 0.4 0.7 0.4 1 0 0.4-0.1 0.8-0.4 1.1-0.3 0.3-0.7 0.5-1.1 0.5z"/><path class="b" d="m881.9 365.3c-0.4 0-0.7-0.2-1-0.5-0.3-0.2-0.5-0.6-0.5-1 0-0.4 0.2-0.8 0.5-1.1 0.5-0.5 1.5-0.5 2.1 0 0.3 0.3 0.4 0.7 0.4 1.1 0 0.4-0.1 0.8-0.4 1-0.3 0.3-0.7 0.5-1.1 0.5z"/><path class="b" d="m880.4 395.3c0-0.9 0.7-1.5 1.5-1.5 0.9 0 1.5 0.6 1.5 1.5 0 0.8-0.6 1.5-1.5 1.5-0.8 0-1.5-0.7-1.5-1.5zm0-7.9c0-0.8 0.7-1.5 1.5-1.5 0.9 0 1.5 0.7 1.5 1.5 0 0.8-0.6 1.5-1.5 1.5-0.8 0-1.5-0.7-1.5-1.5zm0-7.9c0-0.8 0.7-1.5 1.5-1.5 0.9 0 1.5 0.7 1.5 1.5 0 0.8-0.6 1.5-1.5 1.5-0.8 0-1.5-0.7-1.5-1.5zm0-7.8c0-0.9 0.7-1.5 1.5-1.5 0.9 0 1.5 0.6 1.5 1.5 0 0.8-0.6 1.5-1.5 1.5-0.8 0-1.5-0.7-1.5-1.5z"/><path class="b" d="m881.9 404.6c-0.4 0-0.7-0.1-1-0.4-0.3-0.3-0.5-0.7-0.5-1.1 0-0.4 0.2-0.8 0.5-1 0.5-0.6 1.5-0.6 2.1 0 0.3 0.3 0.4 0.6 0.4 1 0 0.4-0.1 0.8-0.4 1.1-0.3 0.3-0.7 0.4-1.1 0.4z"/><path class="b" d="m863.2 59c0-0.9 0.7-1.5 1.5-1.5 0.9 0 1.5 0.6 1.5 1.5 0 0.8-0.6 1.5-1.5 1.5-0.8 0-1.5-0.7-1.5-1.5zm0-8c0-0.9 0.7-1.5 1.5-1.5 0.9 0 1.5 0.6 1.5 1.5 0 0.8-0.6 1.5-1.5 1.5-0.8 0-1.5-0.7-1.5-1.5zm0-8c0-0.9 0.7-1.5 1.5-1.5 0.9 0 1.5 0.6 1.5 1.5 0 0.8-0.6 1.5-1.5 1.5-0.8 0-1.5-0.7-1.5-1.5z"/><path class="b" d="m871.6 56.8c0-0.9 0.6-1.5 1.5-1.5 0.8 0 1.5 0.6 1.5 1.5 0 0.8-0.7 1.5-1.5 1.5-0.9 0-1.5-0.7-1.5-1.5zm0-8c0-0.9 0.6-1.5 1.5-1.5 0.8 0 1.5 0.6 1.5 1.5 0 0.8-0.7 1.5-1.5 1.5-0.9 0-1.5-0.7-1.5-1.5zm0-8c0-0.9 0.6-1.5 1.5-1.5 0.8 0 1.5 0.6 1.5 1.5 0 0.8-0.7 1.5-1.5 1.5-0.9 0-1.5-0.7-1.5-1.5zm0-8c0-0.9 0.6-1.5 1.5-1.5 0.8 0 1.5 0.6 1.5 1.5 0 0.8-0.7 1.5-1.5 1.5-0.9 0-1.5-0.7-1.5-1.5z"/><path class="b" d="m879.8 46.2c-0.4 0-0.8-0.2-1.1-0.5-0.3-0.3-0.4-0.6-0.4-1 0-0.4 0.1-0.8 0.4-1.1 0.6-0.6 1.6-0.6 2.1 0 0.3 0.3 0.5 0.7 0.5 1.1 0 0.4-0.2 0.7-0.5 1-0.2 0.3-0.6 0.5-1 0.5z"/><path class="b" d="m879.8 38.5c-0.4 0-0.8-0.2-1.1-0.5-0.3-0.3-0.4-0.7-0.4-1 0-0.4 0.1-0.8 0.4-1.1 0.6-0.6 1.6-0.6 2.1 0 0.3 0.3 0.5 0.7 0.5 1.1 0 0.3-0.2 0.7-0.5 1-0.2 0.3-0.6 0.5-1 0.5z"/><path class="b" d="m943.2 220.5c0-0.8 0.6-1.5 1.5-1.5 0.8 0 1.5 0.7 1.5 1.5 0 0.9-0.7 1.5-1.5 1.5-0.9 0-1.5-0.6-1.5-1.5zm0-8c0-0.8 0.6-1.5 1.5-1.5 0.8 0 1.5 0.7 1.5 1.5 0 0.9-0.7 1.5-1.5 1.5-0.9 0-1.5-0.6-1.5-1.5z"/><path class="b" d="m936.7 216.5c0-0.8 0.7-1.5 1.5-1.5 0.9 0 1.5 0.7 1.5 1.5 0 0.9-0.6 1.5-1.5 1.5-0.8 0-1.5-0.6-1.5-1.5zm0-8c0-0.8 0.7-1.5 1.5-1.5 0.9 0 1.5 0.7 1.5 1.5 0 0.9-0.6 1.5-1.5 1.5-0.8 0-1.5-0.6-1.5-1.5zm0-8c0-0.8 0.7-1.5 1.5-1.5 0.9 0 1.5 0.7 1.5 1.5 0 0.9-0.6 1.5-1.5 1.5-0.8 0-1.5-0.6-1.5-1.5zm0-8c0-0.8 0.7-1.5 1.5-1.5 0.9 0 1.5 0.7 1.5 1.5 0 0.9-0.6 1.5-1.5 1.5-0.8 0-1.5-0.6-1.5-1.5z"/></svg>