<?xml version="1.0" encoding="utf-8"?>
<!-- Generator: Adobe Illustrator 27.2.0, SVG Export Plug-In . SVG Version: 6.00 Build 0)  -->
<svg version="1.1" xmlns="http://www.w3.org/2000/svg" xmlns:xlink="http://www.w3.org/1999/xlink" x="0px" y="0px"
	 viewBox="0 0 251 277.61" style="enable-background:new 0 0 251 277.61;" xml:space="preserve">
<style type="text/css">
	.st0{fill:#FFFFFF;}
	.st1{fill:#2D2D4A;}
</style>
<g id="BACKGROUND">
	<rect x="-114" y="-117" class="st0" width="500" height="500"/>
</g>
<g id="OBJECTS">
	<g>
		<path class="st1" d="M136.15,124.94c-0.08-2.38-0.69-4.8-2.18-6.65c-1.68-2.08-4.48-2.86-6.87-1.49c-1.48,0.84-0.14,3.1,1.34,2.25
			c1.28-0.73,2.39-0.24,3.21,0.64c-1.04-0.18-1.9,0.09-2.6,0.64c-0.07,0.04-0.15,0.06-0.22,0.11c-0.73,0.46-1.1,1.09-1.2,1.75
			c-0.49,1.01-0.77,2.16-0.84,3.19c-0.16,2.32,0.26,4.71,1.51,6.65c0.55,1.19,1.31,2.34,2.54,2.88c1.68,0.74,3.47,0.08,4.42-1.45
			C136.69,131.18,136.83,127.74,136.15,124.94z"/>
		<path class="st1" d="M98.95,124.94c-0.08-2.38-0.69-4.8-2.18-6.65c-1.68-2.08-4.48-2.86-6.87-1.49c-1.48,0.84-0.14,3.1,1.34,2.25
			c1.28-0.73,2.39-0.24,3.21,0.64c-1.04-0.18-1.9,0.09-2.6,0.64c-0.07,0.04-0.15,0.06-0.22,0.11c-0.73,0.46-1.1,1.09-1.2,1.75
			c-0.49,1.01-0.77,2.16-0.84,3.19c-0.16,2.32,0.26,4.71,1.51,6.65c0.55,1.19,1.31,2.34,2.54,2.88c1.68,0.74,3.47,0.08,4.42-1.45
			C99.49,131.18,99.63,127.74,98.95,124.94z"/>
		<g>
			<g>
				<path class="st1" d="M99.39,161.12c1.21-1.42,3.12-2.55,5.02-2.52c1.4,0.02,2.68,0.68,4.11,0.61c1.06-0.06,2.06-0.37,3.08-0.64
					c1.33-0.35,2.64-0.53,4.01-0.3c1.78,0.29,3.45,0.88,5.28,0.92c2.73,0.06,5.46-0.71,7.64-2.38c0.68-0.52,0.01-1.69-0.68-1.16
					c-2.54,1.95-5.75,2.54-8.88,2.02c-1.65-0.28-3.2-0.88-4.9-0.84c-1.23,0.03-2.4,0.35-3.58,0.67c-1.23,0.33-2.41,0.53-3.67,0.22
					c-1.38-0.34-2.59-0.59-4.01-0.24c-1.64,0.4-3.27,1.43-4.37,2.72C97.88,160.83,98.83,161.78,99.39,161.12L99.39,161.12z"/>
			</g>
		</g>
		<g>
			<g>
				<path class="st1" d="M102.49,161.86c1.5,0.51,3.13,0.73,4.69,0.87c3.57,0.31,7.19-0.14,10.56-1.37c0.81-0.3,0.46-1.6-0.36-1.3
					c-4.48,1.64-9.94,2.06-14.53,0.5C102.03,160.28,101.67,161.58,102.49,161.86L102.49,161.86z"/>
			</g>
		</g>
		<g>
			<g>
				<path class="st1" d="M86.51,66.32c-1.26,2.99-2.12,6.2-2.85,9.36c-1.68,7.3-2.38,14.87-1.81,22.35c0.17,2.2,0.44,4.4,0.83,6.58
					c0.36,2.02,0.45,4.06,0.54,6.11c0.19,4.02,0.25,8.04,0.22,12.06c-0.05,6.98-0.28,14.02-1.16,20.95
					c-0.22,1.75-0.83,3.58-0.69,5.35c0.13,1.7,0.68,3.36,1.3,4.94c1.88,4.73,4.65,9.13,7.7,13.18c3.51,4.65,7.54,8.96,12.21,12.45
					c4.12,3.07,9.01,5.63,14.24,5.86c3.85,0.16,7.82-0.46,11.58-1.2c3.84-0.76,7.61-1.82,11.31-3.08c4.77-1.63,9.47-3.57,13.95-5.88
					c0.23-0.12,0.46-0.24,0.69-0.37c0.76-0.41,0.08-1.58-0.68-1.16c-3.12,1.7-6.42,3.12-9.72,4.42c-6.96,2.74-14.28,4.89-21.75,5.66
					c-2.99,0.31-5.98,0.48-8.92-0.28c-2.55-0.66-4.95-1.81-7.18-3.19c-4.85-3-9.02-7.09-12.64-11.46
					c-3.37-4.07-6.39-8.54-8.65-13.34c-0.8-1.71-1.53-3.48-1.92-5.33c-0.33-1.53-0.07-2.76,0.18-4.28
					c1.01-6.19,1.26-12.53,1.42-18.79c0.1-3.88,0.1-7.76,0.01-11.63c-0.09-3.77-0.09-7.62-0.76-11.34
					c-2.18-12.14-0.86-25.45,3.59-36.99c0.08-0.2,0.15-0.39,0.23-0.59C88.14,65.88,86.84,65.53,86.51,66.32L86.51,66.32z"/>
			</g>
		</g>
		<g>
			<g>
				<path class="st1" d="M40.07,257.01c4.87-5.15,9.82-10.23,14.83-15.25c3.86-3.86,7.76-7.69,11.78-11.39
					c1.62-1.49,3.27-2.97,4.97-4.37c1.18-0.97,2.41-2.01,3.78-2.71c3.69-1.86,8.35-2.16,12.38-2.56c5.81-0.58,11.66-0.83,17.49-1.1
					c5.38-0.26,10.78-0.45,16.13-1.06c3.57-0.4,7.06-0.96,10.1-2.99c8.82-5.87,8.93-18.74,8.47-28.13c-0.11-2.2-0.29-4.39-0.51-6.58
					c-0.09-0.85-1.43-0.86-1.35,0c0.71,7.1,1.17,14.51-0.27,21.55c-0.86,4.19-2.53,8.37-5.91,11.17c-2.77,2.3-6.07,3.07-9.55,3.52
					c-5.18,0.66-10.41,0.86-15.62,1.11c-5.78,0.28-11.58,0.51-17.35,1.02c-4.4,0.39-9.08,0.75-13.26,2.28
					c-3.16,1.16-5.76,3.68-8.24,5.88c-3.92,3.47-7.68,7.13-11.4,10.81c-5.8,5.74-11.59,11.54-17.14,17.53
					c-0.1,0.11-0.2,0.21-0.3,0.32C38.52,256.69,39.47,257.64,40.07,257.01L40.07,257.01z"/>
			</g>
		</g>
		<g>
			<g>
				<path class="st1" d="M88.87,53.09c-1.12,2.66-1.74,5.6-2.13,8.44c-0.81,5.89-0.31,11.98,2.15,17.45
					c1.75,3.88,4.46,7.22,7.73,9.92c0.53,0.44,1.24,0.02,1.12-0.65c-0.36-2.07-0.6-4.16-0.76-6.25c-0.22-2.84-0.69-6.62,0.7-9.24
					c-0.42-0.11-0.84-0.23-1.25-0.34c0.18,5.39,1.96,10.93,4.2,15.78c5.16,11.13,14.67,19.31,26.15,23.47
					c4.04,1.47,8.25,2.45,12.5,3.06c2.36,0.34,4.74,0.58,7.12,0.71c1.28,0.07,2.55,0.12,3.83,0.13c0.69,0.01,1.39,0.01,2.08,0.01
					c0.26,0,0.51,0,0.77-0.01c0,0,1.22-0.05,0.7-0.21c0.31,0.09,0.73,0.69,0.95,0.9c0.82,0.79,1.62,1.6,2.4,2.42
					c2.54,2.65,4.95,5.43,7.2,8.33c5.96,7.69,11.33,16.67,12.75,26.44c1.02,7-1.49,13.59-4.39,19.85
					c-7.46,16.08-17.98,30.68-24.08,47.41c-2.58,7.07-4.46,14.9-2.97,22.43c1.58,8.01,6.15,16.11,13.5,20.07
					c5.93,3.2,12.71,3.5,19.27,4.14c2.83,0.28,5.66,0.65,8.33,1.67c2.86,1.1,5.83,1.87,8.86,2.36c6.77,1.09,14.22,1.05,20.54-1.92
					c3.04-1.43,5.68-3.65,7.45-6.53c0.93-1.52,1.61-3.19,2.05-4.91c0.52-2.05,0.58-4.12,0.85-6.2c1.11-8.45,5.4-16.13,9.22-23.6
					c4.19-8.2,8.21-16.63,9.59-25.83c1.58-10.5-0.68-20.86-4.47-30.66c-3.49-9.03-8.35-17.41-12.43-26.17
					c-4.13-8.89-7.01-18.24-6.95-28.12c0.04-6.95,1.74-13.74,2.12-20.67c0.61-11.26-0.73-22.78-4.63-33.39
					c-4.32-11.75-11.9-22.03-22.25-29.15c-13.78-9.48-30.88-12.69-47.34-12.86c-10.82-0.11-21.76,0.89-32.35,3.12
					c-8.46,1.78-16.82,4.48-24.41,8.66c-11.11,6.12-19.85,15.57-24.23,27.55c-3.72,10.17-4.25,21.23-3.35,31.93
					c0.95,11.38,3.83,22.49,4.73,33.87c0.82,10.4,0.28,21.08-3.13,31.01c-1.7,4.95-4.14,9.63-7.25,13.84
					c-1.7,2.3-3.62,4.44-5.68,6.42c-1.8,1.72-3.81,3.22-5.53,5.03c-11.69,12.37-10.27,32.11-5.32,47.11
					c1.73,5.25,3.98,11.11,7.86,15.19c0.6,0.63,1.55-0.32,0.95-0.95c-1.74-1.82-3.02-4.09-4.14-6.33c-1.58-3.14-2.84-6.44-3.86-9.8
					c-2.4-7.86-3.63-16.25-2.84-24.46c0.83-8.52,4.2-16.59,10.84-22.19c8.02-6.76,13.88-15.47,16.92-25.53
					c2.97-9.83,3.33-20.28,2.43-30.45c-0.56-6.4-1.75-12.69-2.82-19.01c-1.63-9.65-2.72-19.46-1.91-29.25
					c0.93-11.2,4.6-22.18,11.99-30.8c10.12-11.81,25.26-17.73,40.16-20.74c10.62-2.14,21.58-3.07,32.41-2.84
					c9.01,0.19,18.05,1.31,26.7,3.92c13.07,3.94,24.86,11.56,32.75,22.83c6.69,9.55,10.35,20.96,11.6,32.49
					c0.58,5.36,0.67,10.77,0.3,16.14c-0.49,7.15-2.22,14.13-2.01,21.34c0.29,9.52,3.24,18.51,7.25,27.08
					c4.07,8.71,8.92,17.05,12.35,26.05c3.75,9.85,5.93,20.26,4.06,30.77c-1.61,9.06-5.72,17.3-9.87,25.42
					c-3.69,7.21-7.63,14.63-8.73,22.77c-0.28,2.05-0.32,4.1-0.84,6.12c-0.47,1.85-1.23,3.62-2.3,5.2c-1.88,2.78-4.71,4.77-7.82,5.97
					c-6.44,2.5-13.89,2.23-20.55,0.83c-2.87-0.6-5.51-1.73-8.31-2.52c-2.78-0.78-5.69-1.03-8.56-1.29
					c-6.56-0.59-13.36-1.2-18.96-5.01c-3.39-2.31-5.95-5.61-7.78-9.26c-1.95-3.87-3.35-8.14-3.55-12.48
					c-0.38-7.89,2.28-15.74,5.34-22.89c3.54-8.28,7.98-16.15,12.36-24c4.02-7.19,8.17-14.39,11.32-22.02
					c1.24-3.02,2.34-6.15,2.88-9.38c0.6-3.59,0.24-7.18-0.59-10.72c-2.15-9.15-7.31-17.44-13.08-24.74
					c-2.21-2.79-4.56-5.48-7.04-8.03c-0.9-0.93-1.87-2.2-2.96-2.91c-0.78-0.5-2.47-0.16-3.37-0.17c-1.42,0-2.83-0.04-4.24-0.11
					c-2.45-0.12-4.89-0.33-7.31-0.68c-4.17-0.59-8.31-1.54-12.28-2.95c-6.33-2.24-12.22-5.72-17-10.46
					c-6.38-6.32-10.57-14.67-12.22-23.47c-0.26-1.42-0.48-2.7-0.53-4.16c-0.02-0.64-0.93-0.95-1.25-0.34
					c-1.48,2.8-1.12,6.6-0.9,9.64c0.17,2.3,0.44,4.61,0.83,6.89c0.37-0.22,0.75-0.44,1.12-0.65c-5.45-4.5-8.91-10.69-9.67-17.73
					c-0.51-4.7,0.03-9.5,1.34-14.03c0.27-0.92,0.55-1.85,0.93-2.73C90.51,52.66,89.2,52.31,88.87,53.09L88.87,53.09z"/>
			</g>
		</g>
		<g>
			<g>
				<path class="st1" d="M88.87,218.53c-1.97,9.2-5.05,18.36-8.98,26.9c-1.71,3.72-3.65,7.35-5.92,10.77
					c-0.48,0.72,0.68,1.4,1.16,0.68c6.95-10.47,11.23-22.81,14.3-34.93c0.26-1.02,0.51-2.03,0.73-3.06
					C90.35,218.04,89.05,217.68,88.87,218.53L88.87,218.53z"/>
			</g>
		</g>
		<g>
			<g>
				<path class="st1" d="M147.86,248.06c-3.34,0.85-6.84,1.23-10.26,1.58c-10.4,1.08-20.9,1.14-31.33,0.7
					c-9.1-0.38-18.19-1.2-27.23-2.31c-0.86-0.11-0.85,1.24,0,1.35c14.49,1.78,29.11,2.82,43.72,2.5c7.39-0.16,14.83-0.62,22.13-1.86
					c1.11-0.19,2.23-0.38,3.33-0.66C149.06,249.14,148.7,247.84,147.86,248.06L147.86,248.06z"/>
			</g>
		</g>
		<g>
			<g>
				<path class="st1" d="M106.19,128.03c-2.13,4.56-4.17,9.21-5.83,13.97c-0.65,1.85-0.98,3.8,1.01,4.93
					c1.62,0.92,3.73,0.94,5.53,0.87c1.44-0.05,2.89-0.2,4.31-0.47c0.85-0.16,0.49-1.46-0.36-1.3c-2.55,0.48-5.66,0.86-8.16,0.01
					c-0.58-0.2-1.23-0.52-1.47-1.12c-0.33-0.82,0.17-1.81,0.43-2.57c1-2.87,2.17-5.68,3.38-8.47c0.75-1.73,1.52-3.46,2.32-5.18
					C107.72,127.93,106.56,127.24,106.19,128.03L106.19,128.03z"/>
			</g>
		</g>
		<g>
			<g>
				<path class="st1" d="M177.06,152.34c-1.14,1.61-2.41,3.13-3.71,4.61c-2.65,3.02-5.55,5.89-8.87,8.17
					c-0.71,0.49-0.04,1.65,0.68,1.16c3.42-2.34,6.42-5.27,9.14-8.38c1.37-1.57,2.71-3.18,3.92-4.88
					C178.72,152.31,177.56,151.64,177.06,152.34L177.06,152.34z"/>
			</g>
		</g>
		<g>
			<g>
				<path class="st1" d="M88.61,111.35c0.98-1.01,2.27-1.84,3.57-2.33c1.15-0.43,2.4-0.64,3.62-0.39c1.7,0.35,3.06,1.43,4.18,2.71
					c0.57,0.65,1.52-0.3,0.95-0.95c-1.21-1.39-2.73-2.57-4.55-3.01c-1.43-0.35-2.93-0.23-4.31,0.25c-1.62,0.56-3.22,1.53-4.41,2.76
					C87.06,111.02,88.01,111.98,88.61,111.35L88.61,111.35z"/>
			</g>
		</g>
	</g>
</g>
<g id="DESIGNED_BY_FREEPIK">
</g>
</svg>
